%TF.GenerationSoftware,KiCad,Pcbnew,8.0.1*%
%TF.CreationDate,2024-10-15T00:35:35+02:00*%
%TF.ProjectId,InsuDos,496e7375-446f-4732-9e6b-696361645f70,rev?*%
%TF.SameCoordinates,Original*%
%TF.FileFunction,Profile,NP*%
%FSLAX46Y46*%
G04 Gerber Fmt 4.6, Leading zero omitted, Abs format (unit mm)*
G04 Created by KiCad (PCBNEW 8.0.1) date 2024-10-15 00:35:35*
%MOMM*%
%LPD*%
G01*
G04 APERTURE LIST*
%TA.AperFunction,Profile*%
%ADD10C,0.250000*%
%TD*%
G04 APERTURE END LIST*
D10*
X51700000Y-155200000D02*
X50700000Y-156200000D01*
X22500000Y-169500000D02*
X26800000Y-173800000D01*
X80000000Y-156200000D02*
X64400000Y-156200000D01*
X50700000Y-156200000D02*
X45050000Y-156200000D01*
X69800000Y-173800000D02*
X64300000Y-173800000D01*
X45050000Y-156200000D02*
X45050000Y-161700000D01*
X22500000Y-161750000D02*
X22500000Y-169500000D01*
X64300000Y-173800000D02*
X63100000Y-175000000D01*
X22500000Y-161750000D02*
X26000000Y-161750000D01*
X80000000Y-175000000D02*
X71000000Y-175000000D01*
X71000000Y-175000000D02*
X69800000Y-173800000D01*
X63100000Y-175000000D02*
X52000000Y-175000000D01*
X41800000Y-156200000D02*
X26000000Y-156200000D01*
X63400000Y-155200000D02*
X51700000Y-155200000D01*
X50800000Y-173800000D02*
X26800000Y-173800000D01*
X80000000Y-156200000D02*
X80000000Y-175000000D01*
X63400000Y-155200000D02*
X64400000Y-156200000D01*
X41800000Y-156200000D02*
X41800000Y-161700000D01*
X45050000Y-161700000D02*
X41800000Y-161700000D01*
X26000000Y-161750000D02*
X26000000Y-156200000D01*
X52000000Y-175000000D02*
X50800000Y-173800000D01*
M02*
