%TF.GenerationSoftware,KiCad,Pcbnew,8.0.1*%
%TF.CreationDate,2024-10-15T00:35:35+02:00*%
%TF.ProjectId,InsuDos,496e7375-446f-4732-9e6b-696361645f70,rev?*%
%TF.SameCoordinates,Original*%
%TF.FileFunction,Copper,L1,Top*%
%TF.FilePolarity,Positive*%
%FSLAX46Y46*%
G04 Gerber Fmt 4.6, Leading zero omitted, Abs format (unit mm)*
G04 Created by KiCad (PCBNEW 8.0.1) date 2024-10-15 00:35:35*
%MOMM*%
%LPD*%
G01*
G04 APERTURE LIST*
G04 Aperture macros list*
%AMRoundRect*
0 Rectangle with rounded corners*
0 $1 Rounding radius*
0 $2 $3 $4 $5 $6 $7 $8 $9 X,Y pos of 4 corners*
0 Add a 4 corners polygon primitive as box body*
4,1,4,$2,$3,$4,$5,$6,$7,$8,$9,$2,$3,0*
0 Add four circle primitives for the rounded corners*
1,1,$1+$1,$2,$3*
1,1,$1+$1,$4,$5*
1,1,$1+$1,$6,$7*
1,1,$1+$1,$8,$9*
0 Add four rect primitives between the rounded corners*
20,1,$1+$1,$2,$3,$4,$5,0*
20,1,$1+$1,$4,$5,$6,$7,0*
20,1,$1+$1,$6,$7,$8,$9,0*
20,1,$1+$1,$8,$9,$2,$3,0*%
%AMFreePoly0*
4,1,61,0.202894,1.830017,0.397991,1.770835,0.577793,1.674728,0.735391,1.545391,0.864728,1.387793,0.960835,1.207991,1.020017,1.012894,1.040000,0.810000,1.020017,0.607106,0.960835,0.412009,0.864728,0.232207,0.735391,0.074609,0.577793,-0.054728,0.397991,-0.150835,0.202894,-0.210017,0.000000,-0.230000,-0.202894,-0.210017,-0.397991,-0.150835,-0.577793,-0.054728,-0.735391,0.074609,
-0.864728,0.232207,-0.960835,0.412009,-1.020017,0.607106,-1.040000,0.810000,-0.585005,0.810000,-0.565071,0.658590,-0.506629,0.517497,-0.413661,0.396339,-0.292503,0.303371,-0.151410,0.244929,-0.015141,0.226988,0.000000,0.230000,0.015141,0.226988,0.151410,0.244929,0.292503,0.303371,0.413661,0.396339,0.506629,0.517497,0.565071,0.658590,0.585005,0.810000,0.565071,0.961410,
0.506629,1.102502,0.413661,1.223661,0.292503,1.316629,0.151410,1.375071,0.000000,1.395005,-0.151410,1.375071,-0.292502,1.316629,-0.413661,1.223661,-0.506629,1.102502,-0.565071,0.961410,-0.585005,0.810000,-1.040000,0.810000,-1.020017,1.012894,-0.960835,1.207991,-0.864728,1.387793,-0.735391,1.545391,-0.577793,1.674728,-0.397991,1.770835,-0.202894,1.830017,0.000000,1.850000,
0.202894,1.830017,0.202894,1.830017,$1*%
G04 Aperture macros list end*
%TA.AperFunction,SMDPad,CuDef*%
%ADD10RoundRect,0.140000X-0.170000X0.140000X-0.170000X-0.140000X0.170000X-0.140000X0.170000X0.140000X0*%
%TD*%
%TA.AperFunction,SMDPad,CuDef*%
%ADD11RoundRect,0.140000X0.170000X-0.140000X0.170000X0.140000X-0.170000X0.140000X-0.170000X-0.140000X0*%
%TD*%
%TA.AperFunction,SMDPad,CuDef*%
%ADD12RoundRect,0.140000X-0.140000X-0.170000X0.140000X-0.170000X0.140000X0.170000X-0.140000X0.170000X0*%
%TD*%
%TA.AperFunction,SMDPad,CuDef*%
%ADD13RoundRect,0.140000X0.140000X0.170000X-0.140000X0.170000X-0.140000X-0.170000X0.140000X-0.170000X0*%
%TD*%
%TA.AperFunction,SMDPad,CuDef*%
%ADD14RoundRect,0.135000X-0.135000X-0.185000X0.135000X-0.185000X0.135000X0.185000X-0.135000X0.185000X0*%
%TD*%
%TA.AperFunction,SMDPad,CuDef*%
%ADD15RoundRect,0.112500X-0.112500X-0.237500X0.112500X-0.237500X0.112500X0.237500X-0.112500X0.237500X0*%
%TD*%
%TA.AperFunction,SMDPad,CuDef*%
%ADD16R,0.400000X1.350000*%
%TD*%
%TA.AperFunction,SMDPad,CuDef*%
%ADD17RoundRect,0.250000X0.550000X0.450000X-0.550000X0.450000X-0.550000X-0.450000X0.550000X-0.450000X0*%
%TD*%
%TA.AperFunction,SMDPad,CuDef*%
%ADD18R,1.900000X1.900000*%
%TD*%
%TA.AperFunction,ComponentPad*%
%ADD19O,0.900000X1.800000*%
%TD*%
%TA.AperFunction,SMDPad,CuDef*%
%ADD20RoundRect,0.250000X0.750000X1.850000X-0.750000X1.850000X-0.750000X-1.850000X0.750000X-1.850000X0*%
%TD*%
%TA.AperFunction,SMDPad,CuDef*%
%ADD21RoundRect,0.050000X0.150000X0.300000X-0.150000X0.300000X-0.150000X-0.300000X0.150000X-0.300000X0*%
%TD*%
%TA.AperFunction,SMDPad,CuDef*%
%ADD22RoundRect,0.225000X-0.250000X0.225000X-0.250000X-0.225000X0.250000X-0.225000X0.250000X0.225000X0*%
%TD*%
%TA.AperFunction,SMDPad,CuDef*%
%ADD23RoundRect,0.135000X0.185000X-0.135000X0.185000X0.135000X-0.185000X0.135000X-0.185000X-0.135000X0*%
%TD*%
%TA.AperFunction,SMDPad,CuDef*%
%ADD24RoundRect,0.250000X0.994600X2.302700X-0.994600X2.302700X-0.994600X-2.302700X0.994600X-2.302700X0*%
%TD*%
%TA.AperFunction,SMDPad,CuDef*%
%ADD25R,5.600000X5.600000*%
%TD*%
%TA.AperFunction,SMDPad,CuDef*%
%ADD26RoundRect,0.152400X-0.749300X0.152400X-0.749300X-0.152400X0.749300X-0.152400X0.749300X0.152400X0*%
%TD*%
%TA.AperFunction,SMDPad,CuDef*%
%ADD27RoundRect,0.050000X-0.300000X0.150000X-0.300000X-0.150000X0.300000X-0.150000X0.300000X0.150000X0*%
%TD*%
%TA.AperFunction,SMDPad,CuDef*%
%ADD28RoundRect,0.112500X-0.262500X-0.112500X0.262500X-0.112500X0.262500X0.112500X-0.262500X0.112500X0*%
%TD*%
%TA.AperFunction,SMDPad,CuDef*%
%ADD29FreePoly0,0.000000*%
%TD*%
%TA.AperFunction,SMDPad,CuDef*%
%ADD30R,0.700000X0.300000*%
%TD*%
%TA.AperFunction,SMDPad,CuDef*%
%ADD31R,1.000000X0.300000*%
%TD*%
%TA.AperFunction,SMDPad,CuDef*%
%ADD32RoundRect,0.135000X0.135000X0.185000X-0.135000X0.185000X-0.135000X-0.185000X0.135000X-0.185000X0*%
%TD*%
%TA.AperFunction,ComponentPad*%
%ADD33C,2.600000*%
%TD*%
%TA.AperFunction,ConnectorPad*%
%ADD34C,3.800000*%
%TD*%
%TA.AperFunction,SMDPad,CuDef*%
%ADD35RoundRect,0.218750X-0.256250X0.218750X-0.256250X-0.218750X0.256250X-0.218750X0.256250X0.218750X0*%
%TD*%
%TA.AperFunction,ComponentPad*%
%ADD36R,0.900000X0.600000*%
%TD*%
%TA.AperFunction,ViaPad*%
%ADD37C,0.510000*%
%TD*%
%TA.AperFunction,Conductor*%
%ADD38C,0.130000*%
%TD*%
%TA.AperFunction,Conductor*%
%ADD39C,0.500000*%
%TD*%
%TA.AperFunction,Conductor*%
%ADD40C,0.200000*%
%TD*%
%TA.AperFunction,Conductor*%
%ADD41C,0.150000*%
%TD*%
%TA.AperFunction,Conductor*%
%ADD42C,0.900000*%
%TD*%
%TA.AperFunction,Conductor*%
%ADD43C,0.300000*%
%TD*%
%TA.AperFunction,Conductor*%
%ADD44C,0.287000*%
%TD*%
G04 APERTURE END LIST*
D10*
%TO.P,C28,1*%
%TO.N,GND*%
X74500000Y-163770000D03*
%TO.P,C28,2*%
%TO.N,Net-(J1-Pin_16)*%
X74500000Y-164730000D03*
%TD*%
D11*
%TO.P,C11,1*%
%TO.N,Net-(D3-K)*%
X73500000Y-164730000D03*
%TO.P,C11,2*%
%TO.N,GND*%
X73500000Y-163770000D03*
%TD*%
D12*
%TO.P,C15,1*%
%TO.N,GND*%
X73020000Y-166500000D03*
%TO.P,C15,2*%
%TO.N,Net-(J1-Pin_14)*%
X73980000Y-166500000D03*
%TD*%
D13*
%TO.P,C29,1*%
%TO.N,GND*%
X77230000Y-161750000D03*
%TO.P,C29,2*%
%TO.N,/vcom*%
X76270000Y-161750000D03*
%TD*%
D14*
%TO.P,R4,1*%
%TO.N,/sense*%
X76990000Y-174250000D03*
%TO.P,R4,2*%
%TO.N,GND*%
X78010000Y-174250000D03*
%TD*%
D15*
%TO.P,Q1,1,G*%
%TO.N,/gdr*%
X71850000Y-173750000D03*
%TO.P,Q1,2,S*%
%TO.N,/sense*%
X73150000Y-173750000D03*
%TO.P,Q1,3,D*%
%TO.N,Net-(D3-A)*%
X72500000Y-171750000D03*
%TD*%
D16*
%TO.P,J2,1,VBUS*%
%TO.N,Net-(J2-VBUS)*%
X75050000Y-160345500D03*
%TO.P,J2,2,D-*%
%TO.N,/USB_N*%
X74400000Y-160345500D03*
%TO.P,J2,3,D+*%
%TO.N,/USB_P*%
X73750000Y-160345500D03*
%TO.P,J2,4,ID*%
%TO.N,Net-(J2-ID)*%
X73100000Y-160345500D03*
%TO.P,J2,5,GND*%
%TO.N,GND*%
X72450000Y-160345500D03*
D17*
%TO.P,J2,S1*%
%TO.N,unconnected-(J2-PadS1)*%
X76950000Y-160120500D03*
%TO.P,J2,S2*%
%TO.N,unconnected-(J2-PadS2)*%
X70550000Y-160120500D03*
D18*
%TO.P,J2,S3*%
%TO.N,Net-(J2-Shield)*%
X72550000Y-157670500D03*
%TO.P,J2,S4*%
X74950000Y-157670500D03*
D19*
%TO.P,J2,S5*%
X77050000Y-157670500D03*
%TO.P,J2,S6*%
X70450000Y-157670500D03*
%TD*%
D20*
%TO.P,BZ1,1,+*%
%TO.N,Net-(BZ1-+)*%
X43750000Y-169000000D03*
%TO.P,BZ1,2,-*%
%TO.N,GND*%
X35750000Y-169000000D03*
%TD*%
D21*
%TO.P,D3,1,K*%
%TO.N,Net-(D3-K)*%
X72550000Y-165000000D03*
%TO.P,D3,2,A*%
%TO.N,Net-(D3-A)*%
X71850000Y-165000000D03*
%TD*%
D14*
%TO.P,R3,1*%
%TO.N,/gdr*%
X74240000Y-174250000D03*
%TO.P,R3,2*%
%TO.N,GND*%
X75260000Y-174250000D03*
%TD*%
D10*
%TO.P,C13,1*%
%TO.N,GND*%
X74500000Y-170720000D03*
%TO.P,C13,2*%
%TO.N,Net-(J1-Pin_3)*%
X74500000Y-171680000D03*
%TD*%
D11*
%TO.P,C37,1*%
%TO.N,GND*%
X74500000Y-169730000D03*
%TO.P,C37,2*%
%TO.N,/ldo*%
X74500000Y-168770000D03*
%TD*%
D22*
%TO.P,C12,1*%
%TO.N,Net-(D1-K)*%
X72000000Y-162025000D03*
%TO.P,C12,2*%
%TO.N,Net-(D3-A)*%
X72000000Y-163575000D03*
%TD*%
D12*
%TO.P,C14,1*%
%TO.N,GND*%
X73020000Y-167500000D03*
%TO.P,C14,2*%
%TO.N,Net-(J1-Pin_12)*%
X73980000Y-167500000D03*
%TD*%
D23*
%TO.P,R9,1*%
%TO.N,/PWR_Mic*%
X29200000Y-168710000D03*
%TO.P,R9,2*%
%TO.N,Net-(Inf.1-Vdd)*%
X29200000Y-167690000D03*
%TD*%
D24*
%TO.P,BT1,1,1*%
%TO.N,Net-(U3-bat)*%
X69743150Y-165000000D03*
D25*
%TO.P,BT1,2,2*%
%TO.N,GND*%
X58293150Y-165000000D03*
D24*
%TO.P,BT1,3,3*%
%TO.N,Net-(BT1-Pad3)*%
X46843150Y-165000000D03*
%TD*%
D26*
%TO.P,L5,1*%
%TO.N,/ldo*%
X72500000Y-168799900D03*
%TO.P,L5,2*%
%TO.N,Net-(D3-A)*%
X72500000Y-170400100D03*
%TD*%
D27*
%TO.P,D2,1,K*%
%TO.N,GND*%
X74600000Y-161900000D03*
%TO.P,D2,2,A*%
%TO.N,Net-(D1-K)*%
X74600000Y-162600000D03*
%TD*%
D10*
%TO.P,C10,1*%
%TO.N,Net-(Inf.1-Vdd)*%
X30200000Y-167320000D03*
%TO.P,C10,2*%
%TO.N,GND*%
X30200000Y-168280000D03*
%TD*%
D28*
%TO.P,Inf.1,1,Data*%
%TO.N,Net-(Inf.1-Data)*%
X31650000Y-167500000D03*
%TO.P,Inf.1,2,Vdd*%
%TO.N,Net-(Inf.1-Vdd)*%
X31650000Y-166800000D03*
%TO.P,Inf.1,3,CLK*%
%TO.N,/M_clk*%
X33350000Y-167500000D03*
%TO.P,Inf.1,4,LR*%
%TO.N,GND*%
X33350000Y-166800000D03*
D29*
%TO.P,Inf.1,5,Gnd*%
X32500000Y-166130000D03*
%TD*%
D30*
%TO.P,J1,1,Pin_1*%
%TO.N,/gdr*%
X76250000Y-172250000D03*
%TO.P,J1,2,Pin_2*%
%TO.N,/sense*%
X76250000Y-171750000D03*
%TO.P,J1,3,Pin_3*%
%TO.N,Net-(J1-Pin_3)*%
X76250000Y-171250000D03*
%TO.P,J1,4,Pin_4*%
%TO.N,/busy*%
X76250000Y-170750000D03*
%TO.P,J1,5,Pin_5*%
%TO.N,/res*%
X76250000Y-170250000D03*
%TO.P,J1,6,Pin_6*%
%TO.N,/dc*%
X76250000Y-169750000D03*
%TO.P,J1,7,Pin_7*%
%TO.N,/cs*%
X76250000Y-169250000D03*
%TO.P,J1,8,Pin_8*%
%TO.N,/D_sclk*%
X76250000Y-168750000D03*
%TO.P,J1,9,Pin_9*%
%TO.N,/D_Mosi*%
X76250000Y-168250000D03*
%TO.P,J1,10,Pin_10*%
%TO.N,/ldo*%
X76250000Y-167750000D03*
%TO.P,J1,11,Pin_11*%
%TO.N,GND*%
X76250000Y-167250000D03*
%TO.P,J1,12,Pin_12*%
%TO.N,Net-(J1-Pin_12)*%
X76250000Y-166750000D03*
%TO.P,J1,13,Pin_13*%
%TO.N,unconnected-(J1-Pin_13-Pad13)*%
X76250000Y-166250000D03*
%TO.P,J1,14,Pin_14*%
%TO.N,Net-(J1-Pin_14)*%
X76250000Y-165750000D03*
%TO.P,J1,15,Pin_15*%
%TO.N,Net-(D3-K)*%
X76250000Y-165250000D03*
%TO.P,J1,16,Pin_16*%
%TO.N,Net-(J1-Pin_16)*%
X76250000Y-164750000D03*
%TO.P,J1,17,Pin_17*%
%TO.N,Net-(D1-A)*%
X76250000Y-164250000D03*
%TO.P,J1,18,Pin_18*%
%TO.N,/vcom*%
X76250000Y-163750000D03*
D31*
%TO.P,J1,SH1,SH1*%
%TO.N,GND*%
X78900000Y-173040000D03*
%TO.P,J1,SH2,SH2*%
X78900000Y-162960000D03*
%TD*%
D27*
%TO.P,D1,1,K*%
%TO.N,Net-(D1-K)*%
X73400000Y-162150000D03*
%TO.P,D1,2,A*%
%TO.N,Net-(D1-A)*%
X73400000Y-162850000D03*
%TD*%
D32*
%TO.P,R1,1*%
%TO.N,/M_data*%
X33010000Y-169250000D03*
%TO.P,R1,2*%
%TO.N,Net-(Inf.1-Data)*%
X31990000Y-169250000D03*
%TD*%
D33*
%TO.P,H1,1,1*%
%TO.N,GND*%
X28500000Y-165000000D03*
D34*
X28500000Y-165000000D03*
%TD*%
D35*
%TO.P,F1,1*%
%TO.N,Net-(J2-VBUS)*%
X79000000Y-159462500D03*
%TO.P,F1,2*%
%TO.N,/5v*%
X79000000Y-161037500D03*
%TD*%
D10*
%TO.P,C38,1*%
%TO.N,GND*%
X46750000Y-160770000D03*
%TO.P,C38,2*%
%TO.N,Net-(BT1-Pad3)*%
X46750000Y-161730000D03*
%TD*%
D36*
%TO.P,AE1,2,FEED*%
%TO.N,GND*%
X40600000Y-161750000D03*
%TD*%
D37*
%TO.N,GND*%
X52500000Y-170700000D03*
X46050000Y-170050000D03*
X45300000Y-171050000D03*
X28400000Y-168800000D03*
X26750000Y-172900000D03*
X78000000Y-167500000D03*
X67700000Y-173200000D03*
X65750000Y-164750000D03*
X72000000Y-161000000D03*
X79250000Y-174250000D03*
X25500000Y-171750000D03*
X31000000Y-170000000D03*
X29385713Y-162700000D03*
X40200000Y-172900000D03*
X68800000Y-156800000D03*
X73806702Y-169940000D03*
X64750000Y-159750000D03*
X30500000Y-166250000D03*
X25328571Y-162700000D03*
X56000000Y-166062500D03*
X79400000Y-162000000D03*
X34100000Y-168300000D03*
X62250000Y-174500000D03*
X27200000Y-170200000D03*
X44229032Y-163000000D03*
X29000000Y-169800000D03*
X36000000Y-163800000D03*
X56000000Y-164875000D03*
X38750000Y-164250000D03*
X39000000Y-167000000D03*
X42100000Y-168300000D03*
X42200000Y-171100000D03*
X30900000Y-164300000D03*
X50500000Y-163250000D03*
X76000000Y-174250000D03*
X48500000Y-169200000D03*
X51000000Y-158000000D03*
X76250000Y-173250000D03*
X34500000Y-169750000D03*
X70750000Y-168000000D03*
X78250000Y-169250000D03*
X46900000Y-158600000D03*
X61750000Y-173750000D03*
X67000000Y-167250000D03*
X58600000Y-174500000D03*
X33700000Y-172900000D03*
X45200000Y-168700000D03*
X23100000Y-169000000D03*
X79500000Y-171000000D03*
X45400000Y-172900000D03*
X66500000Y-162500000D03*
X70700000Y-173700000D03*
X69750000Y-170250000D03*
X62750000Y-170500000D03*
X31200000Y-172900000D03*
X60425000Y-174500000D03*
X26400000Y-163900000D03*
X45750000Y-161250000D03*
X39200000Y-170700000D03*
X66300000Y-170550000D03*
X55750000Y-160250000D03*
X23100000Y-162700000D03*
X51250000Y-169500000D03*
X65500000Y-168250000D03*
X70500000Y-162000000D03*
X43187500Y-164500000D03*
X55000000Y-155800000D03*
X63500000Y-173750000D03*
X73000000Y-159050000D03*
X53000000Y-161500000D03*
X29800000Y-170600000D03*
X41000000Y-169750000D03*
X60750000Y-163687500D03*
X45800000Y-157050000D03*
X32400000Y-163400000D03*
X63800000Y-161300000D03*
X79545000Y-157600000D03*
X40050000Y-163050000D03*
X56000000Y-163687500D03*
X45000000Y-165000000D03*
X60750000Y-167250000D03*
X79400000Y-164600000D03*
X47400000Y-173300000D03*
X79250000Y-167000000D03*
X52250000Y-174500000D03*
X56000000Y-167250000D03*
X44100000Y-172900000D03*
X42750000Y-165750000D03*
X32000000Y-171000000D03*
X63250000Y-160000000D03*
X57000000Y-156500000D03*
X56000000Y-172500000D03*
X44250000Y-164500000D03*
X44250000Y-165750000D03*
X79500000Y-168500000D03*
X43264516Y-163000000D03*
X37250000Y-165500000D03*
X67800000Y-158000000D03*
X35471426Y-162700000D03*
X36250000Y-164500000D03*
X42300000Y-163000000D03*
X25900000Y-168700000D03*
X37250000Y-167000000D03*
X79500000Y-169750000D03*
X48750000Y-163000000D03*
X48500000Y-166000000D03*
X45750000Y-159750000D03*
X72250000Y-167000000D03*
X39000000Y-165500000D03*
X54000000Y-174500000D03*
X31414284Y-162700000D03*
X26100000Y-166200000D03*
X24250000Y-170250000D03*
X42000000Y-172900000D03*
X27357142Y-162700000D03*
X38000000Y-163500000D03*
X60750000Y-166062500D03*
X52500000Y-165250000D03*
X30800000Y-171600000D03*
X47050000Y-171200000D03*
X62050000Y-161300000D03*
X23100000Y-164800000D03*
X37500000Y-162700000D03*
X64500000Y-167000000D03*
X47800000Y-159900000D03*
X69750000Y-159000000D03*
X75000000Y-164000000D03*
X33442855Y-162700000D03*
X40800000Y-163050000D03*
X78000000Y-170500000D03*
X62000000Y-157000000D03*
X63250000Y-156750000D03*
X31250000Y-168500000D03*
X41500000Y-166900000D03*
X54000000Y-161500000D03*
X58250000Y-165000000D03*
X49500000Y-170500000D03*
X41062500Y-164500000D03*
X70250000Y-172750000D03*
X61000000Y-156500000D03*
X40000000Y-164500000D03*
X72500000Y-172750000D03*
X60750000Y-162500000D03*
X35000000Y-165400000D03*
X62750000Y-155750000D03*
X60155000Y-169750000D03*
X45750000Y-158500000D03*
X42125000Y-164500000D03*
X28700000Y-172900000D03*
X62750000Y-172500000D03*
X75250000Y-170250000D03*
X59500000Y-172500000D03*
X56750000Y-172500000D03*
X52450000Y-156500000D03*
X37250000Y-169750000D03*
X37950000Y-172900000D03*
X65000000Y-169750000D03*
X27750000Y-167750000D03*
X37250000Y-168500000D03*
X78000000Y-172500000D03*
X30200000Y-169200000D03*
X32500000Y-168250000D03*
X52500000Y-163000000D03*
X53250000Y-158500000D03*
X66750000Y-166000000D03*
X63000000Y-169250000D03*
X45193550Y-163000000D03*
X75100000Y-159050000D03*
X47500000Y-160500000D03*
X66300000Y-173300000D03*
X60000000Y-173750000D03*
X56750000Y-159750000D03*
X48500000Y-164750000D03*
X34200000Y-163800000D03*
X50000000Y-164750000D03*
X40500000Y-165750000D03*
X54000000Y-163000000D03*
X79500000Y-172250000D03*
X57750000Y-157250000D03*
X39000000Y-168500000D03*
X34250000Y-166250000D03*
X60750000Y-164875000D03*
X37400000Y-164500000D03*
X65550000Y-159050000D03*
X28700000Y-171500000D03*
X66800000Y-156800000D03*
X51000000Y-164750000D03*
X56000000Y-162500000D03*
X51000000Y-157100000D03*
X35950000Y-172900000D03*
X23100000Y-167600000D03*
%TO.N,Net-(U3-bat)*%
X70250000Y-163250000D03*
X70750000Y-162750000D03*
%TO.N,/ldo*%
X50750000Y-160750000D03*
X63250000Y-159000000D03*
X72125000Y-168125000D03*
X63000000Y-168000000D03*
X66400000Y-163750000D03*
X57690150Y-171420181D03*
X53668651Y-164418651D03*
X65800000Y-163750000D03*
X73840100Y-168699900D03*
%TO.N,/RST*%
X63750000Y-170250000D03*
X58000000Y-169750000D03*
X66500000Y-169500000D03*
%TO.N,/5v*%
X78400000Y-160400000D03*
X79500000Y-160500000D03*
%TO.N,/M_clk*%
X47300000Y-167957700D03*
%TO.N,/M_data*%
X45978272Y-168262212D03*
%TO.N,/chg*%
X65567445Y-159782555D03*
X67446181Y-162095000D03*
%TO.N,Net-(U3-bms)*%
X69750000Y-161750000D03*
X57000000Y-173250000D03*
%TO.N,/PWR_Mic*%
X50550000Y-167500000D03*
%TO.N,Net-(J2-ID)*%
X73250000Y-161500000D03*
%TO.N,/enter*%
X63500000Y-172750000D03*
X53200000Y-172900000D03*
%TO.N,Net-(BZ1-+)*%
X49600000Y-166000000D03*
%TO.N,/dose*%
X24500000Y-167600000D03*
%TO.N,Net-(U3-ntc)*%
X65285080Y-157370398D03*
X69000000Y-161750000D03*
%TO.N,/swclk*%
X63250000Y-164255000D03*
X66500000Y-164500000D03*
%TO.N,/USB_P*%
X73670000Y-159050000D03*
%TO.N,/USB_N*%
X74416550Y-159050000D03*
%TO.N,/cen*%
X66300000Y-159050000D03*
X67750000Y-161500000D03*
%TO.N,/res*%
X77000000Y-170250000D03*
%TO.N,/dc*%
X66250000Y-168500000D03*
X65500000Y-166750000D03*
X78750000Y-169750000D03*
%TO.N,/busy*%
X71050000Y-172300000D03*
X64800000Y-171050000D03*
X77250000Y-171250000D03*
%TO.N,/cs*%
X69250000Y-169250000D03*
X75250000Y-169250000D03*
X65000000Y-165500000D03*
%TO.N,/D_sclk*%
X77659676Y-168704838D03*
%TO.N,/D_Mosi*%
X65548380Y-167591773D03*
X70082341Y-168417659D03*
X77409676Y-167795162D03*
%TO.N,/dose*%
X50875000Y-170375000D03*
%TO.N,Net-(U4-PA5)*%
X51000000Y-171750000D03*
X53500000Y-167745000D03*
%TO.N,Net-(U4-PA6)*%
X49198988Y-161727247D03*
X54000000Y-167000000D03*
%TD*%
D38*
%TO.N,Net-(U4-PA6)*%
X54000000Y-165880000D02*
X54000000Y-167000000D01*
X49847247Y-161727247D02*
X54000000Y-165880000D01*
X49198988Y-161727247D02*
X49847247Y-161727247D01*
D39*
%TO.N,/ldo*%
X66400000Y-163750000D02*
X65800000Y-163750000D01*
D40*
X57000000Y-170730031D02*
X57690150Y-171420181D01*
X57000000Y-169250000D02*
X57000000Y-170730031D01*
X61500000Y-168250000D02*
X58000000Y-168250000D01*
X62250000Y-167500000D02*
X61500000Y-168250000D01*
X62250000Y-164540822D02*
X62250000Y-167500000D01*
X65800000Y-163750000D02*
X63040822Y-163750000D01*
X63040822Y-163750000D02*
X62250000Y-164540822D01*
D39*
X64095000Y-160021310D02*
X64095000Y-159845000D01*
X65405000Y-163355000D02*
X65405000Y-161331310D01*
X64095000Y-159845000D02*
X63250000Y-159000000D01*
X65800000Y-163750000D02*
X65405000Y-163355000D01*
D40*
X58000000Y-168250000D02*
X57000000Y-169250000D01*
D39*
X65405000Y-161331310D02*
X64095000Y-160021310D01*
D38*
%TO.N,Net-(U4-PA5)*%
X53500000Y-168800000D02*
X53500000Y-167745000D01*
X51000000Y-171300000D02*
X53500000Y-168800000D01*
X51000000Y-171750000D02*
X51000000Y-171300000D01*
%TO.N,/enter*%
X63000000Y-173250000D02*
X63500000Y-172750000D01*
X59835319Y-173250000D02*
X63000000Y-173250000D01*
X59285319Y-173800000D02*
X59835319Y-173250000D01*
X54100000Y-173800000D02*
X59285319Y-173800000D01*
X53200000Y-172900000D02*
X54100000Y-173800000D01*
D40*
%TO.N,/PWR_Mic*%
X46800000Y-170550000D02*
X45550000Y-171800000D01*
X48300000Y-170550000D02*
X46800000Y-170550000D01*
X50550000Y-168300000D02*
X48300000Y-170550000D01*
X45550000Y-171800000D02*
X32000000Y-171800000D01*
X50550000Y-167500000D02*
X50550000Y-168300000D01*
X32000000Y-171800000D02*
X29200000Y-169000000D01*
X29200000Y-169000000D02*
X29200000Y-168710000D01*
D38*
%TO.N,/dose*%
X46462659Y-172430000D02*
X30730000Y-172430000D01*
X47222659Y-171670000D02*
X46462659Y-172430000D01*
X49580000Y-171670000D02*
X47222659Y-171670000D01*
X50875000Y-170375000D02*
X49580000Y-171670000D01*
X30730000Y-172430000D02*
X25900000Y-167600000D01*
X25900000Y-167600000D02*
X24500000Y-167600000D01*
%TO.N,Net-(BZ1-+)*%
X49600000Y-166500000D02*
X46800000Y-169300000D01*
X49600000Y-166000000D02*
X49600000Y-166500000D01*
X46800000Y-169300000D02*
X44050000Y-169300000D01*
D39*
%TO.N,GND*%
X46000000Y-161250000D02*
X46750000Y-160500000D01*
D41*
X31775000Y-166065255D02*
X31775000Y-164975000D01*
X32500000Y-166130000D02*
X30620000Y-166130000D01*
D39*
X47500000Y-160500000D02*
X47020000Y-160500000D01*
D40*
X73714900Y-168194900D02*
X73020000Y-167500000D01*
D38*
X33700000Y-166800000D02*
X33350000Y-166800000D01*
D39*
X46750000Y-160500000D02*
X47500000Y-160500000D01*
D42*
X40600000Y-162850000D02*
X40800000Y-163050000D01*
D40*
X75929500Y-161070500D02*
X76550500Y-161070500D01*
D41*
X32500000Y-166130000D02*
X31839745Y-166130000D01*
D38*
X34250000Y-166250000D02*
X33700000Y-166800000D01*
D40*
X77750000Y-167250000D02*
X78000000Y-167500000D01*
X75100000Y-161900000D02*
X75929500Y-161070500D01*
D43*
X65885000Y-161050007D02*
X66500000Y-161665007D01*
D40*
X73500000Y-163770000D02*
X74500000Y-163770000D01*
D42*
X40600000Y-161750000D02*
X40600000Y-162850000D01*
D41*
X32680000Y-166130000D02*
X33350000Y-166800000D01*
D39*
X47020000Y-160500000D02*
X46750000Y-160770000D01*
D43*
X66500000Y-161665007D02*
X66500000Y-162500000D01*
D39*
X45750000Y-161250000D02*
X46000000Y-161250000D01*
D41*
X33500000Y-164000000D02*
X34000000Y-164500000D01*
D39*
X45434842Y-162184842D02*
X45750000Y-161869684D01*
X46480000Y-160770000D02*
X46750000Y-160770000D01*
D40*
X74600000Y-161900000D02*
X75100000Y-161900000D01*
D41*
X30620000Y-166130000D02*
X30500000Y-166250000D01*
D39*
X45193550Y-162750000D02*
X45193550Y-162426134D01*
X45193550Y-162426134D02*
X45577384Y-162042300D01*
D40*
X76550500Y-161070500D02*
X77230000Y-161750000D01*
D43*
X65885000Y-160885000D02*
X65885000Y-161050007D01*
X64750000Y-159750000D02*
X65885000Y-160885000D01*
D40*
X76250000Y-167250000D02*
X77750000Y-167250000D01*
D39*
X35750000Y-169750000D02*
X34500000Y-169750000D01*
X45750000Y-161500000D02*
X46000000Y-161250000D01*
D41*
X34000000Y-164500000D02*
X36250000Y-164500000D01*
D39*
X45750000Y-161869684D02*
X45750000Y-161500000D01*
D40*
X75095424Y-167250000D02*
X74150524Y-168194900D01*
D41*
X32750000Y-164000000D02*
X33500000Y-164000000D01*
X31839745Y-166130000D02*
X31775000Y-166065255D01*
D39*
X46000000Y-161250000D02*
X46480000Y-160770000D01*
D40*
X76250000Y-167250000D02*
X75095424Y-167250000D01*
X74150524Y-168194900D02*
X73714900Y-168194900D01*
D41*
X31775000Y-164975000D02*
X32750000Y-164000000D01*
D39*
%TO.N,Net-(U3-bat)*%
X70750000Y-163664961D02*
X70750000Y-163250000D01*
X70575599Y-163075599D02*
X70750000Y-163250000D01*
%TO.N,Net-(J2-Shield)*%
X74950000Y-157670500D02*
X77050000Y-157670500D01*
X72550000Y-157670500D02*
X74950000Y-157670500D01*
X70450000Y-157670500D02*
X72550000Y-157670500D01*
%TO.N,Net-(Inf.1-Vdd)*%
X30200000Y-167320000D02*
X30509999Y-167320000D01*
X29570000Y-167320000D02*
X29200000Y-167690000D01*
X30509999Y-167320000D02*
X31029999Y-166800000D01*
X30200000Y-167320000D02*
X29570000Y-167320000D01*
X31029999Y-166800000D02*
X31650000Y-166800000D01*
D40*
%TO.N,Net-(D3-K)*%
X74030000Y-165260000D02*
X76240000Y-165260000D01*
X73500000Y-164730000D02*
X74030000Y-165260000D01*
X73230000Y-165000000D02*
X73500000Y-164730000D01*
X72550000Y-165000000D02*
X73230000Y-165000000D01*
%TO.N,Net-(D1-K)*%
X74000000Y-162175650D02*
X74424350Y-162600000D01*
X74000000Y-162150000D02*
X74000000Y-162175650D01*
X72275000Y-162025000D02*
X72400000Y-162150000D01*
X73400000Y-162150000D02*
X74000000Y-162150000D01*
X72400000Y-162150000D02*
X73400000Y-162150000D01*
%TO.N,Net-(D3-A)*%
X72000000Y-163575000D02*
X72000000Y-164850000D01*
X71000000Y-169901800D02*
X71498300Y-170400100D01*
X72000000Y-164850000D02*
X71850000Y-165000000D01*
X71600000Y-168000000D02*
X71000000Y-168600000D01*
X71000000Y-168600000D02*
X71000000Y-169901800D01*
X72500000Y-171750000D02*
X72500000Y-170400100D01*
X71850000Y-165000000D02*
X71600000Y-165250000D01*
X71600000Y-165250000D02*
X71600000Y-168000000D01*
X71498300Y-170400100D02*
X72500000Y-170400100D01*
%TO.N,Net-(J1-Pin_3)*%
X76250000Y-171250000D02*
X74930000Y-171250000D01*
X74930000Y-171250000D02*
X74500000Y-171680000D01*
%TO.N,Net-(J1-Pin_12)*%
X74850000Y-166750000D02*
X76250000Y-166750000D01*
X74100000Y-167500000D02*
X74850000Y-166750000D01*
%TO.N,Net-(J1-Pin_14)*%
X74100000Y-166500000D02*
X74850000Y-165750000D01*
X74850000Y-165750000D02*
X76250000Y-165750000D01*
%TO.N,/ldo*%
X74429900Y-168699900D02*
X73840100Y-168699900D01*
D39*
X72500000Y-168799900D02*
X72500000Y-168500000D01*
D43*
X76250000Y-167750000D02*
X75520000Y-167750000D01*
D39*
X52250000Y-160750000D02*
X50750000Y-160750000D01*
D43*
X74500000Y-168770000D02*
X72529900Y-168770000D01*
D39*
X72500000Y-168500000D02*
X72125000Y-168125000D01*
X54000000Y-159000000D02*
X52250000Y-160750000D01*
X63250000Y-159000000D02*
X54000000Y-159000000D01*
D40*
X73840100Y-168699900D02*
X73740100Y-168799900D01*
D43*
X75520000Y-167750000D02*
X74500000Y-168770000D01*
D40*
X73740100Y-168799900D02*
X72500000Y-168799900D01*
D38*
%TO.N,/RST*%
X58500000Y-170250000D02*
X62335319Y-170250000D01*
X62335319Y-170250000D02*
X62555319Y-170030000D01*
X63164681Y-170250000D02*
X65750000Y-170250000D01*
X62944681Y-170030000D02*
X63164681Y-170250000D01*
X58000000Y-169750000D02*
X58500000Y-170250000D01*
X62555319Y-170030000D02*
X62944681Y-170030000D01*
X65750000Y-170250000D02*
X66500000Y-169500000D01*
D40*
%TO.N,Net-(J1-Pin_16)*%
X76250000Y-164750000D02*
X74520000Y-164750000D01*
%TO.N,/vcom*%
X76250000Y-163500000D02*
X76270000Y-163480000D01*
X76270000Y-163480000D02*
X76270000Y-161750000D01*
X76250000Y-163750000D02*
X76250000Y-163500000D01*
D39*
%TO.N,/5v*%
X79000000Y-161000000D02*
X79500000Y-160500000D01*
X79000000Y-161000000D02*
X78400000Y-160400000D01*
D40*
%TO.N,Net-(D1-A)*%
X75750000Y-164250000D02*
X76250000Y-164250000D01*
X75550000Y-164050000D02*
X75750000Y-164250000D01*
X73400000Y-162850000D02*
X73600000Y-163050000D01*
X75550000Y-163800000D02*
X75550000Y-164050000D01*
X73600000Y-163050000D02*
X74800000Y-163050000D01*
X74800000Y-163050000D02*
X75550000Y-163800000D01*
D38*
%TO.N,Net-(Inf.1-Data)*%
X31650000Y-167500000D02*
X31990000Y-167840000D01*
X31990000Y-167840000D02*
X31990000Y-169250000D01*
D41*
%TO.N,/M_clk*%
X34950000Y-166250000D02*
X33700000Y-167500000D01*
X47120000Y-167777700D02*
X45644872Y-167777700D01*
X44950000Y-166250000D02*
X34950000Y-166250000D01*
X45373550Y-166673550D02*
X44950000Y-166250000D01*
X45373550Y-167506378D02*
X45373550Y-166673550D01*
X33700000Y-167500000D02*
X33350000Y-167500000D01*
X47300000Y-167957700D02*
X47120000Y-167777700D01*
X45644872Y-167777700D02*
X45373550Y-167506378D01*
D40*
%TO.N,/sense*%
X76990000Y-171990000D02*
X76990000Y-174250000D01*
X75650000Y-171750000D02*
X76250000Y-171750000D01*
X73150000Y-173750000D02*
X73650000Y-173750000D01*
X76250000Y-171750000D02*
X76750000Y-171750000D01*
X76750000Y-171750000D02*
X76990000Y-171990000D01*
X73650000Y-173750000D02*
X75650000Y-171750000D01*
%TO.N,/gdr*%
X76000000Y-172250000D02*
X74240000Y-174010000D01*
X74240000Y-174010000D02*
X74240000Y-174250000D01*
X72450000Y-174350000D02*
X74140000Y-174350000D01*
X71850000Y-173750000D02*
X72450000Y-174350000D01*
D38*
%TO.N,/M_data*%
X34115000Y-171315000D02*
X37085000Y-171315000D01*
X45083550Y-167883550D02*
X45462212Y-168262212D01*
X44699536Y-166685000D02*
X45083550Y-167069014D01*
X39800000Y-169700000D02*
X42200000Y-167300000D01*
X33010000Y-170210000D02*
X34115000Y-171315000D01*
X42200000Y-167300000D02*
X42200000Y-167285464D01*
X33010000Y-169250000D02*
X33010000Y-170210000D01*
X42200000Y-167285464D02*
X42800464Y-166685000D01*
X45083550Y-167069014D02*
X45083550Y-167883550D01*
X42800464Y-166685000D02*
X44699536Y-166685000D01*
X45462212Y-168262212D02*
X45978272Y-168262212D01*
X38700000Y-169700000D02*
X39800000Y-169700000D01*
X37085000Y-171315000D02*
X38700000Y-169700000D01*
%TO.N,/chg*%
X66300000Y-160948819D02*
X67446181Y-162095000D01*
X65567445Y-159782555D02*
X66300000Y-160515110D01*
X66300000Y-160515110D02*
X66300000Y-160948819D01*
%TO.N,Net-(U3-bms)*%
X57530000Y-170119586D02*
X58250000Y-170839586D01*
X58250000Y-168750000D02*
X57530000Y-169470000D01*
X66530000Y-165220000D02*
X65384681Y-165220000D01*
X67750000Y-163031314D02*
X67750000Y-164000000D01*
X57530000Y-169470000D02*
X57530000Y-170119586D01*
X68549014Y-162232300D02*
X67750000Y-163031314D01*
X69267700Y-162232300D02*
X68549014Y-162232300D01*
X58250000Y-172000000D02*
X57000000Y-173250000D01*
X65164681Y-165000000D02*
X64835319Y-165000000D01*
X67750000Y-164000000D02*
X66530000Y-165220000D01*
X61500000Y-168750000D02*
X58250000Y-168750000D01*
X64500000Y-165335319D02*
X64500000Y-165750000D01*
X69750000Y-161750000D02*
X69267700Y-162232300D01*
X65384681Y-165220000D02*
X65164681Y-165000000D01*
X64500000Y-165750000D02*
X61500000Y-168750000D01*
X58250000Y-170839586D02*
X58250000Y-172000000D01*
X64835319Y-165000000D02*
X64500000Y-165335319D01*
D40*
%TO.N,Net-(J2-ID)*%
X73100000Y-161350000D02*
X73250000Y-161500000D01*
X73100000Y-160345500D02*
X73100000Y-161350000D01*
D38*
%TO.N,Net-(U3-ntc)*%
X69000000Y-161750000D02*
X67750000Y-160500000D01*
X65620398Y-157370398D02*
X65285080Y-157370398D01*
X67750000Y-159500000D02*
X65620398Y-157370398D01*
X67750000Y-160500000D02*
X67750000Y-159500000D01*
%TO.N,/swclk*%
X66255000Y-164255000D02*
X63250000Y-164255000D01*
X66500000Y-164500000D02*
X66255000Y-164255000D01*
D44*
%TO.N,/USB_P*%
X73906500Y-160189000D02*
X73906500Y-159286500D01*
X73750000Y-160345500D02*
X73906500Y-160189000D01*
X73906500Y-159286500D02*
X73670000Y-159050000D01*
%TO.N,/USB_N*%
X74343500Y-159123050D02*
X74416550Y-159050000D01*
X74343500Y-160289000D02*
X74343500Y-159123050D01*
D38*
%TO.N,/cen*%
X67050000Y-159800000D02*
X67050000Y-160800000D01*
X67050000Y-160800000D02*
X67750000Y-161500000D01*
X66300000Y-159050000D02*
X67050000Y-159800000D01*
%TO.N,/res*%
X76250000Y-170250000D02*
X77000000Y-170250000D01*
%TO.N,/dc*%
X78750000Y-169750000D02*
X76250000Y-169750000D01*
%TO.N,/busy*%
X65550000Y-171800000D02*
X70550000Y-171800000D01*
X76750000Y-170750000D02*
X77250000Y-171250000D01*
X64800000Y-171050000D02*
X65550000Y-171800000D01*
X76250000Y-170750000D02*
X76750000Y-170750000D01*
X70550000Y-171800000D02*
X71050000Y-172300000D01*
%TO.N,/cs*%
X69250000Y-169250000D02*
X69030000Y-169030000D01*
X65000000Y-168414681D02*
X65000000Y-165500000D01*
X76250000Y-169250000D02*
X75250000Y-169250000D01*
X65615319Y-169030000D02*
X65000000Y-168414681D01*
X69030000Y-169030000D02*
X65615319Y-169030000D01*
%TO.N,/D_sclk*%
X77659676Y-168704838D02*
X77614514Y-168750000D01*
X77614514Y-168750000D02*
X76250000Y-168750000D01*
%TO.N,/D_Mosi*%
X69664682Y-168000000D02*
X66750000Y-168000000D01*
X77409676Y-167795162D02*
X76954838Y-168250000D01*
X66750000Y-168000000D02*
X66517700Y-167767700D01*
X65724307Y-167767700D02*
X65548380Y-167591773D01*
X76954838Y-168250000D02*
X76250000Y-168250000D01*
X66517700Y-167767700D02*
X65724307Y-167767700D01*
X70082341Y-168417659D02*
X69664682Y-168000000D01*
D40*
%TO.N,Net-(J2-VBUS)*%
X75929500Y-159170500D02*
X78708000Y-159170500D01*
X75150000Y-159950000D02*
X75929500Y-159170500D01*
D39*
%TO.N,Net-(BT1-Pad3)*%
X46750000Y-161730000D02*
X46843150Y-161823150D01*
X46843150Y-161823150D02*
X46843150Y-165000000D01*
%TD*%
%TA.AperFunction,Conductor*%
%TO.N,GND*%
G36*
X63309098Y-155419454D02*
G01*
X63389879Y-155473430D01*
X63915950Y-155999500D01*
X64286426Y-156369976D01*
X64360118Y-156400500D01*
X64439883Y-156400500D01*
X69819625Y-156400500D01*
X69914913Y-156419454D01*
X69995695Y-156473430D01*
X70049671Y-156554212D01*
X70068625Y-156649500D01*
X70049671Y-156744788D01*
X69995697Y-156825566D01*
X69969480Y-156851784D01*
X69969478Y-156851786D01*
X69890422Y-156988716D01*
X69849500Y-157141442D01*
X69849500Y-158199557D01*
X69890422Y-158352283D01*
X69969478Y-158489213D01*
X69969480Y-158489216D01*
X70081284Y-158601020D01*
X70218216Y-158680077D01*
X70370943Y-158721000D01*
X70529057Y-158721000D01*
X70681784Y-158680077D01*
X70818716Y-158601020D01*
X70930520Y-158489216D01*
X70984859Y-158395096D01*
X71048917Y-158322052D01*
X71136053Y-158279081D01*
X71232999Y-158272726D01*
X71324999Y-158303955D01*
X71398044Y-158368013D01*
X71441015Y-158455149D01*
X71449500Y-158519596D01*
X71449500Y-158635322D01*
X71458231Y-158679219D01*
X71458232Y-158679221D01*
X71458233Y-158679222D01*
X71491496Y-158729004D01*
X71541278Y-158762267D01*
X71541280Y-158762268D01*
X71567571Y-158767497D01*
X71585178Y-158770999D01*
X71585179Y-158771000D01*
X71585180Y-158771000D01*
X73012093Y-158771000D01*
X73107381Y-158789954D01*
X73188163Y-158843930D01*
X73242139Y-158924712D01*
X73261093Y-159020000D01*
X73259445Y-159040934D01*
X73259445Y-159050003D01*
X73279537Y-159176861D01*
X73285122Y-159194048D01*
X73296544Y-159290530D01*
X73270175Y-159384038D01*
X73210029Y-159460337D01*
X73125263Y-159507811D01*
X73048311Y-159520000D01*
X72885177Y-159520000D01*
X72841280Y-159528731D01*
X72791497Y-159561995D01*
X72791495Y-159561997D01*
X72758231Y-159611780D01*
X72749500Y-159655677D01*
X72749500Y-161035322D01*
X72758231Y-161079219D01*
X72758233Y-161079222D01*
X72792524Y-161130543D01*
X72829703Y-161220302D01*
X72829702Y-161317457D01*
X72792522Y-161407217D01*
X72723822Y-161475915D01*
X72634063Y-161513094D01*
X72536908Y-161513093D01*
X72476126Y-161492577D01*
X72462527Y-161485929D01*
X72358625Y-161435134D01*
X72285636Y-161424500D01*
X71714364Y-161424500D01*
X71641374Y-161435134D01*
X71641373Y-161435134D01*
X71528789Y-161490174D01*
X71440174Y-161578789D01*
X71385134Y-161691373D01*
X71385134Y-161691374D01*
X71374500Y-161764364D01*
X71374500Y-162170020D01*
X71355546Y-162265308D01*
X71301570Y-162346090D01*
X71220788Y-162400066D01*
X71125500Y-162419020D01*
X71030212Y-162400066D01*
X70979140Y-162371464D01*
X70976093Y-162369250D01*
X70863053Y-162311653D01*
X70863049Y-162311652D01*
X70769280Y-162296801D01*
X70769271Y-162296800D01*
X70769269Y-162296800D01*
X70769265Y-162296800D01*
X70332826Y-162296800D01*
X70237538Y-162277846D01*
X70156756Y-162223870D01*
X70102780Y-162143088D01*
X70083826Y-162047800D01*
X70102780Y-161952512D01*
X70110965Y-161934757D01*
X70133535Y-161890461D01*
X70140461Y-161876868D01*
X70144066Y-161854110D01*
X70160555Y-161750002D01*
X70160555Y-161749996D01*
X70140462Y-161623136D01*
X70140461Y-161623132D01*
X70128849Y-161600342D01*
X70082146Y-161508682D01*
X69991318Y-161417854D01*
X69977461Y-161403997D01*
X69978849Y-161402608D01*
X69930312Y-161350102D01*
X69896685Y-161258952D01*
X69900499Y-161161872D01*
X69941173Y-161073641D01*
X70012516Y-161007692D01*
X70103666Y-160974065D01*
X70142608Y-160970999D01*
X71131518Y-160970999D01*
X71225304Y-160956146D01*
X71338342Y-160898550D01*
X71428050Y-160808842D01*
X71485646Y-160695804D01*
X71500500Y-160602019D01*
X71500499Y-159638982D01*
X71485646Y-159545196D01*
X71428050Y-159432158D01*
X71338342Y-159342450D01*
X71338339Y-159342448D01*
X71225303Y-159284853D01*
X71225299Y-159284852D01*
X71131530Y-159270001D01*
X71131522Y-159270000D01*
X71131519Y-159270000D01*
X71131514Y-159270000D01*
X69968484Y-159270000D01*
X69874695Y-159284854D01*
X69761659Y-159342449D01*
X69671948Y-159432160D01*
X69614353Y-159545196D01*
X69614352Y-159545200D01*
X69599501Y-159638969D01*
X69599500Y-159638985D01*
X69599500Y-160602015D01*
X69602845Y-160623136D01*
X69614354Y-160695804D01*
X69671950Y-160808842D01*
X69761658Y-160898550D01*
X69761660Y-160898551D01*
X69761661Y-160898552D01*
X69771465Y-160905675D01*
X69837415Y-160977017D01*
X69871042Y-161068167D01*
X69867228Y-161165247D01*
X69826554Y-161253478D01*
X69755212Y-161319428D01*
X69664064Y-161353055D01*
X69623134Y-161359538D01*
X69623132Y-161359538D01*
X69491221Y-161426751D01*
X69489483Y-161423340D01*
X69433080Y-161449330D01*
X69336000Y-161453125D01*
X69259693Y-161424956D01*
X69258779Y-161426751D01*
X69225856Y-161409976D01*
X69205940Y-161399828D01*
X69126867Y-161359538D01*
X69126863Y-161359537D01*
X69000003Y-161339445D01*
X68997348Y-161339445D01*
X68986972Y-161337381D01*
X68980645Y-161336379D01*
X68980684Y-161336130D01*
X68902060Y-161320491D01*
X68821278Y-161266515D01*
X68038430Y-160483667D01*
X67984454Y-160402885D01*
X67965500Y-160307597D01*
X67965500Y-159457133D01*
X67932692Y-159377929D01*
X67872071Y-159317307D01*
X67872071Y-159317308D01*
X65742469Y-157187706D01*
X65742467Y-157187705D01*
X65742466Y-157187704D01*
X65674505Y-157159554D01*
X65593723Y-157105577D01*
X65526398Y-157038252D01*
X65411947Y-156979936D01*
X65411943Y-156979935D01*
X65285083Y-156959843D01*
X65285077Y-156959843D01*
X65158216Y-156979935D01*
X65158212Y-156979936D01*
X65043761Y-157038252D01*
X64952934Y-157129079D01*
X64894618Y-157243530D01*
X64894617Y-157243534D01*
X64874525Y-157370394D01*
X64874525Y-157370401D01*
X64894617Y-157497261D01*
X64894618Y-157497265D01*
X64894619Y-157497266D01*
X64952934Y-157611716D01*
X65043762Y-157702544D01*
X65158212Y-157760859D01*
X65158216Y-157760860D01*
X65285077Y-157780953D01*
X65285080Y-157780953D01*
X65285083Y-157780953D01*
X65411943Y-157760860D01*
X65411944Y-157760860D01*
X65411945Y-157760859D01*
X65411948Y-157760859D01*
X65445620Y-157743701D01*
X65539125Y-157717332D01*
X65635606Y-157728751D01*
X65720374Y-157776223D01*
X65734731Y-157789494D01*
X66216739Y-158271502D01*
X66270715Y-158352284D01*
X66289669Y-158447572D01*
X66270715Y-158542860D01*
X66216739Y-158623642D01*
X66153714Y-158669432D01*
X66058681Y-158717854D01*
X65967854Y-158808681D01*
X65909538Y-158923132D01*
X65909537Y-158923136D01*
X65889445Y-159049996D01*
X65889445Y-159050001D01*
X65896429Y-159094100D01*
X65892613Y-159191180D01*
X65851937Y-159279410D01*
X65780594Y-159345358D01*
X65689443Y-159378984D01*
X65611545Y-159378984D01*
X65567446Y-159372000D01*
X65567442Y-159372000D01*
X65440581Y-159392092D01*
X65440577Y-159392093D01*
X65326126Y-159450409D01*
X65235299Y-159541236D01*
X65176983Y-159655687D01*
X65176982Y-159655691D01*
X65156890Y-159782551D01*
X65156890Y-159782553D01*
X65175187Y-159898078D01*
X65171372Y-159995158D01*
X65130697Y-160083388D01*
X65059354Y-160149337D01*
X64968203Y-160182964D01*
X64871123Y-160179149D01*
X64782893Y-160138474D01*
X64753182Y-160113099D01*
X64564840Y-159924757D01*
X64510864Y-159843975D01*
X64501135Y-159807658D01*
X64499724Y-159808037D01*
X64468207Y-159690413D01*
X64438515Y-159638985D01*
X64415480Y-159599087D01*
X64340913Y-159524520D01*
X63614788Y-158798395D01*
X63589414Y-158768685D01*
X63582146Y-158758682D01*
X63491321Y-158667856D01*
X63491319Y-158667854D01*
X63376867Y-158609538D01*
X63376863Y-158609537D01*
X63250003Y-158589445D01*
X63249999Y-158589445D01*
X63205873Y-158596434D01*
X63166920Y-158599500D01*
X54068004Y-158599500D01*
X54067988Y-158599499D01*
X54052727Y-158599499D01*
X53947273Y-158599499D01*
X53845416Y-158626791D01*
X53845413Y-158626793D01*
X53754088Y-158679519D01*
X52157037Y-160276570D01*
X52076255Y-160330546D01*
X51980967Y-160349500D01*
X50833080Y-160349500D01*
X50794127Y-160346434D01*
X50750001Y-160339445D01*
X50749997Y-160339445D01*
X50623136Y-160359537D01*
X50623132Y-160359538D01*
X50508681Y-160417854D01*
X50417854Y-160508681D01*
X50359538Y-160623132D01*
X50359537Y-160623136D01*
X50339445Y-160749996D01*
X50339445Y-160750003D01*
X50359537Y-160876863D01*
X50359538Y-160876867D01*
X50399933Y-160956146D01*
X50417854Y-160991318D01*
X50508682Y-161082146D01*
X50600646Y-161129004D01*
X50623132Y-161140461D01*
X50623136Y-161140462D01*
X50749997Y-161160555D01*
X50750000Y-161160555D01*
X50750001Y-161160555D01*
X50794127Y-161153566D01*
X50833080Y-161150500D01*
X52302727Y-161150500D01*
X52404588Y-161123207D01*
X52495913Y-161070480D01*
X54092962Y-159473429D01*
X54173744Y-159419454D01*
X54269032Y-159400500D01*
X62980967Y-159400500D01*
X63076255Y-159419454D01*
X63157037Y-159473430D01*
X63625159Y-159941552D01*
X63679135Y-160022334D01*
X63688866Y-160058650D01*
X63690276Y-160058273D01*
X63719637Y-160167854D01*
X63721793Y-160175898D01*
X63774520Y-160267223D01*
X64384165Y-160876868D01*
X64931570Y-161424272D01*
X64985546Y-161505054D01*
X65004500Y-161600342D01*
X65004500Y-163250500D01*
X64985546Y-163345788D01*
X64931570Y-163426570D01*
X64850788Y-163480546D01*
X64755500Y-163499500D01*
X62990994Y-163499500D01*
X62898926Y-163537635D01*
X62898922Y-163537638D01*
X62108103Y-164328456D01*
X62108104Y-164328457D01*
X62037635Y-164398926D01*
X61999500Y-164490994D01*
X61999500Y-167293099D01*
X61980546Y-167388387D01*
X61926570Y-167469169D01*
X61469169Y-167926570D01*
X61388387Y-167980546D01*
X61293099Y-167999500D01*
X58078824Y-167999500D01*
X58078816Y-167999499D01*
X58049828Y-167999499D01*
X57950173Y-167999499D01*
X57950172Y-167999499D01*
X57931813Y-168007104D01*
X57903995Y-168018627D01*
X57860894Y-168036480D01*
X57858103Y-168037636D01*
X57787636Y-168108103D01*
X57787635Y-168108104D01*
X56858103Y-169037635D01*
X56858103Y-169037636D01*
X56787635Y-169108104D01*
X56750532Y-169197680D01*
X56749500Y-169200172D01*
X56749500Y-170680203D01*
X56749500Y-170779859D01*
X56765901Y-170819454D01*
X56787635Y-170871926D01*
X56787638Y-170871930D01*
X57211792Y-171296085D01*
X57265768Y-171376866D01*
X57281656Y-171433201D01*
X57299687Y-171547044D01*
X57299688Y-171547048D01*
X57338457Y-171623136D01*
X57358004Y-171661499D01*
X57448832Y-171752327D01*
X57563282Y-171810642D01*
X57573803Y-171812308D01*
X57664952Y-171845933D01*
X57736297Y-171911881D01*
X57776973Y-172000111D01*
X57780789Y-172097191D01*
X57747164Y-172188341D01*
X57710925Y-172234311D01*
X57178719Y-172766516D01*
X57097940Y-172820491D01*
X57019315Y-172836130D01*
X57019355Y-172836379D01*
X57013027Y-172837381D01*
X57002652Y-172839445D01*
X56999997Y-172839445D01*
X56873136Y-172859537D01*
X56873132Y-172859538D01*
X56758681Y-172917854D01*
X56667854Y-173008681D01*
X56609538Y-173123132D01*
X56609537Y-173123136D01*
X56589445Y-173249996D01*
X56589445Y-173250002D01*
X56596817Y-173296548D01*
X56593003Y-173393628D01*
X56552328Y-173481859D01*
X56480985Y-173547807D01*
X56389835Y-173581434D01*
X56350883Y-173584500D01*
X54292403Y-173584500D01*
X54197115Y-173565546D01*
X54116333Y-173511570D01*
X53683485Y-173078722D01*
X53629509Y-172997940D01*
X53613869Y-172919315D01*
X53613621Y-172919355D01*
X53612618Y-172913027D01*
X53610555Y-172902652D01*
X53610555Y-172899996D01*
X53590462Y-172773136D01*
X53590461Y-172773132D01*
X53578673Y-172749996D01*
X53532146Y-172658682D01*
X53441318Y-172567854D01*
X53407259Y-172550500D01*
X53326867Y-172509538D01*
X53326863Y-172509537D01*
X53200003Y-172489445D01*
X53199997Y-172489445D01*
X53073136Y-172509537D01*
X53073132Y-172509538D01*
X52958681Y-172567854D01*
X52867854Y-172658681D01*
X52809538Y-172773132D01*
X52809537Y-172773136D01*
X52789445Y-172899996D01*
X52789445Y-172900003D01*
X52809537Y-173026863D01*
X52809538Y-173026867D01*
X52830144Y-173067308D01*
X52867854Y-173141318D01*
X52958682Y-173232146D01*
X53003952Y-173255212D01*
X53073132Y-173290461D01*
X53073136Y-173290462D01*
X53199997Y-173310555D01*
X53202652Y-173310555D01*
X53213027Y-173312618D01*
X53219355Y-173313621D01*
X53219315Y-173313869D01*
X53297940Y-173329509D01*
X53378721Y-173383485D01*
X53977929Y-173982692D01*
X53977928Y-173982692D01*
X54057134Y-174015500D01*
X59328185Y-174015500D01*
X59407390Y-173982692D01*
X59721984Y-173668098D01*
X59851653Y-173538430D01*
X59932434Y-173484454D01*
X60027722Y-173465500D01*
X63042866Y-173465500D01*
X63122071Y-173432692D01*
X63267929Y-173286834D01*
X63321279Y-173233485D01*
X63402060Y-173179509D01*
X63480684Y-173163869D01*
X63480645Y-173163621D01*
X63486972Y-173162618D01*
X63497348Y-173160555D01*
X63500003Y-173160555D01*
X63626863Y-173140462D01*
X63626865Y-173140461D01*
X63626868Y-173140461D01*
X63741318Y-173082146D01*
X63832146Y-172991318D01*
X63890461Y-172876868D01*
X63893206Y-172859537D01*
X63910555Y-172750003D01*
X63910555Y-172749996D01*
X63890462Y-172623136D01*
X63890461Y-172623132D01*
X63863111Y-172569454D01*
X63832146Y-172508682D01*
X63741318Y-172417854D01*
X63726406Y-172410256D01*
X63626867Y-172359538D01*
X63626863Y-172359537D01*
X63500003Y-172339445D01*
X63499997Y-172339445D01*
X63373136Y-172359537D01*
X63373132Y-172359538D01*
X63258681Y-172417854D01*
X63167854Y-172508681D01*
X63109538Y-172623132D01*
X63109537Y-172623136D01*
X63089445Y-172749996D01*
X63089445Y-172752651D01*
X63087381Y-172763022D01*
X63086379Y-172769355D01*
X63086130Y-172769315D01*
X63070491Y-172847939D01*
X63016517Y-172928718D01*
X62983669Y-172961567D01*
X62902889Y-173015545D01*
X62807601Y-173034500D01*
X59792453Y-173034500D01*
X59713248Y-173067307D01*
X59268985Y-173511570D01*
X59188204Y-173565546D01*
X59092916Y-173584500D01*
X57649117Y-173584500D01*
X57553829Y-173565546D01*
X57473047Y-173511570D01*
X57419071Y-173430788D01*
X57400117Y-173335500D01*
X57403183Y-173296548D01*
X57410555Y-173250002D01*
X57410555Y-173247347D01*
X57412619Y-173236967D01*
X57413621Y-173230645D01*
X57413869Y-173230684D01*
X57429509Y-173152059D01*
X57483485Y-173071277D01*
X57909263Y-172645499D01*
X58432692Y-172122071D01*
X58438652Y-172107682D01*
X58465500Y-172042866D01*
X58465500Y-170796720D01*
X58465499Y-170796718D01*
X58460715Y-170772666D01*
X58463422Y-170772127D01*
X58451959Y-170714502D01*
X58470912Y-170619214D01*
X58524888Y-170538432D01*
X58605669Y-170484455D01*
X58700957Y-170465500D01*
X62378185Y-170465500D01*
X62457390Y-170432692D01*
X62515086Y-170374996D01*
X62571653Y-170318430D01*
X62652435Y-170264454D01*
X62747722Y-170245500D01*
X62752278Y-170245500D01*
X62847566Y-170264454D01*
X62928347Y-170318430D01*
X63042610Y-170432692D01*
X63042609Y-170432692D01*
X63121815Y-170465500D01*
X63207547Y-170465500D01*
X63288896Y-170465500D01*
X63384184Y-170484454D01*
X63464966Y-170538430D01*
X63508682Y-170582146D01*
X63617427Y-170637554D01*
X63623132Y-170640461D01*
X63623136Y-170640462D01*
X63749997Y-170660555D01*
X63750000Y-170660555D01*
X63750003Y-170660555D01*
X63876863Y-170640462D01*
X63876865Y-170640461D01*
X63876868Y-170640461D01*
X63991318Y-170582146D01*
X64035034Y-170538430D01*
X64115816Y-170484454D01*
X64211104Y-170465500D01*
X64236383Y-170465500D01*
X64331671Y-170484454D01*
X64412453Y-170538430D01*
X64466429Y-170619212D01*
X64485383Y-170714500D01*
X64466429Y-170809788D01*
X64458244Y-170827543D01*
X64409538Y-170923132D01*
X64409537Y-170923136D01*
X64389445Y-171049996D01*
X64389445Y-171050003D01*
X64409537Y-171176863D01*
X64409538Y-171176867D01*
X64447983Y-171252319D01*
X64467854Y-171291318D01*
X64558682Y-171382146D01*
X64663486Y-171435546D01*
X64673132Y-171440461D01*
X64673136Y-171440462D01*
X64799997Y-171460555D01*
X64802652Y-171460555D01*
X64813027Y-171462618D01*
X64819355Y-171463621D01*
X64819315Y-171463869D01*
X64897940Y-171479509D01*
X64978721Y-171533485D01*
X65427929Y-171982692D01*
X65427928Y-171982692D01*
X65507134Y-172015500D01*
X65592865Y-172015500D01*
X66165357Y-172015500D01*
X66260645Y-172034454D01*
X66341427Y-172088430D01*
X66395403Y-172169212D01*
X66414357Y-172264500D01*
X66395404Y-172359786D01*
X66374498Y-172410258D01*
X66349500Y-172535928D01*
X66349500Y-172664071D01*
X66374498Y-172789742D01*
X66423532Y-172908122D01*
X66423535Y-172908127D01*
X66490723Y-173008682D01*
X66494724Y-173014669D01*
X66585331Y-173105276D01*
X66585334Y-173105278D01*
X66642483Y-173143464D01*
X66711182Y-173212163D01*
X66748362Y-173301923D01*
X66748361Y-173399078D01*
X66711182Y-173488837D01*
X66642483Y-173557536D01*
X66552723Y-173594716D01*
X66504146Y-173599500D01*
X64260118Y-173599500D01*
X64186427Y-173630023D01*
X63089880Y-174726570D01*
X63009098Y-174780546D01*
X62913810Y-174799500D01*
X52186190Y-174799500D01*
X52090902Y-174780546D01*
X52010120Y-174726570D01*
X51518790Y-174235240D01*
X50913574Y-173630024D01*
X50839882Y-173599500D01*
X48495854Y-173599500D01*
X48400566Y-173580546D01*
X48319784Y-173526570D01*
X48265808Y-173445788D01*
X48246854Y-173350500D01*
X48265808Y-173255212D01*
X48319784Y-173174430D01*
X48357517Y-173143464D01*
X48375220Y-173131634D01*
X48414669Y-173105276D01*
X48505276Y-173014669D01*
X48576465Y-172908127D01*
X48625501Y-172789744D01*
X48650500Y-172664069D01*
X48650500Y-172535931D01*
X48625501Y-172410256D01*
X48579833Y-172300003D01*
X48576467Y-172291877D01*
X48576466Y-172291876D01*
X48576465Y-172291873D01*
X48563743Y-172272834D01*
X48526566Y-172183075D01*
X48526567Y-172085920D01*
X48563748Y-171996161D01*
X48632447Y-171927462D01*
X48722207Y-171890284D01*
X48770782Y-171885500D01*
X49622866Y-171885500D01*
X49702071Y-171852692D01*
X50202438Y-171352323D01*
X50283219Y-171298348D01*
X50378507Y-171279394D01*
X50473795Y-171298348D01*
X50554576Y-171352324D01*
X50608553Y-171433106D01*
X50627507Y-171528394D01*
X50615320Y-171605340D01*
X50609537Y-171623135D01*
X50589445Y-171749996D01*
X50589445Y-171750003D01*
X50609537Y-171876863D01*
X50609538Y-171876867D01*
X50659284Y-171974499D01*
X50667854Y-171991318D01*
X50758682Y-172082146D01*
X50851524Y-172129451D01*
X50873132Y-172140461D01*
X50873136Y-172140462D01*
X50999997Y-172160555D01*
X51000000Y-172160555D01*
X51000003Y-172160555D01*
X51126863Y-172140462D01*
X51126865Y-172140461D01*
X51126868Y-172140461D01*
X51241318Y-172082146D01*
X51332146Y-171991318D01*
X51390461Y-171876868D01*
X51391515Y-171870212D01*
X51410555Y-171750003D01*
X51410555Y-171749996D01*
X51390462Y-171623136D01*
X51390461Y-171623132D01*
X51365305Y-171573761D01*
X51334594Y-171513487D01*
X51308224Y-171419982D01*
X51319643Y-171323500D01*
X51367115Y-171238733D01*
X51380373Y-171224389D01*
X53682692Y-168922071D01*
X53684561Y-168917556D01*
X53686752Y-168912270D01*
X53686755Y-168912264D01*
X53715498Y-168842871D01*
X53715498Y-168842870D01*
X53715500Y-168842866D01*
X53715500Y-168206101D01*
X53734454Y-168110815D01*
X53788427Y-168030036D01*
X53832146Y-167986318D01*
X53890461Y-167871868D01*
X53891133Y-167867626D01*
X53910555Y-167745003D01*
X53910555Y-167745000D01*
X53906685Y-167720567D01*
X53900021Y-167678491D01*
X53903834Y-167581415D01*
X53944508Y-167493184D01*
X54015851Y-167427235D01*
X54106997Y-167393608D01*
X54126868Y-167390461D01*
X54241318Y-167332146D01*
X54332146Y-167241318D01*
X54390461Y-167126868D01*
X54394278Y-167102772D01*
X54410555Y-167000000D01*
X54410555Y-166999996D01*
X54390462Y-166873136D01*
X54390461Y-166873132D01*
X54336361Y-166766955D01*
X54332146Y-166758682D01*
X54288430Y-166714966D01*
X54234454Y-166634184D01*
X54215500Y-166538896D01*
X54215500Y-165837135D01*
X54215500Y-165837134D01*
X54200047Y-165799828D01*
X54182693Y-165757930D01*
X53656224Y-165231461D01*
X53602248Y-165150679D01*
X53583294Y-165055391D01*
X53602248Y-164960103D01*
X53656224Y-164879321D01*
X53737006Y-164825345D01*
X53793347Y-164809456D01*
X53795519Y-164809112D01*
X53909969Y-164750797D01*
X54000797Y-164659969D01*
X54059112Y-164545519D01*
X54059795Y-164541208D01*
X54079206Y-164418654D01*
X54079206Y-164418647D01*
X54059113Y-164291787D01*
X54059112Y-164291783D01*
X54037144Y-164248669D01*
X54000797Y-164177333D01*
X53909969Y-164086505D01*
X53892894Y-164077805D01*
X53795518Y-164028189D01*
X53795514Y-164028188D01*
X53668654Y-164008096D01*
X53668648Y-164008096D01*
X53541787Y-164028188D01*
X53541783Y-164028189D01*
X53427332Y-164086505D01*
X53336505Y-164177332D01*
X53278189Y-164291783D01*
X53278187Y-164291789D01*
X53277843Y-164293967D01*
X53274804Y-164302202D01*
X53272133Y-164310424D01*
X53271809Y-164310318D01*
X53244213Y-164385116D01*
X53178262Y-164456457D01*
X53090031Y-164497129D01*
X52992950Y-164500940D01*
X52901801Y-164467310D01*
X52855840Y-164431077D01*
X51413210Y-162988447D01*
X49969318Y-161544555D01*
X49969316Y-161544554D01*
X49969315Y-161544553D01*
X49890113Y-161511747D01*
X49660092Y-161511747D01*
X49564804Y-161492793D01*
X49484022Y-161438817D01*
X49440306Y-161395101D01*
X49325855Y-161336785D01*
X49325851Y-161336784D01*
X49198991Y-161316692D01*
X49198985Y-161316692D01*
X49072124Y-161336784D01*
X49072120Y-161336785D01*
X48957669Y-161395101D01*
X48866842Y-161485928D01*
X48808526Y-161600379D01*
X48808525Y-161600383D01*
X48788433Y-161727243D01*
X48788433Y-161727250D01*
X48808525Y-161854110D01*
X48808526Y-161854114D01*
X48855968Y-161947223D01*
X48866842Y-161968565D01*
X48957670Y-162059393D01*
X49022346Y-162092347D01*
X49072120Y-162117708D01*
X49072124Y-162117709D01*
X49198985Y-162137802D01*
X49198988Y-162137802D01*
X49198991Y-162137802D01*
X49325851Y-162117709D01*
X49325853Y-162117708D01*
X49325856Y-162117708D01*
X49440306Y-162059393D01*
X49481397Y-162018301D01*
X49562175Y-161964326D01*
X49657462Y-161945370D01*
X49752751Y-161964322D01*
X49833533Y-162018297D01*
X49833537Y-162018300D01*
X53711570Y-165896333D01*
X53765546Y-165977115D01*
X53784500Y-166072403D01*
X53784500Y-166538896D01*
X53765546Y-166634184D01*
X53711570Y-166714966D01*
X53667854Y-166758681D01*
X53609538Y-166873132D01*
X53609537Y-166873136D01*
X53589445Y-166999996D01*
X53589445Y-167000000D01*
X53599978Y-167066506D01*
X53596164Y-167163586D01*
X53555489Y-167251817D01*
X53484146Y-167317765D01*
X53392997Y-167351392D01*
X53373136Y-167354537D01*
X53373132Y-167354538D01*
X53258681Y-167412854D01*
X53167854Y-167503681D01*
X53109538Y-167618132D01*
X53109537Y-167618136D01*
X53089445Y-167744996D01*
X53089445Y-167745003D01*
X53109537Y-167871863D01*
X53109538Y-167871867D01*
X53167854Y-167986319D01*
X53167855Y-167986320D01*
X53211568Y-168030032D01*
X53265545Y-168110813D01*
X53284500Y-168206101D01*
X53284500Y-168607597D01*
X53265546Y-168702885D01*
X53211570Y-168783667D01*
X51670374Y-170324862D01*
X51589592Y-170378838D01*
X51494304Y-170397792D01*
X51399016Y-170378838D01*
X51318234Y-170324862D01*
X51272443Y-170261836D01*
X51265461Y-170248133D01*
X51265461Y-170248132D01*
X51207146Y-170133682D01*
X51116318Y-170042854D01*
X51099922Y-170034500D01*
X51001867Y-169984538D01*
X51001863Y-169984537D01*
X50875003Y-169964445D01*
X50874997Y-169964445D01*
X50748136Y-169984537D01*
X50748132Y-169984538D01*
X50633681Y-170042854D01*
X50542854Y-170133681D01*
X50484538Y-170248132D01*
X50484537Y-170248136D01*
X50464445Y-170374996D01*
X50464445Y-170377652D01*
X50462381Y-170388027D01*
X50461379Y-170394355D01*
X50461130Y-170394315D01*
X50445491Y-170472940D01*
X50391515Y-170553721D01*
X49563668Y-171381569D01*
X49482886Y-171435546D01*
X49387598Y-171454500D01*
X47179793Y-171454500D01*
X47100588Y-171487307D01*
X46446325Y-172141570D01*
X46365544Y-172195546D01*
X46270256Y-172214500D01*
X46090900Y-172214500D01*
X45995612Y-172195546D01*
X45914830Y-172141570D01*
X45860854Y-172060788D01*
X45841900Y-171965500D01*
X45860854Y-171870212D01*
X45914828Y-171789432D01*
X46830830Y-170873429D01*
X46911612Y-170819454D01*
X47006900Y-170800500D01*
X48349828Y-170800500D01*
X48441897Y-170762364D01*
X50691895Y-168512364D01*
X50691897Y-168512364D01*
X50762364Y-168441897D01*
X50782502Y-168393280D01*
X50800501Y-168349827D01*
X50800501Y-168250172D01*
X50800501Y-168230107D01*
X50800500Y-168230093D01*
X50800500Y-167926104D01*
X50819454Y-167830816D01*
X50873430Y-167750034D01*
X50875946Y-167747518D01*
X50882146Y-167741318D01*
X50940461Y-167626868D01*
X50943206Y-167609539D01*
X50960555Y-167500003D01*
X50960555Y-167499996D01*
X50940462Y-167373136D01*
X50940461Y-167373132D01*
X50929384Y-167351392D01*
X50882146Y-167258682D01*
X50791318Y-167167854D01*
X50756790Y-167150261D01*
X50676867Y-167109538D01*
X50676863Y-167109537D01*
X50550003Y-167089445D01*
X50549997Y-167089445D01*
X50423136Y-167109537D01*
X50423132Y-167109538D01*
X50308681Y-167167854D01*
X50217854Y-167258681D01*
X50159538Y-167373132D01*
X50159537Y-167373136D01*
X50139445Y-167499996D01*
X50139445Y-167500003D01*
X50159537Y-167626863D01*
X50159538Y-167626867D01*
X50217854Y-167741318D01*
X50226570Y-167750034D01*
X50280546Y-167830816D01*
X50299500Y-167926104D01*
X50299500Y-168093099D01*
X50280546Y-168188387D01*
X50226570Y-168269169D01*
X48269169Y-170226570D01*
X48188387Y-170280546D01*
X48093099Y-170299500D01*
X46750172Y-170299500D01*
X46658104Y-170337635D01*
X45519169Y-171476570D01*
X45438387Y-171530546D01*
X45343099Y-171549500D01*
X44968031Y-171549500D01*
X44872743Y-171530546D01*
X44791961Y-171476570D01*
X44737985Y-171395788D01*
X44719031Y-171300500D01*
X44737985Y-171205212D01*
X44791958Y-171124433D01*
X44828050Y-171088342D01*
X44885646Y-170975304D01*
X44900500Y-170881519D01*
X44900500Y-169764500D01*
X44919454Y-169669212D01*
X44973430Y-169588430D01*
X45054212Y-169534454D01*
X45149500Y-169515500D01*
X46842866Y-169515500D01*
X46922071Y-169482692D01*
X49782692Y-166622071D01*
X49815500Y-166542866D01*
X49815500Y-166461103D01*
X49834454Y-166365815D01*
X49888427Y-166285036D01*
X49932146Y-166241318D01*
X49990461Y-166126868D01*
X49990462Y-166126863D01*
X50010555Y-166000003D01*
X50010555Y-165999996D01*
X49990462Y-165873136D01*
X49990461Y-165873132D01*
X49972119Y-165837134D01*
X49932146Y-165758682D01*
X49841318Y-165667854D01*
X49792983Y-165643226D01*
X49726867Y-165609538D01*
X49726863Y-165609537D01*
X49600003Y-165589445D01*
X49599997Y-165589445D01*
X49473136Y-165609537D01*
X49473132Y-165609538D01*
X49358681Y-165667854D01*
X49267854Y-165758681D01*
X49209538Y-165873132D01*
X49209537Y-165873136D01*
X49189445Y-165999996D01*
X49189445Y-166000003D01*
X49209537Y-166126863D01*
X49209538Y-166126867D01*
X49276751Y-166258779D01*
X49274696Y-166259825D01*
X49303908Y-166323199D01*
X49307716Y-166420279D01*
X49274083Y-166511427D01*
X49237853Y-166557382D01*
X48663318Y-167131916D01*
X48582537Y-167185892D01*
X48487249Y-167204846D01*
X48391961Y-167185892D01*
X48311179Y-167131915D01*
X48257203Y-167051134D01*
X48238249Y-166955850D01*
X48238249Y-162665782D01*
X48223396Y-162571996D01*
X48165800Y-162458958D01*
X48076092Y-162369250D01*
X48076089Y-162369248D01*
X47963053Y-162311653D01*
X47963049Y-162311652D01*
X47869280Y-162296801D01*
X47869271Y-162296800D01*
X47869269Y-162296800D01*
X47869265Y-162296800D01*
X47492650Y-162296800D01*
X47397362Y-162277846D01*
X47316580Y-162223870D01*
X47262604Y-162143088D01*
X47243650Y-162047800D01*
X47243650Y-161770423D01*
X47243649Y-161770420D01*
X47238178Y-161750000D01*
X47218982Y-161678360D01*
X47210499Y-161613919D01*
X47210499Y-161546634D01*
X47210499Y-161546628D01*
X47207682Y-161522338D01*
X47203600Y-161513094D01*
X47163814Y-161422986D01*
X47163813Y-161422985D01*
X47163813Y-161422984D01*
X47087016Y-161346187D01*
X47087014Y-161346186D01*
X47087013Y-161346185D01*
X47087014Y-161346185D01*
X46987666Y-161302319D01*
X46987658Y-161302317D01*
X46963378Y-161299500D01*
X46536635Y-161299500D01*
X46536623Y-161299501D01*
X46512337Y-161302318D01*
X46512333Y-161302319D01*
X46412986Y-161346185D01*
X46336185Y-161422986D01*
X46292319Y-161522333D01*
X46292317Y-161522341D01*
X46289500Y-161546620D01*
X46289500Y-161913364D01*
X46289501Y-161913376D01*
X46292318Y-161937662D01*
X46292319Y-161937666D01*
X46296539Y-161947223D01*
X46317690Y-162042048D01*
X46300942Y-162137748D01*
X46248846Y-162219755D01*
X46169333Y-162275583D01*
X46074508Y-162296734D01*
X46068757Y-162296800D01*
X45817034Y-162296800D01*
X45762451Y-162305445D01*
X45723246Y-162311654D01*
X45723244Y-162311654D01*
X45703891Y-162314720D01*
X45703683Y-162313412D01*
X45629456Y-162322196D01*
X45535950Y-162295821D01*
X45459654Y-162235671D01*
X45412185Y-162150902D01*
X45400000Y-162073964D01*
X45400000Y-156649500D01*
X45418954Y-156554212D01*
X45472930Y-156473430D01*
X45553712Y-156419454D01*
X45649000Y-156400500D01*
X47474214Y-156400500D01*
X47569502Y-156419454D01*
X47650284Y-156473430D01*
X47704260Y-156554212D01*
X47723214Y-156649500D01*
X47704260Y-156744788D01*
X47650284Y-156825570D01*
X47612551Y-156856536D01*
X47585334Y-156874721D01*
X47494721Y-156965334D01*
X47423535Y-157071872D01*
X47423532Y-157071877D01*
X47374498Y-157190257D01*
X47349500Y-157315928D01*
X47349500Y-157444071D01*
X47374498Y-157569742D01*
X47423532Y-157688122D01*
X47423535Y-157688127D01*
X47472133Y-157760860D01*
X47494724Y-157794669D01*
X47585331Y-157885276D01*
X47691873Y-157956465D01*
X47691875Y-157956465D01*
X47691877Y-157956467D01*
X47726549Y-157970828D01*
X47810256Y-158005501D01*
X47935929Y-158030499D01*
X47935930Y-158030500D01*
X47935931Y-158030500D01*
X48064070Y-158030500D01*
X48064070Y-158030499D01*
X48189744Y-158005501D01*
X48308127Y-157956465D01*
X48414669Y-157885276D01*
X48505276Y-157794669D01*
X48576465Y-157688127D01*
X48625501Y-157569744D01*
X48650500Y-157444069D01*
X48650500Y-157315931D01*
X48625501Y-157190256D01*
X48576465Y-157071873D01*
X48505276Y-156965331D01*
X48414669Y-156874724D01*
X48387449Y-156856536D01*
X48318750Y-156787836D01*
X48281570Y-156698077D01*
X48281571Y-156600922D01*
X48318750Y-156511163D01*
X48387450Y-156442464D01*
X48477209Y-156405284D01*
X48525786Y-156400500D01*
X50739882Y-156400500D01*
X50813574Y-156369976D01*
X51261848Y-155921701D01*
X51710121Y-155473430D01*
X51790902Y-155419454D01*
X51886190Y-155400500D01*
X63213810Y-155400500D01*
X63309098Y-155419454D01*
G37*
%TD.AperFunction*%
%TA.AperFunction,Conductor*%
G36*
X70595788Y-168695058D02*
G01*
X70676570Y-168749034D01*
X70730546Y-168829816D01*
X70749500Y-168925104D01*
X70749500Y-169851972D01*
X70749500Y-169951628D01*
X70769536Y-170000000D01*
X70787635Y-170043695D01*
X70787637Y-170043698D01*
X71271739Y-170527799D01*
X71271742Y-170527803D01*
X71271743Y-170527803D01*
X71285935Y-170541995D01*
X71285936Y-170541997D01*
X71356403Y-170612464D01*
X71374435Y-170619933D01*
X71455214Y-170673906D01*
X71484570Y-170709259D01*
X71496476Y-170726640D01*
X71496479Y-170726643D01*
X71496480Y-170726645D01*
X71576555Y-170806720D01*
X71680150Y-170852462D01*
X71690279Y-170853637D01*
X71705471Y-170855400D01*
X71705474Y-170855400D01*
X72000500Y-170855400D01*
X72095788Y-170874354D01*
X72176570Y-170928330D01*
X72230546Y-171009112D01*
X72249500Y-171104400D01*
X72249500Y-171170111D01*
X72230546Y-171265399D01*
X72207536Y-171308447D01*
X72139760Y-171409880D01*
X72139759Y-171409884D01*
X72124500Y-171486594D01*
X72124500Y-172013396D01*
X72124501Y-172013403D01*
X72139758Y-172090113D01*
X72139761Y-172090120D01*
X72197884Y-172177107D01*
X72197885Y-172177108D01*
X72197888Y-172177112D01*
X72284883Y-172235240D01*
X72361599Y-172250500D01*
X72638400Y-172250499D01*
X72689311Y-172240372D01*
X72715113Y-172235241D01*
X72715113Y-172235240D01*
X72715117Y-172235240D01*
X72802112Y-172177112D01*
X72860240Y-172090117D01*
X72875500Y-172013401D01*
X72875499Y-171486600D01*
X72866322Y-171440461D01*
X72860241Y-171409886D01*
X72860238Y-171409879D01*
X72792464Y-171308448D01*
X72755284Y-171218689D01*
X72750500Y-171170112D01*
X72750500Y-171104400D01*
X72769454Y-171009112D01*
X72823430Y-170928330D01*
X72904212Y-170874354D01*
X72999500Y-170855400D01*
X73294529Y-170855400D01*
X73307378Y-170853909D01*
X73319850Y-170852462D01*
X73423445Y-170806720D01*
X73503520Y-170726645D01*
X73549262Y-170623050D01*
X73552200Y-170597726D01*
X73552200Y-170202474D01*
X73549262Y-170177150D01*
X73503520Y-170073555D01*
X73423827Y-169993862D01*
X73369854Y-169913084D01*
X73350900Y-169817796D01*
X73350900Y-169382204D01*
X73369854Y-169286916D01*
X73423829Y-169206136D01*
X73439753Y-169190212D01*
X73474289Y-169155675D01*
X73555067Y-169101701D01*
X73650355Y-169082746D01*
X73693515Y-169089580D01*
X73693877Y-169087296D01*
X73840097Y-169110455D01*
X73840100Y-169110455D01*
X73840102Y-169110455D01*
X73956096Y-169092083D01*
X74053176Y-169095897D01*
X74141407Y-169136571D01*
X74155966Y-169149005D01*
X74162985Y-169153814D01*
X74262333Y-169197680D01*
X74262338Y-169197682D01*
X74286627Y-169200500D01*
X74621324Y-169200499D01*
X74716612Y-169219453D01*
X74797393Y-169273429D01*
X74851370Y-169354210D01*
X74858136Y-169372550D01*
X74859538Y-169376866D01*
X74859538Y-169376867D01*
X74859539Y-169376868D01*
X74917854Y-169491318D01*
X75008682Y-169582146D01*
X75096452Y-169626867D01*
X75123132Y-169640461D01*
X75123136Y-169640462D01*
X75249997Y-169660555D01*
X75250000Y-169660555D01*
X75250003Y-169660555D01*
X75376863Y-169640462D01*
X75376863Y-169640461D01*
X75376868Y-169640461D01*
X75387459Y-169635064D01*
X75480961Y-169608694D01*
X75577443Y-169620112D01*
X75662211Y-169667583D01*
X75722360Y-169743880D01*
X75748732Y-169837387D01*
X75749500Y-169856926D01*
X75749500Y-169914825D01*
X75756780Y-169951422D01*
X75756781Y-170048577D01*
X75756780Y-170048578D01*
X75749500Y-170085174D01*
X75749500Y-170414825D01*
X75756780Y-170451422D01*
X75756781Y-170548577D01*
X75756780Y-170548578D01*
X75749500Y-170585174D01*
X75749500Y-170750500D01*
X75730546Y-170845788D01*
X75676570Y-170926570D01*
X75595788Y-170980546D01*
X75500500Y-170999500D01*
X74880172Y-170999500D01*
X74788104Y-171037635D01*
X74717635Y-171108104D01*
X74717633Y-171108105D01*
X74649166Y-171176571D01*
X74568384Y-171230547D01*
X74473099Y-171249500D01*
X74286635Y-171249500D01*
X74286623Y-171249501D01*
X74262337Y-171252318D01*
X74262333Y-171252319D01*
X74162986Y-171296185D01*
X74086185Y-171372986D01*
X74042319Y-171472333D01*
X74042317Y-171472341D01*
X74039500Y-171496620D01*
X74039500Y-171863364D01*
X74039501Y-171863376D01*
X74042318Y-171887662D01*
X74042319Y-171887666D01*
X74086185Y-171987013D01*
X74086186Y-171987014D01*
X74086187Y-171987016D01*
X74162984Y-172063813D01*
X74162986Y-172063814D01*
X74162985Y-172063814D01*
X74262333Y-172107680D01*
X74262338Y-172107682D01*
X74286627Y-172110500D01*
X74334098Y-172110499D01*
X74429383Y-172129451D01*
X74510165Y-172183426D01*
X74564143Y-172264207D01*
X74583099Y-172359494D01*
X74564147Y-172454783D01*
X74510172Y-172535565D01*
X74510169Y-172535569D01*
X73758904Y-173286834D01*
X73678122Y-173340810D01*
X73582834Y-173359764D01*
X73487546Y-173340810D01*
X73444497Y-173317800D01*
X73365116Y-173264759D01*
X73288403Y-173249500D01*
X73011603Y-173249500D01*
X73011596Y-173249501D01*
X72934886Y-173264758D01*
X72934879Y-173264761D01*
X72847892Y-173322884D01*
X72847886Y-173322890D01*
X72789759Y-173409883D01*
X72789759Y-173409884D01*
X72774500Y-173486594D01*
X72774500Y-173719099D01*
X72755546Y-173814387D01*
X72701570Y-173895169D01*
X72620788Y-173949145D01*
X72525500Y-173968099D01*
X72430212Y-173949145D01*
X72349430Y-173895169D01*
X72298429Y-173844168D01*
X72244453Y-173763386D01*
X72225499Y-173668098D01*
X72225499Y-173486603D01*
X72225498Y-173486599D01*
X72220366Y-173460794D01*
X72210241Y-173409886D01*
X72210238Y-173409879D01*
X72152115Y-173322892D01*
X72152113Y-173322890D01*
X72152112Y-173322888D01*
X72103583Y-173290462D01*
X72065116Y-173264759D01*
X71988403Y-173249500D01*
X71711603Y-173249500D01*
X71711596Y-173249501D01*
X71634886Y-173264758D01*
X71634879Y-173264761D01*
X71547892Y-173322884D01*
X71547886Y-173322890D01*
X71489759Y-173409883D01*
X71489759Y-173409884D01*
X71474500Y-173486594D01*
X71474500Y-174013396D01*
X71474501Y-174013403D01*
X71489758Y-174090113D01*
X71489761Y-174090120D01*
X71547884Y-174177107D01*
X71547885Y-174177108D01*
X71547888Y-174177112D01*
X71634883Y-174235240D01*
X71711599Y-174250500D01*
X71893098Y-174250499D01*
X71988385Y-174269453D01*
X72069167Y-174323429D01*
X72069168Y-174323429D01*
X72120169Y-174374430D01*
X72174145Y-174455212D01*
X72193099Y-174550500D01*
X72174145Y-174645788D01*
X72120169Y-174726570D01*
X72039387Y-174780546D01*
X71944099Y-174799500D01*
X71186190Y-174799500D01*
X71090902Y-174780546D01*
X71010120Y-174726570D01*
X70518790Y-174235240D01*
X69913574Y-173630024D01*
X69839882Y-173599500D01*
X67495854Y-173599500D01*
X67400566Y-173580546D01*
X67319784Y-173526570D01*
X67265808Y-173445788D01*
X67246854Y-173350500D01*
X67265808Y-173255212D01*
X67319784Y-173174430D01*
X67357517Y-173143464D01*
X67375220Y-173131634D01*
X67414669Y-173105276D01*
X67505276Y-173014669D01*
X67576465Y-172908127D01*
X67625501Y-172789744D01*
X67650500Y-172664069D01*
X67650500Y-172535931D01*
X67625501Y-172410256D01*
X67604596Y-172359786D01*
X67585643Y-172264498D01*
X67604598Y-172169210D01*
X67658575Y-172088429D01*
X67739357Y-172034453D01*
X67834643Y-172015500D01*
X70357598Y-172015500D01*
X70452886Y-172034454D01*
X70533663Y-172088427D01*
X70566518Y-172121281D01*
X70620491Y-172202059D01*
X70636130Y-172280684D01*
X70636379Y-172280645D01*
X70637380Y-172286967D01*
X70639445Y-172297347D01*
X70639445Y-172300003D01*
X70659537Y-172426863D01*
X70659538Y-172426867D01*
X70691423Y-172489445D01*
X70717854Y-172541318D01*
X70808682Y-172632146D01*
X70871335Y-172664069D01*
X70923132Y-172690461D01*
X70923136Y-172690462D01*
X71049997Y-172710555D01*
X71050000Y-172710555D01*
X71050003Y-172710555D01*
X71176863Y-172690462D01*
X71176865Y-172690461D01*
X71176868Y-172690461D01*
X71291318Y-172632146D01*
X71382146Y-172541318D01*
X71440461Y-172426868D01*
X71451125Y-172359538D01*
X71460555Y-172300003D01*
X71460555Y-172299996D01*
X71440462Y-172173136D01*
X71440461Y-172173132D01*
X71414444Y-172122071D01*
X71382146Y-172058682D01*
X71291318Y-171967854D01*
X71236985Y-171940170D01*
X71176867Y-171909538D01*
X71176863Y-171909537D01*
X71050003Y-171889445D01*
X71047348Y-171889445D01*
X71036972Y-171887381D01*
X71030645Y-171886379D01*
X71030684Y-171886130D01*
X70952060Y-171870491D01*
X70871279Y-171816515D01*
X70672070Y-171617307D01*
X70672071Y-171617307D01*
X70592866Y-171584500D01*
X65742403Y-171584500D01*
X65647115Y-171565546D01*
X65566333Y-171511570D01*
X65283485Y-171228722D01*
X65229509Y-171147940D01*
X65213869Y-171069315D01*
X65213621Y-171069355D01*
X65212618Y-171063027D01*
X65210555Y-171052652D01*
X65210555Y-171049996D01*
X65190462Y-170923136D01*
X65190461Y-170923132D01*
X65141756Y-170827543D01*
X65115385Y-170734036D01*
X65126804Y-170637554D01*
X65174276Y-170552787D01*
X65250574Y-170492639D01*
X65344081Y-170466268D01*
X65363617Y-170465500D01*
X65792866Y-170465500D01*
X65872071Y-170432692D01*
X66321276Y-169983485D01*
X66402058Y-169929509D01*
X66480684Y-169913869D01*
X66480645Y-169913621D01*
X66486962Y-169912620D01*
X66497346Y-169910555D01*
X66500003Y-169910555D01*
X66626863Y-169890462D01*
X66626865Y-169890461D01*
X66626868Y-169890461D01*
X66741318Y-169832146D01*
X66832146Y-169741318D01*
X66890461Y-169626868D01*
X66892567Y-169613574D01*
X66910555Y-169500003D01*
X66910555Y-169494500D01*
X66929509Y-169399212D01*
X66983485Y-169318430D01*
X67064267Y-169264454D01*
X67159555Y-169245500D01*
X68640016Y-169245500D01*
X68735304Y-169264454D01*
X68816086Y-169318430D01*
X68861876Y-169381456D01*
X68917852Y-169491316D01*
X68917854Y-169491318D01*
X69008682Y-169582146D01*
X69096452Y-169626867D01*
X69123132Y-169640461D01*
X69123136Y-169640462D01*
X69249997Y-169660555D01*
X69250000Y-169660555D01*
X69250003Y-169660555D01*
X69376863Y-169640462D01*
X69376865Y-169640461D01*
X69376868Y-169640461D01*
X69491318Y-169582146D01*
X69582146Y-169491318D01*
X69640461Y-169376868D01*
X69645355Y-169345971D01*
X69660555Y-169250003D01*
X69660555Y-169249996D01*
X69640462Y-169123135D01*
X69639860Y-169121282D01*
X69638946Y-169113562D01*
X69637396Y-169103776D01*
X69637780Y-169103715D01*
X69628437Y-169024801D01*
X69654806Y-168931293D01*
X69714951Y-168854993D01*
X69799717Y-168807519D01*
X69896198Y-168796096D01*
X69953623Y-168807519D01*
X69955476Y-168808121D01*
X70082338Y-168828214D01*
X70082341Y-168828214D01*
X70082344Y-168828214D01*
X70209204Y-168808121D01*
X70209206Y-168808120D01*
X70209209Y-168808120D01*
X70323659Y-168749805D01*
X70324430Y-168749034D01*
X70328044Y-168746618D01*
X70339517Y-168738284D01*
X70339844Y-168738734D01*
X70405212Y-168695058D01*
X70500500Y-168676104D01*
X70595788Y-168695058D01*
G37*
%TD.AperFunction*%
%TA.AperFunction,Conductor*%
G36*
X76585788Y-172569454D02*
G01*
X76666570Y-172623430D01*
X76720546Y-172704212D01*
X76739500Y-172799500D01*
X76739500Y-173673604D01*
X76720546Y-173768892D01*
X76666572Y-173849670D01*
X76621074Y-173895169D01*
X76615383Y-173900860D01*
X76572270Y-173998501D01*
X76572270Y-173998502D01*
X76569501Y-174022373D01*
X76569500Y-174022380D01*
X76569500Y-174477614D01*
X76569501Y-174477626D01*
X76574428Y-174520105D01*
X76570279Y-174520586D01*
X76574540Y-174582085D01*
X76543652Y-174674199D01*
X76479864Y-174747481D01*
X76392889Y-174790775D01*
X76327551Y-174799500D01*
X74902449Y-174799500D01*
X74807161Y-174780546D01*
X74726379Y-174726570D01*
X74672403Y-174645788D01*
X74653449Y-174550500D01*
X74657482Y-174520320D01*
X74655571Y-174520099D01*
X74657728Y-174501501D01*
X74657730Y-174501498D01*
X74660500Y-174477623D01*
X74660499Y-174046900D01*
X74679453Y-173951612D01*
X74733429Y-173870831D01*
X75980830Y-172623430D01*
X76061612Y-172569454D01*
X76156900Y-172550500D01*
X76490500Y-172550500D01*
X76585788Y-172569454D01*
G37*
%TD.AperFunction*%
%TA.AperFunction,Conductor*%
G36*
X78090638Y-160708925D02*
G01*
X78178869Y-160749599D01*
X78208583Y-160774976D01*
X78301570Y-160867963D01*
X78355546Y-160948745D01*
X78374500Y-161044032D01*
X78374500Y-161291294D01*
X78384957Y-161363066D01*
X78384957Y-161363068D01*
X78439079Y-161473777D01*
X78439080Y-161473778D01*
X78439081Y-161473780D01*
X78526220Y-161560919D01*
X78526221Y-161560919D01*
X78526223Y-161560921D01*
X78526222Y-161560921D01*
X78636930Y-161615042D01*
X78636931Y-161615042D01*
X78636933Y-161615043D01*
X78708705Y-161625500D01*
X79291294Y-161625499D01*
X79363067Y-161615043D01*
X79441142Y-161576874D01*
X79535071Y-161552053D01*
X79631351Y-161565067D01*
X79715321Y-161613934D01*
X79774200Y-161691215D01*
X79799022Y-161785146D01*
X79799500Y-161800575D01*
X79799500Y-174550500D01*
X79780546Y-174645788D01*
X79726570Y-174726570D01*
X79645788Y-174780546D01*
X79550500Y-174799500D01*
X77652449Y-174799500D01*
X77557161Y-174780546D01*
X77476379Y-174726570D01*
X77422403Y-174645788D01*
X77403449Y-174550500D01*
X77407482Y-174520320D01*
X77405571Y-174520099D01*
X77407728Y-174501501D01*
X77407730Y-174501498D01*
X77410500Y-174477623D01*
X77410499Y-174022378D01*
X77407730Y-173998502D01*
X77364616Y-173900859D01*
X77313427Y-173849670D01*
X77259454Y-173768892D01*
X77240500Y-173673604D01*
X77240500Y-171940170D01*
X77235716Y-171916120D01*
X77240382Y-171915191D01*
X77230887Y-171868582D01*
X77249400Y-171773207D01*
X77303002Y-171692177D01*
X77366842Y-171645569D01*
X77376866Y-171640461D01*
X77376868Y-171640461D01*
X77491318Y-171582146D01*
X77582146Y-171491318D01*
X77640461Y-171376868D01*
X77640461Y-171376867D01*
X77640462Y-171376866D01*
X77640462Y-171376863D01*
X77660555Y-171250003D01*
X77660555Y-171249996D01*
X77640462Y-171123136D01*
X77640461Y-171123132D01*
X77622735Y-171088342D01*
X77582146Y-171008682D01*
X77491318Y-170917854D01*
X77408672Y-170875744D01*
X77332378Y-170815598D01*
X77284905Y-170730831D01*
X77273486Y-170634350D01*
X77299857Y-170540842D01*
X77323063Y-170508947D01*
X77320625Y-170507176D01*
X77332145Y-170491319D01*
X77332146Y-170491318D01*
X77390461Y-170376868D01*
X77390757Y-170375000D01*
X77410555Y-170250003D01*
X77410555Y-170230403D01*
X77412007Y-170230403D01*
X77414915Y-170156375D01*
X77455589Y-170068144D01*
X77526931Y-170002194D01*
X77618081Y-169968566D01*
X77657036Y-169965500D01*
X78288896Y-169965500D01*
X78384184Y-169984454D01*
X78464966Y-170038430D01*
X78508682Y-170082146D01*
X78623132Y-170140461D01*
X78623136Y-170140462D01*
X78749997Y-170160555D01*
X78750000Y-170160555D01*
X78750003Y-170160555D01*
X78876863Y-170140462D01*
X78876865Y-170140461D01*
X78876868Y-170140461D01*
X78991318Y-170082146D01*
X79082146Y-169991318D01*
X79140461Y-169876868D01*
X79145143Y-169847306D01*
X79160555Y-169750003D01*
X79160555Y-169749996D01*
X79140462Y-169623136D01*
X79140461Y-169623132D01*
X79127625Y-169597940D01*
X79082146Y-169508682D01*
X78991318Y-169417854D01*
X78918572Y-169380788D01*
X78876867Y-169359538D01*
X78876863Y-169359537D01*
X78750003Y-169339445D01*
X78749997Y-169339445D01*
X78623136Y-169359537D01*
X78623132Y-169359538D01*
X78508681Y-169417854D01*
X78464966Y-169461570D01*
X78384184Y-169515546D01*
X78288896Y-169534500D01*
X77961723Y-169534500D01*
X77866435Y-169515546D01*
X77785653Y-169461570D01*
X77731677Y-169380788D01*
X77712723Y-169285500D01*
X77731677Y-169190212D01*
X77785653Y-169109430D01*
X77848680Y-169063639D01*
X77900994Y-169036984D01*
X77991822Y-168946156D01*
X78050137Y-168831706D01*
X78050138Y-168831701D01*
X78070231Y-168704841D01*
X78070231Y-168704834D01*
X78050138Y-168577974D01*
X78050137Y-168577970D01*
X78033095Y-168544523D01*
X77991822Y-168463520D01*
X77900994Y-168372692D01*
X77860486Y-168352052D01*
X77784189Y-168291904D01*
X77736718Y-168207136D01*
X77725299Y-168110655D01*
X77751668Y-168017154D01*
X77800137Y-167922030D01*
X77801279Y-167914820D01*
X77820231Y-167795165D01*
X77820231Y-167795158D01*
X77800138Y-167668298D01*
X77800137Y-167668294D01*
X77799886Y-167667801D01*
X77741822Y-167553844D01*
X77650994Y-167463016D01*
X77618868Y-167446647D01*
X77536543Y-167404700D01*
X77536539Y-167404699D01*
X77409679Y-167384607D01*
X77409673Y-167384607D01*
X77282812Y-167404699D01*
X77282808Y-167404700D01*
X77168357Y-167463016D01*
X77095828Y-167535545D01*
X77015046Y-167589521D01*
X76919758Y-167608474D01*
X76824469Y-167589519D01*
X76743688Y-167535543D01*
X76712722Y-167497809D01*
X76708505Y-167491498D01*
X76708504Y-167491496D01*
X76658722Y-167458233D01*
X76658720Y-167458232D01*
X76656931Y-167457037D01*
X76588232Y-167388338D01*
X76551052Y-167298579D01*
X76551051Y-167201424D01*
X76588230Y-167111664D01*
X76656931Y-167042963D01*
X76658720Y-167041767D01*
X76658722Y-167041767D01*
X76708504Y-167008504D01*
X76741767Y-166958722D01*
X76750500Y-166914820D01*
X76750500Y-166585180D01*
X76743218Y-166548577D01*
X76743217Y-166451432D01*
X76750500Y-166414820D01*
X76750500Y-166085180D01*
X76743218Y-166048577D01*
X76743217Y-165951432D01*
X76750500Y-165914820D01*
X76750500Y-165585180D01*
X76743218Y-165548577D01*
X76743217Y-165451432D01*
X76750500Y-165414820D01*
X76750500Y-165085180D01*
X76743218Y-165048577D01*
X76743217Y-164951432D01*
X76750500Y-164914820D01*
X76750500Y-164585180D01*
X76743218Y-164548577D01*
X76743217Y-164451432D01*
X76750500Y-164414820D01*
X76750500Y-164085180D01*
X76743218Y-164048577D01*
X76743217Y-163951432D01*
X76750500Y-163914820D01*
X76750500Y-163585180D01*
X76746997Y-163567571D01*
X76741768Y-163541280D01*
X76741767Y-163541278D01*
X76708504Y-163491496D01*
X76658722Y-163458233D01*
X76658720Y-163458232D01*
X76638331Y-163444609D01*
X76640148Y-163441888D01*
X76593423Y-163410666D01*
X76539450Y-163329882D01*
X76520500Y-163234603D01*
X76520500Y-162323468D01*
X76539454Y-162228180D01*
X76593427Y-162147401D01*
X76653813Y-162087016D01*
X76697682Y-161987662D01*
X76700500Y-161963373D01*
X76700499Y-161536628D01*
X76697682Y-161512338D01*
X76692233Y-161499998D01*
X76653814Y-161412986D01*
X76653813Y-161412985D01*
X76653813Y-161412984D01*
X76636894Y-161396065D01*
X76582921Y-161315287D01*
X76563967Y-161219999D01*
X76582921Y-161124711D01*
X76636897Y-161043929D01*
X76717679Y-160989953D01*
X76812963Y-160970999D01*
X77531518Y-160970999D01*
X77625304Y-160956146D01*
X77738342Y-160898550D01*
X77828050Y-160808842D01*
X77828053Y-160808835D01*
X77831066Y-160804690D01*
X77902408Y-160738740D01*
X77993558Y-160705112D01*
X78090638Y-160708925D01*
G37*
%TD.AperFunction*%
%TA.AperFunction,Conductor*%
G36*
X45309730Y-162318954D02*
G01*
X45390512Y-162372930D01*
X45444488Y-162453712D01*
X45463442Y-162549000D01*
X45460377Y-162587951D01*
X45448050Y-162665780D01*
X45448050Y-165840419D01*
X45429096Y-165935707D01*
X45375120Y-166016489D01*
X45294338Y-166070465D01*
X45199050Y-166089419D01*
X45103762Y-166070465D01*
X45096654Y-166066666D01*
X45053461Y-166048774D01*
X45053460Y-166048774D01*
X44994855Y-166024499D01*
X44905145Y-166024499D01*
X44876157Y-166024499D01*
X44876149Y-166024500D01*
X35023851Y-166024500D01*
X35023843Y-166024499D01*
X34994855Y-166024499D01*
X34905145Y-166024499D01*
X34846543Y-166048771D01*
X34846544Y-166048772D01*
X34822265Y-166058829D01*
X34822261Y-166058831D01*
X34758829Y-166122263D01*
X34758830Y-166122264D01*
X34758829Y-166122265D01*
X34758828Y-166122265D01*
X33829270Y-167051822D01*
X33748489Y-167105798D01*
X33653201Y-167124752D01*
X33648051Y-167124500D01*
X33061603Y-167124500D01*
X33061596Y-167124501D01*
X32984886Y-167139758D01*
X32984879Y-167139761D01*
X32897892Y-167197884D01*
X32897886Y-167197890D01*
X32839759Y-167284883D01*
X32839759Y-167284884D01*
X32824500Y-167361594D01*
X32824500Y-167638396D01*
X32824501Y-167638403D01*
X32839758Y-167715113D01*
X32839761Y-167715120D01*
X32897884Y-167802107D01*
X32897885Y-167802108D01*
X32897888Y-167802112D01*
X32984883Y-167860240D01*
X33061599Y-167875500D01*
X33638400Y-167875499D01*
X33689311Y-167865372D01*
X33715113Y-167860241D01*
X33715113Y-167860240D01*
X33715117Y-167860240D01*
X33802112Y-167802112D01*
X33860240Y-167715117D01*
X33860241Y-167715113D01*
X33869625Y-167692459D01*
X33870289Y-167692734D01*
X33896695Y-167628978D01*
X33927667Y-167591237D01*
X34970476Y-166548430D01*
X35051257Y-166494454D01*
X35146545Y-166475500D01*
X42104061Y-166475500D01*
X42199349Y-166494454D01*
X42280131Y-166548430D01*
X42334107Y-166629212D01*
X42353061Y-166724500D01*
X42334107Y-166819788D01*
X42280131Y-166900570D01*
X42077929Y-167102772D01*
X42077928Y-167102771D01*
X42017308Y-167163391D01*
X42003682Y-167183785D01*
X42000014Y-167181334D01*
X41972008Y-167223227D01*
X39783667Y-169411570D01*
X39702885Y-169465546D01*
X39607597Y-169484500D01*
X38657134Y-169484500D01*
X38599183Y-169508504D01*
X38577932Y-169517306D01*
X38577929Y-169517308D01*
X37068667Y-171026570D01*
X36987885Y-171080546D01*
X36892597Y-171099500D01*
X34307403Y-171099500D01*
X34212115Y-171080546D01*
X34131333Y-171026570D01*
X33298430Y-170193667D01*
X33244454Y-170112885D01*
X33225500Y-170017597D01*
X33225500Y-169861396D01*
X33244454Y-169766108D01*
X33298430Y-169685326D01*
X33309138Y-169674616D01*
X33309141Y-169674616D01*
X33384616Y-169599141D01*
X33427730Y-169501498D01*
X33430500Y-169477623D01*
X33430499Y-169022378D01*
X33427730Y-168998502D01*
X33384616Y-168900859D01*
X33309141Y-168825384D01*
X33284885Y-168814674D01*
X33211498Y-168782270D01*
X33211489Y-168782269D01*
X33187623Y-168779500D01*
X33187619Y-168779500D01*
X32832385Y-168779500D01*
X32832373Y-168779501D01*
X32808504Y-168782269D01*
X32808501Y-168782270D01*
X32710860Y-168825383D01*
X32710859Y-168825383D01*
X32710859Y-168825384D01*
X32676066Y-168860176D01*
X32595288Y-168914150D01*
X32500000Y-168933104D01*
X32404712Y-168914150D01*
X32323933Y-168860176D01*
X32289141Y-168825384D01*
X32289139Y-168825383D01*
X32278430Y-168814674D01*
X32224454Y-168733892D01*
X32205500Y-168638604D01*
X32205500Y-167797133D01*
X32192501Y-167765751D01*
X32173547Y-167670463D01*
X32174746Y-167646057D01*
X32175498Y-167638410D01*
X32175500Y-167638401D01*
X32175499Y-167361600D01*
X32166307Y-167315384D01*
X32160241Y-167284886D01*
X32150855Y-167262227D01*
X32151603Y-167261916D01*
X32125368Y-167198581D01*
X32125367Y-167101426D01*
X32151602Y-167038084D01*
X32150855Y-167037775D01*
X32160237Y-167015120D01*
X32160240Y-167015117D01*
X32175500Y-166938401D01*
X32175499Y-166763549D01*
X32194452Y-166668263D01*
X32248428Y-166587481D01*
X32329210Y-166533505D01*
X32424498Y-166514550D01*
X32448910Y-166515749D01*
X32484814Y-166519286D01*
X32515190Y-166519286D01*
X32515193Y-166519285D01*
X32719067Y-166499206D01*
X32719075Y-166499205D01*
X32748864Y-166493279D01*
X32748866Y-166493279D01*
X32944902Y-166433812D01*
X32944910Y-166433809D01*
X32972982Y-166422181D01*
X32972998Y-166422173D01*
X33153648Y-166325614D01*
X33153658Y-166325608D01*
X33178907Y-166308737D01*
X33178918Y-166308729D01*
X33337276Y-166178768D01*
X33358768Y-166157276D01*
X33488729Y-165998918D01*
X33488737Y-165998907D01*
X33505608Y-165973658D01*
X33505614Y-165973648D01*
X33602173Y-165792998D01*
X33602181Y-165792982D01*
X33613809Y-165764910D01*
X33613812Y-165764902D01*
X33673279Y-165568866D01*
X33673279Y-165568864D01*
X33679205Y-165539075D01*
X33679206Y-165539067D01*
X33699285Y-165335193D01*
X33699286Y-165335190D01*
X33699286Y-165304810D01*
X33699285Y-165304806D01*
X33679206Y-165100932D01*
X33679205Y-165100924D01*
X33673279Y-165071135D01*
X33673279Y-165071133D01*
X33613812Y-164875097D01*
X33613809Y-164875089D01*
X33602181Y-164847017D01*
X33602173Y-164847001D01*
X33505614Y-164666351D01*
X33505608Y-164666341D01*
X33488737Y-164641092D01*
X33488729Y-164641081D01*
X33358768Y-164482723D01*
X33337276Y-164461231D01*
X33178918Y-164331270D01*
X33178907Y-164331262D01*
X33153658Y-164314391D01*
X33153648Y-164314385D01*
X32972998Y-164217826D01*
X32972982Y-164217818D01*
X32944910Y-164206190D01*
X32944902Y-164206187D01*
X32748865Y-164146720D01*
X32719075Y-164140794D01*
X32719067Y-164140793D01*
X32515193Y-164120714D01*
X32484806Y-164120714D01*
X32280932Y-164140793D01*
X32280924Y-164140794D01*
X32251135Y-164146720D01*
X32251133Y-164146720D01*
X32055097Y-164206187D01*
X32055089Y-164206190D01*
X32027017Y-164217818D01*
X32027001Y-164217826D01*
X31846351Y-164314385D01*
X31846341Y-164314391D01*
X31821092Y-164331262D01*
X31821081Y-164331270D01*
X31662723Y-164461231D01*
X31641231Y-164482723D01*
X31511270Y-164641081D01*
X31511262Y-164641092D01*
X31494391Y-164666341D01*
X31494385Y-164666351D01*
X31397826Y-164847001D01*
X31397818Y-164847017D01*
X31386190Y-164875089D01*
X31386187Y-164875097D01*
X31326720Y-165071133D01*
X31326720Y-165071135D01*
X31320794Y-165100924D01*
X31320793Y-165100932D01*
X31300715Y-165304787D01*
X31300714Y-165304804D01*
X31299718Y-165325083D01*
X31320793Y-165539067D01*
X31320794Y-165539075D01*
X31326720Y-165568864D01*
X31326720Y-165568866D01*
X31386187Y-165764902D01*
X31386190Y-165764910D01*
X31397818Y-165792982D01*
X31397826Y-165792998D01*
X31494385Y-165973648D01*
X31494391Y-165973658D01*
X31511273Y-165998924D01*
X31513680Y-166002169D01*
X31514257Y-166003390D01*
X31514667Y-166004003D01*
X31514576Y-166004063D01*
X31555220Y-166089995D01*
X31559988Y-166187033D01*
X31527259Y-166278509D01*
X31462014Y-166350497D01*
X31374188Y-166392037D01*
X31313683Y-166399500D01*
X30977272Y-166399500D01*
X30875413Y-166426792D01*
X30875410Y-166426793D01*
X30784086Y-166479519D01*
X30784084Y-166479521D01*
X30447034Y-166816570D01*
X30366253Y-166870546D01*
X30270966Y-166889500D01*
X29986635Y-166889500D01*
X29986623Y-166889501D01*
X29962337Y-166892318D01*
X29962334Y-166892319D01*
X29948830Y-166898282D01*
X29854006Y-166919433D01*
X29848251Y-166919500D01*
X29517273Y-166919500D01*
X29415414Y-166946792D01*
X29415411Y-166946793D01*
X29324087Y-166999519D01*
X29324084Y-166999522D01*
X29126113Y-167197492D01*
X29045331Y-167251468D01*
X28978732Y-167268764D01*
X28972378Y-167269501D01*
X28948502Y-167272270D01*
X28948501Y-167272270D01*
X28850860Y-167315383D01*
X28775383Y-167390860D01*
X28736346Y-167479270D01*
X28732270Y-167488502D01*
X28730937Y-167499996D01*
X28729500Y-167512380D01*
X28729500Y-167867614D01*
X28729501Y-167867626D01*
X28732269Y-167891495D01*
X28732270Y-167891498D01*
X28774137Y-167986318D01*
X28775384Y-167989141D01*
X28810176Y-168023933D01*
X28864150Y-168104712D01*
X28883104Y-168200000D01*
X28864150Y-168295288D01*
X28810176Y-168376066D01*
X28790672Y-168395571D01*
X28775383Y-168410860D01*
X28736024Y-168500000D01*
X28732270Y-168508502D01*
X28729501Y-168532373D01*
X28729500Y-168532380D01*
X28729500Y-168887614D01*
X28729501Y-168887626D01*
X28732269Y-168911495D01*
X28732270Y-168911498D01*
X28757084Y-168967697D01*
X28775384Y-169009141D01*
X28850859Y-169084616D01*
X28850860Y-169084616D01*
X28850861Y-169084617D01*
X28862101Y-169089580D01*
X28948502Y-169127730D01*
X28948503Y-169127730D01*
X28950625Y-169128667D01*
X29026120Y-169180381D01*
X31635172Y-171789433D01*
X31689146Y-171870212D01*
X31708100Y-171965500D01*
X31689146Y-172060788D01*
X31635170Y-172141570D01*
X31554388Y-172195546D01*
X31459100Y-172214500D01*
X30922403Y-172214500D01*
X30827115Y-172195546D01*
X30746333Y-172141570D01*
X28402802Y-169798039D01*
X26022071Y-167417308D01*
X26022069Y-167417307D01*
X26022068Y-167417306D01*
X25942866Y-167384500D01*
X24961104Y-167384500D01*
X24865816Y-167365546D01*
X24785034Y-167311570D01*
X24741318Y-167267854D01*
X24626867Y-167209538D01*
X24626863Y-167209537D01*
X24500003Y-167189445D01*
X24499997Y-167189445D01*
X24373136Y-167209537D01*
X24373132Y-167209538D01*
X24258681Y-167267854D01*
X24167854Y-167358681D01*
X24109538Y-167473132D01*
X24109537Y-167473136D01*
X24089445Y-167599996D01*
X24089445Y-167600003D01*
X24109537Y-167726863D01*
X24109538Y-167726867D01*
X24147878Y-167802113D01*
X24167854Y-167841318D01*
X24258682Y-167932146D01*
X24362391Y-167984988D01*
X24373132Y-167990461D01*
X24373136Y-167990462D01*
X24499997Y-168010555D01*
X24500000Y-168010555D01*
X24500003Y-168010555D01*
X24626863Y-167990462D01*
X24626865Y-167990461D01*
X24626868Y-167990461D01*
X24741318Y-167932146D01*
X24785034Y-167888430D01*
X24865816Y-167834454D01*
X24961104Y-167815500D01*
X25707597Y-167815500D01*
X25802885Y-167834454D01*
X25883667Y-167888430D01*
X30607930Y-172612693D01*
X30633129Y-172623130D01*
X30633133Y-172623133D01*
X30633133Y-172623132D01*
X30687134Y-172645500D01*
X30687135Y-172645500D01*
X30687136Y-172645500D01*
X46505525Y-172645500D01*
X46584730Y-172612692D01*
X46939913Y-172257508D01*
X47020692Y-172203534D01*
X47115980Y-172184580D01*
X47211268Y-172203534D01*
X47292049Y-172257510D01*
X47346026Y-172338292D01*
X47364980Y-172433580D01*
X47360196Y-172482156D01*
X47349500Y-172535930D01*
X47349500Y-172664071D01*
X47374498Y-172789742D01*
X47423532Y-172908122D01*
X47423535Y-172908127D01*
X47490723Y-173008682D01*
X47494724Y-173014669D01*
X47585331Y-173105276D01*
X47585334Y-173105278D01*
X47642483Y-173143464D01*
X47711182Y-173212163D01*
X47748362Y-173301923D01*
X47748361Y-173399078D01*
X47711182Y-173488837D01*
X47642483Y-173557536D01*
X47552723Y-173594716D01*
X47504146Y-173599500D01*
X26986190Y-173599500D01*
X26890902Y-173580546D01*
X26810120Y-173526570D01*
X22773430Y-169489880D01*
X22719454Y-169409098D01*
X22700500Y-169313810D01*
X22700500Y-165064071D01*
X23549500Y-165064071D01*
X23574498Y-165189742D01*
X23623532Y-165308122D01*
X23623535Y-165308127D01*
X23694724Y-165414669D01*
X23785331Y-165505276D01*
X23891873Y-165576465D01*
X23891875Y-165576465D01*
X23891877Y-165576467D01*
X23912920Y-165585183D01*
X24010256Y-165625501D01*
X24135929Y-165650499D01*
X24135930Y-165650500D01*
X24135931Y-165650500D01*
X24264070Y-165650500D01*
X24264070Y-165650499D01*
X24389744Y-165625501D01*
X24508127Y-165576465D01*
X24614669Y-165505276D01*
X24705276Y-165414669D01*
X24776465Y-165308127D01*
X24825501Y-165189744D01*
X24850500Y-165064069D01*
X24850500Y-164935931D01*
X24825501Y-164810256D01*
X24776465Y-164691873D01*
X24705276Y-164585331D01*
X24614669Y-164494724D01*
X24598420Y-164483867D01*
X24508127Y-164423535D01*
X24508122Y-164423532D01*
X24407534Y-164381868D01*
X24389744Y-164374499D01*
X24389742Y-164374498D01*
X24264071Y-164349500D01*
X24264069Y-164349500D01*
X24135931Y-164349500D01*
X24135928Y-164349500D01*
X24010257Y-164374498D01*
X23891877Y-164423532D01*
X23891872Y-164423535D01*
X23785334Y-164494721D01*
X23694721Y-164585334D01*
X23623535Y-164691872D01*
X23623532Y-164691877D01*
X23574498Y-164810257D01*
X23549500Y-164935928D01*
X23549500Y-165064071D01*
X22700500Y-165064071D01*
X22700500Y-162549000D01*
X22719454Y-162453712D01*
X22773430Y-162372930D01*
X22854212Y-162318954D01*
X22949500Y-162300000D01*
X45214442Y-162300000D01*
X45309730Y-162318954D01*
G37*
%TD.AperFunction*%
%TA.AperFunction,Conductor*%
G36*
X31042363Y-167614432D02*
G01*
X31115407Y-167678492D01*
X31125157Y-167695379D01*
X31126135Y-167694726D01*
X31197884Y-167802107D01*
X31197885Y-167802108D01*
X31197888Y-167802112D01*
X31284883Y-167860240D01*
X31361599Y-167875500D01*
X31525501Y-167875499D01*
X31620787Y-167894452D01*
X31701569Y-167948428D01*
X31755545Y-168029210D01*
X31774500Y-168124498D01*
X31774500Y-168638604D01*
X31755546Y-168733892D01*
X31701570Y-168814674D01*
X31690860Y-168825383D01*
X31690859Y-168825384D01*
X31656706Y-168859537D01*
X31615383Y-168900860D01*
X31572701Y-168997526D01*
X31572270Y-168998502D01*
X31569501Y-169022373D01*
X31569500Y-169022380D01*
X31569500Y-169477614D01*
X31569501Y-169477626D01*
X31572269Y-169501495D01*
X31572270Y-169501498D01*
X31610654Y-169588430D01*
X31615384Y-169599141D01*
X31690859Y-169674616D01*
X31788502Y-169717730D01*
X31812377Y-169720500D01*
X32167622Y-169720499D01*
X32191498Y-169717730D01*
X32289141Y-169674616D01*
X32323933Y-169639823D01*
X32404712Y-169585850D01*
X32500000Y-169566896D01*
X32595288Y-169585850D01*
X32676066Y-169639823D01*
X32710859Y-169674616D01*
X32710860Y-169674616D01*
X32721570Y-169685326D01*
X32775546Y-169766108D01*
X32794500Y-169861396D01*
X32794500Y-170252866D01*
X32827306Y-170332068D01*
X32827307Y-170332069D01*
X32827308Y-170332071D01*
X33619670Y-171124433D01*
X33673644Y-171205212D01*
X33692598Y-171300500D01*
X33673644Y-171395788D01*
X33619668Y-171476570D01*
X33538886Y-171530546D01*
X33443598Y-171549500D01*
X32206901Y-171549500D01*
X32111613Y-171530546D01*
X32030831Y-171476570D01*
X29726476Y-169172215D01*
X29672500Y-169091433D01*
X29653546Y-168996145D01*
X29666584Y-168930595D01*
X29662813Y-168929569D01*
X29667726Y-168911504D01*
X29667730Y-168911498D01*
X29670500Y-168887623D01*
X29670499Y-168532378D01*
X29667730Y-168508502D01*
X29624616Y-168410859D01*
X29589823Y-168376066D01*
X29535850Y-168295288D01*
X29516896Y-168200000D01*
X29535850Y-168104712D01*
X29589823Y-168023933D01*
X29624616Y-167989141D01*
X29667730Y-167891498D01*
X29667730Y-167891496D01*
X29669512Y-167887461D01*
X29725339Y-167807947D01*
X29807346Y-167755851D01*
X29903046Y-167739102D01*
X29960926Y-167747518D01*
X29962337Y-167747681D01*
X29962338Y-167747682D01*
X29986627Y-167750500D01*
X30413372Y-167750499D01*
X30437662Y-167747682D01*
X30446143Y-167743937D01*
X30451170Y-167741718D01*
X30545994Y-167720567D01*
X30551749Y-167720500D01*
X30562726Y-167720500D01*
X30664587Y-167693207D01*
X30755912Y-167640480D01*
X30755914Y-167640478D01*
X30766281Y-167632524D01*
X30853417Y-167589555D01*
X30950364Y-167583202D01*
X31042363Y-167614432D01*
G37*
%TD.AperFunction*%
%TA.AperFunction,Conductor*%
G36*
X42445788Y-167576355D02*
G01*
X42526570Y-167630331D01*
X42580546Y-167711113D01*
X42599500Y-167806401D01*
X42599500Y-170881515D01*
X42606997Y-170928849D01*
X42614354Y-170975304D01*
X42671950Y-171088342D01*
X42708041Y-171124433D01*
X42762015Y-171205212D01*
X42780969Y-171300500D01*
X42762015Y-171395788D01*
X42708039Y-171476570D01*
X42627257Y-171530546D01*
X42531969Y-171549500D01*
X37756402Y-171549500D01*
X37661114Y-171530546D01*
X37580332Y-171476570D01*
X37526356Y-171395788D01*
X37507402Y-171300500D01*
X37526356Y-171205212D01*
X37580329Y-171124433D01*
X38716333Y-169988430D01*
X38797115Y-169934454D01*
X38892403Y-169915500D01*
X39842866Y-169915500D01*
X39922071Y-169882692D01*
X42174436Y-167630326D01*
X42255212Y-167576355D01*
X42350500Y-167557401D01*
X42445788Y-167576355D01*
G37*
%TD.AperFunction*%
%TA.AperFunction,Conductor*%
G36*
X64630788Y-166141356D02*
G01*
X64711570Y-166195332D01*
X64765546Y-166276114D01*
X64784500Y-166371402D01*
X64784500Y-168457547D01*
X64817307Y-168536751D01*
X65432625Y-169152070D01*
X65493248Y-169212692D01*
X65493247Y-169212692D01*
X65572453Y-169245500D01*
X65840445Y-169245500D01*
X65935733Y-169264454D01*
X66016515Y-169318430D01*
X66070491Y-169399212D01*
X66089445Y-169494500D01*
X66089445Y-169502652D01*
X66070491Y-169597940D01*
X66016515Y-169678721D01*
X65733668Y-169961569D01*
X65652887Y-170015546D01*
X65557598Y-170034500D01*
X64211104Y-170034500D01*
X64115816Y-170015546D01*
X64035034Y-169961570D01*
X63991318Y-169917854D01*
X63876867Y-169859538D01*
X63876863Y-169859537D01*
X63750003Y-169839445D01*
X63749997Y-169839445D01*
X63623136Y-169859537D01*
X63623132Y-169859538D01*
X63508680Y-169917854D01*
X63499055Y-169927479D01*
X63418272Y-169981454D01*
X63322984Y-170000406D01*
X63227696Y-169981450D01*
X63146922Y-169927478D01*
X63066752Y-169847308D01*
X63066750Y-169847307D01*
X63066749Y-169847306D01*
X62987547Y-169814500D01*
X62598185Y-169814500D01*
X62512453Y-169814500D01*
X62433248Y-169847307D01*
X62318985Y-169961570D01*
X62238203Y-170015546D01*
X62142916Y-170034500D01*
X58692404Y-170034500D01*
X58597116Y-170015546D01*
X58516334Y-169961570D01*
X58483485Y-169928721D01*
X58429509Y-169847939D01*
X58413869Y-169769315D01*
X58413621Y-169769355D01*
X58412618Y-169763022D01*
X58410555Y-169752651D01*
X58410555Y-169749996D01*
X58390462Y-169623136D01*
X58390461Y-169623132D01*
X58377625Y-169597940D01*
X58332146Y-169508682D01*
X58241318Y-169417854D01*
X58240183Y-169416719D01*
X58186207Y-169335937D01*
X58167253Y-169240649D01*
X58186207Y-169145361D01*
X58240180Y-169064583D01*
X58266337Y-169038427D01*
X58347119Y-168984452D01*
X58442403Y-168965500D01*
X61542866Y-168965500D01*
X61622071Y-168932692D01*
X62314581Y-168240180D01*
X62395360Y-168186206D01*
X62490648Y-168167252D01*
X62585936Y-168186206D01*
X62666717Y-168240182D01*
X62666718Y-168240182D01*
X62667854Y-168241318D01*
X62758682Y-168332146D01*
X62860750Y-168384152D01*
X62873132Y-168390461D01*
X62873136Y-168390462D01*
X62999997Y-168410555D01*
X63000000Y-168410555D01*
X63000003Y-168410555D01*
X63126863Y-168390462D01*
X63126865Y-168390461D01*
X63126868Y-168390461D01*
X63241318Y-168332146D01*
X63332146Y-168241318D01*
X63390461Y-168126868D01*
X63390635Y-168125768D01*
X63410555Y-168000003D01*
X63410555Y-167999996D01*
X63390462Y-167873136D01*
X63390461Y-167873132D01*
X63372059Y-167837016D01*
X63332146Y-167758682D01*
X63241318Y-167667854D01*
X63240183Y-167666719D01*
X63186207Y-167585937D01*
X63167253Y-167490649D01*
X63186207Y-167395361D01*
X63240183Y-167314579D01*
X63817100Y-166737662D01*
X64359432Y-166195330D01*
X64440212Y-166141356D01*
X64535500Y-166122402D01*
X64630788Y-166141356D01*
G37*
%TD.AperFunction*%
%TA.AperFunction,Conductor*%
G36*
X45244786Y-168376355D02*
G01*
X45325568Y-168430331D01*
X45340141Y-168444904D01*
X45340142Y-168444904D01*
X45340143Y-168444905D01*
X45372006Y-168458103D01*
X45419346Y-168477712D01*
X45419347Y-168477712D01*
X45505078Y-168477712D01*
X45517168Y-168477712D01*
X45612456Y-168496666D01*
X45693238Y-168550642D01*
X45736954Y-168594358D01*
X45774797Y-168613640D01*
X45851093Y-168673787D01*
X45898566Y-168758554D01*
X45909985Y-168855035D01*
X45883614Y-168948543D01*
X45823466Y-169024840D01*
X45738699Y-169072313D01*
X45661753Y-169084500D01*
X45149500Y-169084500D01*
X45054212Y-169065546D01*
X44973430Y-169011570D01*
X44919454Y-168930788D01*
X44900500Y-168835501D01*
X44900500Y-168733892D01*
X44900499Y-168606399D01*
X44919453Y-168511114D01*
X44973429Y-168430332D01*
X45054210Y-168376355D01*
X45149498Y-168357401D01*
X45244786Y-168376355D01*
G37*
%TD.AperFunction*%
%TA.AperFunction,Conductor*%
G36*
X73632215Y-165223252D02*
G01*
X73669972Y-165254233D01*
X73888103Y-165472364D01*
X73980172Y-165510500D01*
X74079828Y-165510500D01*
X74134099Y-165510500D01*
X74229387Y-165529454D01*
X74310169Y-165583430D01*
X74364145Y-165664212D01*
X74383099Y-165759500D01*
X74364145Y-165854788D01*
X74310170Y-165935567D01*
X74310166Y-165935571D01*
X74310166Y-165935572D01*
X74279165Y-165966572D01*
X74198382Y-166020548D01*
X74103099Y-166039500D01*
X73796635Y-166039500D01*
X73796623Y-166039501D01*
X73772337Y-166042318D01*
X73772333Y-166042319D01*
X73672986Y-166086185D01*
X73596185Y-166162986D01*
X73552319Y-166262333D01*
X73552317Y-166262341D01*
X73549500Y-166286620D01*
X73549500Y-166713364D01*
X73549501Y-166713376D01*
X73552318Y-166737662D01*
X73552319Y-166737666D01*
X73596185Y-166837014D01*
X73609227Y-166856052D01*
X73606028Y-166858242D01*
X73637078Y-166904712D01*
X73656032Y-167000000D01*
X73637078Y-167095288D01*
X73606028Y-167141757D01*
X73609227Y-167143948D01*
X73596185Y-167162985D01*
X73552319Y-167262333D01*
X73552317Y-167262341D01*
X73549500Y-167286620D01*
X73549500Y-167713364D01*
X73549501Y-167713376D01*
X73552318Y-167737662D01*
X73552319Y-167737666D01*
X73596185Y-167837013D01*
X73596186Y-167837014D01*
X73596187Y-167837016D01*
X73672984Y-167913813D01*
X73672986Y-167913814D01*
X73675449Y-167915501D01*
X73743351Y-167984988D01*
X73779493Y-168075170D01*
X73778373Y-168172318D01*
X73740161Y-168261643D01*
X73670674Y-168329545D01*
X73647779Y-168342788D01*
X73595945Y-168369199D01*
X73502437Y-168395571D01*
X73405956Y-168384152D01*
X73382325Y-168375123D01*
X73319848Y-168347537D01*
X73294529Y-168344600D01*
X73294526Y-168344600D01*
X73012726Y-168344600D01*
X72917438Y-168325646D01*
X72836656Y-168271670D01*
X72826629Y-168260236D01*
X72489788Y-167923394D01*
X72464414Y-167893685D01*
X72457146Y-167883682D01*
X72366321Y-167792856D01*
X72366319Y-167792854D01*
X72251867Y-167734538D01*
X72251863Y-167734537D01*
X72125003Y-167714445D01*
X72105403Y-167714445D01*
X72105403Y-167711016D01*
X72041334Y-167708490D01*
X71953110Y-167667801D01*
X71887172Y-167596448D01*
X71853560Y-167505293D01*
X71850500Y-167466379D01*
X71850500Y-165738514D01*
X71869454Y-165643226D01*
X71923430Y-165562444D01*
X72004212Y-165508468D01*
X72050920Y-165494299D01*
X72078231Y-165488867D01*
X72078233Y-165488865D01*
X72100888Y-165479482D01*
X72102375Y-165483073D01*
X72151413Y-165462759D01*
X72248568Y-165462756D01*
X72297624Y-165483073D01*
X72299112Y-165479482D01*
X72321766Y-165488865D01*
X72321769Y-165488867D01*
X72380252Y-165500500D01*
X72380255Y-165500500D01*
X72719745Y-165500500D01*
X72719748Y-165500500D01*
X72778231Y-165488867D01*
X72844552Y-165444552D01*
X72888867Y-165378231D01*
X72888867Y-165378230D01*
X72900272Y-165361162D01*
X72968971Y-165292463D01*
X73058731Y-165255284D01*
X73107307Y-165250500D01*
X73279829Y-165250500D01*
X73394556Y-165202979D01*
X73396021Y-165206517D01*
X73445295Y-165186100D01*
X73542450Y-165186085D01*
X73632215Y-165223252D01*
G37*
%TD.AperFunction*%
%TA.AperFunction,Conductor*%
G36*
X75383181Y-167019454D02*
G01*
X75463963Y-167073430D01*
X75517939Y-167154212D01*
X75536893Y-167249500D01*
X75517939Y-167344788D01*
X75463963Y-167425570D01*
X75412393Y-167465141D01*
X75404015Y-167469977D01*
X75404011Y-167469979D01*
X75335489Y-167509540D01*
X75335487Y-167509541D01*
X75335485Y-167509543D01*
X74796365Y-168048662D01*
X74715584Y-168102638D01*
X74620296Y-168121592D01*
X74525007Y-168102638D01*
X74444226Y-168048661D01*
X74390250Y-167967880D01*
X74371296Y-167872592D01*
X74390250Y-167777303D01*
X74392468Y-167772117D01*
X74407682Y-167737662D01*
X74410500Y-167713373D01*
X74410499Y-167646898D01*
X74429452Y-167551614D01*
X74483424Y-167470835D01*
X74880831Y-167073430D01*
X74961612Y-167019454D01*
X75056900Y-167000500D01*
X75287893Y-167000500D01*
X75383181Y-167019454D01*
G37*
%TD.AperFunction*%
%TA.AperFunction,Conductor*%
G36*
X68194338Y-164077805D02*
G01*
X68275120Y-164131781D01*
X68329096Y-164212563D01*
X68348050Y-164307851D01*
X68348050Y-167334215D01*
X68352388Y-167361603D01*
X68362904Y-167428004D01*
X68362904Y-167428005D01*
X68362905Y-167428007D01*
X68368961Y-167446647D01*
X68367072Y-167447260D01*
X68386449Y-167515972D01*
X68375027Y-167612453D01*
X68327552Y-167697219D01*
X68251252Y-167757364D01*
X68157744Y-167783733D01*
X68138216Y-167784500D01*
X66942403Y-167784500D01*
X66847115Y-167765546D01*
X66766334Y-167711570D01*
X66639770Y-167585007D01*
X66639771Y-167585007D01*
X66560566Y-167552200D01*
X66135907Y-167552200D01*
X66040619Y-167533246D01*
X65959837Y-167479270D01*
X65914047Y-167416245D01*
X65880526Y-167350455D01*
X65851754Y-167321683D01*
X65797778Y-167240901D01*
X65778824Y-167145613D01*
X65797778Y-167050325D01*
X65826382Y-166999250D01*
X65832141Y-166991322D01*
X65832146Y-166991318D01*
X65890461Y-166876868D01*
X65891053Y-166873132D01*
X65910555Y-166750003D01*
X65910555Y-166749996D01*
X65890462Y-166623136D01*
X65890461Y-166623132D01*
X65871125Y-166585183D01*
X65832146Y-166508682D01*
X65741318Y-166417854D01*
X65705296Y-166399500D01*
X65626867Y-166359538D01*
X65626863Y-166359537D01*
X65500003Y-166339445D01*
X65480403Y-166339445D01*
X65480403Y-166337992D01*
X65406360Y-166335080D01*
X65318132Y-166294401D01*
X65252186Y-166223055D01*
X65218564Y-166131903D01*
X65215500Y-166092963D01*
X65215500Y-165961103D01*
X65234454Y-165865815D01*
X65288427Y-165785036D01*
X65332146Y-165741318D01*
X65390461Y-165626868D01*
X65390461Y-165626866D01*
X65396518Y-165608227D01*
X65400763Y-165609606D01*
X65421117Y-165554419D01*
X65487059Y-165483069D01*
X65575285Y-165442386D01*
X65633437Y-165435500D01*
X66572866Y-165435500D01*
X66652071Y-165402692D01*
X67922986Y-164131776D01*
X68003762Y-164077805D01*
X68099050Y-164058851D01*
X68194338Y-164077805D01*
G37*
%TD.AperFunction*%
%TA.AperFunction,Conductor*%
G36*
X72969788Y-163159888D02*
G01*
X73012834Y-163182897D01*
X73021769Y-163188867D01*
X73080252Y-163200500D01*
X73293100Y-163200500D01*
X73388388Y-163219454D01*
X73436018Y-163251278D01*
X73437714Y-163248741D01*
X73458096Y-163262360D01*
X73458101Y-163262362D01*
X73458103Y-163262364D01*
X73470828Y-163267634D01*
X73470830Y-163267636D01*
X73470831Y-163267636D01*
X73550173Y-163300501D01*
X73550174Y-163300501D01*
X73678816Y-163300501D01*
X73678824Y-163300500D01*
X74593099Y-163300500D01*
X74688387Y-163319454D01*
X74769169Y-163373430D01*
X75226570Y-163830831D01*
X75280546Y-163911613D01*
X75299500Y-164006901D01*
X75299500Y-164099828D01*
X75308151Y-164120714D01*
X75321682Y-164153381D01*
X75340635Y-164248669D01*
X75321680Y-164343957D01*
X75267703Y-164424738D01*
X75186921Y-164478714D01*
X75091633Y-164497667D01*
X74996345Y-164478712D01*
X74915565Y-164424737D01*
X74913813Y-164422985D01*
X74913813Y-164422984D01*
X74837016Y-164346187D01*
X74837014Y-164346186D01*
X74837013Y-164346185D01*
X74837014Y-164346185D01*
X74737666Y-164302319D01*
X74737658Y-164302317D01*
X74713378Y-164299500D01*
X74286635Y-164299500D01*
X74286623Y-164299501D01*
X74262337Y-164302318D01*
X74262333Y-164302319D01*
X74162985Y-164346185D01*
X74143948Y-164359227D01*
X74141757Y-164356028D01*
X74095288Y-164387078D01*
X74000000Y-164406032D01*
X73904712Y-164387078D01*
X73858242Y-164356028D01*
X73856052Y-164359227D01*
X73837014Y-164346185D01*
X73737666Y-164302319D01*
X73737658Y-164302317D01*
X73713378Y-164299500D01*
X73286635Y-164299500D01*
X73286623Y-164299501D01*
X73262337Y-164302318D01*
X73262333Y-164302319D01*
X73162986Y-164346185D01*
X73086183Y-164422988D01*
X73085211Y-164424408D01*
X73015722Y-164492307D01*
X72925538Y-164528445D01*
X72828390Y-164527321D01*
X72784504Y-164513731D01*
X72778234Y-164511134D01*
X72778231Y-164511133D01*
X72719748Y-164499500D01*
X72682676Y-164499500D01*
X72587388Y-164480546D01*
X72506606Y-164426570D01*
X72452630Y-164345788D01*
X72433676Y-164250500D01*
X72452630Y-164155212D01*
X72506603Y-164074433D01*
X72559826Y-164021211D01*
X72614866Y-163908625D01*
X72625500Y-163835636D01*
X72625500Y-163389934D01*
X72644454Y-163294646D01*
X72698430Y-163213864D01*
X72779212Y-163159888D01*
X72874500Y-163140934D01*
X72969788Y-163159888D01*
G37*
%TD.AperFunction*%
%TA.AperFunction,Conductor*%
G36*
X66149788Y-161130175D02*
G01*
X66230566Y-161184148D01*
X66962698Y-161916280D01*
X67016672Y-161997059D01*
X67032311Y-162075684D01*
X67032560Y-162075645D01*
X67033561Y-162081967D01*
X67035626Y-162092347D01*
X67035626Y-162095003D01*
X67055718Y-162221863D01*
X67055719Y-162221867D01*
X67107488Y-162323468D01*
X67114035Y-162336318D01*
X67204863Y-162427146D01*
X67319313Y-162485461D01*
X67416567Y-162500864D01*
X67507714Y-162534490D01*
X67579057Y-162600438D01*
X67619733Y-162688668D01*
X67623548Y-162785748D01*
X67589921Y-162876899D01*
X67580648Y-162888663D01*
X67580932Y-162888853D01*
X67567307Y-162909242D01*
X67534500Y-162988447D01*
X67534500Y-163807597D01*
X67515546Y-163902885D01*
X67461570Y-163983667D01*
X67461569Y-163983667D01*
X67185419Y-164259816D01*
X67104638Y-164313792D01*
X67009350Y-164332746D01*
X66914061Y-164313792D01*
X66833280Y-164259816D01*
X66803575Y-164230111D01*
X66749599Y-164149329D01*
X66730645Y-164054041D01*
X66749599Y-163958753D01*
X66757773Y-163941021D01*
X66790461Y-163876868D01*
X66797753Y-163830831D01*
X66810555Y-163750003D01*
X66810555Y-163749996D01*
X66790462Y-163623136D01*
X66790461Y-163623132D01*
X66772375Y-163587636D01*
X66732146Y-163508682D01*
X66641318Y-163417854D01*
X66554131Y-163373430D01*
X66526867Y-163359538D01*
X66526863Y-163359537D01*
X66400003Y-163339445D01*
X66399999Y-163339445D01*
X66355873Y-163346434D01*
X66316920Y-163349500D01*
X66069033Y-163349500D01*
X65973745Y-163330546D01*
X65892963Y-163276570D01*
X65878430Y-163262037D01*
X65824454Y-163181255D01*
X65805500Y-163085967D01*
X65805500Y-161360221D01*
X65824454Y-161264933D01*
X65878430Y-161184151D01*
X65959212Y-161130175D01*
X66054500Y-161111221D01*
X66149788Y-161130175D01*
G37*
%TD.AperFunction*%
%TA.AperFunction,Conductor*%
G36*
X75845787Y-159825854D02*
G01*
X75926569Y-159879830D01*
X75980546Y-159960611D01*
X75999500Y-160055899D01*
X75999500Y-160602015D01*
X76002845Y-160623136D01*
X76014354Y-160695804D01*
X76071950Y-160808842D01*
X76147366Y-160884258D01*
X76201340Y-160965037D01*
X76220294Y-161060325D01*
X76201340Y-161155613D01*
X76147364Y-161236395D01*
X76071871Y-161288108D01*
X75962986Y-161336185D01*
X75886185Y-161412986D01*
X75842319Y-161512333D01*
X75842317Y-161512341D01*
X75839500Y-161536620D01*
X75839500Y-161963364D01*
X75839501Y-161963376D01*
X75842318Y-161987662D01*
X75842319Y-161987666D01*
X75886185Y-162087013D01*
X75886186Y-162087014D01*
X75886187Y-162087016D01*
X75946572Y-162147401D01*
X76000546Y-162228180D01*
X76019500Y-162323468D01*
X76019500Y-163218433D01*
X76000546Y-163313721D01*
X75946570Y-163394503D01*
X75865788Y-163448479D01*
X75862189Y-163449570D01*
X75818624Y-163467617D01*
X75818373Y-163467012D01*
X75754294Y-163493550D01*
X75657139Y-163493543D01*
X75567382Y-163456358D01*
X75529662Y-163425401D01*
X75157033Y-163052772D01*
X75103057Y-162971990D01*
X75084103Y-162876702D01*
X75088887Y-162828128D01*
X75100500Y-162769748D01*
X75100500Y-162430252D01*
X75088867Y-162371769D01*
X75088663Y-162371464D01*
X75044554Y-162305451D01*
X75044552Y-162305448D01*
X75036399Y-162300000D01*
X74978232Y-162261133D01*
X74963610Y-162258224D01*
X74919748Y-162249500D01*
X74919745Y-162249500D01*
X74531249Y-162249500D01*
X74435961Y-162230546D01*
X74355183Y-162176572D01*
X74265518Y-162086907D01*
X74226333Y-162028262D01*
X74225988Y-162028494D01*
X74212364Y-162008104D01*
X74212364Y-162008103D01*
X74141897Y-161937636D01*
X74134946Y-161934757D01*
X74049828Y-161899500D01*
X73986013Y-161899500D01*
X73890725Y-161880546D01*
X73847673Y-161857534D01*
X73844552Y-161855448D01*
X73778231Y-161811133D01*
X73759783Y-161798806D01*
X73691085Y-161730106D01*
X73653907Y-161640346D01*
X73652189Y-161552818D01*
X73652311Y-161552053D01*
X73660555Y-161500000D01*
X73659379Y-161492577D01*
X73654054Y-161458953D01*
X73657868Y-161361873D01*
X73698543Y-161273642D01*
X73769885Y-161207693D01*
X73861035Y-161174066D01*
X73899988Y-161171000D01*
X73964819Y-161171000D01*
X73964820Y-161171000D01*
X74008722Y-161162267D01*
X74008723Y-161162266D01*
X74026419Y-161158746D01*
X74123574Y-161158745D01*
X74123581Y-161158746D01*
X74141276Y-161162266D01*
X74141278Y-161162267D01*
X74185180Y-161171000D01*
X74185181Y-161171000D01*
X74614819Y-161171000D01*
X74614820Y-161171000D01*
X74658722Y-161162267D01*
X74658723Y-161162266D01*
X74676419Y-161158746D01*
X74773574Y-161158745D01*
X74773581Y-161158746D01*
X74791276Y-161162266D01*
X74791278Y-161162267D01*
X74835180Y-161171000D01*
X74835181Y-161171000D01*
X75264821Y-161171000D01*
X75264821Y-161170999D01*
X75293741Y-161165247D01*
X75308719Y-161162268D01*
X75308719Y-161162267D01*
X75308722Y-161162267D01*
X75358504Y-161129004D01*
X75391767Y-161079222D01*
X75393425Y-161070890D01*
X75398787Y-161043929D01*
X75400500Y-161035320D01*
X75400500Y-160156901D01*
X75419454Y-160061613D01*
X75473430Y-159980832D01*
X75574430Y-159879831D01*
X75655211Y-159825854D01*
X75750499Y-159806900D01*
X75845787Y-159825854D01*
G37*
%TD.AperFunction*%
%TA.AperFunction,Conductor*%
G36*
X79645788Y-156419454D02*
G01*
X79726570Y-156473430D01*
X79780546Y-156554212D01*
X79799500Y-156649500D01*
X79799500Y-158699424D01*
X79780546Y-158794712D01*
X79726570Y-158875494D01*
X79645788Y-158929470D01*
X79550500Y-158948424D01*
X79455212Y-158929470D01*
X79441141Y-158923124D01*
X79363068Y-158884957D01*
X79291298Y-158874500D01*
X78708705Y-158874500D01*
X78636933Y-158884957D01*
X78636928Y-158884958D01*
X78617002Y-158894700D01*
X78523072Y-158919522D01*
X78507644Y-158920000D01*
X77700875Y-158920000D01*
X77605587Y-158901046D01*
X77524805Y-158847070D01*
X77470829Y-158766288D01*
X77451875Y-158671000D01*
X77470829Y-158575712D01*
X77524802Y-158494933D01*
X77530520Y-158489216D01*
X77609577Y-158352284D01*
X77650500Y-158199557D01*
X77650500Y-157141443D01*
X77647187Y-157129080D01*
X77609577Y-156988716D01*
X77604507Y-156979935D01*
X77530520Y-156851784D01*
X77504302Y-156825566D01*
X77450329Y-156744788D01*
X77431375Y-156649500D01*
X77450329Y-156554212D01*
X77504305Y-156473430D01*
X77585087Y-156419454D01*
X77680375Y-156400500D01*
X79550500Y-156400500D01*
X79645788Y-156419454D01*
G37*
%TD.AperFunction*%
%TD*%
M02*
