%TF.GenerationSoftware,KiCad,Pcbnew,8.0.1*%
%TF.CreationDate,2024-10-15T00:35:35+02:00*%
%TF.ProjectId,InsuDos,496e7375-446f-4732-9e6b-696361645f70,rev?*%
%TF.SameCoordinates,Original*%
%TF.FileFunction,Soldermask,Bot*%
%TF.FilePolarity,Negative*%
%FSLAX46Y46*%
G04 Gerber Fmt 4.6, Leading zero omitted, Abs format (unit mm)*
G04 Created by KiCad (PCBNEW 8.0.1) date 2024-10-15 00:35:35*
%MOMM*%
%LPD*%
G01*
G04 APERTURE LIST*
G04 APERTURE END LIST*
G36*
X51255796Y-172954082D02*
G01*
X51315815Y-172994185D01*
X51355918Y-173054204D01*
X51370000Y-173125000D01*
X51370000Y-173395000D01*
X51355918Y-173465796D01*
X51315815Y-173525815D01*
X51255796Y-173565918D01*
X51185000Y-173580000D01*
X50815000Y-173580000D01*
X50744204Y-173565918D01*
X50684185Y-173525815D01*
X50644082Y-173465796D01*
X50630000Y-173395000D01*
X50630000Y-173125000D01*
X50644082Y-173054204D01*
X50684185Y-172994185D01*
X50744204Y-172954082D01*
X50815000Y-172940000D01*
X51185000Y-172940000D01*
X51255796Y-172954082D01*
G37*
G36*
X46769134Y-171703806D02*
G01*
X46785355Y-171714645D01*
X46796194Y-171730866D01*
X46800000Y-171750000D01*
X46800000Y-173450000D01*
X46796194Y-173469134D01*
X46785355Y-173485355D01*
X46769134Y-173496194D01*
X46750000Y-173500000D01*
X45850000Y-173500000D01*
X45830866Y-173496194D01*
X45814645Y-173485355D01*
X45803806Y-173469134D01*
X45800000Y-173450000D01*
X45800000Y-171750000D01*
X45803806Y-171730866D01*
X45814645Y-171714645D01*
X45830866Y-171703806D01*
X45850000Y-171700000D01*
X46750000Y-171700000D01*
X46769134Y-171703806D01*
G37*
G36*
X50169134Y-171703806D02*
G01*
X50185355Y-171714645D01*
X50196194Y-171730866D01*
X50200000Y-171750000D01*
X50200000Y-173450000D01*
X50196194Y-173469134D01*
X50185355Y-173485355D01*
X50169134Y-173496194D01*
X50150000Y-173500000D01*
X49250000Y-173500000D01*
X49230866Y-173496194D01*
X49214645Y-173485355D01*
X49203806Y-173469134D01*
X49200000Y-173450000D01*
X49200000Y-171750000D01*
X49203806Y-171730866D01*
X49214645Y-171714645D01*
X49230866Y-171703806D01*
X49250000Y-171700000D01*
X50150000Y-171700000D01*
X50169134Y-171703806D01*
G37*
G36*
X65769134Y-171703806D02*
G01*
X65785355Y-171714645D01*
X65796194Y-171730866D01*
X65800000Y-171750000D01*
X65800000Y-173450000D01*
X65796194Y-173469134D01*
X65785355Y-173485355D01*
X65769134Y-173496194D01*
X65750000Y-173500000D01*
X64850000Y-173500000D01*
X64830866Y-173496194D01*
X64814645Y-173485355D01*
X64803806Y-173469134D01*
X64800000Y-173450000D01*
X64800000Y-171750000D01*
X64803806Y-171730866D01*
X64814645Y-171714645D01*
X64830866Y-171703806D01*
X64850000Y-171700000D01*
X65750000Y-171700000D01*
X65769134Y-171703806D01*
G37*
G36*
X69169134Y-171703806D02*
G01*
X69185355Y-171714645D01*
X69196194Y-171730866D01*
X69200000Y-171750000D01*
X69200000Y-173450000D01*
X69196194Y-173469134D01*
X69185355Y-173485355D01*
X69169134Y-173496194D01*
X69150000Y-173500000D01*
X68250000Y-173500000D01*
X68230866Y-173496194D01*
X68214645Y-173485355D01*
X68203806Y-173469134D01*
X68200000Y-173450000D01*
X68200000Y-171750000D01*
X68203806Y-171730866D01*
X68214645Y-171714645D01*
X68230866Y-171703806D01*
X68250000Y-171700000D01*
X69150000Y-171700000D01*
X69169134Y-171703806D01*
G37*
G36*
X59732710Y-172654463D02*
G01*
X59794350Y-172695650D01*
X59835537Y-172757290D01*
X59850000Y-172830000D01*
X59850000Y-173170000D01*
X59835537Y-173242710D01*
X59794350Y-173304350D01*
X59732710Y-173345537D01*
X59660000Y-173360000D01*
X59380000Y-173360000D01*
X59307290Y-173345537D01*
X59245650Y-173304350D01*
X59204463Y-173242710D01*
X59190000Y-173170000D01*
X59190000Y-172830000D01*
X59204463Y-172757290D01*
X59245650Y-172695650D01*
X59307290Y-172654463D01*
X59380000Y-172640000D01*
X59660000Y-172640000D01*
X59732710Y-172654463D01*
G37*
G36*
X60692710Y-172654463D02*
G01*
X60754350Y-172695650D01*
X60795537Y-172757290D01*
X60810000Y-172830000D01*
X60810000Y-173170000D01*
X60795537Y-173242710D01*
X60754350Y-173304350D01*
X60692710Y-173345537D01*
X60620000Y-173360000D01*
X60340000Y-173360000D01*
X60267290Y-173345537D01*
X60205650Y-173304350D01*
X60164463Y-173242710D01*
X60150000Y-173170000D01*
X60150000Y-172830000D01*
X60164463Y-172757290D01*
X60205650Y-172695650D01*
X60267290Y-172654463D01*
X60340000Y-172640000D01*
X60620000Y-172640000D01*
X60692710Y-172654463D01*
G37*
G36*
X61732710Y-172654463D02*
G01*
X61794350Y-172695650D01*
X61835537Y-172757290D01*
X61850000Y-172830000D01*
X61850000Y-173170000D01*
X61835537Y-173242710D01*
X61794350Y-173304350D01*
X61732710Y-173345537D01*
X61660000Y-173360000D01*
X61380000Y-173360000D01*
X61307290Y-173345537D01*
X61245650Y-173304350D01*
X61204463Y-173242710D01*
X61190000Y-173170000D01*
X61190000Y-172830000D01*
X61204463Y-172757290D01*
X61245650Y-172695650D01*
X61307290Y-172654463D01*
X61380000Y-172640000D01*
X61660000Y-172640000D01*
X61732710Y-172654463D01*
G37*
G36*
X62692710Y-172654463D02*
G01*
X62754350Y-172695650D01*
X62795537Y-172757290D01*
X62810000Y-172830000D01*
X62810000Y-173170000D01*
X62795537Y-173242710D01*
X62754350Y-173304350D01*
X62692710Y-173345537D01*
X62620000Y-173360000D01*
X62340000Y-173360000D01*
X62267290Y-173345537D01*
X62205650Y-173304350D01*
X62164463Y-173242710D01*
X62150000Y-173170000D01*
X62150000Y-172830000D01*
X62164463Y-172757290D01*
X62205650Y-172695650D01*
X62267290Y-172654463D01*
X62340000Y-172640000D01*
X62620000Y-172640000D01*
X62692710Y-172654463D01*
G37*
G36*
X54195796Y-172344082D02*
G01*
X54255815Y-172384185D01*
X54295918Y-172444204D01*
X54310000Y-172515000D01*
X54310000Y-172885000D01*
X54295918Y-172955796D01*
X54255815Y-173015815D01*
X54195796Y-173055918D01*
X54125000Y-173070000D01*
X53855000Y-173070000D01*
X53784204Y-173055918D01*
X53724185Y-173015815D01*
X53684082Y-172955796D01*
X53670000Y-172885000D01*
X53670000Y-172515000D01*
X53684082Y-172444204D01*
X53724185Y-172384185D01*
X53784204Y-172344082D01*
X53855000Y-172330000D01*
X54125000Y-172330000D01*
X54195796Y-172344082D01*
G37*
G36*
X55215796Y-172344082D02*
G01*
X55275815Y-172384185D01*
X55315918Y-172444204D01*
X55330000Y-172515000D01*
X55330000Y-172885000D01*
X55315918Y-172955796D01*
X55275815Y-173015815D01*
X55215796Y-173055918D01*
X55145000Y-173070000D01*
X54875000Y-173070000D01*
X54804204Y-173055918D01*
X54744185Y-173015815D01*
X54704082Y-172955796D01*
X54690000Y-172885000D01*
X54690000Y-172515000D01*
X54704082Y-172444204D01*
X54744185Y-172384185D01*
X54804204Y-172344082D01*
X54875000Y-172330000D01*
X55145000Y-172330000D01*
X55215796Y-172344082D01*
G37*
G36*
X48186937Y-172190666D02*
G01*
X48294687Y-172259913D01*
X48378564Y-172356712D01*
X48431772Y-172473220D01*
X48450000Y-172600000D01*
X48431772Y-172726780D01*
X48378564Y-172843288D01*
X48294687Y-172940087D01*
X48186937Y-173009334D01*
X48064042Y-173045420D01*
X47935958Y-173045420D01*
X47813063Y-173009334D01*
X47705313Y-172940087D01*
X47621436Y-172843288D01*
X47568228Y-172726780D01*
X47550000Y-172600000D01*
X47568228Y-172473220D01*
X47621436Y-172356712D01*
X47705313Y-172259913D01*
X47813063Y-172190666D01*
X47935958Y-172154580D01*
X48064042Y-172154580D01*
X48186937Y-172190666D01*
G37*
G36*
X67186937Y-172190666D02*
G01*
X67294687Y-172259913D01*
X67378564Y-172356712D01*
X67431772Y-172473220D01*
X67450000Y-172600000D01*
X67431772Y-172726780D01*
X67378564Y-172843288D01*
X67294687Y-172940087D01*
X67186937Y-173009334D01*
X67064042Y-173045420D01*
X66935958Y-173045420D01*
X66813063Y-173009334D01*
X66705313Y-172940087D01*
X66621436Y-172843288D01*
X66568228Y-172726780D01*
X66550000Y-172600000D01*
X66568228Y-172473220D01*
X66621436Y-172356712D01*
X66705313Y-172259913D01*
X66813063Y-172190666D01*
X66935958Y-172154580D01*
X67064042Y-172154580D01*
X67186937Y-172190666D01*
G37*
G36*
X51255796Y-171934082D02*
G01*
X51315815Y-171974185D01*
X51355918Y-172034204D01*
X51370000Y-172105000D01*
X51370000Y-172375000D01*
X51355918Y-172445796D01*
X51315815Y-172505815D01*
X51255796Y-172545918D01*
X51185000Y-172560000D01*
X50815000Y-172560000D01*
X50744204Y-172545918D01*
X50684185Y-172505815D01*
X50644082Y-172445796D01*
X50630000Y-172375000D01*
X50630000Y-172105000D01*
X50644082Y-172034204D01*
X50684185Y-171974185D01*
X50744204Y-171934082D01*
X50815000Y-171920000D01*
X51185000Y-171920000D01*
X51255796Y-171934082D01*
G37*
G36*
X54107796Y-171474082D02*
G01*
X54167815Y-171514185D01*
X54207918Y-171574204D01*
X54222000Y-171645000D01*
X54222000Y-171915000D01*
X54207918Y-171985796D01*
X54167815Y-172045815D01*
X54107796Y-172085918D01*
X54037000Y-172100000D01*
X53667000Y-172100000D01*
X53596204Y-172085918D01*
X53536185Y-172045815D01*
X53496082Y-171985796D01*
X53482000Y-171915000D01*
X53482000Y-171645000D01*
X53496082Y-171574204D01*
X53536185Y-171514185D01*
X53596204Y-171474082D01*
X53667000Y-171460000D01*
X54037000Y-171460000D01*
X54107796Y-171474082D01*
G37*
G36*
X58255796Y-171474082D02*
G01*
X58315815Y-171514185D01*
X58355918Y-171574204D01*
X58370000Y-171645000D01*
X58370000Y-171915000D01*
X58355918Y-171985796D01*
X58315815Y-172045815D01*
X58255796Y-172085918D01*
X58185000Y-172100000D01*
X57815000Y-172100000D01*
X57744204Y-172085918D01*
X57684185Y-172045815D01*
X57644082Y-171985796D01*
X57630000Y-171915000D01*
X57630000Y-171645000D01*
X57644082Y-171574204D01*
X57684185Y-171514185D01*
X57744204Y-171474082D01*
X57815000Y-171460000D01*
X58185000Y-171460000D01*
X58255796Y-171474082D01*
G37*
G36*
X61119134Y-170903806D02*
G01*
X61135355Y-170914645D01*
X61146194Y-170930866D01*
X61150000Y-170950000D01*
X61150000Y-172050000D01*
X61146194Y-172069134D01*
X61135355Y-172085355D01*
X61119134Y-172096194D01*
X61100000Y-172100000D01*
X60500000Y-172100000D01*
X60480866Y-172096194D01*
X60464645Y-172085355D01*
X60453806Y-172069134D01*
X60450000Y-172050000D01*
X60450000Y-170950000D01*
X60453806Y-170930866D01*
X60464645Y-170914645D01*
X60480866Y-170903806D01*
X60500000Y-170900000D01*
X61100000Y-170900000D01*
X61119134Y-170903806D01*
G37*
G36*
X62519134Y-170903806D02*
G01*
X62535355Y-170914645D01*
X62546194Y-170930866D01*
X62550000Y-170950000D01*
X62550000Y-172050000D01*
X62546194Y-172069134D01*
X62535355Y-172085355D01*
X62519134Y-172096194D01*
X62500000Y-172100000D01*
X61900000Y-172100000D01*
X61880866Y-172096194D01*
X61864645Y-172085355D01*
X61853806Y-172069134D01*
X61850000Y-172050000D01*
X61850000Y-170950000D01*
X61853806Y-170930866D01*
X61864645Y-170914645D01*
X61880866Y-170903806D01*
X61900000Y-170900000D01*
X62500000Y-170900000D01*
X62519134Y-170903806D01*
G37*
G36*
X59755796Y-171454082D02*
G01*
X59815815Y-171494185D01*
X59855918Y-171554204D01*
X59870000Y-171625000D01*
X59870000Y-171895000D01*
X59855918Y-171965796D01*
X59815815Y-172025815D01*
X59755796Y-172065918D01*
X59685000Y-172080000D01*
X59315000Y-172080000D01*
X59244204Y-172065918D01*
X59184185Y-172025815D01*
X59144082Y-171965796D01*
X59130000Y-171895000D01*
X59130000Y-171625000D01*
X59144082Y-171554204D01*
X59184185Y-171494185D01*
X59244204Y-171454082D01*
X59315000Y-171440000D01*
X59685000Y-171440000D01*
X59755796Y-171454082D01*
G37*
G36*
X55136710Y-171414463D02*
G01*
X55198350Y-171455650D01*
X55239537Y-171517290D01*
X55254000Y-171590000D01*
X55254000Y-171870000D01*
X55239537Y-171942710D01*
X55198350Y-172004350D01*
X55136710Y-172045537D01*
X55064000Y-172060000D01*
X54724000Y-172060000D01*
X54651290Y-172045537D01*
X54589650Y-172004350D01*
X54548463Y-171942710D01*
X54534000Y-171870000D01*
X54534000Y-171590000D01*
X54548463Y-171517290D01*
X54589650Y-171455650D01*
X54651290Y-171414463D01*
X54724000Y-171400000D01*
X55064000Y-171400000D01*
X55136710Y-171414463D01*
G37*
G36*
X56168710Y-171414463D02*
G01*
X56230350Y-171455650D01*
X56271537Y-171517290D01*
X56286000Y-171590000D01*
X56286000Y-171870000D01*
X56271537Y-171942710D01*
X56230350Y-172004350D01*
X56168710Y-172045537D01*
X56096000Y-172060000D01*
X55756000Y-172060000D01*
X55683290Y-172045537D01*
X55621650Y-172004350D01*
X55580463Y-171942710D01*
X55566000Y-171870000D01*
X55566000Y-171590000D01*
X55580463Y-171517290D01*
X55621650Y-171455650D01*
X55683290Y-171414463D01*
X55756000Y-171400000D01*
X56096000Y-171400000D01*
X56168710Y-171414463D01*
G37*
G36*
X57200710Y-171414463D02*
G01*
X57262350Y-171455650D01*
X57303537Y-171517290D01*
X57318000Y-171590000D01*
X57318000Y-171870000D01*
X57303537Y-171942710D01*
X57262350Y-172004350D01*
X57200710Y-172045537D01*
X57128000Y-172060000D01*
X56788000Y-172060000D01*
X56715290Y-172045537D01*
X56653650Y-172004350D01*
X56612463Y-171942710D01*
X56598000Y-171870000D01*
X56598000Y-171590000D01*
X56612463Y-171517290D01*
X56653650Y-171455650D01*
X56715290Y-171414463D01*
X56788000Y-171400000D01*
X57128000Y-171400000D01*
X57200710Y-171414463D01*
G37*
G36*
X63992710Y-171414463D02*
G01*
X64054350Y-171455650D01*
X64095537Y-171517290D01*
X64110000Y-171590000D01*
X64110000Y-171870000D01*
X64095537Y-171942710D01*
X64054350Y-172004350D01*
X63992710Y-172045537D01*
X63920000Y-172060000D01*
X63580000Y-172060000D01*
X63507290Y-172045537D01*
X63445650Y-172004350D01*
X63404463Y-171942710D01*
X63390000Y-171870000D01*
X63390000Y-171590000D01*
X63404463Y-171517290D01*
X63445650Y-171455650D01*
X63507290Y-171414463D01*
X63580000Y-171400000D01*
X63920000Y-171400000D01*
X63992710Y-171414463D01*
G37*
G36*
X48419134Y-170363806D02*
G01*
X48435355Y-170374645D01*
X48446194Y-170390866D01*
X48450000Y-170410000D01*
X48450000Y-171510000D01*
X48446194Y-171529134D01*
X48435355Y-171545355D01*
X48419134Y-171556194D01*
X48400000Y-171560000D01*
X47600000Y-171560000D01*
X47580866Y-171556194D01*
X47564645Y-171545355D01*
X47553806Y-171529134D01*
X47550000Y-171510000D01*
X47550000Y-170410000D01*
X47553806Y-170390866D01*
X47564645Y-170374645D01*
X47580866Y-170363806D01*
X47600000Y-170360000D01*
X48400000Y-170360000D01*
X48419134Y-170363806D01*
G37*
G36*
X67419134Y-170363806D02*
G01*
X67435355Y-170374645D01*
X67446194Y-170390866D01*
X67450000Y-170410000D01*
X67450000Y-171510000D01*
X67446194Y-171529134D01*
X67435355Y-171545355D01*
X67419134Y-171556194D01*
X67400000Y-171560000D01*
X66600000Y-171560000D01*
X66580866Y-171556194D01*
X66564645Y-171545355D01*
X66553806Y-171529134D01*
X66550000Y-171510000D01*
X66550000Y-170410000D01*
X66553806Y-170390866D01*
X66564645Y-170374645D01*
X66580866Y-170363806D01*
X66600000Y-170360000D01*
X67400000Y-170360000D01*
X67419134Y-170363806D01*
G37*
G36*
X55136710Y-170454463D02*
G01*
X55198350Y-170495650D01*
X55239537Y-170557290D01*
X55254000Y-170630000D01*
X55254000Y-170910000D01*
X55239537Y-170982710D01*
X55198350Y-171044350D01*
X55136710Y-171085537D01*
X55064000Y-171100000D01*
X54724000Y-171100000D01*
X54651290Y-171085537D01*
X54589650Y-171044350D01*
X54548463Y-170982710D01*
X54534000Y-170910000D01*
X54534000Y-170630000D01*
X54548463Y-170557290D01*
X54589650Y-170495650D01*
X54651290Y-170454463D01*
X54724000Y-170440000D01*
X55064000Y-170440000D01*
X55136710Y-170454463D01*
G37*
G36*
X56168710Y-170454463D02*
G01*
X56230350Y-170495650D01*
X56271537Y-170557290D01*
X56286000Y-170630000D01*
X56286000Y-170910000D01*
X56271537Y-170982710D01*
X56230350Y-171044350D01*
X56168710Y-171085537D01*
X56096000Y-171100000D01*
X55756000Y-171100000D01*
X55683290Y-171085537D01*
X55621650Y-171044350D01*
X55580463Y-170982710D01*
X55566000Y-170910000D01*
X55566000Y-170630000D01*
X55580463Y-170557290D01*
X55621650Y-170495650D01*
X55683290Y-170454463D01*
X55756000Y-170440000D01*
X56096000Y-170440000D01*
X56168710Y-170454463D01*
G37*
G36*
X57200710Y-170454463D02*
G01*
X57262350Y-170495650D01*
X57303537Y-170557290D01*
X57318000Y-170630000D01*
X57318000Y-170910000D01*
X57303537Y-170982710D01*
X57262350Y-171044350D01*
X57200710Y-171085537D01*
X57128000Y-171100000D01*
X56788000Y-171100000D01*
X56715290Y-171085537D01*
X56653650Y-171044350D01*
X56612463Y-170982710D01*
X56598000Y-170910000D01*
X56598000Y-170630000D01*
X56612463Y-170557290D01*
X56653650Y-170495650D01*
X56715290Y-170454463D01*
X56788000Y-170440000D01*
X57128000Y-170440000D01*
X57200710Y-170454463D01*
G37*
G36*
X63992710Y-170454463D02*
G01*
X64054350Y-170495650D01*
X64095537Y-170557290D01*
X64110000Y-170630000D01*
X64110000Y-170910000D01*
X64095537Y-170982710D01*
X64054350Y-171044350D01*
X63992710Y-171085537D01*
X63920000Y-171100000D01*
X63580000Y-171100000D01*
X63507290Y-171085537D01*
X63445650Y-171044350D01*
X63404463Y-170982710D01*
X63390000Y-170910000D01*
X63390000Y-170630000D01*
X63404463Y-170557290D01*
X63445650Y-170495650D01*
X63507290Y-170454463D01*
X63580000Y-170440000D01*
X63920000Y-170440000D01*
X63992710Y-170454463D01*
G37*
G36*
X54107796Y-170454082D02*
G01*
X54167815Y-170494185D01*
X54207918Y-170554204D01*
X54222000Y-170625000D01*
X54222000Y-170895000D01*
X54207918Y-170965796D01*
X54167815Y-171025815D01*
X54107796Y-171065918D01*
X54037000Y-171080000D01*
X53667000Y-171080000D01*
X53596204Y-171065918D01*
X53536185Y-171025815D01*
X53496082Y-170965796D01*
X53482000Y-170895000D01*
X53482000Y-170625000D01*
X53496082Y-170554204D01*
X53536185Y-170494185D01*
X53596204Y-170454082D01*
X53667000Y-170440000D01*
X54037000Y-170440000D01*
X54107796Y-170454082D01*
G37*
G36*
X58255796Y-170454082D02*
G01*
X58315815Y-170494185D01*
X58355918Y-170554204D01*
X58370000Y-170625000D01*
X58370000Y-170895000D01*
X58355918Y-170965796D01*
X58315815Y-171025815D01*
X58255796Y-171065918D01*
X58185000Y-171080000D01*
X57815000Y-171080000D01*
X57744204Y-171065918D01*
X57684185Y-171025815D01*
X57644082Y-170965796D01*
X57630000Y-170895000D01*
X57630000Y-170625000D01*
X57644082Y-170554204D01*
X57684185Y-170494185D01*
X57744204Y-170454082D01*
X57815000Y-170440000D01*
X58185000Y-170440000D01*
X58255796Y-170454082D01*
G37*
G36*
X59755796Y-170434082D02*
G01*
X59815815Y-170474185D01*
X59855918Y-170534204D01*
X59870000Y-170605000D01*
X59870000Y-170875000D01*
X59855918Y-170945796D01*
X59815815Y-171005815D01*
X59755796Y-171045918D01*
X59685000Y-171060000D01*
X59315000Y-171060000D01*
X59244204Y-171045918D01*
X59184185Y-171005815D01*
X59144082Y-170945796D01*
X59130000Y-170875000D01*
X59130000Y-170605000D01*
X59144082Y-170534204D01*
X59184185Y-170474185D01*
X59244204Y-170434082D01*
X59315000Y-170420000D01*
X59685000Y-170420000D01*
X59755796Y-170434082D01*
G37*
G36*
X52195796Y-169394082D02*
G01*
X52255815Y-169434185D01*
X52295918Y-169494204D01*
X52310000Y-169565000D01*
X52310000Y-169935000D01*
X52295918Y-170005796D01*
X52255815Y-170065815D01*
X52195796Y-170105918D01*
X52125000Y-170120000D01*
X51855000Y-170120000D01*
X51784204Y-170105918D01*
X51724185Y-170065815D01*
X51684082Y-170005796D01*
X51670000Y-169935000D01*
X51670000Y-169565000D01*
X51684082Y-169494204D01*
X51724185Y-169434185D01*
X51784204Y-169394082D01*
X51855000Y-169380000D01*
X52125000Y-169380000D01*
X52195796Y-169394082D01*
G37*
G36*
X53215796Y-169394082D02*
G01*
X53275815Y-169434185D01*
X53315918Y-169494204D01*
X53330000Y-169565000D01*
X53330000Y-169935000D01*
X53315918Y-170005796D01*
X53275815Y-170065815D01*
X53215796Y-170105918D01*
X53145000Y-170120000D01*
X52875000Y-170120000D01*
X52804204Y-170105918D01*
X52744185Y-170065815D01*
X52704082Y-170005796D01*
X52690000Y-169935000D01*
X52690000Y-169565000D01*
X52704082Y-169494204D01*
X52744185Y-169434185D01*
X52804204Y-169394082D01*
X52875000Y-169380000D01*
X53145000Y-169380000D01*
X53215796Y-169394082D01*
G37*
G36*
X61732710Y-169404463D02*
G01*
X61794350Y-169445650D01*
X61835537Y-169507290D01*
X61850000Y-169580000D01*
X61850000Y-169920000D01*
X61835537Y-169992710D01*
X61794350Y-170054350D01*
X61732710Y-170095537D01*
X61660000Y-170110000D01*
X61380000Y-170110000D01*
X61307290Y-170095537D01*
X61245650Y-170054350D01*
X61204463Y-169992710D01*
X61190000Y-169920000D01*
X61190000Y-169580000D01*
X61204463Y-169507290D01*
X61245650Y-169445650D01*
X61307290Y-169404463D01*
X61380000Y-169390000D01*
X61660000Y-169390000D01*
X61732710Y-169404463D01*
G37*
G36*
X62692710Y-169404463D02*
G01*
X62754350Y-169445650D01*
X62795537Y-169507290D01*
X62810000Y-169580000D01*
X62810000Y-169920000D01*
X62795537Y-169992710D01*
X62754350Y-170054350D01*
X62692710Y-170095537D01*
X62620000Y-170110000D01*
X62340000Y-170110000D01*
X62267290Y-170095537D01*
X62205650Y-170054350D01*
X62164463Y-169992710D01*
X62150000Y-169920000D01*
X62150000Y-169580000D01*
X62164463Y-169507290D01*
X62205650Y-169445650D01*
X62267290Y-169404463D01*
X62340000Y-169390000D01*
X62620000Y-169390000D01*
X62692710Y-169404463D01*
G37*
G36*
X55895796Y-169344082D02*
G01*
X55955815Y-169384185D01*
X55995918Y-169444204D01*
X56010000Y-169515000D01*
X56010000Y-169885000D01*
X55995918Y-169955796D01*
X55955815Y-170015815D01*
X55895796Y-170055918D01*
X55825000Y-170070000D01*
X55555000Y-170070000D01*
X55484204Y-170055918D01*
X55424185Y-170015815D01*
X55384082Y-169955796D01*
X55370000Y-169885000D01*
X55370000Y-169515000D01*
X55384082Y-169444204D01*
X55424185Y-169384185D01*
X55484204Y-169344082D01*
X55555000Y-169330000D01*
X55825000Y-169330000D01*
X55895796Y-169344082D01*
G37*
G36*
X56915796Y-169344082D02*
G01*
X56975815Y-169384185D01*
X57015918Y-169444204D01*
X57030000Y-169515000D01*
X57030000Y-169885000D01*
X57015918Y-169955796D01*
X56975815Y-170015815D01*
X56915796Y-170055918D01*
X56845000Y-170070000D01*
X56575000Y-170070000D01*
X56504204Y-170055918D01*
X56444185Y-170015815D01*
X56404082Y-169955796D01*
X56390000Y-169885000D01*
X56390000Y-169515000D01*
X56404082Y-169444204D01*
X56444185Y-169384185D01*
X56504204Y-169344082D01*
X56575000Y-169330000D01*
X56845000Y-169330000D01*
X56915796Y-169344082D01*
G37*
G36*
X50742710Y-169164463D02*
G01*
X50804350Y-169205650D01*
X50845537Y-169267290D01*
X50860000Y-169340000D01*
X50860000Y-169620000D01*
X50845537Y-169692710D01*
X50804350Y-169754350D01*
X50742710Y-169795537D01*
X50670000Y-169810000D01*
X50330000Y-169810000D01*
X50257290Y-169795537D01*
X50195650Y-169754350D01*
X50154463Y-169692710D01*
X50140000Y-169620000D01*
X50140000Y-169340000D01*
X50154463Y-169267290D01*
X50195650Y-169205650D01*
X50257290Y-169164463D01*
X50330000Y-169150000D01*
X50670000Y-169150000D01*
X50742710Y-169164463D01*
G37*
G36*
X63742710Y-169164463D02*
G01*
X63804350Y-169205650D01*
X63845537Y-169267290D01*
X63860000Y-169340000D01*
X63860000Y-169620000D01*
X63845537Y-169692710D01*
X63804350Y-169754350D01*
X63742710Y-169795537D01*
X63670000Y-169810000D01*
X63330000Y-169810000D01*
X63257290Y-169795537D01*
X63195650Y-169754350D01*
X63154463Y-169692710D01*
X63140000Y-169620000D01*
X63140000Y-169340000D01*
X63154463Y-169267290D01*
X63195650Y-169205650D01*
X63257290Y-169164463D01*
X63330000Y-169150000D01*
X63670000Y-169150000D01*
X63742710Y-169164463D01*
G37*
G36*
X68018685Y-168657969D02*
G01*
X68027358Y-168661798D01*
X68034925Y-168662901D01*
X68082223Y-168686023D01*
X68119541Y-168702501D01*
X68122996Y-168705956D01*
X68123920Y-168706408D01*
X68193591Y-168776079D01*
X68194042Y-168777002D01*
X68197499Y-168780459D01*
X68213978Y-168817782D01*
X68237098Y-168865073D01*
X68238200Y-168872639D01*
X68242031Y-168881315D01*
X68250000Y-168950000D01*
X68250000Y-169450000D01*
X68242031Y-169518685D01*
X68238199Y-169527361D01*
X68237098Y-169534925D01*
X68213985Y-169582202D01*
X68197499Y-169619541D01*
X68194041Y-169622998D01*
X68193591Y-169623920D01*
X68123920Y-169693591D01*
X68122998Y-169694041D01*
X68119541Y-169697499D01*
X68082207Y-169713983D01*
X68034926Y-169737098D01*
X68027361Y-169738200D01*
X68018685Y-169742031D01*
X67950000Y-169750000D01*
X67250000Y-169750000D01*
X67181315Y-169742031D01*
X67172638Y-169738200D01*
X67165074Y-169737098D01*
X67117787Y-169713981D01*
X67080459Y-169697499D01*
X67077002Y-169694042D01*
X67076079Y-169693591D01*
X67006408Y-169623920D01*
X67005956Y-169622996D01*
X67002501Y-169619541D01*
X66986025Y-169582228D01*
X66962901Y-169534926D01*
X66961798Y-169527357D01*
X66957969Y-169518685D01*
X66950000Y-169450000D01*
X66950000Y-168950000D01*
X66957969Y-168881315D01*
X66961798Y-168872642D01*
X66962901Y-168865074D01*
X66986028Y-168817766D01*
X67002501Y-168780459D01*
X67005955Y-168777004D01*
X67006408Y-168776079D01*
X67076079Y-168706408D01*
X67077004Y-168705955D01*
X67080459Y-168702501D01*
X67117761Y-168686030D01*
X67165073Y-168662901D01*
X67172642Y-168661798D01*
X67181315Y-168657969D01*
X67250000Y-168650000D01*
X67950000Y-168650000D01*
X68018685Y-168657969D01*
G37*
G36*
X48066662Y-168290276D02*
G01*
X48110459Y-168319541D01*
X48139724Y-168363338D01*
X48150000Y-168415000D01*
X48150000Y-168585000D01*
X48139724Y-168636662D01*
X48110459Y-168680459D01*
X48066662Y-168709724D01*
X48064198Y-168710213D01*
X48044652Y-168723275D01*
X48044652Y-168776725D01*
X48064199Y-168789786D01*
X48066662Y-168790276D01*
X48110459Y-168819541D01*
X48139724Y-168863338D01*
X48150000Y-168915000D01*
X48150000Y-169085000D01*
X48139724Y-169136662D01*
X48110459Y-169180459D01*
X48066662Y-169209724D01*
X48064198Y-169210213D01*
X48044652Y-169223275D01*
X48044652Y-169276725D01*
X48064199Y-169289786D01*
X48066662Y-169290276D01*
X48110459Y-169319541D01*
X48139724Y-169363338D01*
X48150000Y-169415000D01*
X48150000Y-169585000D01*
X48139724Y-169636662D01*
X48110459Y-169680459D01*
X48066662Y-169709724D01*
X48015000Y-169720000D01*
X47485000Y-169720000D01*
X47433338Y-169709724D01*
X47389541Y-169680459D01*
X47360276Y-169636662D01*
X47350000Y-169585000D01*
X47350000Y-169415000D01*
X47360276Y-169363338D01*
X47389541Y-169319541D01*
X47433338Y-169290276D01*
X47435798Y-169289786D01*
X47455347Y-169276725D01*
X47455347Y-169223275D01*
X47435799Y-169210213D01*
X47433338Y-169209724D01*
X47389541Y-169180459D01*
X47360276Y-169136662D01*
X47350000Y-169085000D01*
X47350000Y-168915000D01*
X47360276Y-168863338D01*
X47389541Y-168819541D01*
X47433338Y-168790276D01*
X47435798Y-168789786D01*
X47455347Y-168776725D01*
X47455347Y-168723275D01*
X47435799Y-168710213D01*
X47433338Y-168709724D01*
X47389541Y-168680459D01*
X47360276Y-168636662D01*
X47350000Y-168585000D01*
X47350000Y-168415000D01*
X47360276Y-168363338D01*
X47389541Y-168319541D01*
X47433338Y-168290276D01*
X47485000Y-168280000D01*
X48015000Y-168280000D01*
X48066662Y-168290276D01*
G37*
G36*
X49566662Y-168290276D02*
G01*
X49610459Y-168319541D01*
X49639724Y-168363338D01*
X49650000Y-168415000D01*
X49650000Y-168585000D01*
X49639724Y-168636662D01*
X49610459Y-168680459D01*
X49566662Y-168709724D01*
X49564198Y-168710213D01*
X49544652Y-168723275D01*
X49544652Y-168776725D01*
X49564199Y-168789786D01*
X49566662Y-168790276D01*
X49610459Y-168819541D01*
X49639724Y-168863338D01*
X49650000Y-168915000D01*
X49650000Y-169085000D01*
X49639724Y-169136662D01*
X49610459Y-169180459D01*
X49566662Y-169209724D01*
X49564198Y-169210213D01*
X49544652Y-169223275D01*
X49544652Y-169276725D01*
X49564199Y-169289786D01*
X49566662Y-169290276D01*
X49610459Y-169319541D01*
X49639724Y-169363338D01*
X49650000Y-169415000D01*
X49650000Y-169585000D01*
X49639724Y-169636662D01*
X49610459Y-169680459D01*
X49566662Y-169709724D01*
X49515000Y-169720000D01*
X48985000Y-169720000D01*
X48933338Y-169709724D01*
X48889541Y-169680459D01*
X48860276Y-169636662D01*
X48850000Y-169585000D01*
X48850000Y-169415000D01*
X48860276Y-169363338D01*
X48889541Y-169319541D01*
X48933338Y-169290276D01*
X48935798Y-169289786D01*
X48955347Y-169276725D01*
X48955347Y-169223275D01*
X48935799Y-169210213D01*
X48933338Y-169209724D01*
X48889541Y-169180459D01*
X48860276Y-169136662D01*
X48850000Y-169085000D01*
X48850000Y-168915000D01*
X48860276Y-168863338D01*
X48889541Y-168819541D01*
X48933338Y-168790276D01*
X48935798Y-168789786D01*
X48955347Y-168776725D01*
X48955347Y-168723275D01*
X48935799Y-168710213D01*
X48933338Y-168709724D01*
X48889541Y-168680459D01*
X48860276Y-168636662D01*
X48850000Y-168585000D01*
X48850000Y-168415000D01*
X48860276Y-168363338D01*
X48889541Y-168319541D01*
X48933338Y-168290276D01*
X48985000Y-168280000D01*
X49515000Y-168280000D01*
X49566662Y-168290276D01*
G37*
G36*
X73506409Y-168026275D02*
G01*
X73569958Y-168034641D01*
X73585943Y-168042095D01*
X73605238Y-168045933D01*
X73630792Y-168063008D01*
X73657290Y-168075364D01*
X73673412Y-168091486D01*
X73694454Y-168105546D01*
X73708513Y-168126587D01*
X73724635Y-168142709D01*
X73736990Y-168169204D01*
X73754067Y-168194762D01*
X73757905Y-168214058D01*
X73765358Y-168230041D01*
X73773722Y-168293577D01*
X73775000Y-168300000D01*
X73775000Y-168750000D01*
X73773722Y-168756424D01*
X73765358Y-168819958D01*
X73757905Y-168835939D01*
X73754067Y-168855238D01*
X73736988Y-168880797D01*
X73724635Y-168907290D01*
X73708516Y-168923408D01*
X73694454Y-168944454D01*
X73673408Y-168958516D01*
X73657290Y-168974635D01*
X73630797Y-168986988D01*
X73605238Y-169004067D01*
X73585939Y-169007905D01*
X73569958Y-169015358D01*
X73506424Y-169023722D01*
X73500000Y-169025000D01*
X73000000Y-169025000D01*
X72993577Y-169023722D01*
X72930041Y-169015358D01*
X72914058Y-169007905D01*
X72894762Y-169004067D01*
X72869204Y-168986990D01*
X72842709Y-168974635D01*
X72826587Y-168958513D01*
X72805546Y-168944454D01*
X72791486Y-168923412D01*
X72775364Y-168907290D01*
X72763008Y-168880792D01*
X72745933Y-168855238D01*
X72742095Y-168835943D01*
X72734641Y-168819958D01*
X72726275Y-168756409D01*
X72725000Y-168750000D01*
X72725000Y-168300000D01*
X72726274Y-168293592D01*
X72734641Y-168230041D01*
X72742095Y-168214054D01*
X72745933Y-168194762D01*
X72763006Y-168169209D01*
X72775364Y-168142709D01*
X72791488Y-168126584D01*
X72805546Y-168105546D01*
X72826584Y-168091488D01*
X72842709Y-168075364D01*
X72869209Y-168063006D01*
X72894762Y-168045933D01*
X72914054Y-168042095D01*
X72930041Y-168034641D01*
X72993592Y-168026274D01*
X73000000Y-168025000D01*
X73500000Y-168025000D01*
X73506409Y-168026275D01*
G37*
G36*
X52195796Y-168144082D02*
G01*
X52255815Y-168184185D01*
X52295918Y-168244204D01*
X52310000Y-168315000D01*
X52310000Y-168685000D01*
X52295918Y-168755796D01*
X52255815Y-168815815D01*
X52195796Y-168855918D01*
X52125000Y-168870000D01*
X51855000Y-168870000D01*
X51784204Y-168855918D01*
X51724185Y-168815815D01*
X51684082Y-168755796D01*
X51670000Y-168685000D01*
X51670000Y-168315000D01*
X51684082Y-168244204D01*
X51724185Y-168184185D01*
X51784204Y-168144082D01*
X51855000Y-168130000D01*
X52125000Y-168130000D01*
X52195796Y-168144082D01*
G37*
G36*
X53215796Y-168144082D02*
G01*
X53275815Y-168184185D01*
X53315918Y-168244204D01*
X53330000Y-168315000D01*
X53330000Y-168685000D01*
X53315918Y-168755796D01*
X53275815Y-168815815D01*
X53215796Y-168855918D01*
X53145000Y-168870000D01*
X52875000Y-168870000D01*
X52804204Y-168855918D01*
X52744185Y-168815815D01*
X52704082Y-168755796D01*
X52690000Y-168685000D01*
X52690000Y-168315000D01*
X52704082Y-168244204D01*
X52744185Y-168184185D01*
X52804204Y-168144082D01*
X52875000Y-168130000D01*
X53145000Y-168130000D01*
X53215796Y-168144082D01*
G37*
G36*
X50742710Y-168204463D02*
G01*
X50804350Y-168245650D01*
X50845537Y-168307290D01*
X50860000Y-168380000D01*
X50860000Y-168660000D01*
X50845537Y-168732710D01*
X50804350Y-168794350D01*
X50742710Y-168835537D01*
X50670000Y-168850000D01*
X50330000Y-168850000D01*
X50257290Y-168835537D01*
X50195650Y-168794350D01*
X50154463Y-168732710D01*
X50140000Y-168660000D01*
X50140000Y-168380000D01*
X50154463Y-168307290D01*
X50195650Y-168245650D01*
X50257290Y-168204463D01*
X50330000Y-168190000D01*
X50670000Y-168190000D01*
X50742710Y-168204463D01*
G37*
G36*
X63742710Y-168204463D02*
G01*
X63804350Y-168245650D01*
X63845537Y-168307290D01*
X63860000Y-168380000D01*
X63860000Y-168660000D01*
X63845537Y-168732710D01*
X63804350Y-168794350D01*
X63742710Y-168835537D01*
X63670000Y-168850000D01*
X63330000Y-168850000D01*
X63257290Y-168835537D01*
X63195650Y-168794350D01*
X63154463Y-168732710D01*
X63140000Y-168660000D01*
X63140000Y-168380000D01*
X63154463Y-168307290D01*
X63195650Y-168245650D01*
X63257290Y-168204463D01*
X63330000Y-168190000D01*
X63670000Y-168190000D01*
X63742710Y-168204463D01*
G37*
G36*
X55755552Y-167858564D02*
G01*
X55792050Y-167882950D01*
X55816436Y-167919448D01*
X55825000Y-167962500D01*
X55825000Y-168712500D01*
X55816436Y-168755552D01*
X55792050Y-168792050D01*
X55755552Y-168816436D01*
X55712500Y-168825000D01*
X55587500Y-168825000D01*
X55544448Y-168816436D01*
X55507950Y-168792050D01*
X55483564Y-168755552D01*
X55475000Y-168712500D01*
X55475000Y-167962500D01*
X55483564Y-167919448D01*
X55507950Y-167882950D01*
X55544448Y-167858564D01*
X55587500Y-167850000D01*
X55712500Y-167850000D01*
X55755552Y-167858564D01*
G37*
G36*
X56255552Y-167858564D02*
G01*
X56292050Y-167882950D01*
X56316436Y-167919448D01*
X56325000Y-167962500D01*
X56325000Y-168712500D01*
X56316436Y-168755552D01*
X56292050Y-168792050D01*
X56255552Y-168816436D01*
X56212500Y-168825000D01*
X56087500Y-168825000D01*
X56044448Y-168816436D01*
X56007950Y-168792050D01*
X55983564Y-168755552D01*
X55975000Y-168712500D01*
X55975000Y-167962500D01*
X55983564Y-167919448D01*
X56007950Y-167882950D01*
X56044448Y-167858564D01*
X56087500Y-167850000D01*
X56212500Y-167850000D01*
X56255552Y-167858564D01*
G37*
G36*
X56755552Y-167858564D02*
G01*
X56792050Y-167882950D01*
X56816436Y-167919448D01*
X56825000Y-167962500D01*
X56825000Y-168712500D01*
X56816436Y-168755552D01*
X56792050Y-168792050D01*
X56755552Y-168816436D01*
X56712500Y-168825000D01*
X56587500Y-168825000D01*
X56544448Y-168816436D01*
X56507950Y-168792050D01*
X56483564Y-168755552D01*
X56475000Y-168712500D01*
X56475000Y-167962500D01*
X56483564Y-167919448D01*
X56507950Y-167882950D01*
X56544448Y-167858564D01*
X56587500Y-167850000D01*
X56712500Y-167850000D01*
X56755552Y-167858564D01*
G37*
G36*
X57255552Y-167858564D02*
G01*
X57292050Y-167882950D01*
X57316436Y-167919448D01*
X57325000Y-167962500D01*
X57325000Y-168712500D01*
X57316436Y-168755552D01*
X57292050Y-168792050D01*
X57255552Y-168816436D01*
X57212500Y-168825000D01*
X57087500Y-168825000D01*
X57044448Y-168816436D01*
X57007950Y-168792050D01*
X56983564Y-168755552D01*
X56975000Y-168712500D01*
X56975000Y-167962500D01*
X56983564Y-167919448D01*
X57007950Y-167882950D01*
X57044448Y-167858564D01*
X57087500Y-167850000D01*
X57212500Y-167850000D01*
X57255552Y-167858564D01*
G37*
G36*
X57755552Y-167858564D02*
G01*
X57792050Y-167882950D01*
X57816436Y-167919448D01*
X57825000Y-167962500D01*
X57825000Y-168712500D01*
X57816436Y-168755552D01*
X57792050Y-168792050D01*
X57755552Y-168816436D01*
X57712500Y-168825000D01*
X57587500Y-168825000D01*
X57544448Y-168816436D01*
X57507950Y-168792050D01*
X57483564Y-168755552D01*
X57475000Y-168712500D01*
X57475000Y-167962500D01*
X57483564Y-167919448D01*
X57507950Y-167882950D01*
X57544448Y-167858564D01*
X57587500Y-167850000D01*
X57712500Y-167850000D01*
X57755552Y-167858564D01*
G37*
G36*
X58255552Y-167858564D02*
G01*
X58292050Y-167882950D01*
X58316436Y-167919448D01*
X58325000Y-167962500D01*
X58325000Y-168712500D01*
X58316436Y-168755552D01*
X58292050Y-168792050D01*
X58255552Y-168816436D01*
X58212500Y-168825000D01*
X58087500Y-168825000D01*
X58044448Y-168816436D01*
X58007950Y-168792050D01*
X57983564Y-168755552D01*
X57975000Y-168712500D01*
X57975000Y-167962500D01*
X57983564Y-167919448D01*
X58007950Y-167882950D01*
X58044448Y-167858564D01*
X58087500Y-167850000D01*
X58212500Y-167850000D01*
X58255552Y-167858564D01*
G37*
G36*
X58755552Y-167858564D02*
G01*
X58792050Y-167882950D01*
X58816436Y-167919448D01*
X58825000Y-167962500D01*
X58825000Y-168712500D01*
X58816436Y-168755552D01*
X58792050Y-168792050D01*
X58755552Y-168816436D01*
X58712500Y-168825000D01*
X58587500Y-168825000D01*
X58544448Y-168816436D01*
X58507950Y-168792050D01*
X58483564Y-168755552D01*
X58475000Y-168712500D01*
X58475000Y-167962500D01*
X58483564Y-167919448D01*
X58507950Y-167882950D01*
X58544448Y-167858564D01*
X58587500Y-167850000D01*
X58712500Y-167850000D01*
X58755552Y-167858564D01*
G37*
G36*
X59255552Y-167858564D02*
G01*
X59292050Y-167882950D01*
X59316436Y-167919448D01*
X59325000Y-167962500D01*
X59325000Y-168712500D01*
X59316436Y-168755552D01*
X59292050Y-168792050D01*
X59255552Y-168816436D01*
X59212500Y-168825000D01*
X59087500Y-168825000D01*
X59044448Y-168816436D01*
X59007950Y-168792050D01*
X58983564Y-168755552D01*
X58975000Y-168712500D01*
X58975000Y-167962500D01*
X58983564Y-167919448D01*
X59007950Y-167882950D01*
X59044448Y-167858564D01*
X59087500Y-167850000D01*
X59212500Y-167850000D01*
X59255552Y-167858564D01*
G37*
G36*
X59755552Y-167858564D02*
G01*
X59792050Y-167882950D01*
X59816436Y-167919448D01*
X59825000Y-167962500D01*
X59825000Y-168712500D01*
X59816436Y-168755552D01*
X59792050Y-168792050D01*
X59755552Y-168816436D01*
X59712500Y-168825000D01*
X59587500Y-168825000D01*
X59544448Y-168816436D01*
X59507950Y-168792050D01*
X59483564Y-168755552D01*
X59475000Y-168712500D01*
X59475000Y-167962500D01*
X59483564Y-167919448D01*
X59507950Y-167882950D01*
X59544448Y-167858564D01*
X59587500Y-167850000D01*
X59712500Y-167850000D01*
X59755552Y-167858564D01*
G37*
G36*
X60255552Y-167858564D02*
G01*
X60292050Y-167882950D01*
X60316436Y-167919448D01*
X60325000Y-167962500D01*
X60325000Y-168712500D01*
X60316436Y-168755552D01*
X60292050Y-168792050D01*
X60255552Y-168816436D01*
X60212500Y-168825000D01*
X60087500Y-168825000D01*
X60044448Y-168816436D01*
X60007950Y-168792050D01*
X59983564Y-168755552D01*
X59975000Y-168712500D01*
X59975000Y-167962500D01*
X59983564Y-167919448D01*
X60007950Y-167882950D01*
X60044448Y-167858564D01*
X60087500Y-167850000D01*
X60212500Y-167850000D01*
X60255552Y-167858564D01*
G37*
G36*
X60755552Y-167858564D02*
G01*
X60792050Y-167882950D01*
X60816436Y-167919448D01*
X60825000Y-167962500D01*
X60825000Y-168712500D01*
X60816436Y-168755552D01*
X60792050Y-168792050D01*
X60755552Y-168816436D01*
X60712500Y-168825000D01*
X60587500Y-168825000D01*
X60544448Y-168816436D01*
X60507950Y-168792050D01*
X60483564Y-168755552D01*
X60475000Y-168712500D01*
X60475000Y-167962500D01*
X60483564Y-167919448D01*
X60507950Y-167882950D01*
X60544448Y-167858564D01*
X60587500Y-167850000D01*
X60712500Y-167850000D01*
X60755552Y-167858564D01*
G37*
G36*
X61255552Y-167858564D02*
G01*
X61292050Y-167882950D01*
X61316436Y-167919448D01*
X61325000Y-167962500D01*
X61325000Y-168712500D01*
X61316436Y-168755552D01*
X61292050Y-168792050D01*
X61255552Y-168816436D01*
X61212500Y-168825000D01*
X61087500Y-168825000D01*
X61044448Y-168816436D01*
X61007950Y-168792050D01*
X60983564Y-168755552D01*
X60975000Y-168712500D01*
X60975000Y-167962500D01*
X60983564Y-167919448D01*
X61007950Y-167882950D01*
X61044448Y-167858564D01*
X61087500Y-167850000D01*
X61212500Y-167850000D01*
X61255552Y-167858564D01*
G37*
G36*
X75055796Y-167254082D02*
G01*
X75115815Y-167294185D01*
X75155918Y-167354204D01*
X75170000Y-167425000D01*
X75170000Y-167695000D01*
X75155918Y-167765796D01*
X75115815Y-167825815D01*
X75055796Y-167865918D01*
X74985000Y-167880000D01*
X74615000Y-167880000D01*
X74544204Y-167865918D01*
X74484185Y-167825815D01*
X74444082Y-167765796D01*
X74430000Y-167695000D01*
X74430000Y-167425000D01*
X74444082Y-167354204D01*
X74484185Y-167294185D01*
X74544204Y-167254082D01*
X74615000Y-167240000D01*
X74985000Y-167240000D01*
X75055796Y-167254082D01*
G37*
G36*
X55380552Y-167483564D02*
G01*
X55417050Y-167507950D01*
X55441436Y-167544448D01*
X55450000Y-167587500D01*
X55450000Y-167712500D01*
X55441436Y-167755552D01*
X55417050Y-167792050D01*
X55380552Y-167816436D01*
X55337500Y-167825000D01*
X54587500Y-167825000D01*
X54544448Y-167816436D01*
X54507950Y-167792050D01*
X54483564Y-167755552D01*
X54475000Y-167712500D01*
X54475000Y-167587500D01*
X54483564Y-167544448D01*
X54507950Y-167507950D01*
X54544448Y-167483564D01*
X54587500Y-167475000D01*
X55337500Y-167475000D01*
X55380552Y-167483564D01*
G37*
G36*
X62255552Y-167483564D02*
G01*
X62292050Y-167507950D01*
X62316436Y-167544448D01*
X62325000Y-167587500D01*
X62325000Y-167712500D01*
X62316436Y-167755552D01*
X62292050Y-167792050D01*
X62255552Y-167816436D01*
X62212500Y-167825000D01*
X61462500Y-167825000D01*
X61419448Y-167816436D01*
X61382950Y-167792050D01*
X61358564Y-167755552D01*
X61350000Y-167712500D01*
X61350000Y-167587500D01*
X61358564Y-167544448D01*
X61382950Y-167507950D01*
X61419448Y-167483564D01*
X61462500Y-167475000D01*
X62212500Y-167475000D01*
X62255552Y-167483564D01*
G37*
G36*
X61219134Y-162053806D02*
G01*
X61235355Y-162064645D01*
X61246194Y-162080866D01*
X61250000Y-162100000D01*
X61250000Y-167700000D01*
X61246194Y-167719134D01*
X61235355Y-167735355D01*
X61219134Y-167746194D01*
X61200000Y-167750000D01*
X55600000Y-167750000D01*
X55580866Y-167746194D01*
X55564645Y-167735355D01*
X55553806Y-167719134D01*
X55550000Y-167700000D01*
X55550000Y-162100000D01*
X55553806Y-162080866D01*
X55564645Y-162064645D01*
X55580866Y-162053806D01*
X55600000Y-162050000D01*
X61200000Y-162050000D01*
X61219134Y-162053806D01*
G37*
G36*
X68018685Y-166457969D02*
G01*
X68027358Y-166461798D01*
X68034925Y-166462901D01*
X68082223Y-166486023D01*
X68119541Y-166502501D01*
X68122996Y-166505956D01*
X68123920Y-166506408D01*
X68193591Y-166576079D01*
X68194042Y-166577002D01*
X68197499Y-166580459D01*
X68213978Y-166617782D01*
X68237098Y-166665073D01*
X68238200Y-166672639D01*
X68242031Y-166681315D01*
X68250000Y-166750000D01*
X68250000Y-167250000D01*
X68242031Y-167318685D01*
X68238199Y-167327361D01*
X68237098Y-167334925D01*
X68213985Y-167382202D01*
X68197499Y-167419541D01*
X68194041Y-167422998D01*
X68193591Y-167423920D01*
X68123920Y-167493591D01*
X68122998Y-167494041D01*
X68119541Y-167497499D01*
X68082207Y-167513983D01*
X68034926Y-167537098D01*
X68027361Y-167538200D01*
X68018685Y-167542031D01*
X67950000Y-167550000D01*
X67250000Y-167550000D01*
X67181315Y-167542031D01*
X67172638Y-167538200D01*
X67165074Y-167537098D01*
X67117787Y-167513981D01*
X67080459Y-167497499D01*
X67077002Y-167494042D01*
X67076079Y-167493591D01*
X67006408Y-167423920D01*
X67005956Y-167422996D01*
X67002501Y-167419541D01*
X66986025Y-167382228D01*
X66962901Y-167334926D01*
X66961798Y-167327357D01*
X66957969Y-167318685D01*
X66950000Y-167250000D01*
X66950000Y-166750000D01*
X66957969Y-166681315D01*
X66961798Y-166672642D01*
X66962901Y-166665074D01*
X66986028Y-166617766D01*
X67002501Y-166580459D01*
X67005955Y-166577004D01*
X67006408Y-166576079D01*
X67076079Y-166506408D01*
X67077004Y-166505955D01*
X67080459Y-166502501D01*
X67117761Y-166486030D01*
X67165073Y-166462901D01*
X67172642Y-166461798D01*
X67181315Y-166457969D01*
X67250000Y-166450000D01*
X67950000Y-166450000D01*
X68018685Y-166457969D01*
G37*
G36*
X70619134Y-166453806D02*
G01*
X70635355Y-166464645D01*
X70646194Y-166480866D01*
X70650000Y-166500000D01*
X70650000Y-167500000D01*
X70646194Y-167519134D01*
X70635355Y-167535355D01*
X70619134Y-167546194D01*
X70600000Y-167550000D01*
X69400000Y-167550000D01*
X69380866Y-167546194D01*
X69364645Y-167535355D01*
X69353806Y-167519134D01*
X69350000Y-167500000D01*
X69350000Y-166500000D01*
X69353806Y-166480866D01*
X69364645Y-166464645D01*
X69380866Y-166453806D01*
X69400000Y-166450000D01*
X70600000Y-166450000D01*
X70619134Y-166453806D01*
G37*
G36*
X73506409Y-166476275D02*
G01*
X73569958Y-166484641D01*
X73585943Y-166492095D01*
X73605238Y-166495933D01*
X73630792Y-166513008D01*
X73657290Y-166525364D01*
X73673412Y-166541486D01*
X73694454Y-166555546D01*
X73708513Y-166576587D01*
X73724635Y-166592709D01*
X73736990Y-166619204D01*
X73754067Y-166644762D01*
X73757905Y-166664058D01*
X73765358Y-166680041D01*
X73773722Y-166743577D01*
X73775000Y-166750000D01*
X73775000Y-167200000D01*
X73773722Y-167206424D01*
X73765358Y-167269958D01*
X73757905Y-167285939D01*
X73754067Y-167305238D01*
X73736988Y-167330797D01*
X73724635Y-167357290D01*
X73708516Y-167373408D01*
X73694454Y-167394454D01*
X73673408Y-167408516D01*
X73657290Y-167424635D01*
X73630797Y-167436988D01*
X73605238Y-167454067D01*
X73585939Y-167457905D01*
X73569958Y-167465358D01*
X73506424Y-167473722D01*
X73500000Y-167475000D01*
X73000000Y-167475000D01*
X72993577Y-167473722D01*
X72930041Y-167465358D01*
X72914058Y-167457905D01*
X72894762Y-167454067D01*
X72869204Y-167436990D01*
X72842709Y-167424635D01*
X72826587Y-167408513D01*
X72805546Y-167394454D01*
X72791486Y-167373412D01*
X72775364Y-167357290D01*
X72763008Y-167330792D01*
X72745933Y-167305238D01*
X72742095Y-167285943D01*
X72734641Y-167269958D01*
X72726275Y-167206409D01*
X72725000Y-167200000D01*
X72725000Y-166750000D01*
X72726274Y-166743592D01*
X72734641Y-166680041D01*
X72742095Y-166664054D01*
X72745933Y-166644762D01*
X72763006Y-166619209D01*
X72775364Y-166592709D01*
X72791488Y-166576584D01*
X72805546Y-166555546D01*
X72826584Y-166541488D01*
X72842709Y-166525364D01*
X72869209Y-166513006D01*
X72894762Y-166495933D01*
X72914054Y-166492095D01*
X72930041Y-166484641D01*
X72993592Y-166476274D01*
X73000000Y-166475000D01*
X73500000Y-166475000D01*
X73506409Y-166476275D01*
G37*
G36*
X55380552Y-166983564D02*
G01*
X55417050Y-167007950D01*
X55441436Y-167044448D01*
X55450000Y-167087500D01*
X55450000Y-167212500D01*
X55441436Y-167255552D01*
X55417050Y-167292050D01*
X55380552Y-167316436D01*
X55337500Y-167325000D01*
X54587500Y-167325000D01*
X54544448Y-167316436D01*
X54507950Y-167292050D01*
X54483564Y-167255552D01*
X54475000Y-167212500D01*
X54475000Y-167087500D01*
X54483564Y-167044448D01*
X54507950Y-167007950D01*
X54544448Y-166983564D01*
X54587500Y-166975000D01*
X55337500Y-166975000D01*
X55380552Y-166983564D01*
G37*
G36*
X62255552Y-166983564D02*
G01*
X62292050Y-167007950D01*
X62316436Y-167044448D01*
X62325000Y-167087500D01*
X62325000Y-167212500D01*
X62316436Y-167255552D01*
X62292050Y-167292050D01*
X62255552Y-167316436D01*
X62212500Y-167325000D01*
X61462500Y-167325000D01*
X61419448Y-167316436D01*
X61382950Y-167292050D01*
X61358564Y-167255552D01*
X61350000Y-167212500D01*
X61350000Y-167087500D01*
X61358564Y-167044448D01*
X61382950Y-167007950D01*
X61419448Y-166983564D01*
X61462500Y-166975000D01*
X62212500Y-166975000D01*
X62255552Y-166983564D01*
G37*
G36*
X78556409Y-166326275D02*
G01*
X78619958Y-166334641D01*
X78635943Y-166342095D01*
X78655238Y-166345933D01*
X78680792Y-166363008D01*
X78707290Y-166375364D01*
X78723412Y-166391486D01*
X78744454Y-166405546D01*
X78758513Y-166426587D01*
X78774635Y-166442709D01*
X78786990Y-166469204D01*
X78804067Y-166494762D01*
X78807905Y-166514058D01*
X78815358Y-166530041D01*
X78823722Y-166593577D01*
X78825000Y-166600000D01*
X78825000Y-167050000D01*
X78823722Y-167056424D01*
X78815358Y-167119958D01*
X78807905Y-167135939D01*
X78804067Y-167155238D01*
X78786988Y-167180797D01*
X78774635Y-167207290D01*
X78758516Y-167223408D01*
X78744454Y-167244454D01*
X78723408Y-167258516D01*
X78707290Y-167274635D01*
X78680797Y-167286988D01*
X78655238Y-167304067D01*
X78635939Y-167307905D01*
X78619958Y-167315358D01*
X78556424Y-167323722D01*
X78550000Y-167325000D01*
X78050000Y-167325000D01*
X78043577Y-167323722D01*
X77980041Y-167315358D01*
X77964058Y-167307905D01*
X77944762Y-167304067D01*
X77919204Y-167286990D01*
X77892709Y-167274635D01*
X77876587Y-167258513D01*
X77855546Y-167244454D01*
X77841486Y-167223412D01*
X77825364Y-167207290D01*
X77813008Y-167180792D01*
X77795933Y-167155238D01*
X77792095Y-167135943D01*
X77784641Y-167119958D01*
X77776275Y-167056409D01*
X77775000Y-167050000D01*
X77775000Y-166600000D01*
X77776274Y-166593592D01*
X77784641Y-166530041D01*
X77792095Y-166514054D01*
X77795933Y-166494762D01*
X77813006Y-166469209D01*
X77825364Y-166442709D01*
X77841488Y-166426584D01*
X77855546Y-166405546D01*
X77876584Y-166391488D01*
X77892709Y-166375364D01*
X77919209Y-166363006D01*
X77944762Y-166345933D01*
X77964054Y-166342095D01*
X77980041Y-166334641D01*
X78043592Y-166326274D01*
X78050000Y-166325000D01*
X78550000Y-166325000D01*
X78556409Y-166326275D01*
G37*
G36*
X25069134Y-166203806D02*
G01*
X25085355Y-166214645D01*
X25096194Y-166230866D01*
X25100000Y-166250000D01*
X25100000Y-167150000D01*
X25096194Y-167169134D01*
X25085355Y-167185355D01*
X25069134Y-167196194D01*
X25050000Y-167200000D01*
X23350000Y-167200000D01*
X23330866Y-167196194D01*
X23314645Y-167185355D01*
X23303806Y-167169134D01*
X23300000Y-167150000D01*
X23300000Y-166250000D01*
X23303806Y-166230866D01*
X23314645Y-166214645D01*
X23330866Y-166203806D01*
X23350000Y-166200000D01*
X25050000Y-166200000D01*
X25069134Y-166203806D01*
G37*
G36*
X28777514Y-163069848D02*
G01*
X29049378Y-163128989D01*
X29310059Y-163226218D01*
X29554250Y-163359556D01*
X29776978Y-163526288D01*
X29973712Y-163723022D01*
X30140444Y-163945750D01*
X30273782Y-164189941D01*
X30371011Y-164450622D01*
X30430152Y-164722486D01*
X30450000Y-165000000D01*
X30430152Y-165277514D01*
X30371011Y-165549378D01*
X30273782Y-165810059D01*
X30140444Y-166054250D01*
X29973712Y-166276978D01*
X29776978Y-166473712D01*
X29554250Y-166640444D01*
X29310059Y-166773782D01*
X29049378Y-166871011D01*
X28777514Y-166930152D01*
X28500000Y-166950000D01*
X28222486Y-166930152D01*
X27950622Y-166871011D01*
X27689941Y-166773782D01*
X27445750Y-166640444D01*
X27223022Y-166473712D01*
X27026288Y-166276978D01*
X26859556Y-166054250D01*
X26726218Y-165810059D01*
X26628989Y-165549378D01*
X26569848Y-165277514D01*
X26550000Y-165000000D01*
X26569848Y-164722486D01*
X26628989Y-164450622D01*
X26726218Y-164189941D01*
X26859556Y-163945750D01*
X27026288Y-163723022D01*
X27223022Y-163526288D01*
X27445750Y-163359556D01*
X27689941Y-163226218D01*
X27950622Y-163128989D01*
X28222486Y-163069848D01*
X28500000Y-163050000D01*
X28777514Y-163069848D01*
G37*
G36*
X75055796Y-166234082D02*
G01*
X75115815Y-166274185D01*
X75155918Y-166334204D01*
X75170000Y-166405000D01*
X75170000Y-166675000D01*
X75155918Y-166745796D01*
X75115815Y-166805815D01*
X75055796Y-166845918D01*
X74985000Y-166860000D01*
X74615000Y-166860000D01*
X74544204Y-166845918D01*
X74484185Y-166805815D01*
X74444082Y-166745796D01*
X74430000Y-166675000D01*
X74430000Y-166405000D01*
X74444082Y-166334204D01*
X74484185Y-166274185D01*
X74544204Y-166234082D01*
X74615000Y-166220000D01*
X74985000Y-166220000D01*
X75055796Y-166234082D01*
G37*
G36*
X55380552Y-166483564D02*
G01*
X55417050Y-166507950D01*
X55441436Y-166544448D01*
X55450000Y-166587500D01*
X55450000Y-166712500D01*
X55441436Y-166755552D01*
X55417050Y-166792050D01*
X55380552Y-166816436D01*
X55337500Y-166825000D01*
X54587500Y-166825000D01*
X54544448Y-166816436D01*
X54507950Y-166792050D01*
X54483564Y-166755552D01*
X54475000Y-166712500D01*
X54475000Y-166587500D01*
X54483564Y-166544448D01*
X54507950Y-166507950D01*
X54544448Y-166483564D01*
X54587500Y-166475000D01*
X55337500Y-166475000D01*
X55380552Y-166483564D01*
G37*
G36*
X62255552Y-166483564D02*
G01*
X62292050Y-166507950D01*
X62316436Y-166544448D01*
X62325000Y-166587500D01*
X62325000Y-166712500D01*
X62316436Y-166755552D01*
X62292050Y-166792050D01*
X62255552Y-166816436D01*
X62212500Y-166825000D01*
X61462500Y-166825000D01*
X61419448Y-166816436D01*
X61382950Y-166792050D01*
X61358564Y-166755552D01*
X61350000Y-166712500D01*
X61350000Y-166587500D01*
X61358564Y-166544448D01*
X61382950Y-166507950D01*
X61419448Y-166483564D01*
X61462500Y-166475000D01*
X62212500Y-166475000D01*
X62255552Y-166483564D01*
G37*
G36*
X50695796Y-165644082D02*
G01*
X50755815Y-165684185D01*
X50795918Y-165744204D01*
X50810000Y-165815000D01*
X50810000Y-166185000D01*
X50795918Y-166255796D01*
X50755815Y-166315815D01*
X50695796Y-166355918D01*
X50625000Y-166370000D01*
X50355000Y-166370000D01*
X50284204Y-166355918D01*
X50224185Y-166315815D01*
X50184082Y-166255796D01*
X50170000Y-166185000D01*
X50170000Y-165815000D01*
X50184082Y-165744204D01*
X50224185Y-165684185D01*
X50284204Y-165644082D01*
X50355000Y-165630000D01*
X50625000Y-165630000D01*
X50695796Y-165644082D01*
G37*
G36*
X51715796Y-165644082D02*
G01*
X51775815Y-165684185D01*
X51815918Y-165744204D01*
X51830000Y-165815000D01*
X51830000Y-166185000D01*
X51815918Y-166255796D01*
X51775815Y-166315815D01*
X51715796Y-166355918D01*
X51645000Y-166370000D01*
X51375000Y-166370000D01*
X51304204Y-166355918D01*
X51244185Y-166315815D01*
X51204082Y-166255796D01*
X51190000Y-166185000D01*
X51190000Y-165815000D01*
X51204082Y-165744204D01*
X51244185Y-165684185D01*
X51304204Y-165644082D01*
X51375000Y-165630000D01*
X51645000Y-165630000D01*
X51715796Y-165644082D01*
G37*
G36*
X55380552Y-165983564D02*
G01*
X55417050Y-166007950D01*
X55441436Y-166044448D01*
X55450000Y-166087500D01*
X55450000Y-166212500D01*
X55441436Y-166255552D01*
X55417050Y-166292050D01*
X55380552Y-166316436D01*
X55337500Y-166325000D01*
X54587500Y-166325000D01*
X54544448Y-166316436D01*
X54507950Y-166292050D01*
X54483564Y-166255552D01*
X54475000Y-166212500D01*
X54475000Y-166087500D01*
X54483564Y-166044448D01*
X54507950Y-166007950D01*
X54544448Y-165983564D01*
X54587500Y-165975000D01*
X55337500Y-165975000D01*
X55380552Y-165983564D01*
G37*
G36*
X62255552Y-165983564D02*
G01*
X62292050Y-166007950D01*
X62316436Y-166044448D01*
X62325000Y-166087500D01*
X62325000Y-166212500D01*
X62316436Y-166255552D01*
X62292050Y-166292050D01*
X62255552Y-166316436D01*
X62212500Y-166325000D01*
X61462500Y-166325000D01*
X61419448Y-166316436D01*
X61382950Y-166292050D01*
X61358564Y-166255552D01*
X61350000Y-166212500D01*
X61350000Y-166087500D01*
X61358564Y-166044448D01*
X61382950Y-166007950D01*
X61419448Y-165983564D01*
X61462500Y-165975000D01*
X62212500Y-165975000D01*
X62255552Y-165983564D01*
G37*
G36*
X72255796Y-165204082D02*
G01*
X72315815Y-165244185D01*
X72355918Y-165304204D01*
X72370000Y-165375000D01*
X72370000Y-165645000D01*
X72355918Y-165715796D01*
X72315815Y-165775815D01*
X72255796Y-165815918D01*
X72185000Y-165830000D01*
X71815000Y-165830000D01*
X71744204Y-165815918D01*
X71684185Y-165775815D01*
X71644082Y-165715796D01*
X71630000Y-165645000D01*
X71630000Y-165375000D01*
X71644082Y-165304204D01*
X71684185Y-165244185D01*
X71744204Y-165204082D01*
X71815000Y-165190000D01*
X72185000Y-165190000D01*
X72255796Y-165204082D01*
G37*
G36*
X55380552Y-165483564D02*
G01*
X55417050Y-165507950D01*
X55441436Y-165544448D01*
X55450000Y-165587500D01*
X55450000Y-165712500D01*
X55441436Y-165755552D01*
X55417050Y-165792050D01*
X55380552Y-165816436D01*
X55337500Y-165825000D01*
X54587500Y-165825000D01*
X54544448Y-165816436D01*
X54507950Y-165792050D01*
X54483564Y-165755552D01*
X54475000Y-165712500D01*
X54475000Y-165587500D01*
X54483564Y-165544448D01*
X54507950Y-165507950D01*
X54544448Y-165483564D01*
X54587500Y-165475000D01*
X55337500Y-165475000D01*
X55380552Y-165483564D01*
G37*
G36*
X62255552Y-165483564D02*
G01*
X62292050Y-165507950D01*
X62316436Y-165544448D01*
X62325000Y-165587500D01*
X62325000Y-165712500D01*
X62316436Y-165755552D01*
X62292050Y-165792050D01*
X62255552Y-165816436D01*
X62212500Y-165825000D01*
X61462500Y-165825000D01*
X61419448Y-165816436D01*
X61382950Y-165792050D01*
X61358564Y-165755552D01*
X61350000Y-165712500D01*
X61350000Y-165587500D01*
X61358564Y-165544448D01*
X61382950Y-165507950D01*
X61419448Y-165483564D01*
X61462500Y-165475000D01*
X62212500Y-165475000D01*
X62255552Y-165483564D01*
G37*
G36*
X78556409Y-164776275D02*
G01*
X78619958Y-164784641D01*
X78635943Y-164792095D01*
X78655238Y-164795933D01*
X78680792Y-164813008D01*
X78707290Y-164825364D01*
X78723412Y-164841486D01*
X78744454Y-164855546D01*
X78758513Y-164876587D01*
X78774635Y-164892709D01*
X78786990Y-164919204D01*
X78804067Y-164944762D01*
X78807905Y-164964058D01*
X78815358Y-164980041D01*
X78823722Y-165043577D01*
X78825000Y-165050000D01*
X78825000Y-165500000D01*
X78823722Y-165506424D01*
X78815358Y-165569958D01*
X78807905Y-165585939D01*
X78804067Y-165605238D01*
X78786988Y-165630797D01*
X78774635Y-165657290D01*
X78758516Y-165673408D01*
X78744454Y-165694454D01*
X78723408Y-165708516D01*
X78707290Y-165724635D01*
X78680797Y-165736988D01*
X78655238Y-165754067D01*
X78635939Y-165757905D01*
X78619958Y-165765358D01*
X78556424Y-165773722D01*
X78550000Y-165775000D01*
X78050000Y-165775000D01*
X78043577Y-165773722D01*
X77980041Y-165765358D01*
X77964058Y-165757905D01*
X77944762Y-165754067D01*
X77919204Y-165736990D01*
X77892709Y-165724635D01*
X77876587Y-165708513D01*
X77855546Y-165694454D01*
X77841486Y-165673412D01*
X77825364Y-165657290D01*
X77813008Y-165630792D01*
X77795933Y-165605238D01*
X77792095Y-165585943D01*
X77784641Y-165569958D01*
X77776275Y-165506409D01*
X77775000Y-165500000D01*
X77775000Y-165050000D01*
X77776274Y-165043592D01*
X77784641Y-164980041D01*
X77792095Y-164964054D01*
X77795933Y-164944762D01*
X77813006Y-164919209D01*
X77825364Y-164892709D01*
X77841488Y-164876584D01*
X77855546Y-164855546D01*
X77876584Y-164841488D01*
X77892709Y-164825364D01*
X77919209Y-164813006D01*
X77944762Y-164795933D01*
X77964054Y-164792095D01*
X77980041Y-164784641D01*
X78043592Y-164776274D01*
X78050000Y-164775000D01*
X78550000Y-164775000D01*
X78556409Y-164776275D01*
G37*
G36*
X32528918Y-164924580D02*
G01*
X32556851Y-164924580D01*
X32589561Y-164934184D01*
X32623607Y-164939577D01*
X32644934Y-164950444D01*
X32665954Y-164956616D01*
X32700041Y-164978522D01*
X32735114Y-164996393D01*
X32748180Y-165009459D01*
X32761607Y-165018088D01*
X32792751Y-165054030D01*
X32823607Y-165084886D01*
X32829485Y-165096423D01*
X32836068Y-165104020D01*
X32859503Y-165155336D01*
X32880423Y-165196393D01*
X32881574Y-165203665D01*
X32883304Y-165207452D01*
X32894417Y-165284753D01*
X32900000Y-165320000D01*
X32894417Y-165355249D01*
X32883304Y-165432547D01*
X32881575Y-165436332D01*
X32880423Y-165443607D01*
X32859499Y-165484671D01*
X32836068Y-165535979D01*
X32829487Y-165543573D01*
X32823607Y-165555114D01*
X32792745Y-165585975D01*
X32761607Y-165621911D01*
X32748182Y-165630538D01*
X32735114Y-165643607D01*
X32700034Y-165661481D01*
X32665954Y-165683383D01*
X32644938Y-165689553D01*
X32623607Y-165700423D01*
X32589559Y-165705815D01*
X32556851Y-165715420D01*
X32528918Y-165715420D01*
X32500000Y-165720000D01*
X32471082Y-165715420D01*
X32443149Y-165715420D01*
X32410439Y-165705815D01*
X32376393Y-165700423D01*
X32355062Y-165689554D01*
X32334045Y-165683383D01*
X32299961Y-165661478D01*
X32264886Y-165643607D01*
X32251818Y-165630539D01*
X32238392Y-165621911D01*
X32207247Y-165585968D01*
X32176393Y-165555114D01*
X32170514Y-165543576D01*
X32163931Y-165535979D01*
X32140491Y-165484652D01*
X32119577Y-165443607D01*
X32118425Y-165436336D01*
X32116695Y-165432547D01*
X32105572Y-165355181D01*
X32100000Y-165320000D01*
X32105571Y-165284821D01*
X32116695Y-165207452D01*
X32118425Y-165203662D01*
X32119577Y-165196393D01*
X32140486Y-165155355D01*
X32163931Y-165104020D01*
X32170515Y-165096421D01*
X32176393Y-165084886D01*
X32207240Y-165054038D01*
X32238392Y-165018088D01*
X32251821Y-165009457D01*
X32264886Y-164996393D01*
X32299953Y-164978525D01*
X32334045Y-164956616D01*
X32355066Y-164950443D01*
X32376393Y-164939577D01*
X32410437Y-164934184D01*
X32443149Y-164924580D01*
X32471082Y-164924580D01*
X32500000Y-164920000D01*
X32528918Y-164924580D01*
G37*
G36*
X68018685Y-164457969D02*
G01*
X68027358Y-164461798D01*
X68034925Y-164462901D01*
X68082223Y-164486023D01*
X68119541Y-164502501D01*
X68122996Y-164505956D01*
X68123920Y-164506408D01*
X68193591Y-164576079D01*
X68194042Y-164577002D01*
X68197499Y-164580459D01*
X68213978Y-164617782D01*
X68237098Y-164665073D01*
X68238200Y-164672639D01*
X68242031Y-164681315D01*
X68250000Y-164750000D01*
X68250000Y-165250000D01*
X68242031Y-165318685D01*
X68238199Y-165327361D01*
X68237098Y-165334925D01*
X68213985Y-165382202D01*
X68197499Y-165419541D01*
X68194041Y-165422998D01*
X68193591Y-165423920D01*
X68123920Y-165493591D01*
X68122998Y-165494041D01*
X68119541Y-165497499D01*
X68082207Y-165513983D01*
X68034926Y-165537098D01*
X68027361Y-165538200D01*
X68018685Y-165542031D01*
X67950000Y-165550000D01*
X67250000Y-165550000D01*
X67181315Y-165542031D01*
X67172638Y-165538200D01*
X67165074Y-165537098D01*
X67117787Y-165513981D01*
X67080459Y-165497499D01*
X67077002Y-165494042D01*
X67076079Y-165493591D01*
X67006408Y-165423920D01*
X67005956Y-165422996D01*
X67002501Y-165419541D01*
X66986025Y-165382228D01*
X66962901Y-165334926D01*
X66961798Y-165327357D01*
X66957969Y-165318685D01*
X66950000Y-165250000D01*
X66950000Y-164750000D01*
X66957969Y-164681315D01*
X66961798Y-164672642D01*
X66962901Y-164665074D01*
X66986028Y-164617766D01*
X67002501Y-164580459D01*
X67005955Y-164577004D01*
X67006408Y-164576079D01*
X67076079Y-164506408D01*
X67077004Y-164505955D01*
X67080459Y-164502501D01*
X67117761Y-164486030D01*
X67165073Y-164462901D01*
X67172642Y-164461798D01*
X67181315Y-164457969D01*
X67250000Y-164450000D01*
X67950000Y-164450000D01*
X68018685Y-164457969D01*
G37*
G36*
X26409134Y-164553806D02*
G01*
X26425355Y-164564645D01*
X26436194Y-164580866D01*
X26440000Y-164600000D01*
X26440000Y-165400000D01*
X26436194Y-165419134D01*
X26425355Y-165435355D01*
X26409134Y-165446194D01*
X26390000Y-165450000D01*
X25290000Y-165450000D01*
X25270866Y-165446194D01*
X25254645Y-165435355D01*
X25243806Y-165419134D01*
X25240000Y-165400000D01*
X25240000Y-164600000D01*
X25243806Y-164580866D01*
X25254645Y-164564645D01*
X25270866Y-164553806D01*
X25290000Y-164550000D01*
X26390000Y-164550000D01*
X26409134Y-164553806D01*
G37*
G36*
X24386937Y-164590666D02*
G01*
X24494687Y-164659913D01*
X24578564Y-164756712D01*
X24631772Y-164873220D01*
X24650000Y-165000000D01*
X24631772Y-165126780D01*
X24578564Y-165243288D01*
X24494687Y-165340087D01*
X24386937Y-165409334D01*
X24264042Y-165445420D01*
X24135958Y-165445420D01*
X24013063Y-165409334D01*
X23905313Y-165340087D01*
X23821436Y-165243288D01*
X23768228Y-165126780D01*
X23750000Y-165000000D01*
X23768228Y-164873220D01*
X23821436Y-164756712D01*
X23905313Y-164659913D01*
X24013063Y-164590666D01*
X24135958Y-164554580D01*
X24264042Y-164554580D01*
X24386937Y-164590666D01*
G37*
G36*
X55380552Y-164983564D02*
G01*
X55417050Y-165007950D01*
X55441436Y-165044448D01*
X55450000Y-165087500D01*
X55450000Y-165212500D01*
X55441436Y-165255552D01*
X55417050Y-165292050D01*
X55380552Y-165316436D01*
X55337500Y-165325000D01*
X54587500Y-165325000D01*
X54544448Y-165316436D01*
X54507950Y-165292050D01*
X54483564Y-165255552D01*
X54475000Y-165212500D01*
X54475000Y-165087500D01*
X54483564Y-165044448D01*
X54507950Y-165007950D01*
X54544448Y-164983564D01*
X54587500Y-164975000D01*
X55337500Y-164975000D01*
X55380552Y-164983564D01*
G37*
G36*
X62255552Y-164983564D02*
G01*
X62292050Y-165007950D01*
X62316436Y-165044448D01*
X62325000Y-165087500D01*
X62325000Y-165212500D01*
X62316436Y-165255552D01*
X62292050Y-165292050D01*
X62255552Y-165316436D01*
X62212500Y-165325000D01*
X61462500Y-165325000D01*
X61419448Y-165316436D01*
X61382950Y-165292050D01*
X61358564Y-165255552D01*
X61350000Y-165212500D01*
X61350000Y-165087500D01*
X61358564Y-165044448D01*
X61382950Y-165007950D01*
X61419448Y-164983564D01*
X61462500Y-164975000D01*
X62212500Y-164975000D01*
X62255552Y-164983564D01*
G37*
G36*
X74072071Y-162687929D02*
G01*
X74075000Y-162695000D01*
X74075000Y-163055000D01*
X74072071Y-163062071D01*
X74065000Y-163065000D01*
X74055051Y-163065000D01*
X74051212Y-163066590D01*
X74051212Y-163133410D01*
X74055051Y-163135000D01*
X74065000Y-163135000D01*
X74072071Y-163137929D01*
X74075000Y-163145000D01*
X74075000Y-163505000D01*
X74072071Y-163512071D01*
X74065000Y-163515000D01*
X74055051Y-163515000D01*
X74051212Y-163516590D01*
X74051212Y-163583410D01*
X74055051Y-163585000D01*
X74065000Y-163585000D01*
X74072071Y-163587929D01*
X74075000Y-163595000D01*
X74075000Y-163955000D01*
X74072071Y-163962071D01*
X74065000Y-163965000D01*
X74055051Y-163965000D01*
X74051212Y-163966590D01*
X74051212Y-164033410D01*
X74055051Y-164035000D01*
X74065000Y-164035000D01*
X74072071Y-164037929D01*
X74075000Y-164045000D01*
X74075000Y-164405000D01*
X74072071Y-164412071D01*
X74065000Y-164415000D01*
X74055051Y-164415000D01*
X74051212Y-164416590D01*
X74051212Y-164483410D01*
X74055051Y-164485000D01*
X74065000Y-164485000D01*
X74072071Y-164487929D01*
X74075000Y-164495000D01*
X74075000Y-164855000D01*
X74072071Y-164862071D01*
X74065000Y-164865000D01*
X74055051Y-164865000D01*
X74051212Y-164866590D01*
X74051212Y-164933410D01*
X74055051Y-164935000D01*
X74065000Y-164935000D01*
X74072071Y-164937929D01*
X74075000Y-164945000D01*
X74075000Y-165305000D01*
X74072071Y-165312071D01*
X74065000Y-165315000D01*
X74055056Y-165315000D01*
X73074944Y-165315000D01*
X73065000Y-165315000D01*
X73057929Y-165312071D01*
X73055000Y-165305000D01*
X73055000Y-164945000D01*
X73057929Y-164937929D01*
X73065000Y-164935000D01*
X73074943Y-164935000D01*
X73078787Y-164933408D01*
X73078787Y-164866592D01*
X73074944Y-164865000D01*
X73065000Y-164865000D01*
X73057929Y-164862071D01*
X73055000Y-164855000D01*
X73055000Y-164495000D01*
X73057929Y-164487929D01*
X73065000Y-164485000D01*
X73074943Y-164485000D01*
X73078787Y-164483408D01*
X73078787Y-164416592D01*
X73074944Y-164415000D01*
X73065000Y-164415000D01*
X73057929Y-164412071D01*
X73055000Y-164405000D01*
X73055000Y-164045000D01*
X73057929Y-164037929D01*
X73065000Y-164035000D01*
X73074943Y-164035000D01*
X73078787Y-164033408D01*
X73078787Y-163966592D01*
X73074944Y-163965000D01*
X73065000Y-163965000D01*
X73057929Y-163962071D01*
X73055000Y-163955000D01*
X73055000Y-163595000D01*
X73057929Y-163587929D01*
X73065000Y-163585000D01*
X73074943Y-163585000D01*
X73078787Y-163583408D01*
X73078787Y-163516592D01*
X73074944Y-163515000D01*
X73065000Y-163515000D01*
X73057929Y-163512071D01*
X73055000Y-163505000D01*
X73055000Y-163145000D01*
X73057929Y-163137929D01*
X73065000Y-163135000D01*
X73074943Y-163135000D01*
X73078787Y-163133408D01*
X73078787Y-163066592D01*
X73074944Y-163065000D01*
X73065000Y-163065000D01*
X73057929Y-163062071D01*
X73055000Y-163055000D01*
X73055000Y-162695000D01*
X73057929Y-162687929D01*
X73065000Y-162685000D01*
X74065000Y-162685000D01*
X74072071Y-162687929D01*
G37*
G36*
X76942071Y-162687929D02*
G01*
X76945000Y-162695000D01*
X76945000Y-163055000D01*
X76942071Y-163062071D01*
X76935000Y-163065000D01*
X76925051Y-163065000D01*
X76921212Y-163066590D01*
X76921212Y-163133410D01*
X76925051Y-163135000D01*
X76935000Y-163135000D01*
X76942071Y-163137929D01*
X76945000Y-163145000D01*
X76945000Y-163505000D01*
X76942071Y-163512071D01*
X76935000Y-163515000D01*
X76925051Y-163515000D01*
X76921212Y-163516590D01*
X76921212Y-163583410D01*
X76925051Y-163585000D01*
X76935000Y-163585000D01*
X76942071Y-163587929D01*
X76945000Y-163595000D01*
X76945000Y-163955000D01*
X76942071Y-163962071D01*
X76935000Y-163965000D01*
X76925051Y-163965000D01*
X76921212Y-163966590D01*
X76921212Y-164033410D01*
X76925051Y-164035000D01*
X76935000Y-164035000D01*
X76942071Y-164037929D01*
X76945000Y-164045000D01*
X76945000Y-164405000D01*
X76942071Y-164412071D01*
X76935000Y-164415000D01*
X76925051Y-164415000D01*
X76921212Y-164416590D01*
X76921212Y-164483410D01*
X76925051Y-164485000D01*
X76935000Y-164485000D01*
X76942071Y-164487929D01*
X76945000Y-164495000D01*
X76945000Y-164855000D01*
X76942071Y-164862071D01*
X76935000Y-164865000D01*
X76925051Y-164865000D01*
X76921212Y-164866590D01*
X76921212Y-164933410D01*
X76925051Y-164935000D01*
X76935000Y-164935000D01*
X76942071Y-164937929D01*
X76945000Y-164945000D01*
X76945000Y-165305000D01*
X76942071Y-165312071D01*
X76935000Y-165315000D01*
X76925056Y-165315000D01*
X75944944Y-165315000D01*
X75935000Y-165315000D01*
X75927929Y-165312071D01*
X75925000Y-165305000D01*
X75925000Y-164945000D01*
X75927929Y-164937929D01*
X75935000Y-164935000D01*
X75944943Y-164935000D01*
X75948787Y-164933408D01*
X75948787Y-164866592D01*
X75944944Y-164865000D01*
X75935000Y-164865000D01*
X75927929Y-164862071D01*
X75925000Y-164855000D01*
X75925000Y-164495000D01*
X75927929Y-164487929D01*
X75935000Y-164485000D01*
X75944943Y-164485000D01*
X75948787Y-164483408D01*
X75948787Y-164416592D01*
X75944944Y-164415000D01*
X75935000Y-164415000D01*
X75927929Y-164412071D01*
X75925000Y-164405000D01*
X75925000Y-164045000D01*
X75927929Y-164037929D01*
X75935000Y-164035000D01*
X75944943Y-164035000D01*
X75948787Y-164033408D01*
X75948787Y-163966592D01*
X75944944Y-163965000D01*
X75935000Y-163965000D01*
X75927929Y-163962071D01*
X75925000Y-163955000D01*
X75925000Y-163595000D01*
X75927929Y-163587929D01*
X75935000Y-163585000D01*
X75944943Y-163585000D01*
X75948787Y-163583408D01*
X75948787Y-163516592D01*
X75944944Y-163515000D01*
X75935000Y-163515000D01*
X75927929Y-163512071D01*
X75925000Y-163505000D01*
X75925000Y-163145000D01*
X75927929Y-163137929D01*
X75935000Y-163135000D01*
X75944943Y-163135000D01*
X75948787Y-163133408D01*
X75948787Y-163066592D01*
X75944944Y-163065000D01*
X75935000Y-163065000D01*
X75927929Y-163062071D01*
X75925000Y-163055000D01*
X75925000Y-162695000D01*
X75927929Y-162687929D01*
X75935000Y-162685000D01*
X76935000Y-162685000D01*
X76942071Y-162687929D01*
G37*
G36*
X75712071Y-162882929D02*
G01*
X75715000Y-162890000D01*
X75715000Y-165110000D01*
X75712071Y-165117071D01*
X75705000Y-165120000D01*
X75695056Y-165120000D01*
X74304944Y-165120000D01*
X74295000Y-165120000D01*
X74287929Y-165117071D01*
X74285000Y-165110000D01*
X74285000Y-162890000D01*
X74287929Y-162882929D01*
X74295000Y-162880000D01*
X75705000Y-162880000D01*
X75712071Y-162882929D01*
G37*
G36*
X64482710Y-164404463D02*
G01*
X64544350Y-164445650D01*
X64585537Y-164507290D01*
X64600000Y-164580000D01*
X64600000Y-164920000D01*
X64585537Y-164992710D01*
X64544350Y-165054350D01*
X64482710Y-165095537D01*
X64410000Y-165110000D01*
X64130000Y-165110000D01*
X64057290Y-165095537D01*
X63995650Y-165054350D01*
X63954463Y-164992710D01*
X63940000Y-164920000D01*
X63940000Y-164580000D01*
X63954463Y-164507290D01*
X63995650Y-164445650D01*
X64057290Y-164404463D01*
X64130000Y-164390000D01*
X64410000Y-164390000D01*
X64482710Y-164404463D01*
G37*
G36*
X65442710Y-164404463D02*
G01*
X65504350Y-164445650D01*
X65545537Y-164507290D01*
X65560000Y-164580000D01*
X65560000Y-164920000D01*
X65545537Y-164992710D01*
X65504350Y-165054350D01*
X65442710Y-165095537D01*
X65370000Y-165110000D01*
X65090000Y-165110000D01*
X65017290Y-165095537D01*
X64955650Y-165054350D01*
X64914463Y-164992710D01*
X64900000Y-164920000D01*
X64900000Y-164580000D01*
X64914463Y-164507290D01*
X64955650Y-164445650D01*
X65017290Y-164404463D01*
X65090000Y-164390000D01*
X65370000Y-164390000D01*
X65442710Y-164404463D01*
G37*
G36*
X55380552Y-164483564D02*
G01*
X55417050Y-164507950D01*
X55441436Y-164544448D01*
X55450000Y-164587500D01*
X55450000Y-164712500D01*
X55441436Y-164755552D01*
X55417050Y-164792050D01*
X55380552Y-164816436D01*
X55337500Y-164825000D01*
X54587500Y-164825000D01*
X54544448Y-164816436D01*
X54507950Y-164792050D01*
X54483564Y-164755552D01*
X54475000Y-164712500D01*
X54475000Y-164587500D01*
X54483564Y-164544448D01*
X54507950Y-164507950D01*
X54544448Y-164483564D01*
X54587500Y-164475000D01*
X55337500Y-164475000D01*
X55380552Y-164483564D01*
G37*
G36*
X62255552Y-164483564D02*
G01*
X62292050Y-164507950D01*
X62316436Y-164544448D01*
X62325000Y-164587500D01*
X62325000Y-164712500D01*
X62316436Y-164755552D01*
X62292050Y-164792050D01*
X62255552Y-164816436D01*
X62212500Y-164825000D01*
X61462500Y-164825000D01*
X61419448Y-164816436D01*
X61382950Y-164792050D01*
X61358564Y-164755552D01*
X61350000Y-164712500D01*
X61350000Y-164587500D01*
X61358564Y-164544448D01*
X61382950Y-164507950D01*
X61419448Y-164483564D01*
X61462500Y-164475000D01*
X62212500Y-164475000D01*
X62255552Y-164483564D01*
G37*
G36*
X72255796Y-164184082D02*
G01*
X72315815Y-164224185D01*
X72355918Y-164284204D01*
X72370000Y-164355000D01*
X72370000Y-164625000D01*
X72355918Y-164695796D01*
X72315815Y-164755815D01*
X72255796Y-164795918D01*
X72185000Y-164810000D01*
X71815000Y-164810000D01*
X71744204Y-164795918D01*
X71684185Y-164755815D01*
X71644082Y-164695796D01*
X71630000Y-164625000D01*
X71630000Y-164355000D01*
X71644082Y-164284204D01*
X71684185Y-164224185D01*
X71744204Y-164184082D01*
X71815000Y-164170000D01*
X72185000Y-164170000D01*
X72255796Y-164184082D01*
G37*
G36*
X52332710Y-164054463D02*
G01*
X52394350Y-164095650D01*
X52435537Y-164157290D01*
X52450000Y-164230000D01*
X52450000Y-164570000D01*
X52435537Y-164642710D01*
X52394350Y-164704350D01*
X52332710Y-164745537D01*
X52260000Y-164760000D01*
X51980000Y-164760000D01*
X51907290Y-164745537D01*
X51845650Y-164704350D01*
X51804463Y-164642710D01*
X51790000Y-164570000D01*
X51790000Y-164230000D01*
X51804463Y-164157290D01*
X51845650Y-164095650D01*
X51907290Y-164054463D01*
X51980000Y-164040000D01*
X52260000Y-164040000D01*
X52332710Y-164054463D01*
G37*
G36*
X53292710Y-164054463D02*
G01*
X53354350Y-164095650D01*
X53395537Y-164157290D01*
X53410000Y-164230000D01*
X53410000Y-164570000D01*
X53395537Y-164642710D01*
X53354350Y-164704350D01*
X53292710Y-164745537D01*
X53220000Y-164760000D01*
X52940000Y-164760000D01*
X52867290Y-164745537D01*
X52805650Y-164704350D01*
X52764463Y-164642710D01*
X52750000Y-164570000D01*
X52750000Y-164230000D01*
X52764463Y-164157290D01*
X52805650Y-164095650D01*
X52867290Y-164054463D01*
X52940000Y-164040000D01*
X53220000Y-164040000D01*
X53292710Y-164054463D01*
G37*
G36*
X50033735Y-164106206D02*
G01*
X50049956Y-164117045D01*
X50060795Y-164133266D01*
X50064601Y-164152400D01*
X50064601Y-164355600D01*
X50060795Y-164374734D01*
X50049956Y-164390955D01*
X50033735Y-164401794D01*
X50014601Y-164405600D01*
X49811401Y-164405600D01*
X49792267Y-164401794D01*
X49776046Y-164390955D01*
X49765207Y-164374734D01*
X49761401Y-164355600D01*
X49761401Y-164152400D01*
X49765207Y-164133266D01*
X49776046Y-164117045D01*
X49792267Y-164106206D01*
X49811401Y-164102400D01*
X50014601Y-164102400D01*
X50033735Y-164106206D01*
G37*
G36*
X50620734Y-164106206D02*
G01*
X50636955Y-164117045D01*
X50647794Y-164133266D01*
X50651600Y-164152400D01*
X50651600Y-164355600D01*
X50647794Y-164374734D01*
X50636955Y-164390955D01*
X50620734Y-164401794D01*
X50601600Y-164405600D01*
X50398400Y-164405600D01*
X50379266Y-164401794D01*
X50363045Y-164390955D01*
X50352206Y-164374734D01*
X50348400Y-164355600D01*
X50348400Y-164152400D01*
X50352206Y-164133266D01*
X50363045Y-164117045D01*
X50379266Y-164106206D01*
X50398400Y-164102400D01*
X50601600Y-164102400D01*
X50620734Y-164106206D01*
G37*
G36*
X51207733Y-164106206D02*
G01*
X51223954Y-164117045D01*
X51234793Y-164133266D01*
X51238599Y-164152400D01*
X51238599Y-164355600D01*
X51234793Y-164374734D01*
X51223954Y-164390955D01*
X51207733Y-164401794D01*
X51188599Y-164405600D01*
X50985399Y-164405600D01*
X50966265Y-164401794D01*
X50950044Y-164390955D01*
X50939205Y-164374734D01*
X50935399Y-164355600D01*
X50935399Y-164152400D01*
X50939205Y-164133266D01*
X50950044Y-164117045D01*
X50966265Y-164106206D01*
X50985399Y-164102400D01*
X51188599Y-164102400D01*
X51207733Y-164106206D01*
G37*
G36*
X55380552Y-163983564D02*
G01*
X55417050Y-164007950D01*
X55441436Y-164044448D01*
X55450000Y-164087500D01*
X55450000Y-164212500D01*
X55441436Y-164255552D01*
X55417050Y-164292050D01*
X55380552Y-164316436D01*
X55337500Y-164325000D01*
X54587500Y-164325000D01*
X54544448Y-164316436D01*
X54507950Y-164292050D01*
X54483564Y-164255552D01*
X54475000Y-164212500D01*
X54475000Y-164087500D01*
X54483564Y-164044448D01*
X54507950Y-164007950D01*
X54544448Y-163983564D01*
X54587500Y-163975000D01*
X55337500Y-163975000D01*
X55380552Y-163983564D01*
G37*
G36*
X62255552Y-163983564D02*
G01*
X62292050Y-164007950D01*
X62316436Y-164044448D01*
X62325000Y-164087500D01*
X62325000Y-164212500D01*
X62316436Y-164255552D01*
X62292050Y-164292050D01*
X62255552Y-164316436D01*
X62212500Y-164325000D01*
X61462500Y-164325000D01*
X61419448Y-164316436D01*
X61382950Y-164292050D01*
X61358564Y-164255552D01*
X61350000Y-164212500D01*
X61350000Y-164087500D01*
X61358564Y-164044448D01*
X61382950Y-164007950D01*
X61419448Y-163983564D01*
X61462500Y-163975000D01*
X62212500Y-163975000D01*
X62255552Y-163983564D01*
G37*
G36*
X39745796Y-163444082D02*
G01*
X39805815Y-163484185D01*
X39845918Y-163544204D01*
X39860000Y-163615000D01*
X39860000Y-163985000D01*
X39845918Y-164055796D01*
X39805815Y-164115815D01*
X39745796Y-164155918D01*
X39675000Y-164170000D01*
X39405000Y-164170000D01*
X39334204Y-164155918D01*
X39274185Y-164115815D01*
X39234082Y-164055796D01*
X39220000Y-163985000D01*
X39220000Y-163615000D01*
X39234082Y-163544204D01*
X39274185Y-163484185D01*
X39334204Y-163444082D01*
X39405000Y-163430000D01*
X39675000Y-163430000D01*
X39745796Y-163444082D01*
G37*
G36*
X40765796Y-163444082D02*
G01*
X40825815Y-163484185D01*
X40865918Y-163544204D01*
X40880000Y-163615000D01*
X40880000Y-163985000D01*
X40865918Y-164055796D01*
X40825815Y-164115815D01*
X40765796Y-164155918D01*
X40695000Y-164170000D01*
X40425000Y-164170000D01*
X40354204Y-164155918D01*
X40294185Y-164115815D01*
X40254082Y-164055796D01*
X40240000Y-163985000D01*
X40240000Y-163615000D01*
X40254082Y-163544204D01*
X40294185Y-163484185D01*
X40354204Y-163444082D01*
X40425000Y-163430000D01*
X40695000Y-163430000D01*
X40765796Y-163444082D01*
G37*
G36*
X64445796Y-163394082D02*
G01*
X64505815Y-163434185D01*
X64545918Y-163494204D01*
X64560000Y-163565000D01*
X64560000Y-163935000D01*
X64545918Y-164005796D01*
X64505815Y-164065815D01*
X64445796Y-164105918D01*
X64375000Y-164120000D01*
X64105000Y-164120000D01*
X64034204Y-164105918D01*
X63974185Y-164065815D01*
X63934082Y-164005796D01*
X63920000Y-163935000D01*
X63920000Y-163565000D01*
X63934082Y-163494204D01*
X63974185Y-163434185D01*
X64034204Y-163394082D01*
X64105000Y-163380000D01*
X64375000Y-163380000D01*
X64445796Y-163394082D01*
G37*
G36*
X65465796Y-163394082D02*
G01*
X65525815Y-163434185D01*
X65565918Y-163494204D01*
X65580000Y-163565000D01*
X65580000Y-163935000D01*
X65565918Y-164005796D01*
X65525815Y-164065815D01*
X65465796Y-164105918D01*
X65395000Y-164120000D01*
X65125000Y-164120000D01*
X65054204Y-164105918D01*
X64994185Y-164065815D01*
X64954082Y-164005796D01*
X64940000Y-163935000D01*
X64940000Y-163565000D01*
X64954082Y-163494204D01*
X64994185Y-163434185D01*
X65054204Y-163394082D01*
X65125000Y-163380000D01*
X65395000Y-163380000D01*
X65465796Y-163394082D01*
G37*
G36*
X41792710Y-163464463D02*
G01*
X41854350Y-163505650D01*
X41895537Y-163567290D01*
X41910000Y-163640000D01*
X41910000Y-163920000D01*
X41895537Y-163992710D01*
X41854350Y-164054350D01*
X41792710Y-164095537D01*
X41720000Y-164110000D01*
X41380000Y-164110000D01*
X41307290Y-164095537D01*
X41245650Y-164054350D01*
X41204463Y-163992710D01*
X41190000Y-163920000D01*
X41190000Y-163640000D01*
X41204463Y-163567290D01*
X41245650Y-163505650D01*
X41307290Y-163464463D01*
X41380000Y-163450000D01*
X41720000Y-163450000D01*
X41792710Y-163464463D01*
G37*
G36*
X50002375Y-163602073D02*
G01*
X50035077Y-163623924D01*
X50056928Y-163656626D01*
X50064601Y-163695200D01*
X50064601Y-163796800D01*
X50056928Y-163835374D01*
X50035077Y-163868076D01*
X50002375Y-163889927D01*
X49963801Y-163897600D01*
X49862201Y-163897600D01*
X49823627Y-163889927D01*
X49790925Y-163868076D01*
X49769074Y-163835374D01*
X49761401Y-163796800D01*
X49761401Y-163695200D01*
X49769074Y-163656626D01*
X49790925Y-163623924D01*
X49823627Y-163602073D01*
X49862201Y-163594400D01*
X49963801Y-163594400D01*
X50002375Y-163602073D01*
G37*
G36*
X50620734Y-163598206D02*
G01*
X50636955Y-163609045D01*
X50647794Y-163625266D01*
X50651600Y-163644400D01*
X50651600Y-163847600D01*
X50647794Y-163866734D01*
X50636955Y-163882955D01*
X50620734Y-163893794D01*
X50601600Y-163897600D01*
X50398400Y-163897600D01*
X50379266Y-163893794D01*
X50363045Y-163882955D01*
X50352206Y-163866734D01*
X50348400Y-163847600D01*
X50348400Y-163644400D01*
X50352206Y-163625266D01*
X50363045Y-163609045D01*
X50379266Y-163598206D01*
X50398400Y-163594400D01*
X50601600Y-163594400D01*
X50620734Y-163598206D01*
G37*
G36*
X51176373Y-163602073D02*
G01*
X51209075Y-163623924D01*
X51230926Y-163656626D01*
X51238599Y-163695200D01*
X51238599Y-163796800D01*
X51230926Y-163835374D01*
X51209075Y-163868076D01*
X51176373Y-163889927D01*
X51137799Y-163897600D01*
X51036199Y-163897600D01*
X50997625Y-163889927D01*
X50964923Y-163868076D01*
X50943072Y-163835374D01*
X50935399Y-163796800D01*
X50935399Y-163695200D01*
X50943072Y-163656626D01*
X50964923Y-163623924D01*
X50997625Y-163602073D01*
X51036199Y-163594400D01*
X51137799Y-163594400D01*
X51176373Y-163602073D01*
G37*
G36*
X55380552Y-163483564D02*
G01*
X55417050Y-163507950D01*
X55441436Y-163544448D01*
X55450000Y-163587500D01*
X55450000Y-163712500D01*
X55441436Y-163755552D01*
X55417050Y-163792050D01*
X55380552Y-163816436D01*
X55337500Y-163825000D01*
X54587500Y-163825000D01*
X54544448Y-163816436D01*
X54507950Y-163792050D01*
X54483564Y-163755552D01*
X54475000Y-163712500D01*
X54475000Y-163587500D01*
X54483564Y-163544448D01*
X54507950Y-163507950D01*
X54544448Y-163483564D01*
X54587500Y-163475000D01*
X55337500Y-163475000D01*
X55380552Y-163483564D01*
G37*
G36*
X62255552Y-163483564D02*
G01*
X62292050Y-163507950D01*
X62316436Y-163544448D01*
X62325000Y-163587500D01*
X62325000Y-163712500D01*
X62316436Y-163755552D01*
X62292050Y-163792050D01*
X62255552Y-163816436D01*
X62212500Y-163825000D01*
X61462500Y-163825000D01*
X61419448Y-163816436D01*
X61382950Y-163792050D01*
X61358564Y-163755552D01*
X61350000Y-163712500D01*
X61350000Y-163587500D01*
X61358564Y-163544448D01*
X61382950Y-163507950D01*
X61419448Y-163483564D01*
X61462500Y-163475000D01*
X62212500Y-163475000D01*
X62255552Y-163483564D01*
G37*
G36*
X25069134Y-162803806D02*
G01*
X25085355Y-162814645D01*
X25096194Y-162830866D01*
X25100000Y-162850000D01*
X25100000Y-163750000D01*
X25096194Y-163769134D01*
X25085355Y-163785355D01*
X25069134Y-163796194D01*
X25050000Y-163800000D01*
X23350000Y-163800000D01*
X23330866Y-163796194D01*
X23314645Y-163785355D01*
X23303806Y-163769134D01*
X23300000Y-163750000D01*
X23300000Y-162850000D01*
X23303806Y-162830866D01*
X23314645Y-162814645D01*
X23330866Y-162803806D01*
X23350000Y-162800000D01*
X25050000Y-162800000D01*
X25069134Y-162803806D01*
G37*
G36*
X72256409Y-162776275D02*
G01*
X72319958Y-162784641D01*
X72335943Y-162792095D01*
X72355238Y-162795933D01*
X72380792Y-162813008D01*
X72407290Y-162825364D01*
X72423412Y-162841486D01*
X72444454Y-162855546D01*
X72458513Y-162876587D01*
X72474635Y-162892709D01*
X72486990Y-162919204D01*
X72504067Y-162944762D01*
X72507905Y-162964058D01*
X72515358Y-162980041D01*
X72523722Y-163043577D01*
X72525000Y-163050000D01*
X72525000Y-163500000D01*
X72523722Y-163506424D01*
X72515358Y-163569958D01*
X72507905Y-163585939D01*
X72504067Y-163605238D01*
X72486988Y-163630797D01*
X72474635Y-163657290D01*
X72458516Y-163673408D01*
X72444454Y-163694454D01*
X72423408Y-163708516D01*
X72407290Y-163724635D01*
X72380797Y-163736988D01*
X72355238Y-163754067D01*
X72335939Y-163757905D01*
X72319958Y-163765358D01*
X72256424Y-163773722D01*
X72250000Y-163775000D01*
X71750000Y-163775000D01*
X71743577Y-163773722D01*
X71680041Y-163765358D01*
X71664058Y-163757905D01*
X71644762Y-163754067D01*
X71619204Y-163736990D01*
X71592709Y-163724635D01*
X71576587Y-163708513D01*
X71555546Y-163694454D01*
X71541486Y-163673412D01*
X71525364Y-163657290D01*
X71513008Y-163630792D01*
X71495933Y-163605238D01*
X71492095Y-163585943D01*
X71484641Y-163569958D01*
X71476275Y-163506409D01*
X71475000Y-163500000D01*
X71475000Y-163050000D01*
X71476274Y-163043592D01*
X71484641Y-162980041D01*
X71492095Y-162964054D01*
X71495933Y-162944762D01*
X71513006Y-162919209D01*
X71525364Y-162892709D01*
X71541488Y-162876584D01*
X71555546Y-162855546D01*
X71576584Y-162841488D01*
X71592709Y-162825364D01*
X71619209Y-162813006D01*
X71644762Y-162795933D01*
X71664054Y-162792095D01*
X71680041Y-162784641D01*
X71743592Y-162776274D01*
X71750000Y-162775000D01*
X72250000Y-162775000D01*
X72256409Y-162776275D01*
G37*
G36*
X68018685Y-162457969D02*
G01*
X68027358Y-162461798D01*
X68034925Y-162462901D01*
X68082223Y-162486023D01*
X68119541Y-162502501D01*
X68122996Y-162505956D01*
X68123920Y-162506408D01*
X68193591Y-162576079D01*
X68194042Y-162577002D01*
X68197499Y-162580459D01*
X68213978Y-162617782D01*
X68237098Y-162665073D01*
X68238200Y-162672639D01*
X68242031Y-162681315D01*
X68250000Y-162750000D01*
X68250000Y-163250000D01*
X68242031Y-163318685D01*
X68238199Y-163327361D01*
X68237098Y-163334925D01*
X68213985Y-163382202D01*
X68197499Y-163419541D01*
X68194041Y-163422998D01*
X68193591Y-163423920D01*
X68123920Y-163493591D01*
X68122998Y-163494041D01*
X68119541Y-163497499D01*
X68082207Y-163513983D01*
X68034926Y-163537098D01*
X68027361Y-163538200D01*
X68018685Y-163542031D01*
X67950000Y-163550000D01*
X67250000Y-163550000D01*
X67181315Y-163542031D01*
X67172638Y-163538200D01*
X67165074Y-163537098D01*
X67117787Y-163513981D01*
X67080459Y-163497499D01*
X67077002Y-163494042D01*
X67076079Y-163493591D01*
X67006408Y-163423920D01*
X67005956Y-163422996D01*
X67002501Y-163419541D01*
X66986025Y-163382228D01*
X66962901Y-163334926D01*
X66961798Y-163327357D01*
X66957969Y-163318685D01*
X66950000Y-163250000D01*
X66950000Y-162750000D01*
X66957969Y-162681315D01*
X66961798Y-162672642D01*
X66962901Y-162665074D01*
X66986028Y-162617766D01*
X67002501Y-162580459D01*
X67005955Y-162577004D01*
X67006408Y-162576079D01*
X67076079Y-162506408D01*
X67077004Y-162505955D01*
X67080459Y-162502501D01*
X67117761Y-162486030D01*
X67165073Y-162462901D01*
X67172642Y-162461798D01*
X67181315Y-162457969D01*
X67250000Y-162450000D01*
X67950000Y-162450000D01*
X68018685Y-162457969D01*
G37*
G36*
X78556409Y-162526275D02*
G01*
X78619958Y-162534641D01*
X78635943Y-162542095D01*
X78655238Y-162545933D01*
X78680792Y-162563008D01*
X78707290Y-162575364D01*
X78723412Y-162591486D01*
X78744454Y-162605546D01*
X78758513Y-162626587D01*
X78774635Y-162642709D01*
X78786990Y-162669204D01*
X78804067Y-162694762D01*
X78807905Y-162714058D01*
X78815358Y-162730041D01*
X78823722Y-162793577D01*
X78825000Y-162800000D01*
X78825000Y-163250000D01*
X78823722Y-163256424D01*
X78815358Y-163319958D01*
X78807905Y-163335939D01*
X78804067Y-163355238D01*
X78786988Y-163380797D01*
X78774635Y-163407290D01*
X78758516Y-163423408D01*
X78744454Y-163444454D01*
X78723408Y-163458516D01*
X78707290Y-163474635D01*
X78680797Y-163486988D01*
X78655238Y-163504067D01*
X78635939Y-163507905D01*
X78619958Y-163515358D01*
X78556424Y-163523722D01*
X78550000Y-163525000D01*
X78050000Y-163525000D01*
X78043577Y-163523722D01*
X77980041Y-163515358D01*
X77964058Y-163507905D01*
X77944762Y-163504067D01*
X77919204Y-163486990D01*
X77892709Y-163474635D01*
X77876587Y-163458513D01*
X77855546Y-163444454D01*
X77841486Y-163423412D01*
X77825364Y-163407290D01*
X77813008Y-163380792D01*
X77795933Y-163355238D01*
X77792095Y-163335943D01*
X77784641Y-163319958D01*
X77776275Y-163256409D01*
X77775000Y-163250000D01*
X77775000Y-162800000D01*
X77776274Y-162793592D01*
X77784641Y-162730041D01*
X77792095Y-162714054D01*
X77795933Y-162694762D01*
X77813006Y-162669209D01*
X77825364Y-162642709D01*
X77841488Y-162626584D01*
X77855546Y-162605546D01*
X77876584Y-162591488D01*
X77892709Y-162575364D01*
X77919209Y-162563006D01*
X77944762Y-162545933D01*
X77964054Y-162542095D01*
X77980041Y-162534641D01*
X78043592Y-162526274D01*
X78050000Y-162525000D01*
X78550000Y-162525000D01*
X78556409Y-162526275D01*
G37*
G36*
X55380552Y-162983564D02*
G01*
X55417050Y-163007950D01*
X55441436Y-163044448D01*
X55450000Y-163087500D01*
X55450000Y-163212500D01*
X55441436Y-163255552D01*
X55417050Y-163292050D01*
X55380552Y-163316436D01*
X55337500Y-163325000D01*
X54587500Y-163325000D01*
X54544448Y-163316436D01*
X54507950Y-163292050D01*
X54483564Y-163255552D01*
X54475000Y-163212500D01*
X54475000Y-163087500D01*
X54483564Y-163044448D01*
X54507950Y-163007950D01*
X54544448Y-162983564D01*
X54587500Y-162975000D01*
X55337500Y-162975000D01*
X55380552Y-162983564D01*
G37*
G36*
X62255552Y-162983564D02*
G01*
X62292050Y-163007950D01*
X62316436Y-163044448D01*
X62325000Y-163087500D01*
X62325000Y-163212500D01*
X62316436Y-163255552D01*
X62292050Y-163292050D01*
X62255552Y-163316436D01*
X62212500Y-163325000D01*
X61462500Y-163325000D01*
X61419448Y-163316436D01*
X61382950Y-163292050D01*
X61358564Y-163255552D01*
X61350000Y-163212500D01*
X61350000Y-163087500D01*
X61358564Y-163044448D01*
X61382950Y-163007950D01*
X61419448Y-162983564D01*
X61462500Y-162975000D01*
X62212500Y-162975000D01*
X62255552Y-162983564D01*
G37*
G36*
X38782710Y-162454463D02*
G01*
X38844350Y-162495650D01*
X38885537Y-162557290D01*
X38900000Y-162630000D01*
X38900000Y-162970000D01*
X38885537Y-163042710D01*
X38844350Y-163104350D01*
X38782710Y-163145537D01*
X38710000Y-163160000D01*
X38430000Y-163160000D01*
X38357290Y-163145537D01*
X38295650Y-163104350D01*
X38254463Y-163042710D01*
X38240000Y-162970000D01*
X38240000Y-162630000D01*
X38254463Y-162557290D01*
X38295650Y-162495650D01*
X38357290Y-162454463D01*
X38430000Y-162440000D01*
X38710000Y-162440000D01*
X38782710Y-162454463D01*
G37*
G36*
X39742710Y-162454463D02*
G01*
X39804350Y-162495650D01*
X39845537Y-162557290D01*
X39860000Y-162630000D01*
X39860000Y-162970000D01*
X39845537Y-163042710D01*
X39804350Y-163104350D01*
X39742710Y-163145537D01*
X39670000Y-163160000D01*
X39390000Y-163160000D01*
X39317290Y-163145537D01*
X39255650Y-163104350D01*
X39214463Y-163042710D01*
X39200000Y-162970000D01*
X39200000Y-162630000D01*
X39214463Y-162557290D01*
X39255650Y-162495650D01*
X39317290Y-162454463D01*
X39390000Y-162440000D01*
X39670000Y-162440000D01*
X39742710Y-162454463D01*
G37*
G36*
X41792710Y-162504463D02*
G01*
X41854350Y-162545650D01*
X41895537Y-162607290D01*
X41910000Y-162680000D01*
X41910000Y-162960000D01*
X41895537Y-163032710D01*
X41854350Y-163094350D01*
X41792710Y-163135537D01*
X41720000Y-163150000D01*
X41380000Y-163150000D01*
X41307290Y-163135537D01*
X41245650Y-163094350D01*
X41204463Y-163032710D01*
X41190000Y-162960000D01*
X41190000Y-162680000D01*
X41204463Y-162607290D01*
X41245650Y-162545650D01*
X41307290Y-162504463D01*
X41380000Y-162490000D01*
X41720000Y-162490000D01*
X41792710Y-162504463D01*
G37*
G36*
X50056409Y-161976275D02*
G01*
X50119958Y-161984641D01*
X50135943Y-161992095D01*
X50155238Y-161995933D01*
X50180792Y-162013008D01*
X50207290Y-162025364D01*
X50223412Y-162041486D01*
X50244454Y-162055546D01*
X50258513Y-162076587D01*
X50274635Y-162092709D01*
X50286990Y-162119204D01*
X50304067Y-162144762D01*
X50307905Y-162164058D01*
X50315358Y-162180041D01*
X50323722Y-162243577D01*
X50325000Y-162250000D01*
X50325000Y-162700000D01*
X50323722Y-162706424D01*
X50315358Y-162769958D01*
X50307905Y-162785939D01*
X50304067Y-162805238D01*
X50286988Y-162830797D01*
X50274635Y-162857290D01*
X50258516Y-162873408D01*
X50244454Y-162894454D01*
X50223408Y-162908516D01*
X50207290Y-162924635D01*
X50180797Y-162936988D01*
X50155238Y-162954067D01*
X50135939Y-162957905D01*
X50119958Y-162965358D01*
X50056424Y-162973722D01*
X50050000Y-162975000D01*
X49550000Y-162975000D01*
X49543577Y-162973722D01*
X49480041Y-162965358D01*
X49464058Y-162957905D01*
X49444762Y-162954067D01*
X49419204Y-162936990D01*
X49392709Y-162924635D01*
X49376587Y-162908513D01*
X49355546Y-162894454D01*
X49341486Y-162873412D01*
X49325364Y-162857290D01*
X49313008Y-162830792D01*
X49295933Y-162805238D01*
X49292095Y-162785943D01*
X49284641Y-162769958D01*
X49276275Y-162706409D01*
X49275000Y-162700000D01*
X49275000Y-162250000D01*
X49276274Y-162243592D01*
X49284641Y-162180041D01*
X49292095Y-162164054D01*
X49295933Y-162144762D01*
X49313006Y-162119209D01*
X49325364Y-162092709D01*
X49341488Y-162076584D01*
X49355546Y-162055546D01*
X49376584Y-162041488D01*
X49392709Y-162025364D01*
X49419209Y-162013006D01*
X49444762Y-161995933D01*
X49464054Y-161992095D01*
X49480041Y-161984641D01*
X49543592Y-161976274D01*
X49550000Y-161975000D01*
X50050000Y-161975000D01*
X50056409Y-161976275D01*
G37*
G36*
X55380552Y-162483564D02*
G01*
X55417050Y-162507950D01*
X55441436Y-162544448D01*
X55450000Y-162587500D01*
X55450000Y-162712500D01*
X55441436Y-162755552D01*
X55417050Y-162792050D01*
X55380552Y-162816436D01*
X55337500Y-162825000D01*
X54587500Y-162825000D01*
X54544448Y-162816436D01*
X54507950Y-162792050D01*
X54483564Y-162755552D01*
X54475000Y-162712500D01*
X54475000Y-162587500D01*
X54483564Y-162544448D01*
X54507950Y-162507950D01*
X54544448Y-162483564D01*
X54587500Y-162475000D01*
X55337500Y-162475000D01*
X55380552Y-162483564D01*
G37*
G36*
X62255552Y-162483564D02*
G01*
X62292050Y-162507950D01*
X62316436Y-162544448D01*
X62325000Y-162587500D01*
X62325000Y-162712500D01*
X62316436Y-162755552D01*
X62292050Y-162792050D01*
X62255552Y-162816436D01*
X62212500Y-162825000D01*
X61462500Y-162825000D01*
X61419448Y-162816436D01*
X61382950Y-162792050D01*
X61358564Y-162755552D01*
X61350000Y-162712500D01*
X61350000Y-162587500D01*
X61358564Y-162544448D01*
X61382950Y-162507950D01*
X61419448Y-162483564D01*
X61462500Y-162475000D01*
X62212500Y-162475000D01*
X62255552Y-162483564D01*
G37*
G36*
X51505796Y-161954082D02*
G01*
X51565815Y-161994185D01*
X51605918Y-162054204D01*
X51620000Y-162125000D01*
X51620000Y-162395000D01*
X51605918Y-162465796D01*
X51565815Y-162525815D01*
X51505796Y-162565918D01*
X51435000Y-162580000D01*
X51065000Y-162580000D01*
X50994204Y-162565918D01*
X50934185Y-162525815D01*
X50894082Y-162465796D01*
X50880000Y-162395000D01*
X50880000Y-162125000D01*
X50894082Y-162054204D01*
X50934185Y-161994185D01*
X50994204Y-161954082D01*
X51065000Y-161940000D01*
X51435000Y-161940000D01*
X51505796Y-161954082D01*
G37*
G36*
X52742710Y-161914463D02*
G01*
X52804350Y-161955650D01*
X52845537Y-162017290D01*
X52860000Y-162090000D01*
X52860000Y-162370000D01*
X52845537Y-162442710D01*
X52804350Y-162504350D01*
X52742710Y-162545537D01*
X52670000Y-162560000D01*
X52330000Y-162560000D01*
X52257290Y-162545537D01*
X52195650Y-162504350D01*
X52154463Y-162442710D01*
X52140000Y-162370000D01*
X52140000Y-162090000D01*
X52154463Y-162017290D01*
X52195650Y-161955650D01*
X52257290Y-161914463D01*
X52330000Y-161900000D01*
X52670000Y-161900000D01*
X52742710Y-161914463D01*
G37*
G36*
X53742710Y-161914463D02*
G01*
X53804350Y-161955650D01*
X53845537Y-162017290D01*
X53860000Y-162090000D01*
X53860000Y-162370000D01*
X53845537Y-162442710D01*
X53804350Y-162504350D01*
X53742710Y-162545537D01*
X53670000Y-162560000D01*
X53330000Y-162560000D01*
X53257290Y-162545537D01*
X53195650Y-162504350D01*
X53154463Y-162442710D01*
X53140000Y-162370000D01*
X53140000Y-162090000D01*
X53154463Y-162017290D01*
X53195650Y-161955650D01*
X53257290Y-161914463D01*
X53330000Y-161900000D01*
X53670000Y-161900000D01*
X53742710Y-161914463D01*
G37*
G36*
X55380552Y-161983564D02*
G01*
X55417050Y-162007950D01*
X55441436Y-162044448D01*
X55450000Y-162087500D01*
X55450000Y-162212500D01*
X55441436Y-162255552D01*
X55417050Y-162292050D01*
X55380552Y-162316436D01*
X55337500Y-162325000D01*
X54587500Y-162325000D01*
X54544448Y-162316436D01*
X54507950Y-162292050D01*
X54483564Y-162255552D01*
X54475000Y-162212500D01*
X54475000Y-162087500D01*
X54483564Y-162044448D01*
X54507950Y-162007950D01*
X54544448Y-161983564D01*
X54587500Y-161975000D01*
X55337500Y-161975000D01*
X55380552Y-161983564D01*
G37*
G36*
X62255552Y-161983564D02*
G01*
X62292050Y-162007950D01*
X62316436Y-162044448D01*
X62325000Y-162087500D01*
X62325000Y-162212500D01*
X62316436Y-162255552D01*
X62292050Y-162292050D01*
X62255552Y-162316436D01*
X62212500Y-162325000D01*
X61462500Y-162325000D01*
X61419448Y-162316436D01*
X61382950Y-162292050D01*
X61358564Y-162255552D01*
X61350000Y-162212500D01*
X61350000Y-162087500D01*
X61358564Y-162044448D01*
X61382950Y-162007950D01*
X61419448Y-161983564D01*
X61462500Y-161975000D01*
X62212500Y-161975000D01*
X62255552Y-161983564D01*
G37*
G36*
X72256409Y-161226275D02*
G01*
X72319958Y-161234641D01*
X72335943Y-161242095D01*
X72355238Y-161245933D01*
X72380792Y-161263008D01*
X72407290Y-161275364D01*
X72423412Y-161291486D01*
X72444454Y-161305546D01*
X72458513Y-161326587D01*
X72474635Y-161342709D01*
X72486990Y-161369204D01*
X72504067Y-161394762D01*
X72507905Y-161414058D01*
X72515358Y-161430041D01*
X72523722Y-161493577D01*
X72525000Y-161500000D01*
X72525000Y-161950000D01*
X72523722Y-161956424D01*
X72515358Y-162019958D01*
X72507905Y-162035939D01*
X72504067Y-162055238D01*
X72486988Y-162080797D01*
X72474635Y-162107290D01*
X72458516Y-162123408D01*
X72444454Y-162144454D01*
X72423408Y-162158516D01*
X72407290Y-162174635D01*
X72380797Y-162186988D01*
X72355238Y-162204067D01*
X72335939Y-162207905D01*
X72319958Y-162215358D01*
X72256424Y-162223722D01*
X72250000Y-162225000D01*
X71750000Y-162225000D01*
X71743577Y-162223722D01*
X71680041Y-162215358D01*
X71664058Y-162207905D01*
X71644762Y-162204067D01*
X71619204Y-162186990D01*
X71592709Y-162174635D01*
X71576587Y-162158513D01*
X71555546Y-162144454D01*
X71541486Y-162123412D01*
X71525364Y-162107290D01*
X71513008Y-162080792D01*
X71495933Y-162055238D01*
X71492095Y-162035943D01*
X71484641Y-162019958D01*
X71476275Y-161956409D01*
X71475000Y-161950000D01*
X71475000Y-161500000D01*
X71476274Y-161493592D01*
X71484641Y-161430041D01*
X71492095Y-161414054D01*
X71495933Y-161394762D01*
X71513006Y-161369209D01*
X71525364Y-161342709D01*
X71541488Y-161326584D01*
X71555546Y-161305546D01*
X71576584Y-161291488D01*
X71592709Y-161275364D01*
X71619209Y-161263006D01*
X71644762Y-161245933D01*
X71664054Y-161242095D01*
X71680041Y-161234641D01*
X71743592Y-161226274D01*
X71750000Y-161225000D01*
X72250000Y-161225000D01*
X72256409Y-161226275D01*
G37*
G36*
X78556409Y-160976275D02*
G01*
X78619958Y-160984641D01*
X78635943Y-160992095D01*
X78655238Y-160995933D01*
X78680792Y-161013008D01*
X78707290Y-161025364D01*
X78723412Y-161041486D01*
X78744454Y-161055546D01*
X78758513Y-161076587D01*
X78774635Y-161092709D01*
X78786990Y-161119204D01*
X78804067Y-161144762D01*
X78807905Y-161164058D01*
X78815358Y-161180041D01*
X78823722Y-161243577D01*
X78825000Y-161250000D01*
X78825000Y-161700000D01*
X78823722Y-161706424D01*
X78815358Y-161769958D01*
X78807905Y-161785939D01*
X78804067Y-161805238D01*
X78786988Y-161830797D01*
X78774635Y-161857290D01*
X78758516Y-161873408D01*
X78744454Y-161894454D01*
X78723408Y-161908516D01*
X78707290Y-161924635D01*
X78680797Y-161936988D01*
X78655238Y-161954067D01*
X78635939Y-161957905D01*
X78619958Y-161965358D01*
X78556424Y-161973722D01*
X78550000Y-161975000D01*
X78050000Y-161975000D01*
X78043577Y-161973722D01*
X77980041Y-161965358D01*
X77964058Y-161957905D01*
X77944762Y-161954067D01*
X77919204Y-161936990D01*
X77892709Y-161924635D01*
X77876587Y-161908513D01*
X77855546Y-161894454D01*
X77841486Y-161873412D01*
X77825364Y-161857290D01*
X77813008Y-161830792D01*
X77795933Y-161805238D01*
X77792095Y-161785943D01*
X77784641Y-161769958D01*
X77776275Y-161706409D01*
X77775000Y-161700000D01*
X77775000Y-161250000D01*
X77776274Y-161243592D01*
X77784641Y-161180041D01*
X77792095Y-161164054D01*
X77795933Y-161144762D01*
X77813006Y-161119209D01*
X77825364Y-161092709D01*
X77841488Y-161076584D01*
X77855546Y-161055546D01*
X77876584Y-161041488D01*
X77892709Y-161025364D01*
X77919209Y-161013006D01*
X77944762Y-160995933D01*
X77964054Y-160992095D01*
X77980041Y-160984641D01*
X78043592Y-160976274D01*
X78050000Y-160975000D01*
X78550000Y-160975000D01*
X78556409Y-160976275D01*
G37*
G36*
X55755552Y-160983564D02*
G01*
X55792050Y-161007950D01*
X55816436Y-161044448D01*
X55825000Y-161087500D01*
X55825000Y-161837500D01*
X55816436Y-161880552D01*
X55792050Y-161917050D01*
X55755552Y-161941436D01*
X55712500Y-161950000D01*
X55587500Y-161950000D01*
X55544448Y-161941436D01*
X55507950Y-161917050D01*
X55483564Y-161880552D01*
X55475000Y-161837500D01*
X55475000Y-161087500D01*
X55483564Y-161044448D01*
X55507950Y-161007950D01*
X55544448Y-160983564D01*
X55587500Y-160975000D01*
X55712500Y-160975000D01*
X55755552Y-160983564D01*
G37*
G36*
X56255552Y-160983564D02*
G01*
X56292050Y-161007950D01*
X56316436Y-161044448D01*
X56325000Y-161087500D01*
X56325000Y-161837500D01*
X56316436Y-161880552D01*
X56292050Y-161917050D01*
X56255552Y-161941436D01*
X56212500Y-161950000D01*
X56087500Y-161950000D01*
X56044448Y-161941436D01*
X56007950Y-161917050D01*
X55983564Y-161880552D01*
X55975000Y-161837500D01*
X55975000Y-161087500D01*
X55983564Y-161044448D01*
X56007950Y-161007950D01*
X56044448Y-160983564D01*
X56087500Y-160975000D01*
X56212500Y-160975000D01*
X56255552Y-160983564D01*
G37*
G36*
X56755552Y-160983564D02*
G01*
X56792050Y-161007950D01*
X56816436Y-161044448D01*
X56825000Y-161087500D01*
X56825000Y-161837500D01*
X56816436Y-161880552D01*
X56792050Y-161917050D01*
X56755552Y-161941436D01*
X56712500Y-161950000D01*
X56587500Y-161950000D01*
X56544448Y-161941436D01*
X56507950Y-161917050D01*
X56483564Y-161880552D01*
X56475000Y-161837500D01*
X56475000Y-161087500D01*
X56483564Y-161044448D01*
X56507950Y-161007950D01*
X56544448Y-160983564D01*
X56587500Y-160975000D01*
X56712500Y-160975000D01*
X56755552Y-160983564D01*
G37*
G36*
X57255552Y-160983564D02*
G01*
X57292050Y-161007950D01*
X57316436Y-161044448D01*
X57325000Y-161087500D01*
X57325000Y-161837500D01*
X57316436Y-161880552D01*
X57292050Y-161917050D01*
X57255552Y-161941436D01*
X57212500Y-161950000D01*
X57087500Y-161950000D01*
X57044448Y-161941436D01*
X57007950Y-161917050D01*
X56983564Y-161880552D01*
X56975000Y-161837500D01*
X56975000Y-161087500D01*
X56983564Y-161044448D01*
X57007950Y-161007950D01*
X57044448Y-160983564D01*
X57087500Y-160975000D01*
X57212500Y-160975000D01*
X57255552Y-160983564D01*
G37*
G36*
X57755552Y-160983564D02*
G01*
X57792050Y-161007950D01*
X57816436Y-161044448D01*
X57825000Y-161087500D01*
X57825000Y-161837500D01*
X57816436Y-161880552D01*
X57792050Y-161917050D01*
X57755552Y-161941436D01*
X57712500Y-161950000D01*
X57587500Y-161950000D01*
X57544448Y-161941436D01*
X57507950Y-161917050D01*
X57483564Y-161880552D01*
X57475000Y-161837500D01*
X57475000Y-161087500D01*
X57483564Y-161044448D01*
X57507950Y-161007950D01*
X57544448Y-160983564D01*
X57587500Y-160975000D01*
X57712500Y-160975000D01*
X57755552Y-160983564D01*
G37*
G36*
X58255552Y-160983564D02*
G01*
X58292050Y-161007950D01*
X58316436Y-161044448D01*
X58325000Y-161087500D01*
X58325000Y-161837500D01*
X58316436Y-161880552D01*
X58292050Y-161917050D01*
X58255552Y-161941436D01*
X58212500Y-161950000D01*
X58087500Y-161950000D01*
X58044448Y-161941436D01*
X58007950Y-161917050D01*
X57983564Y-161880552D01*
X57975000Y-161837500D01*
X57975000Y-161087500D01*
X57983564Y-161044448D01*
X58007950Y-161007950D01*
X58044448Y-160983564D01*
X58087500Y-160975000D01*
X58212500Y-160975000D01*
X58255552Y-160983564D01*
G37*
G36*
X58755552Y-160983564D02*
G01*
X58792050Y-161007950D01*
X58816436Y-161044448D01*
X58825000Y-161087500D01*
X58825000Y-161837500D01*
X58816436Y-161880552D01*
X58792050Y-161917050D01*
X58755552Y-161941436D01*
X58712500Y-161950000D01*
X58587500Y-161950000D01*
X58544448Y-161941436D01*
X58507950Y-161917050D01*
X58483564Y-161880552D01*
X58475000Y-161837500D01*
X58475000Y-161087500D01*
X58483564Y-161044448D01*
X58507950Y-161007950D01*
X58544448Y-160983564D01*
X58587500Y-160975000D01*
X58712500Y-160975000D01*
X58755552Y-160983564D01*
G37*
G36*
X59255552Y-160983564D02*
G01*
X59292050Y-161007950D01*
X59316436Y-161044448D01*
X59325000Y-161087500D01*
X59325000Y-161837500D01*
X59316436Y-161880552D01*
X59292050Y-161917050D01*
X59255552Y-161941436D01*
X59212500Y-161950000D01*
X59087500Y-161950000D01*
X59044448Y-161941436D01*
X59007950Y-161917050D01*
X58983564Y-161880552D01*
X58975000Y-161837500D01*
X58975000Y-161087500D01*
X58983564Y-161044448D01*
X59007950Y-161007950D01*
X59044448Y-160983564D01*
X59087500Y-160975000D01*
X59212500Y-160975000D01*
X59255552Y-160983564D01*
G37*
G36*
X59755552Y-160983564D02*
G01*
X59792050Y-161007950D01*
X59816436Y-161044448D01*
X59825000Y-161087500D01*
X59825000Y-161837500D01*
X59816436Y-161880552D01*
X59792050Y-161917050D01*
X59755552Y-161941436D01*
X59712500Y-161950000D01*
X59587500Y-161950000D01*
X59544448Y-161941436D01*
X59507950Y-161917050D01*
X59483564Y-161880552D01*
X59475000Y-161837500D01*
X59475000Y-161087500D01*
X59483564Y-161044448D01*
X59507950Y-161007950D01*
X59544448Y-160983564D01*
X59587500Y-160975000D01*
X59712500Y-160975000D01*
X59755552Y-160983564D01*
G37*
G36*
X60255552Y-160983564D02*
G01*
X60292050Y-161007950D01*
X60316436Y-161044448D01*
X60325000Y-161087500D01*
X60325000Y-161837500D01*
X60316436Y-161880552D01*
X60292050Y-161917050D01*
X60255552Y-161941436D01*
X60212500Y-161950000D01*
X60087500Y-161950000D01*
X60044448Y-161941436D01*
X60007950Y-161917050D01*
X59983564Y-161880552D01*
X59975000Y-161837500D01*
X59975000Y-161087500D01*
X59983564Y-161044448D01*
X60007950Y-161007950D01*
X60044448Y-160983564D01*
X60087500Y-160975000D01*
X60212500Y-160975000D01*
X60255552Y-160983564D01*
G37*
G36*
X60755552Y-160983564D02*
G01*
X60792050Y-161007950D01*
X60816436Y-161044448D01*
X60825000Y-161087500D01*
X60825000Y-161837500D01*
X60816436Y-161880552D01*
X60792050Y-161917050D01*
X60755552Y-161941436D01*
X60712500Y-161950000D01*
X60587500Y-161950000D01*
X60544448Y-161941436D01*
X60507950Y-161917050D01*
X60483564Y-161880552D01*
X60475000Y-161837500D01*
X60475000Y-161087500D01*
X60483564Y-161044448D01*
X60507950Y-161007950D01*
X60544448Y-160983564D01*
X60587500Y-160975000D01*
X60712500Y-160975000D01*
X60755552Y-160983564D01*
G37*
G36*
X61255552Y-160983564D02*
G01*
X61292050Y-161007950D01*
X61316436Y-161044448D01*
X61325000Y-161087500D01*
X61325000Y-161837500D01*
X61316436Y-161880552D01*
X61292050Y-161917050D01*
X61255552Y-161941436D01*
X61212500Y-161950000D01*
X61087500Y-161950000D01*
X61044448Y-161941436D01*
X61007950Y-161917050D01*
X60983564Y-161880552D01*
X60975000Y-161837500D01*
X60975000Y-161087500D01*
X60983564Y-161044448D01*
X61007950Y-161007950D01*
X61044448Y-160983564D01*
X61087500Y-160975000D01*
X61212500Y-160975000D01*
X61255552Y-160983564D01*
G37*
G36*
X74195796Y-161144082D02*
G01*
X74255815Y-161184185D01*
X74295918Y-161244204D01*
X74310000Y-161315000D01*
X74310000Y-161685000D01*
X74295918Y-161755796D01*
X74255815Y-161815815D01*
X74195796Y-161855918D01*
X74125000Y-161870000D01*
X73855000Y-161870000D01*
X73784204Y-161855918D01*
X73724185Y-161815815D01*
X73684082Y-161755796D01*
X73670000Y-161685000D01*
X73670000Y-161315000D01*
X73684082Y-161244204D01*
X73724185Y-161184185D01*
X73784204Y-161144082D01*
X73855000Y-161130000D01*
X74125000Y-161130000D01*
X74195796Y-161144082D01*
G37*
G36*
X75215796Y-161144082D02*
G01*
X75275815Y-161184185D01*
X75315918Y-161244204D01*
X75330000Y-161315000D01*
X75330000Y-161685000D01*
X75315918Y-161755796D01*
X75275815Y-161815815D01*
X75215796Y-161855918D01*
X75145000Y-161870000D01*
X74875000Y-161870000D01*
X74804204Y-161855918D01*
X74744185Y-161815815D01*
X74704082Y-161755796D01*
X74690000Y-161685000D01*
X74690000Y-161315000D01*
X74704082Y-161244204D01*
X74744185Y-161184185D01*
X74804204Y-161144082D01*
X74875000Y-161130000D01*
X75145000Y-161130000D01*
X75215796Y-161144082D01*
G37*
G36*
X76556409Y-160776275D02*
G01*
X76619958Y-160784641D01*
X76635943Y-160792095D01*
X76655238Y-160795933D01*
X76680792Y-160813008D01*
X76707290Y-160825364D01*
X76723412Y-160841486D01*
X76744454Y-160855546D01*
X76758513Y-160876587D01*
X76774635Y-160892709D01*
X76786990Y-160919204D01*
X76804067Y-160944762D01*
X76807905Y-160964058D01*
X76815358Y-160980041D01*
X76823722Y-161043577D01*
X76825000Y-161050000D01*
X76825000Y-161500000D01*
X76823722Y-161506424D01*
X76815358Y-161569958D01*
X76807905Y-161585939D01*
X76804067Y-161605238D01*
X76786988Y-161630797D01*
X76774635Y-161657290D01*
X76758516Y-161673408D01*
X76744454Y-161694454D01*
X76723408Y-161708516D01*
X76707290Y-161724635D01*
X76680797Y-161736988D01*
X76655238Y-161754067D01*
X76635939Y-161757905D01*
X76619958Y-161765358D01*
X76556424Y-161773722D01*
X76550000Y-161775000D01*
X76050000Y-161775000D01*
X76043577Y-161773722D01*
X75980041Y-161765358D01*
X75964058Y-161757905D01*
X75944762Y-161754067D01*
X75919204Y-161736990D01*
X75892709Y-161724635D01*
X75876587Y-161708513D01*
X75855546Y-161694454D01*
X75841486Y-161673412D01*
X75825364Y-161657290D01*
X75813008Y-161630792D01*
X75795933Y-161605238D01*
X75792095Y-161585943D01*
X75784641Y-161569958D01*
X75776275Y-161506409D01*
X75775000Y-161500000D01*
X75775000Y-161050000D01*
X75776274Y-161043592D01*
X75784641Y-160980041D01*
X75792095Y-160964054D01*
X75795933Y-160944762D01*
X75813006Y-160919209D01*
X75825364Y-160892709D01*
X75841488Y-160876584D01*
X75855546Y-160855546D01*
X75876584Y-160841488D01*
X75892709Y-160825364D01*
X75919209Y-160813006D01*
X75944762Y-160795933D01*
X75964054Y-160792095D01*
X75980041Y-160784641D01*
X76043592Y-160776274D01*
X76050000Y-160775000D01*
X76550000Y-160775000D01*
X76556409Y-160776275D01*
G37*
G36*
X48855796Y-161004082D02*
G01*
X48915815Y-161044185D01*
X48955918Y-161104204D01*
X48970000Y-161175000D01*
X48970000Y-161445000D01*
X48955918Y-161515796D01*
X48915815Y-161575815D01*
X48855796Y-161615918D01*
X48785000Y-161630000D01*
X48415000Y-161630000D01*
X48344204Y-161615918D01*
X48284185Y-161575815D01*
X48244082Y-161515796D01*
X48230000Y-161445000D01*
X48230000Y-161175000D01*
X48244082Y-161104204D01*
X48284185Y-161044185D01*
X48344204Y-161004082D01*
X48415000Y-160990000D01*
X48785000Y-160990000D01*
X48855796Y-161004082D01*
G37*
G36*
X52742710Y-160954463D02*
G01*
X52804350Y-160995650D01*
X52845537Y-161057290D01*
X52860000Y-161130000D01*
X52860000Y-161410000D01*
X52845537Y-161482710D01*
X52804350Y-161544350D01*
X52742710Y-161585537D01*
X52670000Y-161600000D01*
X52330000Y-161600000D01*
X52257290Y-161585537D01*
X52195650Y-161544350D01*
X52154463Y-161482710D01*
X52140000Y-161410000D01*
X52140000Y-161130000D01*
X52154463Y-161057290D01*
X52195650Y-160995650D01*
X52257290Y-160954463D01*
X52330000Y-160940000D01*
X52670000Y-160940000D01*
X52742710Y-160954463D01*
G37*
G36*
X53742710Y-160954463D02*
G01*
X53804350Y-160995650D01*
X53845537Y-161057290D01*
X53860000Y-161130000D01*
X53860000Y-161410000D01*
X53845537Y-161482710D01*
X53804350Y-161544350D01*
X53742710Y-161585537D01*
X53670000Y-161600000D01*
X53330000Y-161600000D01*
X53257290Y-161585537D01*
X53195650Y-161544350D01*
X53154463Y-161482710D01*
X53140000Y-161410000D01*
X53140000Y-161130000D01*
X53154463Y-161057290D01*
X53195650Y-160995650D01*
X53257290Y-160954463D01*
X53330000Y-160940000D01*
X53670000Y-160940000D01*
X53742710Y-160954463D01*
G37*
G36*
X51505796Y-160934082D02*
G01*
X51565815Y-160974185D01*
X51605918Y-161034204D01*
X51620000Y-161105000D01*
X51620000Y-161375000D01*
X51605918Y-161445796D01*
X51565815Y-161505815D01*
X51505796Y-161545918D01*
X51435000Y-161560000D01*
X51065000Y-161560000D01*
X50994204Y-161545918D01*
X50934185Y-161505815D01*
X50894082Y-161445796D01*
X50880000Y-161375000D01*
X50880000Y-161105000D01*
X50894082Y-161034204D01*
X50934185Y-160974185D01*
X50994204Y-160934082D01*
X51065000Y-160920000D01*
X51435000Y-160920000D01*
X51505796Y-160934082D01*
G37*
G36*
X50056409Y-160426275D02*
G01*
X50119958Y-160434641D01*
X50135943Y-160442095D01*
X50155238Y-160445933D01*
X50180792Y-160463008D01*
X50207290Y-160475364D01*
X50223412Y-160491486D01*
X50244454Y-160505546D01*
X50258513Y-160526587D01*
X50274635Y-160542709D01*
X50286990Y-160569204D01*
X50304067Y-160594762D01*
X50307905Y-160614058D01*
X50315358Y-160630041D01*
X50323722Y-160693577D01*
X50325000Y-160700000D01*
X50325000Y-161150000D01*
X50323722Y-161156424D01*
X50315358Y-161219958D01*
X50307905Y-161235939D01*
X50304067Y-161255238D01*
X50286988Y-161280797D01*
X50274635Y-161307290D01*
X50258516Y-161323408D01*
X50244454Y-161344454D01*
X50223408Y-161358516D01*
X50207290Y-161374635D01*
X50180797Y-161386988D01*
X50155238Y-161404067D01*
X50135939Y-161407905D01*
X50119958Y-161415358D01*
X50056424Y-161423722D01*
X50050000Y-161425000D01*
X49550000Y-161425000D01*
X49543577Y-161423722D01*
X49480041Y-161415358D01*
X49464058Y-161407905D01*
X49444762Y-161404067D01*
X49419204Y-161386990D01*
X49392709Y-161374635D01*
X49376587Y-161358513D01*
X49355546Y-161344454D01*
X49341486Y-161323412D01*
X49325364Y-161307290D01*
X49313008Y-161280792D01*
X49295933Y-161255238D01*
X49292095Y-161235943D01*
X49284641Y-161219958D01*
X49276275Y-161156409D01*
X49275000Y-161150000D01*
X49275000Y-160700000D01*
X49276274Y-160693592D01*
X49284641Y-160630041D01*
X49292095Y-160614054D01*
X49295933Y-160594762D01*
X49313006Y-160569209D01*
X49325364Y-160542709D01*
X49341488Y-160526584D01*
X49355546Y-160505546D01*
X49376584Y-160491488D01*
X49392709Y-160475364D01*
X49419209Y-160463006D01*
X49444762Y-160445933D01*
X49464054Y-160442095D01*
X49480041Y-160434641D01*
X49543592Y-160426274D01*
X49550000Y-160425000D01*
X50050000Y-160425000D01*
X50056409Y-160426275D01*
G37*
G36*
X73445796Y-160144082D02*
G01*
X73505815Y-160184185D01*
X73545918Y-160244204D01*
X73560000Y-160315000D01*
X73560000Y-160685000D01*
X73545918Y-160755796D01*
X73505815Y-160815815D01*
X73445796Y-160855918D01*
X73375000Y-160870000D01*
X73105000Y-160870000D01*
X73034204Y-160855918D01*
X72974185Y-160815815D01*
X72934082Y-160755796D01*
X72920000Y-160685000D01*
X72920000Y-160315000D01*
X72934082Y-160244204D01*
X72974185Y-160184185D01*
X73034204Y-160144082D01*
X73105000Y-160130000D01*
X73375000Y-160130000D01*
X73445796Y-160144082D01*
G37*
G36*
X74465796Y-160144082D02*
G01*
X74525815Y-160184185D01*
X74565918Y-160244204D01*
X74580000Y-160315000D01*
X74580000Y-160685000D01*
X74565918Y-160755796D01*
X74525815Y-160815815D01*
X74465796Y-160855918D01*
X74395000Y-160870000D01*
X74125000Y-160870000D01*
X74054204Y-160855918D01*
X73994185Y-160815815D01*
X73954082Y-160755796D01*
X73940000Y-160685000D01*
X73940000Y-160315000D01*
X73954082Y-160244204D01*
X73994185Y-160184185D01*
X74054204Y-160144082D01*
X74125000Y-160130000D01*
X74395000Y-160130000D01*
X74465796Y-160144082D01*
G37*
G36*
X68911261Y-160360942D02*
G01*
X68957897Y-160392103D01*
X68989058Y-160438739D01*
X69000000Y-160493750D01*
X69000000Y-160681250D01*
X68989058Y-160736261D01*
X68957897Y-160782897D01*
X68911261Y-160814058D01*
X68856250Y-160825000D01*
X68543750Y-160825000D01*
X68488739Y-160814058D01*
X68442103Y-160782897D01*
X68410942Y-160736261D01*
X68400000Y-160681250D01*
X68400000Y-160493750D01*
X68410942Y-160438739D01*
X68442103Y-160392103D01*
X68488739Y-160360942D01*
X68543750Y-160350000D01*
X68856250Y-160350000D01*
X68911261Y-160360942D01*
G37*
G36*
X70611261Y-160360942D02*
G01*
X70657897Y-160392103D01*
X70689058Y-160438739D01*
X70700000Y-160493750D01*
X70700000Y-160681250D01*
X70689058Y-160736261D01*
X70657897Y-160782897D01*
X70611261Y-160814058D01*
X70556250Y-160825000D01*
X70243750Y-160825000D01*
X70188739Y-160814058D01*
X70142103Y-160782897D01*
X70110942Y-160736261D01*
X70100000Y-160681250D01*
X70100000Y-160493750D01*
X70110942Y-160438739D01*
X70142103Y-160392103D01*
X70188739Y-160360942D01*
X70243750Y-160350000D01*
X70556250Y-160350000D01*
X70611261Y-160360942D01*
G37*
G36*
X48855796Y-159984082D02*
G01*
X48915815Y-160024185D01*
X48955918Y-160084204D01*
X48970000Y-160155000D01*
X48970000Y-160425000D01*
X48955918Y-160495796D01*
X48915815Y-160555815D01*
X48855796Y-160595918D01*
X48785000Y-160610000D01*
X48415000Y-160610000D01*
X48344204Y-160595918D01*
X48284185Y-160555815D01*
X48244082Y-160495796D01*
X48230000Y-160425000D01*
X48230000Y-160155000D01*
X48244082Y-160084204D01*
X48284185Y-160024185D01*
X48344204Y-159984082D01*
X48415000Y-159970000D01*
X48785000Y-159970000D01*
X48855796Y-159984082D01*
G37*
G36*
X53064034Y-158805764D02*
G01*
X53097125Y-158827875D01*
X53119236Y-158860966D01*
X53127000Y-158900000D01*
X53127000Y-160300000D01*
X53119236Y-160339034D01*
X53097125Y-160372125D01*
X53064034Y-160394236D01*
X53025000Y-160402000D01*
X51875000Y-160402000D01*
X51835966Y-160394236D01*
X51802875Y-160372125D01*
X51780764Y-160339034D01*
X51773000Y-160300000D01*
X51773000Y-158900000D01*
X51780764Y-158860966D01*
X51802875Y-158827875D01*
X51835966Y-158805764D01*
X51875000Y-158798000D01*
X53025000Y-158798000D01*
X53064034Y-158805764D01*
G37*
G36*
X54664034Y-158805764D02*
G01*
X54697125Y-158827875D01*
X54719236Y-158860966D01*
X54727000Y-158900000D01*
X54727000Y-160300000D01*
X54719236Y-160339034D01*
X54697125Y-160372125D01*
X54664034Y-160394236D01*
X54625000Y-160402000D01*
X53475000Y-160402000D01*
X53435966Y-160394236D01*
X53402875Y-160372125D01*
X53380764Y-160339034D01*
X53373000Y-160300000D01*
X53373000Y-158900000D01*
X53380764Y-158860966D01*
X53402875Y-158827875D01*
X53435966Y-158805764D01*
X53475000Y-158798000D01*
X54625000Y-158798000D01*
X54664034Y-158805764D01*
G37*
G36*
X57732710Y-159654463D02*
G01*
X57794350Y-159695650D01*
X57835537Y-159757290D01*
X57850000Y-159830000D01*
X57850000Y-160170000D01*
X57835537Y-160242710D01*
X57794350Y-160304350D01*
X57732710Y-160345537D01*
X57660000Y-160360000D01*
X57380000Y-160360000D01*
X57307290Y-160345537D01*
X57245650Y-160304350D01*
X57204463Y-160242710D01*
X57190000Y-160170000D01*
X57190000Y-159830000D01*
X57204463Y-159757290D01*
X57245650Y-159695650D01*
X57307290Y-159654463D01*
X57380000Y-159640000D01*
X57660000Y-159640000D01*
X57732710Y-159654463D01*
G37*
G36*
X58692710Y-159654463D02*
G01*
X58754350Y-159695650D01*
X58795537Y-159757290D01*
X58810000Y-159830000D01*
X58810000Y-160170000D01*
X58795537Y-160242710D01*
X58754350Y-160304350D01*
X58692710Y-160345537D01*
X58620000Y-160360000D01*
X58340000Y-160360000D01*
X58267290Y-160345537D01*
X58205650Y-160304350D01*
X58164463Y-160242710D01*
X58150000Y-160170000D01*
X58150000Y-159830000D01*
X58164463Y-159757290D01*
X58205650Y-159695650D01*
X58267290Y-159654463D01*
X58340000Y-159640000D01*
X58620000Y-159640000D01*
X58692710Y-159654463D01*
G37*
G36*
X61732710Y-159654463D02*
G01*
X61794350Y-159695650D01*
X61835537Y-159757290D01*
X61850000Y-159830000D01*
X61850000Y-160170000D01*
X61835537Y-160242710D01*
X61794350Y-160304350D01*
X61732710Y-160345537D01*
X61660000Y-160360000D01*
X61380000Y-160360000D01*
X61307290Y-160345537D01*
X61245650Y-160304350D01*
X61204463Y-160242710D01*
X61190000Y-160170000D01*
X61190000Y-159830000D01*
X61204463Y-159757290D01*
X61245650Y-159695650D01*
X61307290Y-159654463D01*
X61380000Y-159640000D01*
X61660000Y-159640000D01*
X61732710Y-159654463D01*
G37*
G36*
X62692710Y-159654463D02*
G01*
X62754350Y-159695650D01*
X62795537Y-159757290D01*
X62810000Y-159830000D01*
X62810000Y-160170000D01*
X62795537Y-160242710D01*
X62754350Y-160304350D01*
X62692710Y-160345537D01*
X62620000Y-160360000D01*
X62340000Y-160360000D01*
X62267290Y-160345537D01*
X62205650Y-160304350D01*
X62164463Y-160242710D01*
X62150000Y-160170000D01*
X62150000Y-159830000D01*
X62164463Y-159757290D01*
X62205650Y-159695650D01*
X62267290Y-159654463D01*
X62340000Y-159640000D01*
X62620000Y-159640000D01*
X62692710Y-159654463D01*
G37*
G36*
X64256409Y-159276275D02*
G01*
X64319958Y-159284641D01*
X64335943Y-159292095D01*
X64355238Y-159295933D01*
X64380792Y-159313008D01*
X64407290Y-159325364D01*
X64423412Y-159341486D01*
X64444454Y-159355546D01*
X64458513Y-159376587D01*
X64474635Y-159392709D01*
X64486990Y-159419204D01*
X64504067Y-159444762D01*
X64507905Y-159464058D01*
X64515358Y-159480041D01*
X64523722Y-159543577D01*
X64525000Y-159550000D01*
X64525000Y-160000000D01*
X64523722Y-160006424D01*
X64515358Y-160069958D01*
X64507905Y-160085939D01*
X64504067Y-160105238D01*
X64486988Y-160130797D01*
X64474635Y-160157290D01*
X64458516Y-160173408D01*
X64444454Y-160194454D01*
X64423408Y-160208516D01*
X64407290Y-160224635D01*
X64380797Y-160236988D01*
X64355238Y-160254067D01*
X64335939Y-160257905D01*
X64319958Y-160265358D01*
X64256424Y-160273722D01*
X64250000Y-160275000D01*
X63750000Y-160275000D01*
X63743577Y-160273722D01*
X63680041Y-160265358D01*
X63664058Y-160257905D01*
X63644762Y-160254067D01*
X63619204Y-160236990D01*
X63592709Y-160224635D01*
X63576587Y-160208513D01*
X63555546Y-160194454D01*
X63541486Y-160173412D01*
X63525364Y-160157290D01*
X63513008Y-160130792D01*
X63495933Y-160105238D01*
X63492095Y-160085943D01*
X63484641Y-160069958D01*
X63476275Y-160006409D01*
X63475000Y-160000000D01*
X63475000Y-159550000D01*
X63476274Y-159543592D01*
X63484641Y-159480041D01*
X63492095Y-159464054D01*
X63495933Y-159444762D01*
X63513006Y-159419209D01*
X63525364Y-159392709D01*
X63541488Y-159376584D01*
X63555546Y-159355546D01*
X63576584Y-159341488D01*
X63592709Y-159325364D01*
X63619209Y-159313006D01*
X63644762Y-159295933D01*
X63664054Y-159292095D01*
X63680041Y-159284641D01*
X63743592Y-159276274D01*
X63750000Y-159275000D01*
X64250000Y-159275000D01*
X64256409Y-159276275D01*
G37*
G36*
X68922835Y-159859515D02*
G01*
X68963388Y-159886612D01*
X68990485Y-159927165D01*
X69000000Y-159975000D01*
X69000000Y-160125000D01*
X68990485Y-160172835D01*
X68963388Y-160213388D01*
X68922835Y-160240485D01*
X68875000Y-160250000D01*
X68375000Y-160250000D01*
X68327165Y-160240485D01*
X68286612Y-160213388D01*
X68259515Y-160172835D01*
X68250000Y-160125000D01*
X68250000Y-159975000D01*
X68259515Y-159927165D01*
X68286612Y-159886612D01*
X68327165Y-159859515D01*
X68375000Y-159850000D01*
X68875000Y-159850000D01*
X68922835Y-159859515D01*
G37*
G36*
X70772835Y-159859515D02*
G01*
X70813388Y-159886612D01*
X70840485Y-159927165D01*
X70850000Y-159975000D01*
X70850000Y-160125000D01*
X70840485Y-160172835D01*
X70813388Y-160213388D01*
X70772835Y-160240485D01*
X70725000Y-160250000D01*
X70225000Y-160250000D01*
X70177165Y-160240485D01*
X70136612Y-160213388D01*
X70109515Y-160172835D01*
X70100000Y-160125000D01*
X70100000Y-159975000D01*
X70109515Y-159927165D01*
X70136612Y-159886612D01*
X70177165Y-159859515D01*
X70225000Y-159850000D01*
X70725000Y-159850000D01*
X70772835Y-159859515D01*
G37*
G36*
X76556409Y-159226275D02*
G01*
X76619958Y-159234641D01*
X76635943Y-159242095D01*
X76655238Y-159245933D01*
X76680792Y-159263008D01*
X76707290Y-159275364D01*
X76723412Y-159291486D01*
X76744454Y-159305546D01*
X76758513Y-159326587D01*
X76774635Y-159342709D01*
X76786990Y-159369204D01*
X76804067Y-159394762D01*
X76807905Y-159414058D01*
X76815358Y-159430041D01*
X76823722Y-159493577D01*
X76825000Y-159500000D01*
X76825000Y-159950000D01*
X76823722Y-159956424D01*
X76815358Y-160019958D01*
X76807905Y-160035939D01*
X76804067Y-160055238D01*
X76786988Y-160080797D01*
X76774635Y-160107290D01*
X76758516Y-160123408D01*
X76744454Y-160144454D01*
X76723408Y-160158516D01*
X76707290Y-160174635D01*
X76680797Y-160186988D01*
X76655238Y-160204067D01*
X76635939Y-160207905D01*
X76619958Y-160215358D01*
X76556424Y-160223722D01*
X76550000Y-160225000D01*
X76050000Y-160225000D01*
X76043577Y-160223722D01*
X75980041Y-160215358D01*
X75964058Y-160207905D01*
X75944762Y-160204067D01*
X75919204Y-160186990D01*
X75892709Y-160174635D01*
X75876587Y-160158513D01*
X75855546Y-160144454D01*
X75841486Y-160123412D01*
X75825364Y-160107290D01*
X75813008Y-160080792D01*
X75795933Y-160055238D01*
X75792095Y-160035943D01*
X75784641Y-160019958D01*
X75776275Y-159956409D01*
X75775000Y-159950000D01*
X75775000Y-159500000D01*
X75776274Y-159493592D01*
X75784641Y-159430041D01*
X75792095Y-159414054D01*
X75795933Y-159394762D01*
X75813006Y-159369209D01*
X75825364Y-159342709D01*
X75841488Y-159326584D01*
X75855546Y-159305546D01*
X75876584Y-159291488D01*
X75892709Y-159275364D01*
X75919209Y-159263006D01*
X75944762Y-159245933D01*
X75964054Y-159242095D01*
X75980041Y-159234641D01*
X76043592Y-159226274D01*
X76050000Y-159225000D01*
X76550000Y-159225000D01*
X76556409Y-159226275D01*
G37*
G36*
X55755796Y-159204082D02*
G01*
X55815815Y-159244185D01*
X55855918Y-159304204D01*
X55870000Y-159375000D01*
X55870000Y-159645000D01*
X55855918Y-159715796D01*
X55815815Y-159775815D01*
X55755796Y-159815918D01*
X55685000Y-159830000D01*
X55315000Y-159830000D01*
X55244204Y-159815918D01*
X55184185Y-159775815D01*
X55144082Y-159715796D01*
X55130000Y-159645000D01*
X55130000Y-159375000D01*
X55144082Y-159304204D01*
X55184185Y-159244185D01*
X55244204Y-159204082D01*
X55315000Y-159190000D01*
X55685000Y-159190000D01*
X55755796Y-159204082D01*
G37*
G36*
X51242710Y-159164463D02*
G01*
X51304350Y-159205650D01*
X51345537Y-159267290D01*
X51360000Y-159340000D01*
X51360000Y-159620000D01*
X51345537Y-159692710D01*
X51304350Y-159754350D01*
X51242710Y-159795537D01*
X51170000Y-159810000D01*
X50830000Y-159810000D01*
X50757290Y-159795537D01*
X50695650Y-159754350D01*
X50654463Y-159692710D01*
X50640000Y-159620000D01*
X50640000Y-159340000D01*
X50654463Y-159267290D01*
X50695650Y-159205650D01*
X50757290Y-159164463D01*
X50830000Y-159150000D01*
X51170000Y-159150000D01*
X51242710Y-159164463D01*
G37*
G36*
X68911261Y-159285942D02*
G01*
X68957897Y-159317103D01*
X68989058Y-159363739D01*
X69000000Y-159418750D01*
X69000000Y-159606250D01*
X68989058Y-159661261D01*
X68957897Y-159707897D01*
X68911261Y-159739058D01*
X68856250Y-159750000D01*
X68543750Y-159750000D01*
X68488739Y-159739058D01*
X68442103Y-159707897D01*
X68410942Y-159661261D01*
X68400000Y-159606250D01*
X68400000Y-159418750D01*
X68410942Y-159363739D01*
X68442103Y-159317103D01*
X68488739Y-159285942D01*
X68543750Y-159275000D01*
X68856250Y-159275000D01*
X68911261Y-159285942D01*
G37*
G36*
X70611261Y-159285942D02*
G01*
X70657897Y-159317103D01*
X70689058Y-159363739D01*
X70700000Y-159418750D01*
X70700000Y-159606250D01*
X70689058Y-159661261D01*
X70657897Y-159707897D01*
X70611261Y-159739058D01*
X70556250Y-159750000D01*
X70243750Y-159750000D01*
X70188739Y-159739058D01*
X70142103Y-159707897D01*
X70110942Y-159661261D01*
X70100000Y-159606250D01*
X70100000Y-159418750D01*
X70110942Y-159363739D01*
X70142103Y-159317103D01*
X70188739Y-159285942D01*
X70243750Y-159275000D01*
X70556250Y-159275000D01*
X70611261Y-159285942D01*
G37*
G36*
X48419134Y-158423806D02*
G01*
X48435355Y-158434645D01*
X48446194Y-158450866D01*
X48450000Y-158470000D01*
X48450000Y-159570000D01*
X48446194Y-159589134D01*
X48435355Y-159605355D01*
X48419134Y-159616194D01*
X48400000Y-159620000D01*
X47600000Y-159620000D01*
X47580866Y-159616194D01*
X47564645Y-159605355D01*
X47553806Y-159589134D01*
X47550000Y-159570000D01*
X47550000Y-158470000D01*
X47553806Y-158450866D01*
X47564645Y-158434645D01*
X47580866Y-158423806D01*
X47600000Y-158420000D01*
X48400000Y-158420000D01*
X48419134Y-158423806D01*
G37*
G36*
X58498080Y-158655034D02*
G01*
X58562154Y-158697846D01*
X58604966Y-158761920D01*
X58620000Y-158837500D01*
X58620000Y-159132500D01*
X58604966Y-159208080D01*
X58562154Y-159272154D01*
X58498080Y-159314966D01*
X58422500Y-159330000D01*
X58077500Y-159330000D01*
X58001920Y-159314966D01*
X57937846Y-159272154D01*
X57895034Y-159208080D01*
X57880000Y-159132500D01*
X57880000Y-158837500D01*
X57895034Y-158761920D01*
X57937846Y-158697846D01*
X58001920Y-158655034D01*
X58077500Y-158640000D01*
X58422500Y-158640000D01*
X58498080Y-158655034D01*
G37*
G36*
X62755796Y-158704082D02*
G01*
X62815815Y-158744185D01*
X62855918Y-158804204D01*
X62870000Y-158875000D01*
X62870000Y-159145000D01*
X62855918Y-159215796D01*
X62815815Y-159275815D01*
X62755796Y-159315918D01*
X62685000Y-159330000D01*
X62315000Y-159330000D01*
X62244204Y-159315918D01*
X62184185Y-159275815D01*
X62144082Y-159215796D01*
X62130000Y-159145000D01*
X62130000Y-158875000D01*
X62144082Y-158804204D01*
X62184185Y-158744185D01*
X62244204Y-158704082D01*
X62315000Y-158690000D01*
X62685000Y-158690000D01*
X62755796Y-158704082D01*
G37*
G36*
X57256409Y-158276275D02*
G01*
X57319958Y-158284641D01*
X57335943Y-158292095D01*
X57355238Y-158295933D01*
X57380792Y-158313008D01*
X57407290Y-158325364D01*
X57423412Y-158341486D01*
X57444454Y-158355546D01*
X57458513Y-158376587D01*
X57474635Y-158392709D01*
X57486990Y-158419204D01*
X57504067Y-158444762D01*
X57507905Y-158464058D01*
X57515358Y-158480041D01*
X57523722Y-158543577D01*
X57525000Y-158550000D01*
X57525000Y-159000000D01*
X57523722Y-159006424D01*
X57515358Y-159069958D01*
X57507905Y-159085939D01*
X57504067Y-159105238D01*
X57486988Y-159130797D01*
X57474635Y-159157290D01*
X57458516Y-159173408D01*
X57444454Y-159194454D01*
X57423408Y-159208516D01*
X57407290Y-159224635D01*
X57380797Y-159236988D01*
X57355238Y-159254067D01*
X57335939Y-159257905D01*
X57319958Y-159265358D01*
X57256424Y-159273722D01*
X57250000Y-159275000D01*
X56750000Y-159275000D01*
X56743577Y-159273722D01*
X56680041Y-159265358D01*
X56664058Y-159257905D01*
X56644762Y-159254067D01*
X56619204Y-159236990D01*
X56592709Y-159224635D01*
X56576587Y-159208513D01*
X56555546Y-159194454D01*
X56541486Y-159173412D01*
X56525364Y-159157290D01*
X56513008Y-159130792D01*
X56495933Y-159105238D01*
X56492095Y-159085943D01*
X56484641Y-159069958D01*
X56476275Y-159006409D01*
X56475000Y-159000000D01*
X56475000Y-158550000D01*
X56476274Y-158543592D01*
X56484641Y-158480041D01*
X56492095Y-158464054D01*
X56495933Y-158444762D01*
X56513006Y-158419209D01*
X56525364Y-158392709D01*
X56541488Y-158376584D01*
X56555546Y-158355546D01*
X56576584Y-158341488D01*
X56592709Y-158325364D01*
X56619209Y-158313006D01*
X56644762Y-158295933D01*
X56664054Y-158292095D01*
X56680041Y-158284641D01*
X56743592Y-158276274D01*
X56750000Y-158275000D01*
X57250000Y-158275000D01*
X57256409Y-158276275D01*
G37*
G36*
X59762660Y-158301275D02*
G01*
X59824590Y-158309428D01*
X59840167Y-158316692D01*
X59859096Y-158320457D01*
X59884167Y-158337208D01*
X59909955Y-158349234D01*
X59925644Y-158364923D01*
X59946285Y-158378715D01*
X59960076Y-158399355D01*
X59975765Y-158415044D01*
X59987789Y-158440830D01*
X60004543Y-158465904D01*
X60008308Y-158484834D01*
X60015571Y-158500409D01*
X60023722Y-158562326D01*
X60025000Y-158568750D01*
X60025000Y-159006250D01*
X60023722Y-159012674D01*
X60015571Y-159074590D01*
X60008308Y-159090164D01*
X60004543Y-159109096D01*
X59987787Y-159134171D01*
X59975765Y-159159955D01*
X59960078Y-159175641D01*
X59946285Y-159196285D01*
X59925641Y-159210078D01*
X59909955Y-159225765D01*
X59884171Y-159237787D01*
X59859096Y-159254543D01*
X59840164Y-159258308D01*
X59824590Y-159265571D01*
X59762674Y-159273722D01*
X59756250Y-159275000D01*
X59243750Y-159275000D01*
X59237326Y-159273722D01*
X59175409Y-159265571D01*
X59159834Y-159258308D01*
X59140904Y-159254543D01*
X59115830Y-159237789D01*
X59090044Y-159225765D01*
X59074355Y-159210076D01*
X59053715Y-159196285D01*
X59039923Y-159175644D01*
X59024234Y-159159955D01*
X59012208Y-159134167D01*
X58995457Y-159109096D01*
X58991692Y-159090167D01*
X58984428Y-159074590D01*
X58976275Y-159012660D01*
X58975000Y-159006250D01*
X58975000Y-158568750D01*
X58976274Y-158562341D01*
X58984428Y-158500409D01*
X58991692Y-158484830D01*
X58995457Y-158465904D01*
X59012207Y-158440835D01*
X59024234Y-158415044D01*
X59039925Y-158399352D01*
X59053715Y-158378715D01*
X59074352Y-158364925D01*
X59090044Y-158349234D01*
X59115835Y-158337207D01*
X59140904Y-158320457D01*
X59159830Y-158316692D01*
X59175409Y-158309428D01*
X59237341Y-158301274D01*
X59243750Y-158300000D01*
X59756250Y-158300000D01*
X59762660Y-158301275D01*
G37*
G36*
X61256409Y-158276275D02*
G01*
X61319958Y-158284641D01*
X61335943Y-158292095D01*
X61355238Y-158295933D01*
X61380792Y-158313008D01*
X61407290Y-158325364D01*
X61423412Y-158341486D01*
X61444454Y-158355546D01*
X61458513Y-158376587D01*
X61474635Y-158392709D01*
X61486990Y-158419204D01*
X61504067Y-158444762D01*
X61507905Y-158464058D01*
X61515358Y-158480041D01*
X61523722Y-158543577D01*
X61525000Y-158550000D01*
X61525000Y-159000000D01*
X61523722Y-159006424D01*
X61515358Y-159069958D01*
X61507905Y-159085939D01*
X61504067Y-159105238D01*
X61486988Y-159130797D01*
X61474635Y-159157290D01*
X61458516Y-159173408D01*
X61444454Y-159194454D01*
X61423408Y-159208516D01*
X61407290Y-159224635D01*
X61380797Y-159236988D01*
X61355238Y-159254067D01*
X61335939Y-159257905D01*
X61319958Y-159265358D01*
X61256424Y-159273722D01*
X61250000Y-159275000D01*
X60750000Y-159275000D01*
X60743577Y-159273722D01*
X60680041Y-159265358D01*
X60664058Y-159257905D01*
X60644762Y-159254067D01*
X60619204Y-159236990D01*
X60592709Y-159224635D01*
X60576587Y-159208513D01*
X60555546Y-159194454D01*
X60541486Y-159173412D01*
X60525364Y-159157290D01*
X60513008Y-159130792D01*
X60495933Y-159105238D01*
X60492095Y-159085943D01*
X60484641Y-159069958D01*
X60476275Y-159006409D01*
X60475000Y-159000000D01*
X60475000Y-158550000D01*
X60476274Y-158543592D01*
X60484641Y-158480041D01*
X60492095Y-158464054D01*
X60495933Y-158444762D01*
X60513006Y-158419209D01*
X60525364Y-158392709D01*
X60541488Y-158376584D01*
X60555546Y-158355546D01*
X60576584Y-158341488D01*
X60592709Y-158325364D01*
X60619209Y-158313006D01*
X60644762Y-158295933D01*
X60664054Y-158292095D01*
X60680041Y-158284641D01*
X60743592Y-158276274D01*
X60750000Y-158275000D01*
X61250000Y-158275000D01*
X61256409Y-158276275D01*
G37*
G36*
X51242710Y-158204463D02*
G01*
X51304350Y-158245650D01*
X51345537Y-158307290D01*
X51360000Y-158380000D01*
X51360000Y-158660000D01*
X51345537Y-158732710D01*
X51304350Y-158794350D01*
X51242710Y-158835537D01*
X51170000Y-158850000D01*
X50830000Y-158850000D01*
X50757290Y-158835537D01*
X50695650Y-158794350D01*
X50654463Y-158732710D01*
X50640000Y-158660000D01*
X50640000Y-158380000D01*
X50654463Y-158307290D01*
X50695650Y-158245650D01*
X50757290Y-158204463D01*
X50830000Y-158190000D01*
X51170000Y-158190000D01*
X51242710Y-158204463D01*
G37*
G36*
X55755796Y-158184082D02*
G01*
X55815815Y-158224185D01*
X55855918Y-158284204D01*
X55870000Y-158355000D01*
X55870000Y-158625000D01*
X55855918Y-158695796D01*
X55815815Y-158755815D01*
X55755796Y-158795918D01*
X55685000Y-158810000D01*
X55315000Y-158810000D01*
X55244204Y-158795918D01*
X55184185Y-158755815D01*
X55144082Y-158695796D01*
X55130000Y-158625000D01*
X55130000Y-158355000D01*
X55144082Y-158284204D01*
X55184185Y-158224185D01*
X55244204Y-158184082D01*
X55315000Y-158170000D01*
X55685000Y-158170000D01*
X55755796Y-158184082D01*
G37*
G36*
X64256409Y-157726275D02*
G01*
X64319958Y-157734641D01*
X64335943Y-157742095D01*
X64355238Y-157745933D01*
X64380792Y-157763008D01*
X64407290Y-157775364D01*
X64423412Y-157791486D01*
X64444454Y-157805546D01*
X64458513Y-157826587D01*
X64474635Y-157842709D01*
X64486990Y-157869204D01*
X64504067Y-157894762D01*
X64507905Y-157914058D01*
X64515358Y-157930041D01*
X64523722Y-157993577D01*
X64525000Y-158000000D01*
X64525000Y-158450000D01*
X64523722Y-158456424D01*
X64515358Y-158519958D01*
X64507905Y-158535939D01*
X64504067Y-158555238D01*
X64486988Y-158580797D01*
X64474635Y-158607290D01*
X64458516Y-158623408D01*
X64444454Y-158644454D01*
X64423408Y-158658516D01*
X64407290Y-158674635D01*
X64380797Y-158686988D01*
X64355238Y-158704067D01*
X64335939Y-158707905D01*
X64319958Y-158715358D01*
X64256424Y-158723722D01*
X64250000Y-158725000D01*
X63750000Y-158725000D01*
X63743577Y-158723722D01*
X63680041Y-158715358D01*
X63664058Y-158707905D01*
X63644762Y-158704067D01*
X63619204Y-158686990D01*
X63592709Y-158674635D01*
X63576587Y-158658513D01*
X63555546Y-158644454D01*
X63541486Y-158623412D01*
X63525364Y-158607290D01*
X63513008Y-158580792D01*
X63495933Y-158555238D01*
X63492095Y-158535943D01*
X63484641Y-158519958D01*
X63476275Y-158456409D01*
X63475000Y-158450000D01*
X63475000Y-158000000D01*
X63476274Y-157993592D01*
X63484641Y-157930041D01*
X63492095Y-157914054D01*
X63495933Y-157894762D01*
X63513006Y-157869209D01*
X63525364Y-157842709D01*
X63541488Y-157826584D01*
X63555546Y-157805546D01*
X63576584Y-157791488D01*
X63592709Y-157775364D01*
X63619209Y-157763006D01*
X63644762Y-157745933D01*
X63664054Y-157742095D01*
X63680041Y-157734641D01*
X63743592Y-157726274D01*
X63750000Y-157725000D01*
X64250000Y-157725000D01*
X64256409Y-157726275D01*
G37*
G36*
X70661241Y-156710518D02*
G01*
X70786036Y-156782569D01*
X70887931Y-156884464D01*
X70959982Y-157009259D01*
X70997278Y-157148450D01*
X71002000Y-158120500D01*
X70997278Y-158192550D01*
X70959982Y-158331741D01*
X70887931Y-158456536D01*
X70786036Y-158558431D01*
X70661241Y-158630482D01*
X70522050Y-158667778D01*
X70377950Y-158667778D01*
X70238759Y-158630482D01*
X70113964Y-158558431D01*
X70012069Y-158456536D01*
X69940018Y-158331741D01*
X69902722Y-158192550D01*
X69898000Y-157220500D01*
X69902722Y-157148450D01*
X69940018Y-157009259D01*
X70012069Y-156884464D01*
X70113964Y-156782569D01*
X70238759Y-156710518D01*
X70377950Y-156673222D01*
X70522050Y-156673222D01*
X70661241Y-156710518D01*
G37*
G36*
X77261241Y-156710518D02*
G01*
X77386036Y-156782569D01*
X77487931Y-156884464D01*
X77559982Y-157009259D01*
X77597278Y-157148450D01*
X77602000Y-158120500D01*
X77597278Y-158192550D01*
X77559982Y-158331741D01*
X77487931Y-158456536D01*
X77386036Y-158558431D01*
X77261241Y-158630482D01*
X77122050Y-158667778D01*
X76977950Y-158667778D01*
X76838759Y-158630482D01*
X76713964Y-158558431D01*
X76612069Y-158456536D01*
X76540018Y-158331741D01*
X76502722Y-158192550D01*
X76498000Y-157220500D01*
X76502722Y-157148450D01*
X76540018Y-157009259D01*
X76612069Y-156884464D01*
X76713964Y-156782569D01*
X76838759Y-156710518D01*
X76977950Y-156673222D01*
X77122050Y-156673222D01*
X77261241Y-156710518D01*
G37*
G36*
X78332710Y-157854463D02*
G01*
X78394350Y-157895650D01*
X78435537Y-157957290D01*
X78450000Y-158030000D01*
X78450000Y-158370000D01*
X78435537Y-158442710D01*
X78394350Y-158504350D01*
X78332710Y-158545537D01*
X78260000Y-158560000D01*
X77980000Y-158560000D01*
X77907290Y-158545537D01*
X77845650Y-158504350D01*
X77804463Y-158442710D01*
X77790000Y-158370000D01*
X77790000Y-158030000D01*
X77804463Y-157957290D01*
X77845650Y-157895650D01*
X77907290Y-157854463D01*
X77980000Y-157840000D01*
X78260000Y-157840000D01*
X78332710Y-157854463D01*
G37*
G36*
X79292710Y-157854463D02*
G01*
X79354350Y-157895650D01*
X79395537Y-157957290D01*
X79410000Y-158030000D01*
X79410000Y-158370000D01*
X79395537Y-158442710D01*
X79354350Y-158504350D01*
X79292710Y-158545537D01*
X79220000Y-158560000D01*
X78940000Y-158560000D01*
X78867290Y-158545537D01*
X78805650Y-158504350D01*
X78764463Y-158442710D01*
X78750000Y-158370000D01*
X78750000Y-158030000D01*
X78764463Y-157957290D01*
X78805650Y-157895650D01*
X78867290Y-157854463D01*
X78940000Y-157840000D01*
X79220000Y-157840000D01*
X79292710Y-157854463D01*
G37*
G36*
X58498080Y-157685034D02*
G01*
X58562154Y-157727846D01*
X58604966Y-157791920D01*
X58620000Y-157867500D01*
X58620000Y-158162500D01*
X58604966Y-158238080D01*
X58562154Y-158302154D01*
X58498080Y-158344966D01*
X58422500Y-158360000D01*
X58077500Y-158360000D01*
X58001920Y-158344966D01*
X57937846Y-158302154D01*
X57895034Y-158238080D01*
X57880000Y-158162500D01*
X57880000Y-157867500D01*
X57895034Y-157791920D01*
X57937846Y-157727846D01*
X58001920Y-157685034D01*
X58077500Y-157670000D01*
X58422500Y-157670000D01*
X58498080Y-157685034D01*
G37*
G36*
X62755796Y-157684082D02*
G01*
X62815815Y-157724185D01*
X62855918Y-157784204D01*
X62870000Y-157855000D01*
X62870000Y-158125000D01*
X62855918Y-158195796D01*
X62815815Y-158255815D01*
X62755796Y-158295918D01*
X62685000Y-158310000D01*
X62315000Y-158310000D01*
X62244204Y-158295918D01*
X62184185Y-158255815D01*
X62144082Y-158195796D01*
X62130000Y-158125000D01*
X62130000Y-157855000D01*
X62144082Y-157784204D01*
X62184185Y-157724185D01*
X62244204Y-157684082D01*
X62315000Y-157670000D01*
X62685000Y-157670000D01*
X62755796Y-157684082D01*
G37*
G36*
X46769134Y-156483806D02*
G01*
X46785355Y-156494645D01*
X46796194Y-156510866D01*
X46800000Y-156530000D01*
X46800000Y-158230000D01*
X46796194Y-158249134D01*
X46785355Y-158265355D01*
X46769134Y-158276194D01*
X46750000Y-158280000D01*
X45850000Y-158280000D01*
X45830866Y-158276194D01*
X45814645Y-158265355D01*
X45803806Y-158249134D01*
X45800000Y-158230000D01*
X45800000Y-156530000D01*
X45803806Y-156510866D01*
X45814645Y-156494645D01*
X45830866Y-156483806D01*
X45850000Y-156480000D01*
X46750000Y-156480000D01*
X46769134Y-156483806D01*
G37*
G36*
X50169134Y-156483806D02*
G01*
X50185355Y-156494645D01*
X50196194Y-156510866D01*
X50200000Y-156530000D01*
X50200000Y-158230000D01*
X50196194Y-158249134D01*
X50185355Y-158265355D01*
X50169134Y-158276194D01*
X50150000Y-158280000D01*
X49250000Y-158280000D01*
X49230866Y-158276194D01*
X49214645Y-158265355D01*
X49203806Y-158249134D01*
X49200000Y-158230000D01*
X49200000Y-156530000D01*
X49203806Y-156510866D01*
X49214645Y-156494645D01*
X49230866Y-156483806D01*
X49250000Y-156480000D01*
X50150000Y-156480000D01*
X50169134Y-156483806D01*
G37*
G36*
X53064034Y-156605764D02*
G01*
X53097125Y-156627875D01*
X53119236Y-156660966D01*
X53127000Y-156700000D01*
X53127000Y-158100000D01*
X53119236Y-158139034D01*
X53097125Y-158172125D01*
X53064034Y-158194236D01*
X53025000Y-158202000D01*
X51875000Y-158202000D01*
X51835966Y-158194236D01*
X51802875Y-158172125D01*
X51780764Y-158139034D01*
X51773000Y-158100000D01*
X51773000Y-156700000D01*
X51780764Y-156660966D01*
X51802875Y-156627875D01*
X51835966Y-156605764D01*
X51875000Y-156598000D01*
X53025000Y-156598000D01*
X53064034Y-156605764D01*
G37*
G36*
X54664034Y-156605764D02*
G01*
X54697125Y-156627875D01*
X54719236Y-156660966D01*
X54727000Y-156700000D01*
X54727000Y-158100000D01*
X54719236Y-158139034D01*
X54697125Y-158172125D01*
X54664034Y-158194236D01*
X54625000Y-158202000D01*
X53475000Y-158202000D01*
X53435966Y-158194236D01*
X53402875Y-158172125D01*
X53380764Y-158139034D01*
X53373000Y-158100000D01*
X53373000Y-156700000D01*
X53380764Y-156660966D01*
X53402875Y-156627875D01*
X53435966Y-156605764D01*
X53475000Y-156598000D01*
X54625000Y-156598000D01*
X54664034Y-156605764D01*
G37*
G36*
X48186937Y-156970666D02*
G01*
X48294687Y-157039913D01*
X48378564Y-157136712D01*
X48431772Y-157253220D01*
X48450000Y-157380000D01*
X48431772Y-157506780D01*
X48378564Y-157623288D01*
X48294687Y-157720087D01*
X48186937Y-157789334D01*
X48064042Y-157825420D01*
X47935958Y-157825420D01*
X47813063Y-157789334D01*
X47705313Y-157720087D01*
X47621436Y-157623288D01*
X47568228Y-157506780D01*
X47550000Y-157380000D01*
X47568228Y-157253220D01*
X47621436Y-157136712D01*
X47705313Y-157039913D01*
X47813063Y-156970666D01*
X47935958Y-156934580D01*
X48064042Y-156934580D01*
X48186937Y-156970666D01*
G37*
G36*
X57256409Y-156726275D02*
G01*
X57319958Y-156734641D01*
X57335943Y-156742095D01*
X57355238Y-156745933D01*
X57380792Y-156763008D01*
X57407290Y-156775364D01*
X57423412Y-156791486D01*
X57444454Y-156805546D01*
X57458513Y-156826587D01*
X57474635Y-156842709D01*
X57486990Y-156869204D01*
X57504067Y-156894762D01*
X57507905Y-156914058D01*
X57515358Y-156930041D01*
X57523722Y-156993577D01*
X57525000Y-157000000D01*
X57525000Y-157450000D01*
X57523722Y-157456424D01*
X57515358Y-157519958D01*
X57507905Y-157535939D01*
X57504067Y-157555238D01*
X57486988Y-157580797D01*
X57474635Y-157607290D01*
X57458516Y-157623408D01*
X57444454Y-157644454D01*
X57423408Y-157658516D01*
X57407290Y-157674635D01*
X57380797Y-157686988D01*
X57355238Y-157704067D01*
X57335939Y-157707905D01*
X57319958Y-157715358D01*
X57256424Y-157723722D01*
X57250000Y-157725000D01*
X56750000Y-157725000D01*
X56743577Y-157723722D01*
X56680041Y-157715358D01*
X56664058Y-157707905D01*
X56644762Y-157704067D01*
X56619204Y-157686990D01*
X56592709Y-157674635D01*
X56576587Y-157658513D01*
X56555546Y-157644454D01*
X56541486Y-157623412D01*
X56525364Y-157607290D01*
X56513008Y-157580792D01*
X56495933Y-157555238D01*
X56492095Y-157535943D01*
X56484641Y-157519958D01*
X56476275Y-157456409D01*
X56475000Y-157450000D01*
X56475000Y-157000000D01*
X56476274Y-156993592D01*
X56484641Y-156930041D01*
X56492095Y-156914054D01*
X56495933Y-156894762D01*
X56513006Y-156869209D01*
X56525364Y-156842709D01*
X56541488Y-156826584D01*
X56555546Y-156805546D01*
X56576584Y-156791488D01*
X56592709Y-156775364D01*
X56619209Y-156763006D01*
X56644762Y-156745933D01*
X56664054Y-156742095D01*
X56680041Y-156734641D01*
X56743592Y-156726274D01*
X56750000Y-156725000D01*
X57250000Y-156725000D01*
X57256409Y-156726275D01*
G37*
G36*
X61256409Y-156726275D02*
G01*
X61319958Y-156734641D01*
X61335943Y-156742095D01*
X61355238Y-156745933D01*
X61380792Y-156763008D01*
X61407290Y-156775364D01*
X61423412Y-156791486D01*
X61444454Y-156805546D01*
X61458513Y-156826587D01*
X61474635Y-156842709D01*
X61486990Y-156869204D01*
X61504067Y-156894762D01*
X61507905Y-156914058D01*
X61515358Y-156930041D01*
X61523722Y-156993577D01*
X61525000Y-157000000D01*
X61525000Y-157450000D01*
X61523722Y-157456424D01*
X61515358Y-157519958D01*
X61507905Y-157535939D01*
X61504067Y-157555238D01*
X61486988Y-157580797D01*
X61474635Y-157607290D01*
X61458516Y-157623408D01*
X61444454Y-157644454D01*
X61423408Y-157658516D01*
X61407290Y-157674635D01*
X61380797Y-157686988D01*
X61355238Y-157704067D01*
X61335939Y-157707905D01*
X61319958Y-157715358D01*
X61256424Y-157723722D01*
X61250000Y-157725000D01*
X60750000Y-157725000D01*
X60743577Y-157723722D01*
X60680041Y-157715358D01*
X60664058Y-157707905D01*
X60644762Y-157704067D01*
X60619204Y-157686990D01*
X60592709Y-157674635D01*
X60576587Y-157658513D01*
X60555546Y-157644454D01*
X60541486Y-157623412D01*
X60525364Y-157607290D01*
X60513008Y-157580792D01*
X60495933Y-157555238D01*
X60492095Y-157535943D01*
X60484641Y-157519958D01*
X60476275Y-157456409D01*
X60475000Y-157450000D01*
X60475000Y-157000000D01*
X60476274Y-156993592D01*
X60484641Y-156930041D01*
X60492095Y-156914054D01*
X60495933Y-156894762D01*
X60513006Y-156869209D01*
X60525364Y-156842709D01*
X60541488Y-156826584D01*
X60555546Y-156805546D01*
X60576584Y-156791488D01*
X60592709Y-156775364D01*
X60619209Y-156763006D01*
X60644762Y-156745933D01*
X60664054Y-156742095D01*
X60680041Y-156734641D01*
X60743592Y-156726274D01*
X60750000Y-156725000D01*
X61250000Y-156725000D01*
X61256409Y-156726275D01*
G37*
G36*
X59762660Y-156726275D02*
G01*
X59824590Y-156734428D01*
X59840167Y-156741692D01*
X59859096Y-156745457D01*
X59884167Y-156762208D01*
X59909955Y-156774234D01*
X59925644Y-156789923D01*
X59946285Y-156803715D01*
X59960076Y-156824355D01*
X59975765Y-156840044D01*
X59987789Y-156865830D01*
X60004543Y-156890904D01*
X60008308Y-156909834D01*
X60015571Y-156925409D01*
X60023722Y-156987326D01*
X60025000Y-156993750D01*
X60025000Y-157431250D01*
X60023722Y-157437674D01*
X60015571Y-157499590D01*
X60008308Y-157515164D01*
X60004543Y-157534096D01*
X59987787Y-157559171D01*
X59975765Y-157584955D01*
X59960078Y-157600641D01*
X59946285Y-157621285D01*
X59925641Y-157635078D01*
X59909955Y-157650765D01*
X59884171Y-157662787D01*
X59859096Y-157679543D01*
X59840164Y-157683308D01*
X59824590Y-157690571D01*
X59762674Y-157698722D01*
X59756250Y-157700000D01*
X59243750Y-157700000D01*
X59237326Y-157698722D01*
X59175409Y-157690571D01*
X59159834Y-157683308D01*
X59140904Y-157679543D01*
X59115830Y-157662789D01*
X59090044Y-157650765D01*
X59074355Y-157635076D01*
X59053715Y-157621285D01*
X59039923Y-157600644D01*
X59024234Y-157584955D01*
X59012208Y-157559167D01*
X58995457Y-157534096D01*
X58991692Y-157515167D01*
X58984428Y-157499590D01*
X58976275Y-157437660D01*
X58975000Y-157431250D01*
X58975000Y-156993750D01*
X58976274Y-156987341D01*
X58984428Y-156925409D01*
X58991692Y-156909830D01*
X58995457Y-156890904D01*
X59012207Y-156865835D01*
X59024234Y-156840044D01*
X59039925Y-156824352D01*
X59053715Y-156803715D01*
X59074352Y-156789925D01*
X59090044Y-156774234D01*
X59115835Y-156762207D01*
X59140904Y-156745457D01*
X59159830Y-156741692D01*
X59175409Y-156734428D01*
X59237341Y-156726274D01*
X59243750Y-156725000D01*
X59756250Y-156725000D01*
X59762660Y-156726275D01*
G37*
G36*
X78295796Y-156644082D02*
G01*
X78355815Y-156684185D01*
X78395918Y-156744204D01*
X78410000Y-156815000D01*
X78410000Y-157185000D01*
X78395918Y-157255796D01*
X78355815Y-157315815D01*
X78295796Y-157355918D01*
X78225000Y-157370000D01*
X77955000Y-157370000D01*
X77884204Y-157355918D01*
X77824185Y-157315815D01*
X77784082Y-157255796D01*
X77770000Y-157185000D01*
X77770000Y-156815000D01*
X77784082Y-156744204D01*
X77824185Y-156684185D01*
X77884204Y-156644082D01*
X77955000Y-156630000D01*
X78225000Y-156630000D01*
X78295796Y-156644082D01*
G37*
G36*
X79315796Y-156644082D02*
G01*
X79375815Y-156684185D01*
X79415918Y-156744204D01*
X79430000Y-156815000D01*
X79430000Y-157185000D01*
X79415918Y-157255796D01*
X79375815Y-157315815D01*
X79315796Y-157355918D01*
X79245000Y-157370000D01*
X78975000Y-157370000D01*
X78904204Y-157355918D01*
X78844185Y-157315815D01*
X78804082Y-157255796D01*
X78790000Y-157185000D01*
X78790000Y-156815000D01*
X78804082Y-156744204D01*
X78844185Y-156684185D01*
X78904204Y-156644082D01*
X78975000Y-156630000D01*
X79245000Y-156630000D01*
X79315796Y-156644082D01*
G37*
G36*
X52982710Y-155404463D02*
G01*
X53044350Y-155445650D01*
X53085537Y-155507290D01*
X53100000Y-155580000D01*
X53100000Y-155920000D01*
X53085537Y-155992710D01*
X53044350Y-156054350D01*
X52982710Y-156095537D01*
X52910000Y-156110000D01*
X52630000Y-156110000D01*
X52557290Y-156095537D01*
X52495650Y-156054350D01*
X52454463Y-155992710D01*
X52440000Y-155920000D01*
X52440000Y-155580000D01*
X52454463Y-155507290D01*
X52495650Y-155445650D01*
X52557290Y-155404463D01*
X52630000Y-155390000D01*
X52910000Y-155390000D01*
X52982710Y-155404463D01*
G37*
G36*
X53942710Y-155404463D02*
G01*
X54004350Y-155445650D01*
X54045537Y-155507290D01*
X54060000Y-155580000D01*
X54060000Y-155920000D01*
X54045537Y-155992710D01*
X54004350Y-156054350D01*
X53942710Y-156095537D01*
X53870000Y-156110000D01*
X53590000Y-156110000D01*
X53517290Y-156095537D01*
X53455650Y-156054350D01*
X53414463Y-155992710D01*
X53400000Y-155920000D01*
X53400000Y-155580000D01*
X53414463Y-155507290D01*
X53455650Y-155445650D01*
X53517290Y-155404463D01*
X53590000Y-155390000D01*
X53870000Y-155390000D01*
X53942710Y-155404463D01*
G37*
M02*
