%TF.GenerationSoftware,KiCad,Pcbnew,8.0.1*%
%TF.CreationDate,2024-10-15T00:35:35+02:00*%
%TF.ProjectId,InsuDos,496e7375-446f-4732-9e6b-696361645f70,rev?*%
%TF.SameCoordinates,Original*%
%TF.FileFunction,Copper,L4,Bot*%
%TF.FilePolarity,Positive*%
%FSLAX46Y46*%
G04 Gerber Fmt 4.6, Leading zero omitted, Abs format (unit mm)*
G04 Created by KiCad (PCBNEW 8.0.1) date 2024-10-15 00:35:35*
%MOMM*%
%LPD*%
G01*
G04 APERTURE LIST*
G04 Aperture macros list*
%AMRoundRect*
0 Rectangle with rounded corners*
0 $1 Rounding radius*
0 $2 $3 $4 $5 $6 $7 $8 $9 X,Y pos of 4 corners*
0 Add a 4 corners polygon primitive as box body*
4,1,4,$2,$3,$4,$5,$6,$7,$8,$9,$2,$3,0*
0 Add four circle primitives for the rounded corners*
1,1,$1+$1,$2,$3*
1,1,$1+$1,$4,$5*
1,1,$1+$1,$6,$7*
1,1,$1+$1,$8,$9*
0 Add four rect primitives between the rounded corners*
20,1,$1+$1,$2,$3,$4,$5,0*
20,1,$1+$1,$4,$5,$6,$7,0*
20,1,$1+$1,$6,$7,$8,$9,0*
20,1,$1+$1,$8,$9,$2,$3,0*%
G04 Aperture macros list end*
%TA.AperFunction,EtchedComponent*%
%ADD10C,0.000000*%
%TD*%
%TA.AperFunction,SMDPad,CuDef*%
%ADD11RoundRect,0.135000X0.135000X0.185000X-0.135000X0.185000X-0.135000X-0.185000X0.135000X-0.185000X0*%
%TD*%
%TA.AperFunction,ComponentPad*%
%ADD12O,0.900000X1.800000*%
%TD*%
%TA.AperFunction,ComponentPad*%
%ADD13C,2.600000*%
%TD*%
%TA.AperFunction,ConnectorPad*%
%ADD14C,3.800000*%
%TD*%
%TA.AperFunction,SMDPad,CuDef*%
%ADD15RoundRect,0.135000X0.185000X-0.135000X0.185000X0.135000X-0.185000X0.135000X-0.185000X-0.135000X0*%
%TD*%
%TA.AperFunction,SMDPad,CuDef*%
%ADD16RoundRect,0.140000X-0.140000X-0.170000X0.140000X-0.170000X0.140000X0.170000X-0.140000X0.170000X0*%
%TD*%
%TA.AperFunction,SMDPad,CuDef*%
%ADD17R,0.600000X1.100000*%
%TD*%
%TA.AperFunction,SMDPad,CuDef*%
%ADD18RoundRect,0.093750X0.156250X0.093750X-0.156250X0.093750X-0.156250X-0.093750X0.156250X-0.093750X0*%
%TD*%
%TA.AperFunction,SMDPad,CuDef*%
%ADD19RoundRect,0.075000X0.250000X0.075000X-0.250000X0.075000X-0.250000X-0.075000X0.250000X-0.075000X0*%
%TD*%
%TA.AperFunction,SMDPad,CuDef*%
%ADD20RoundRect,0.225000X0.250000X-0.225000X0.250000X0.225000X-0.250000X0.225000X-0.250000X-0.225000X0*%
%TD*%
%TA.AperFunction,SMDPad,CuDef*%
%ADD21RoundRect,0.218750X-0.256250X0.218750X-0.256250X-0.218750X0.256250X-0.218750X0.256250X0.218750X0*%
%TD*%
%TA.AperFunction,SMDPad,CuDef*%
%ADD22RoundRect,0.135000X-0.185000X0.135000X-0.185000X-0.135000X0.185000X-0.135000X0.185000X0.135000X0*%
%TD*%
%TA.AperFunction,SMDPad,CuDef*%
%ADD23RoundRect,0.140000X-0.170000X0.140000X-0.170000X-0.140000X0.170000X-0.140000X0.170000X0.140000X0*%
%TD*%
%TA.AperFunction,SMDPad,CuDef*%
%ADD24RoundRect,0.135000X-0.135000X-0.185000X0.135000X-0.185000X0.135000X0.185000X-0.135000X0.185000X0*%
%TD*%
%TA.AperFunction,SMDPad,CuDef*%
%ADD25RoundRect,0.250000X-0.350000X-0.250000X0.350000X-0.250000X0.350000X0.250000X-0.350000X0.250000X0*%
%TD*%
%TA.AperFunction,SMDPad,CuDef*%
%ADD26RoundRect,0.062500X0.062500X-0.375000X0.062500X0.375000X-0.062500X0.375000X-0.062500X-0.375000X0*%
%TD*%
%TA.AperFunction,SMDPad,CuDef*%
%ADD27RoundRect,0.062500X0.375000X-0.062500X0.375000X0.062500X-0.375000X0.062500X-0.375000X-0.062500X0*%
%TD*%
%TA.AperFunction,HeatsinkPad*%
%ADD28R,5.600000X5.600000*%
%TD*%
%TA.AperFunction,SMDPad,CuDef*%
%ADD29RoundRect,0.225000X-0.250000X0.225000X-0.250000X-0.225000X0.250000X-0.225000X0.250000X0.225000X0*%
%TD*%
%TA.AperFunction,SMDPad,CuDef*%
%ADD30RoundRect,0.140000X0.140000X0.170000X-0.140000X0.170000X-0.140000X-0.170000X0.140000X-0.170000X0*%
%TD*%
%TA.AperFunction,SMDPad,CuDef*%
%ADD31R,1.200000X1.000000*%
%TD*%
%TA.AperFunction,SMDPad,CuDef*%
%ADD32R,0.900000X1.700000*%
%TD*%
%TA.AperFunction,SMDPad,CuDef*%
%ADD33R,0.800000X1.100000*%
%TD*%
%TA.AperFunction,SMDPad,CuDef*%
%ADD34R,0.900000X0.260000*%
%TD*%
%TA.AperFunction,SMDPad,CuDef*%
%ADD35R,1.310000X2.120000*%
%TD*%
%TA.AperFunction,SMDPad,CuDef*%
%ADD36RoundRect,0.140000X0.170000X-0.140000X0.170000X0.140000X-0.170000X0.140000X-0.170000X-0.140000X0*%
%TD*%
%TA.AperFunction,ConnectorPad*%
%ADD37R,0.500000X0.500000*%
%TD*%
%TA.AperFunction,ComponentPad*%
%ADD38R,0.900000X0.600000*%
%TD*%
%TA.AperFunction,SMDPad,CuDef*%
%ADD39R,1.700000X0.900000*%
%TD*%
%TA.AperFunction,SMDPad,CuDef*%
%ADD40R,1.100000X0.800000*%
%TD*%
%TA.AperFunction,SMDPad,CuDef*%
%ADD41RoundRect,0.147500X0.172500X-0.147500X0.172500X0.147500X-0.172500X0.147500X-0.172500X-0.147500X0*%
%TD*%
%TA.AperFunction,SMDPad,CuDef*%
%ADD42R,1.150000X1.400000*%
%TD*%
%TA.AperFunction,SMDPad,CuDef*%
%ADD43RoundRect,0.050800X-0.050800X0.050800X-0.050800X-0.050800X0.050800X-0.050800X0.050800X0.050800X0*%
%TD*%
%TA.AperFunction,SMDPad,CuDef*%
%ADD44R,0.203200X0.203200*%
%TD*%
%TA.AperFunction,SMDPad,CuDef*%
%ADD45RoundRect,0.085000X-0.265000X-0.085000X0.265000X-0.085000X0.265000X0.085000X-0.265000X0.085000X0*%
%TD*%
%TA.AperFunction,ViaPad*%
%ADD46C,0.510000*%
%TD*%
%TA.AperFunction,Conductor*%
%ADD47C,0.130000*%
%TD*%
%TA.AperFunction,Conductor*%
%ADD48C,0.500000*%
%TD*%
%TA.AperFunction,Conductor*%
%ADD49C,0.200000*%
%TD*%
%TA.AperFunction,Conductor*%
%ADD50C,0.287000*%
%TD*%
%TA.AperFunction,Conductor*%
%ADD51C,0.900000*%
%TD*%
%TA.AperFunction,Conductor*%
%ADD52C,0.250000*%
%TD*%
%TA.AperFunction,Conductor*%
%ADD53C,0.150000*%
%TD*%
%TA.AperFunction,Conductor*%
%ADD54C,0.300000*%
%TD*%
%TA.AperFunction,Conductor*%
%ADD55C,0.260000*%
%TD*%
G04 APERTURE END LIST*
D10*
%TA.AperFunction,EtchedComponent*%
%TO.C,AE1*%
G36*
X41050000Y-162000000D02*
G01*
X40150000Y-162000000D01*
X40150000Y-161741842D01*
X40451778Y-161741842D01*
X40458309Y-161791368D01*
X40478868Y-161836553D01*
X40512511Y-161871787D01*
X40531122Y-161882400D01*
X40576637Y-161895300D01*
X40625156Y-161896043D01*
X40667819Y-161883935D01*
X40675731Y-161879581D01*
X40713674Y-161846797D01*
X40737742Y-161804395D01*
X40747583Y-161756785D01*
X40742847Y-161708378D01*
X40723185Y-161663584D01*
X40688245Y-161626814D01*
X40655353Y-161609908D01*
X40607267Y-161602018D01*
X40557682Y-161608592D01*
X40512372Y-161628687D01*
X40477112Y-161661357D01*
X40460218Y-161693583D01*
X40451778Y-161741842D01*
X40150000Y-161741842D01*
X40150000Y-157100000D01*
X38750000Y-157100000D01*
X38750000Y-162000000D01*
X38250000Y-162000000D01*
X38250000Y-157100000D01*
X36550000Y-157100000D01*
X36550000Y-159740000D01*
X33550000Y-159740000D01*
X33550000Y-157100000D01*
X31850000Y-157100000D01*
X31850000Y-159740000D01*
X28850000Y-159740000D01*
X28850000Y-157100000D01*
X27150000Y-157100000D01*
X27150000Y-161040000D01*
X26650000Y-161040000D01*
X26650000Y-156600000D01*
X29350000Y-156600000D01*
X29350000Y-159240000D01*
X31350000Y-159240000D01*
X31350000Y-156600000D01*
X34050000Y-156600000D01*
X34050000Y-159240000D01*
X36050000Y-159240000D01*
X36050000Y-156600000D01*
X41050000Y-156600000D01*
X41050000Y-161756785D01*
X41050000Y-162000000D01*
G37*
%TD.AperFunction*%
%TD*%
D11*
%TO.P,R19,2*%
%TO.N,/enter*%
X55690000Y-169700000D03*
%TO.P,R19,1*%
%TO.N,Net-(U4-PA0)*%
X56710000Y-169700000D03*
%TD*%
D12*
%TO.P,J2,S5*%
%TO.N,Net-(J2-Shield)*%
X77050000Y-157670500D03*
%TO.P,J2,S6*%
X70450000Y-157670500D03*
%TD*%
D13*
%TO.P,H1,1,1*%
%TO.N,GND*%
X28500000Y-165000000D03*
D14*
X28500000Y-165000000D03*
%TD*%
D15*
%TO.P,R6,1*%
%TO.N,/ldo*%
X74800000Y-167560000D03*
%TO.P,R6,2*%
%TO.N,/chg*%
X74800000Y-166540000D03*
%TD*%
D16*
%TO.P,C7,1*%
%TO.N,GND*%
X59520000Y-173000000D03*
%TO.P,C7,2*%
%TO.N,Net-(U4-PC15)*%
X60480000Y-173000000D03*
%TD*%
D17*
%TO.P,Y1,1,1*%
%TO.N,Net-(U4-PC14)*%
X62200000Y-171500000D03*
%TO.P,Y1,2,2*%
%TO.N,Net-(U4-PC15)*%
X60800000Y-171500000D03*
%TD*%
D18*
%TO.P,U1,1,I/O1*%
%TO.N,/USB_N*%
X70400000Y-159512500D03*
D19*
%TO.P,U1,2,GND*%
%TO.N,GND*%
X70475000Y-160050000D03*
D18*
%TO.P,U1,3,I/O2*%
%TO.N,/USB_P*%
X70400000Y-160587500D03*
%TO.P,U1,4,I/O2*%
%TO.N,/USB_D_P*%
X68700000Y-160587500D03*
D19*
%TO.P,U1,5,VBUS*%
%TO.N,/5v*%
X68625000Y-160050000D03*
D18*
%TO.P,U1,6,I/O1*%
%TO.N,/USB_D_N*%
X68700000Y-159512500D03*
%TD*%
D20*
%TO.P,C6,1*%
%TO.N,GND*%
X49800000Y-162475000D03*
%TO.P,C6,2*%
%TO.N,/ldo*%
X49800000Y-160925000D03*
%TD*%
D21*
%TO.P,L3,1,1*%
%TO.N,Net-(L2-Pad2)*%
X59500000Y-157212500D03*
%TO.P,L3,2,2*%
%TO.N,Net-(U4-VLXSMPS)*%
X59500000Y-158787500D03*
%TD*%
D11*
%TO.P,R10,1*%
%TO.N,/PWR_Tmp*%
X53010000Y-168500000D03*
%TO.P,R10,2*%
%TO.N,Net-(U2-ADD0)*%
X51990000Y-168500000D03*
%TD*%
D22*
%TO.P,R7,1*%
%TO.N,/bat*%
X53852000Y-170760000D03*
%TO.P,R7,2*%
%TO.N,GND*%
X53852000Y-171780000D03*
%TD*%
D20*
%TO.P,C1,1*%
%TO.N,/Smps*%
X61000000Y-158775000D03*
%TO.P,C1,2*%
%TO.N,GND*%
X61000000Y-157225000D03*
%TD*%
D23*
%TO.P,C23,1*%
%TO.N,/ldo*%
X63500000Y-168520000D03*
%TO.P,C23,2*%
%TO.N,GND*%
X63500000Y-169480000D03*
%TD*%
D24*
%TO.P,R15,1*%
%TO.N,Net-(J2-ID)*%
X73990000Y-161500000D03*
%TO.P,R15,2*%
%TO.N,/5v*%
X75010000Y-161500000D03*
%TD*%
D25*
%TO.P,TP1,1,1*%
%TO.N,/swclk*%
X67600000Y-165000000D03*
%TD*%
D16*
%TO.P,C16,1*%
%TO.N,Net-(AE1-PCB_Trace)*%
X38570000Y-162800000D03*
%TO.P,C16,2*%
%TO.N,GND*%
X39530000Y-162800000D03*
%TD*%
%TO.P,C24,1*%
%TO.N,/ldo*%
X61520000Y-169750000D03*
%TO.P,C24,2*%
%TO.N,GND*%
X62480000Y-169750000D03*
%TD*%
D25*
%TO.P,TP2,1,1*%
%TO.N,GND*%
X67600000Y-167000000D03*
%TD*%
D26*
%TO.P,U4,1,VBAT*%
%TO.N,/ldo*%
X61150000Y-168337500D03*
%TO.P,U4,2,PC14*%
%TO.N,Net-(U4-PC14)*%
X60650000Y-168337500D03*
%TO.P,U4,3,PC15*%
%TO.N,Net-(U4-PC15)*%
X60150000Y-168337500D03*
%TO.P,U4,4,PH3*%
%TO.N,Net-(U4-PH3)*%
X59650000Y-168337500D03*
%TO.P,U4,5,PB8*%
%TO.N,/Temp_scl*%
X59150000Y-168337500D03*
%TO.P,U4,6,PB9*%
%TO.N,/Temp_sda*%
X58650000Y-168337500D03*
%TO.P,U4,7,NRST*%
%TO.N,/RST*%
X58150000Y-168337500D03*
%TO.P,U4,8,VDDA*%
%TO.N,/Vdda*%
X57650000Y-168337500D03*
%TO.P,U4,9,PA0*%
%TO.N,Net-(U4-PA0)*%
X57150000Y-168337500D03*
%TO.P,U4,10,PA1*%
%TO.N,/bat*%
X56650000Y-168337500D03*
%TO.P,U4,11,PA2*%
%TO.N,Net-(U4-PA2)*%
X56150000Y-168337500D03*
%TO.P,U4,12,PA3*%
%TO.N,/OverTemp*%
X55650000Y-168337500D03*
D27*
%TO.P,U4,13,PA4*%
%TO.N,/PWR_Tmp*%
X54962500Y-167650000D03*
%TO.P,U4,14,PA5*%
%TO.N,Net-(U4-PA5)*%
X54962500Y-167150000D03*
%TO.P,U4,15,PA6*%
%TO.N,Net-(U4-PA6)*%
X54962500Y-166650000D03*
%TO.P,U4,16,PA7*%
%TO.N,/PWR_Mic*%
X54962500Y-166150000D03*
%TO.P,U4,17,PA8*%
%TO.N,/M_clk*%
X54962500Y-165650000D03*
%TO.P,U4,18,PA9*%
%TO.N,/M_data*%
X54962500Y-165150000D03*
%TO.P,U4,19,PB2*%
%TO.N,Net-(U4-PB2)*%
X54962500Y-164650000D03*
%TO.P,U4,20,VDD*%
%TO.N,/ldo*%
X54962500Y-164150000D03*
%TO.P,U4,21,RF1*%
%TO.N,/RF*%
X54962500Y-163650000D03*
%TO.P,U4,22,VSSRF*%
%TO.N,GND*%
X54962500Y-163150000D03*
%TO.P,U4,23,VDDRF*%
%TO.N,/Vddrf*%
X54962500Y-162650000D03*
%TO.P,U4,24,OSC_OUT*%
%TO.N,/osc2*%
X54962500Y-162150000D03*
D26*
%TO.P,U4,25,OSC_IN*%
%TO.N,/osc1*%
X55650000Y-161462500D03*
%TO.P,U4,26,AT0*%
%TO.N,unconnected-(U4-AT0-Pad26)*%
X56150000Y-161462500D03*
%TO.P,U4,27,AT1*%
%TO.N,unconnected-(U4-AT1-Pad27)*%
X56650000Y-161462500D03*
%TO.P,U4,28,PB0*%
%TO.N,/cen*%
X57150000Y-161462500D03*
%TO.P,U4,29,PB1*%
%TO.N,unconnected-(U4-PB1-Pad29)*%
X57650000Y-161462500D03*
%TO.P,U4,30,PE4*%
%TO.N,unconnected-(U4-PE4-Pad30)*%
X58150000Y-161462500D03*
%TO.P,U4,31,VFBSMPS*%
%TO.N,Net-(U4-VFBSMPS)*%
X58650000Y-161462500D03*
%TO.P,U4,32,VSSSMPS*%
%TO.N,GND*%
X59150000Y-161462500D03*
%TO.P,U4,33,VLXSMPS*%
%TO.N,Net-(U4-VLXSMPS)*%
X59650000Y-161462500D03*
%TO.P,U4,34,VDDSMPS*%
%TO.N,/Smps*%
X60150000Y-161462500D03*
%TO.P,U4,35,VDD*%
%TO.N,/ldo*%
X60650000Y-161462500D03*
%TO.P,U4,36,PA10*%
%TO.N,/chg*%
X61150000Y-161462500D03*
D27*
%TO.P,U4,37,PA11*%
%TO.N,/USB_D_N*%
X61837500Y-162150000D03*
%TO.P,U4,38,PA12*%
%TO.N,/USB_D_P*%
X61837500Y-162650000D03*
%TO.P,U4,39,PA13*%
%TO.N,/swdio*%
X61837500Y-163150000D03*
%TO.P,U4,40,VDDUSB*%
%TO.N,/usb*%
X61837500Y-163650000D03*
%TO.P,U4,41,PA14*%
%TO.N,/swclk*%
X61837500Y-164150000D03*
%TO.P,U4,42,PA15*%
%TO.N,/cs*%
X61837500Y-164650000D03*
%TO.P,U4,43,PB3*%
%TO.N,/D_sclk*%
X61837500Y-165150000D03*
%TO.P,U4,44,PB4*%
%TO.N,/dc*%
X61837500Y-165650000D03*
%TO.P,U4,45,PB5*%
%TO.N,/D_Mosi*%
X61837500Y-166150000D03*
%TO.P,U4,46,PB6*%
%TO.N,/res*%
X61837500Y-166650000D03*
%TO.P,U4,47,PB7*%
%TO.N,/busy*%
X61837500Y-167150000D03*
%TO.P,U4,48,VDD*%
%TO.N,/ldo*%
X61837500Y-167650000D03*
D28*
%TO.P,U4,49,VSS*%
%TO.N,GND*%
X58400000Y-164900000D03*
%TD*%
D29*
%TO.P,C39,1*%
%TO.N,GND*%
X57000000Y-157225000D03*
%TO.P,C39,2*%
%TO.N,Net-(U4-VFBSMPS)*%
X57000000Y-158775000D03*
%TD*%
D30*
%TO.P,C25,1*%
%TO.N,/ldo*%
X53080000Y-164400000D03*
%TO.P,C25,2*%
%TO.N,GND*%
X52120000Y-164400000D03*
%TD*%
D25*
%TO.P,TP3,1,1*%
%TO.N,/swdio*%
X67600000Y-163000000D03*
%TD*%
D24*
%TO.P,R14,1*%
%TO.N,/usb*%
X64240000Y-163750000D03*
%TO.P,R14,2*%
%TO.N,/ldo*%
X65260000Y-163750000D03*
%TD*%
D22*
%TO.P,R21,1*%
%TO.N,Net-(U4-PA5)*%
X51000000Y-172240000D03*
%TO.P,R21,2*%
%TO.N,/esc*%
X51000000Y-173260000D03*
%TD*%
D23*
%TO.P,C9,1*%
%TO.N,Net-(U2-ADD0)*%
X50500000Y-168520000D03*
%TO.P,C9,2*%
%TO.N,GND*%
X50500000Y-169480000D03*
%TD*%
D11*
%TO.P,R22,1*%
%TO.N,Net-(U4-PA2)*%
X53010000Y-169750000D03*
%TO.P,R22,2*%
%TO.N,/dose*%
X51990000Y-169750000D03*
%TD*%
D16*
%TO.P,C26,1*%
%TO.N,GND*%
X57520000Y-160000000D03*
%TO.P,C26,2*%
%TO.N,Net-(U4-VFBSMPS)*%
X58480000Y-160000000D03*
%TD*%
D11*
%TO.P,R2,1*%
%TO.N,GND*%
X79110000Y-157000000D03*
%TO.P,R2,2*%
%TO.N,Net-(J2-Shield)*%
X78090000Y-157000000D03*
%TD*%
D31*
%TO.P,TP5,1,1*%
%TO.N,/ldo*%
X70000000Y-167000000D03*
%TD*%
D32*
%TO.P,SW1,1,1*%
%TO.N,/list*%
X49700000Y-157380000D03*
%TO.P,SW1,2,2*%
%TO.N,GND*%
X46300000Y-157380000D03*
D33*
%TO.P,SW1,3*%
X48000000Y-159020000D03*
%TD*%
D30*
%TO.P,C19,1*%
%TO.N,/osc1*%
X53730000Y-155750000D03*
%TO.P,C19,2*%
%TO.N,GND*%
X52770000Y-155750000D03*
%TD*%
D34*
%TO.P,U3,1,in*%
%TO.N,/5v*%
X76435000Y-162875000D03*
%TO.P,U3,2,sys*%
%TO.N,Net-(U3-sys)*%
X76435000Y-163325000D03*
%TO.P,U3,3,ldo*%
%TO.N,/ldo*%
X76435000Y-163775000D03*
%TO.P,U3,4,sd*%
%TO.N,unconnected-(U3-sd-Pad4)*%
X76435000Y-164225000D03*
%TO.P,U3,5,chg*%
%TO.N,/chg*%
X76435000Y-164675000D03*
%TO.P,U3,6,cen*%
%TO.N,/cen*%
X76435000Y-165125000D03*
%TO.P,U3,7,gnd*%
%TO.N,GND*%
X73565000Y-165125000D03*
%TO.P,U3,8,ntc*%
%TO.N,Net-(U3-ntc)*%
X73565000Y-164675000D03*
%TO.P,U3,9,iset*%
%TO.N,Net-(U3-iset)*%
X73565000Y-164225000D03*
%TO.P,U3,10,bms*%
%TO.N,Net-(U3-bms)*%
X73565000Y-163775000D03*
%TO.P,U3,11,bsns*%
%TO.N,Net-(U3-bat)*%
X73565000Y-163325000D03*
%TO.P,U3,12,bat*%
X73565000Y-162875000D03*
D35*
%TO.P,U3,13,ep*%
%TO.N,GND*%
X75000000Y-164000000D03*
%TD*%
D11*
%TO.P,R20,1*%
%TO.N,Net-(U4-PB2)*%
X51510000Y-166000000D03*
%TO.P,R20,2*%
%TO.N,Net-(BZ1-+)*%
X50490000Y-166000000D03*
%TD*%
D36*
%TO.P,C18,1*%
%TO.N,/osc2*%
X51000000Y-159480000D03*
%TO.P,C18,2*%
%TO.N,GND*%
X51000000Y-158520000D03*
%TD*%
D22*
%TO.P,R13,1*%
%TO.N,/Smps*%
X62500000Y-157990000D03*
%TO.P,R13,2*%
%TO.N,/ldo*%
X62500000Y-159010000D03*
%TD*%
D29*
%TO.P,C22,1*%
%TO.N,/ldo*%
X64000000Y-158225000D03*
%TO.P,C22,2*%
%TO.N,GND*%
X64000000Y-159775000D03*
%TD*%
D24*
%TO.P,R23,1*%
%TO.N,Net-(AE1-PCB_Trace)*%
X39540000Y-163800000D03*
%TO.P,R23,2*%
%TO.N,Net-(FL1-OUT)*%
X40560000Y-163800000D03*
%TD*%
D22*
%TO.P,TH1,1*%
%TO.N,Net-(U3-ntc)*%
X55500000Y-158490000D03*
%TO.P,TH1,2*%
%TO.N,GND*%
X55500000Y-159510000D03*
%TD*%
D20*
%TO.P,C30,1*%
%TO.N,Net-(U3-bat)*%
X72000000Y-163275000D03*
%TO.P,C30,2*%
%TO.N,GND*%
X72000000Y-161725000D03*
%TD*%
D23*
%TO.P,C27,1*%
%TO.N,/RST*%
X63750000Y-170770000D03*
%TO.P,C27,2*%
%TO.N,GND*%
X63750000Y-171730000D03*
%TD*%
D25*
%TO.P,TP4,1,1*%
%TO.N,/RST*%
X67600000Y-169200000D03*
%TD*%
D30*
%TO.P,C8,1*%
%TO.N,GND*%
X62480000Y-173000000D03*
%TO.P,C8,2*%
%TO.N,Net-(U4-PC14)*%
X61520000Y-173000000D03*
%TD*%
D15*
%TO.P,R16,1*%
%TO.N,GND*%
X59500000Y-171760000D03*
%TO.P,R16,2*%
%TO.N,Net-(U4-PH3)*%
X59500000Y-170740000D03*
%TD*%
D23*
%TO.P,C20,1*%
%TO.N,/Vdda*%
X55926000Y-170770000D03*
%TO.P,C20,2*%
%TO.N,GND*%
X55926000Y-171730000D03*
%TD*%
D37*
%TO.P,AE1,1,PCB_Trace*%
%TO.N,Net-(AE1-PCB_Trace)*%
X38500000Y-161750000D03*
D38*
%TO.P,AE1,2,FEED*%
%TO.N,GND*%
X40600000Y-161750000D03*
%TD*%
D23*
%TO.P,C21,1*%
%TO.N,/Vdda*%
X56958000Y-170770000D03*
%TO.P,C21,2*%
%TO.N,GND*%
X56958000Y-171730000D03*
%TD*%
D22*
%TO.P,R5,1*%
%TO.N,Net-(U3-iset)*%
X72000000Y-164490000D03*
%TO.P,R5,2*%
%TO.N,GND*%
X72000000Y-165510000D03*
%TD*%
D15*
%TO.P,R12,1*%
%TO.N,/Vddrf*%
X51250000Y-162260000D03*
%TO.P,R12,2*%
%TO.N,/ldo*%
X51250000Y-161240000D03*
%TD*%
D29*
%TO.P,C33,1*%
%TO.N,GND*%
X76300000Y-159725000D03*
%TO.P,C33,2*%
%TO.N,/5v*%
X76300000Y-161275000D03*
%TD*%
D15*
%TO.P,R18,1*%
%TO.N,Net-(U4-PA6)*%
X48600000Y-161310000D03*
%TO.P,R18,2*%
%TO.N,/list*%
X48600000Y-160290000D03*
%TD*%
D11*
%TO.P,R8,1*%
%TO.N,Net-(U3-bms)*%
X55010000Y-172700000D03*
%TO.P,R8,2*%
%TO.N,/bat*%
X53990000Y-172700000D03*
%TD*%
D39*
%TO.P,SW3,1,1*%
%TO.N,GND*%
X24200000Y-163300000D03*
%TO.P,SW3,2,2*%
%TO.N,/dose*%
X24200000Y-166700000D03*
D40*
%TO.P,SW3,3*%
%TO.N,GND*%
X25840000Y-165000000D03*
%TD*%
D20*
%TO.P,C40,1*%
%TO.N,/ldo*%
X73250000Y-168525000D03*
%TO.P,C40,2*%
%TO.N,GND*%
X73250000Y-166975000D03*
%TD*%
D41*
%TO.P,L2,1,1*%
%TO.N,Net-(U4-VFBSMPS)*%
X58250000Y-158985000D03*
%TO.P,L2,2,2*%
%TO.N,Net-(L2-Pad2)*%
X58250000Y-158015000D03*
%TD*%
D32*
%TO.P,SW2,1,1*%
%TO.N,/enter*%
X65300000Y-172600000D03*
%TO.P,SW2,2,2*%
%TO.N,GND*%
X68700000Y-172600000D03*
D33*
%TO.P,SW2,3*%
X67000000Y-170960000D03*
%TD*%
D42*
%TO.P,Y2,1*%
%TO.N,/osc2*%
X52450000Y-159600000D03*
%TO.P,Y2,2,GND*%
%TO.N,GND*%
X52450000Y-157400000D03*
%TO.P,Y2,3*%
%TO.N,/osc1*%
X54050000Y-157400000D03*
%TO.P,Y2,4,GND__1*%
%TO.N,GND*%
X54050000Y-159600000D03*
%TD*%
D43*
%TO.P,FL1,1,OUT*%
%TO.N,Net-(FL1-OUT)*%
X49913001Y-163746000D03*
D44*
%TO.P,FL1,2,GND4*%
%TO.N,GND*%
X50500000Y-163746000D03*
D43*
%TO.P,FL1,3,IN*%
%TO.N,/RF*%
X51086999Y-163746000D03*
D44*
%TO.P,FL1,4,GND1*%
%TO.N,GND*%
X51086999Y-164254000D03*
%TO.P,FL1,5,GND2*%
X50500000Y-164254000D03*
%TO.P,FL1,6,GND3*%
X49913001Y-164254000D03*
%TD*%
D32*
%TO.P,SW4,1,1*%
%TO.N,GND*%
X46300000Y-172600000D03*
%TO.P,SW4,2,2*%
%TO.N,/esc*%
X49700000Y-172600000D03*
D33*
%TO.P,SW4,3*%
%TO.N,GND*%
X48000000Y-170960000D03*
%TD*%
D36*
%TO.P,C4,1*%
%TO.N,/Vddrf*%
X52500000Y-162230000D03*
%TO.P,C4,2*%
%TO.N,GND*%
X52500000Y-161270000D03*
%TD*%
D29*
%TO.P,C32,1*%
%TO.N,GND*%
X78300000Y-161475000D03*
%TO.P,C32,2*%
%TO.N,Net-(U3-sys)*%
X78300000Y-163025000D03*
%TD*%
D23*
%TO.P,C34,1*%
%TO.N,/bat*%
X54894000Y-170770000D03*
%TO.P,C34,2*%
%TO.N,GND*%
X54894000Y-171730000D03*
%TD*%
D20*
%TO.P,C31,1*%
%TO.N,GND*%
X78300000Y-166825000D03*
%TO.P,C31,2*%
%TO.N,/ldo*%
X78300000Y-165275000D03*
%TD*%
D16*
%TO.P,C5,1*%
%TO.N,Net-(J2-Shield)*%
X78120000Y-158200000D03*
%TO.P,C5,2*%
%TO.N,GND*%
X79080000Y-158200000D03*
%TD*%
D45*
%TO.P,U2,1,SCL*%
%TO.N,/Temp_scl*%
X47750000Y-169500000D03*
%TO.P,U2,2,GND*%
%TO.N,GND*%
X47750000Y-169000000D03*
%TO.P,U2,3,ALERT*%
%TO.N,/OverTemp*%
X47750000Y-168500000D03*
%TO.P,U2,4,ADD0*%
%TO.N,Net-(U2-ADD0)*%
X49250000Y-168500000D03*
%TO.P,U2,5,V+*%
X49250000Y-169000000D03*
%TO.P,U2,6,SDA*%
%TO.N,/Temp_sda*%
X49250000Y-169500000D03*
%TD*%
D16*
%TO.P,C36,1*%
%TO.N,/ldo*%
X61520000Y-160000000D03*
%TO.P,C36,2*%
%TO.N,GND*%
X62480000Y-160000000D03*
%TD*%
D36*
%TO.P,C17,1*%
%TO.N,Net-(FL1-OUT)*%
X41550000Y-163780000D03*
%TO.P,C17,2*%
%TO.N,GND*%
X41550000Y-162820000D03*
%TD*%
D22*
%TO.P,R11,1*%
%TO.N,/Vdda*%
X58000000Y-170760000D03*
%TO.P,R11,2*%
%TO.N,/ldo*%
X58000000Y-171780000D03*
%TD*%
D16*
%TO.P,C2,1*%
%TO.N,/usb*%
X64270000Y-164750000D03*
%TO.P,C2,2*%
%TO.N,GND*%
X65230000Y-164750000D03*
%TD*%
D11*
%TO.P,R17,1*%
%TO.N,GND*%
X74260000Y-160500000D03*
%TO.P,R17,2*%
%TO.N,Net-(J2-ID)*%
X73240000Y-160500000D03*
%TD*%
D36*
%TO.P,C3,1*%
%TO.N,/Vddrf*%
X53500000Y-162230000D03*
%TO.P,C3,2*%
%TO.N,GND*%
X53500000Y-161270000D03*
%TD*%
D46*
%TO.N,GND*%
X52500000Y-170700000D03*
X46050000Y-170050000D03*
X45300000Y-171050000D03*
X28400000Y-168800000D03*
X26750000Y-172900000D03*
X78000000Y-167500000D03*
X67700000Y-173200000D03*
X65750000Y-164750000D03*
X72000000Y-161000000D03*
X79250000Y-174250000D03*
X25500000Y-171750000D03*
X31000000Y-170000000D03*
X29385713Y-162700000D03*
X40200000Y-172900000D03*
X68800000Y-156800000D03*
X73806702Y-169940000D03*
X64750000Y-159750000D03*
X30500000Y-166250000D03*
X25328571Y-162700000D03*
X56000000Y-166062500D03*
X79400000Y-162000000D03*
X34100000Y-168300000D03*
X62250000Y-174500000D03*
X27200000Y-170200000D03*
X44229032Y-163000000D03*
X29000000Y-169800000D03*
X36000000Y-163800000D03*
X56000000Y-164875000D03*
X38750000Y-164250000D03*
X39000000Y-167000000D03*
X42100000Y-168300000D03*
X42200000Y-171100000D03*
X30900000Y-164300000D03*
X50500000Y-163250000D03*
X76000000Y-174250000D03*
X48500000Y-169200000D03*
X51000000Y-158000000D03*
X76250000Y-173250000D03*
X34500000Y-169750000D03*
X70750000Y-168000000D03*
X78250000Y-169250000D03*
X46900000Y-158600000D03*
X61750000Y-173750000D03*
X67000000Y-167250000D03*
X58600000Y-174500000D03*
X33700000Y-172900000D03*
X45200000Y-168700000D03*
X23100000Y-169000000D03*
X79500000Y-171000000D03*
X45400000Y-172900000D03*
X66500000Y-162500000D03*
X70700000Y-173700000D03*
X69750000Y-170250000D03*
X62750000Y-170500000D03*
X31200000Y-172900000D03*
X60425000Y-174500000D03*
X26400000Y-163900000D03*
X45750000Y-161250000D03*
X39200000Y-170700000D03*
X66300000Y-170550000D03*
X55750000Y-160250000D03*
X23100000Y-162700000D03*
X51250000Y-169500000D03*
X65500000Y-168250000D03*
X70500000Y-162000000D03*
X43187500Y-164500000D03*
X55000000Y-155800000D03*
X63500000Y-173750000D03*
X73000000Y-159050000D03*
X53000000Y-161500000D03*
X29800000Y-170600000D03*
X41000000Y-169750000D03*
X60750000Y-163687500D03*
X45800000Y-157050000D03*
X32400000Y-163400000D03*
X63800000Y-161300000D03*
X79545000Y-157600000D03*
X40050000Y-163050000D03*
X56000000Y-163687500D03*
X45000000Y-165000000D03*
X60750000Y-167250000D03*
X79400000Y-164600000D03*
X47400000Y-173300000D03*
X79250000Y-167000000D03*
X52250000Y-174500000D03*
X56000000Y-167250000D03*
X44100000Y-172900000D03*
X42750000Y-165750000D03*
X32000000Y-171000000D03*
X63250000Y-160000000D03*
X57000000Y-156500000D03*
X56000000Y-172500000D03*
X44250000Y-164500000D03*
X44250000Y-165750000D03*
X79500000Y-168500000D03*
X43264516Y-163000000D03*
X37250000Y-165500000D03*
X67800000Y-158000000D03*
X35471426Y-162700000D03*
X36250000Y-164500000D03*
X42300000Y-163000000D03*
X25900000Y-168700000D03*
X37250000Y-167000000D03*
X79500000Y-169750000D03*
X48750000Y-163000000D03*
X48500000Y-166000000D03*
X45750000Y-159750000D03*
X72250000Y-167000000D03*
X39000000Y-165500000D03*
X54000000Y-174500000D03*
X31414284Y-162700000D03*
X26100000Y-166200000D03*
X24250000Y-170250000D03*
X42000000Y-172900000D03*
X27357142Y-162700000D03*
X38000000Y-163500000D03*
X60750000Y-166062500D03*
X52500000Y-165250000D03*
X30800000Y-171600000D03*
X47050000Y-171200000D03*
X62050000Y-161300000D03*
X23100000Y-164800000D03*
X37500000Y-162700000D03*
X64500000Y-167000000D03*
X47800000Y-159900000D03*
X69750000Y-159000000D03*
X75000000Y-164000000D03*
X33442855Y-162700000D03*
X40800000Y-163050000D03*
X78000000Y-170500000D03*
X62000000Y-157000000D03*
X63250000Y-156750000D03*
X31250000Y-168500000D03*
X41500000Y-166900000D03*
X54000000Y-161500000D03*
X58250000Y-165000000D03*
X49500000Y-170500000D03*
X41062500Y-164500000D03*
X70250000Y-172750000D03*
X61000000Y-156500000D03*
X40000000Y-164500000D03*
X72500000Y-172750000D03*
X60750000Y-162500000D03*
X35000000Y-165400000D03*
X62750000Y-155750000D03*
X60155000Y-169750000D03*
X45750000Y-158500000D03*
X42125000Y-164500000D03*
X28700000Y-172900000D03*
X62750000Y-172500000D03*
X75250000Y-170250000D03*
X59500000Y-172500000D03*
X56750000Y-172500000D03*
X52450000Y-156500000D03*
X37250000Y-169750000D03*
X37950000Y-172900000D03*
X65000000Y-169750000D03*
X27750000Y-167750000D03*
X37250000Y-168500000D03*
X78000000Y-172500000D03*
X30200000Y-169200000D03*
X32500000Y-168250000D03*
X52500000Y-163000000D03*
X53250000Y-158500000D03*
X66750000Y-166000000D03*
X63000000Y-169250000D03*
X45193550Y-163000000D03*
X75100000Y-159050000D03*
X47500000Y-160500000D03*
X66300000Y-173300000D03*
X60000000Y-173750000D03*
X56750000Y-159750000D03*
X48500000Y-164750000D03*
X34200000Y-163800000D03*
X50000000Y-164750000D03*
X40500000Y-165750000D03*
X54000000Y-163000000D03*
X79500000Y-172250000D03*
X57750000Y-157250000D03*
X39000000Y-168500000D03*
X34250000Y-166250000D03*
X60750000Y-164875000D03*
X37400000Y-164500000D03*
X65550000Y-159050000D03*
X28700000Y-171500000D03*
X66800000Y-156800000D03*
X51000000Y-164750000D03*
X56000000Y-162500000D03*
X51000000Y-157100000D03*
X35950000Y-172900000D03*
X23100000Y-167600000D03*
%TO.N,Net-(U3-bat)*%
X70250000Y-163250000D03*
X70750000Y-162750000D03*
%TO.N,/ldo*%
X50750000Y-160750000D03*
X63250000Y-159000000D03*
X72125000Y-168125000D03*
X63000000Y-168000000D03*
X66400000Y-163750000D03*
X57690150Y-171420181D03*
X53668651Y-164418651D03*
X65800000Y-163750000D03*
X73840100Y-168699900D03*
%TO.N,/RST*%
X63750000Y-170250000D03*
X58000000Y-169750000D03*
X66500000Y-169500000D03*
%TO.N,/5v*%
X78400000Y-160400000D03*
X79500000Y-160500000D03*
%TO.N,/M_clk*%
X47300000Y-167957700D03*
%TO.N,/M_data*%
X45978272Y-168262212D03*
%TO.N,/chg*%
X65567445Y-159782555D03*
X67446181Y-162095000D03*
%TO.N,Net-(U3-bms)*%
X69750000Y-161750000D03*
X57000000Y-173250000D03*
%TO.N,/PWR_Mic*%
X50550000Y-167500000D03*
%TO.N,Net-(J2-ID)*%
X73250000Y-161500000D03*
%TO.N,/enter*%
X63500000Y-172750000D03*
X53200000Y-172900000D03*
%TO.N,Net-(BZ1-+)*%
X49600000Y-166000000D03*
%TO.N,/dose*%
X24500000Y-167600000D03*
%TO.N,Net-(U3-ntc)*%
X65285080Y-157370398D03*
X69000000Y-161750000D03*
%TO.N,/swclk*%
X63250000Y-164255000D03*
X66500000Y-164500000D03*
%TO.N,/USB_P*%
X73670000Y-159050000D03*
%TO.N,/USB_N*%
X74416550Y-159050000D03*
%TO.N,/cen*%
X66300000Y-159050000D03*
X67750000Y-161500000D03*
%TO.N,/res*%
X77000000Y-170250000D03*
%TO.N,/dc*%
X66250000Y-168500000D03*
X65500000Y-166750000D03*
X78750000Y-169750000D03*
%TO.N,/busy*%
X71050000Y-172300000D03*
X64800000Y-171050000D03*
X77250000Y-171250000D03*
%TO.N,/cs*%
X69250000Y-169250000D03*
X75250000Y-169250000D03*
X65000000Y-165500000D03*
%TO.N,/D_sclk*%
X77659676Y-168704838D03*
%TO.N,/D_Mosi*%
X65548380Y-167591773D03*
X70082341Y-168417659D03*
X77409676Y-167795162D03*
%TO.N,/dose*%
X50875000Y-170375000D03*
%TO.N,Net-(U4-PA5)*%
X51000000Y-171750000D03*
X53500000Y-167745000D03*
%TO.N,Net-(U4-PA6)*%
X49198988Y-161727247D03*
X54000000Y-167000000D03*
%TD*%
D47*
%TO.N,Net-(U4-PA6)*%
X49198988Y-161727247D02*
X49017247Y-161727247D01*
X49017247Y-161727247D02*
X48600000Y-161310000D01*
D48*
%TO.N,/ldo*%
X70000000Y-165723834D02*
X70000000Y-167000000D01*
X68176166Y-163900000D02*
X70000000Y-165723834D01*
X66826310Y-163900000D02*
X68176166Y-163900000D01*
X66400000Y-163750000D02*
X66676310Y-163750000D01*
X66676310Y-163750000D02*
X66826310Y-163900000D01*
D49*
X65800000Y-163750000D02*
X65260000Y-163750000D01*
D47*
%TO.N,/enter*%
X55200000Y-169700000D02*
X55690000Y-169700000D01*
X53595000Y-170100000D02*
X54800000Y-170100000D01*
X53037000Y-172737000D02*
X53037000Y-170658000D01*
X53200000Y-172900000D02*
X53037000Y-172737000D01*
X54800000Y-170100000D02*
X55200000Y-169700000D01*
X53037000Y-170658000D02*
X53595000Y-170100000D01*
%TO.N,Net-(U4-PA0)*%
X57150000Y-168850000D02*
X57150000Y-168337500D01*
X56710000Y-169290000D02*
X57150000Y-168850000D01*
X56710000Y-169700000D02*
X56710000Y-169290000D01*
%TO.N,/OverTemp*%
X48250000Y-168000000D02*
X47750000Y-168500000D01*
X50750000Y-168000000D02*
X48250000Y-168000000D01*
X52273716Y-167965000D02*
X50785000Y-167965000D01*
X52500000Y-168191284D02*
X52273716Y-167965000D01*
X50785000Y-167965000D02*
X50750000Y-168000000D01*
X52500000Y-168808716D02*
X52500000Y-168191284D01*
X52726284Y-169035000D02*
X52500000Y-168808716D01*
X54365000Y-169035000D02*
X52726284Y-169035000D01*
X55650000Y-168337500D02*
X55062500Y-168337500D01*
X55062500Y-168337500D02*
X54365000Y-169035000D01*
%TO.N,Net-(U4-PA2)*%
X56150000Y-168884589D02*
X56150000Y-168669178D01*
X54550000Y-169750000D02*
X55200000Y-169100000D01*
X55200000Y-169100000D02*
X55934589Y-169100000D01*
X55934589Y-169100000D02*
X56150000Y-168884589D01*
X53010000Y-169750000D02*
X54550000Y-169750000D01*
%TO.N,/bat*%
X53317000Y-172063716D02*
X53953284Y-172700000D01*
X53317000Y-171295000D02*
X53317000Y-172063716D01*
X53852000Y-170760000D02*
X53317000Y-171295000D01*
%TO.N,Net-(U3-bms)*%
X55950000Y-173250000D02*
X57000000Y-173250000D01*
X55400000Y-172700000D02*
X55950000Y-173250000D01*
X55010000Y-172700000D02*
X55400000Y-172700000D01*
%TO.N,/bat*%
X54894000Y-170770000D02*
X53862000Y-170770000D01*
X55429000Y-170235000D02*
X54894000Y-170770000D01*
X55973716Y-170235000D02*
X55429000Y-170235000D01*
X56650000Y-168780569D02*
X56175000Y-169255569D01*
X56175000Y-170033716D02*
X55973716Y-170235000D01*
X56650000Y-168337500D02*
X56650000Y-168780569D01*
X56175000Y-169255569D02*
X56175000Y-170033716D01*
D48*
%TO.N,GND*%
X53902000Y-171730000D02*
X55250000Y-171730000D01*
X53852000Y-171780000D02*
X53902000Y-171730000D01*
D49*
%TO.N,/PWR_Mic*%
X54100000Y-166150000D02*
X54962500Y-166150000D01*
X52850000Y-167400000D02*
X54100000Y-166150000D01*
X50650000Y-167400000D02*
X52850000Y-167400000D01*
X50550000Y-167500000D02*
X50650000Y-167400000D01*
D48*
%TO.N,GND*%
X63250000Y-160000000D02*
X64500000Y-160000000D01*
X53425000Y-158500000D02*
X54050000Y-159125000D01*
D49*
X50500000Y-164254000D02*
X50506829Y-164256828D01*
D47*
X45900000Y-172900000D02*
X46300000Y-172500000D01*
D50*
X74260000Y-160090000D02*
X74260000Y-160500000D01*
D48*
X53500000Y-161270000D02*
X53730000Y-161500000D01*
D49*
X54962500Y-163150000D02*
X54150000Y-163150000D01*
X50500000Y-163746000D02*
X50500000Y-164254000D01*
D48*
X54050000Y-159125000D02*
X54050000Y-159600000D01*
D50*
X75100000Y-159250000D02*
X74260000Y-160090000D01*
D48*
X79545000Y-157600000D02*
X79110000Y-157165000D01*
X55500000Y-159510000D02*
X55500000Y-160000000D01*
X64500000Y-160000000D02*
X64750000Y-159750000D01*
X61225000Y-157000000D02*
X62000000Y-157000000D01*
X62480000Y-173309999D02*
X62079999Y-173710000D01*
X56000000Y-172500000D02*
X56000000Y-171730000D01*
X56750000Y-172500000D02*
X56750000Y-171980000D01*
D47*
X72000000Y-165510000D02*
X72490000Y-165510000D01*
D49*
X49913001Y-164254000D02*
X49913001Y-164539966D01*
D50*
X75100000Y-159050000D02*
X75100000Y-159250000D01*
D48*
X46900000Y-158600000D02*
X47580000Y-158600000D01*
X61750000Y-173750000D02*
X61710000Y-173710000D01*
X52020000Y-164770000D02*
X52020000Y-164500000D01*
X53000000Y-158500000D02*
X53250000Y-158500000D01*
D49*
X50500000Y-163250000D02*
X50000000Y-162750000D01*
D48*
X59520000Y-173520000D02*
X59520000Y-173000000D01*
D51*
X40600000Y-161750000D02*
X40600000Y-162466667D01*
D48*
X60040000Y-173710000D02*
X60000000Y-173750000D01*
X72250000Y-167000000D02*
X73225000Y-167000000D01*
X79110000Y-157165000D02*
X79110000Y-157000000D01*
X52450000Y-157400000D02*
X52450000Y-157950000D01*
X51000000Y-158000000D02*
X51000000Y-158520000D01*
X68050000Y-173200000D02*
X68750000Y-172500000D01*
X78300000Y-166825000D02*
X79075000Y-166825000D01*
D49*
X51086999Y-164254000D02*
X51086999Y-164539966D01*
D48*
X47580000Y-158600000D02*
X48000000Y-159020000D01*
X59500000Y-171910000D02*
X59500000Y-172500000D01*
D49*
X65230000Y-164750000D02*
X65750000Y-164750000D01*
D48*
X52450000Y-157950000D02*
X53000000Y-158500000D01*
X79400000Y-162000000D02*
X78825000Y-162000000D01*
D52*
X70050000Y-160050000D02*
X69750000Y-159750000D01*
D48*
X54000000Y-161500000D02*
X53520000Y-161520000D01*
X48750000Y-162500000D02*
X48750000Y-162750000D01*
X51000000Y-158520000D02*
X51330000Y-158520000D01*
X57750000Y-157250000D02*
X57025000Y-157250000D01*
X61790000Y-173710000D02*
X61750000Y-173750000D01*
X52730000Y-161500000D02*
X52500000Y-161270000D01*
X79075000Y-166825000D02*
X79250000Y-167000000D01*
X62750000Y-172500000D02*
X63520000Y-171730000D01*
X63520000Y-171730000D02*
X63750000Y-171730000D01*
D47*
X40600000Y-162466667D02*
X40833333Y-162700000D01*
D48*
X75100000Y-159050000D02*
X75775000Y-159725000D01*
X47050000Y-171200000D02*
X47760000Y-171200000D01*
D52*
X70475000Y-160050000D02*
X70050000Y-160050000D01*
D48*
X66590000Y-170550000D02*
X67000000Y-170960000D01*
X67700000Y-173200000D02*
X68050000Y-173200000D01*
X55500000Y-160000000D02*
X55750000Y-160250000D01*
X57290000Y-159750000D02*
X57540000Y-160000000D01*
X59710000Y-173710000D02*
X59520000Y-173520000D01*
D49*
X50500000Y-164254000D02*
X50493171Y-164256828D01*
X75000000Y-164340000D02*
X74215000Y-165125000D01*
D48*
X51330000Y-158520000D02*
X52450000Y-157400000D01*
D49*
X50500000Y-163250000D02*
X50750000Y-163000000D01*
D48*
X53730000Y-161500000D02*
X54000000Y-161500000D01*
X61000000Y-157225000D02*
X61225000Y-157000000D01*
X66300000Y-170550000D02*
X66590000Y-170550000D01*
D49*
X47750000Y-169000000D02*
X48300000Y-169000000D01*
D48*
X50500000Y-169480000D02*
X51230000Y-169480000D01*
X62079999Y-173710000D02*
X61790000Y-173710000D01*
X52450000Y-156500000D02*
X52770000Y-156180000D01*
X47760000Y-171200000D02*
X48000000Y-170960000D01*
X55250000Y-171750000D02*
X55250000Y-171730000D01*
X61000000Y-157225000D02*
X61000000Y-156500000D01*
D49*
X59150000Y-161462500D02*
X59150000Y-164150000D01*
D48*
X78825000Y-162000000D02*
X78300000Y-161475000D01*
X62480000Y-170230000D02*
X62480000Y-169750000D01*
X52500000Y-165250000D02*
X52020000Y-164770000D01*
X53020000Y-161520000D02*
X53000000Y-161500000D01*
X52450000Y-156500000D02*
X52450000Y-157400000D01*
X59960000Y-173710000D02*
X59710000Y-173710000D01*
D47*
X45400000Y-172900000D02*
X45900000Y-172900000D01*
X23100000Y-164684000D02*
X24384000Y-163400000D01*
D49*
X48300000Y-169000000D02*
X48500000Y-169200000D01*
D48*
X62480000Y-160000000D02*
X63250000Y-160000000D01*
X62750000Y-170500000D02*
X62480000Y-170230000D01*
X53250000Y-158500000D02*
X53425000Y-158500000D01*
D49*
X56000000Y-171730000D02*
X57000000Y-171730000D01*
X54150000Y-163150000D02*
X54000000Y-163000000D01*
D48*
X62980000Y-169250000D02*
X63270000Y-169250000D01*
D49*
X50500000Y-163250000D02*
X50500000Y-163746000D01*
D48*
X53000000Y-161500000D02*
X52730000Y-161500000D01*
X75775000Y-159725000D02*
X76300000Y-159725000D01*
D49*
X54000000Y-163000000D02*
X52500000Y-163000000D01*
D48*
X59500000Y-172500000D02*
X59500000Y-172980000D01*
X60000000Y-173750000D02*
X59960000Y-173710000D01*
D49*
X50000000Y-162750000D02*
X48750000Y-162750000D01*
X72000000Y-161000000D02*
X72000000Y-161725000D01*
X50750000Y-163000000D02*
X52500000Y-163000000D01*
D48*
X61710000Y-173710000D02*
X60040000Y-173710000D01*
X62480000Y-173000000D02*
X62750000Y-172730000D01*
X62480000Y-173000000D02*
X62480000Y-173309999D01*
D49*
X74215000Y-165125000D02*
X73565000Y-165125000D01*
D48*
X64000000Y-159775000D02*
X64725000Y-159775000D01*
D49*
X50493171Y-164256828D02*
X50000000Y-164750000D01*
D48*
X57000000Y-156500000D02*
X57000000Y-157225000D01*
X79080000Y-158065000D02*
X79080000Y-158200000D01*
D52*
X69750000Y-159750000D02*
X69750000Y-159000000D01*
D48*
X55250000Y-171730000D02*
X57000000Y-171730000D01*
D47*
X72875000Y-165125000D02*
X73565000Y-165125000D01*
D48*
X53520000Y-161520000D02*
X53020000Y-161520000D01*
X62750000Y-172730000D02*
X62750000Y-172500000D01*
X63270000Y-169250000D02*
X63500000Y-169480000D01*
X56750000Y-159750000D02*
X57290000Y-159750000D01*
X67250000Y-167000000D02*
X67000000Y-167250000D01*
X46900000Y-158600000D02*
X46300000Y-158000000D01*
D47*
X72490000Y-165510000D02*
X72875000Y-165125000D01*
D48*
X62480000Y-169750000D02*
X62980000Y-169250000D01*
X79545000Y-157600000D02*
X79080000Y-158065000D01*
D49*
X50506829Y-164256828D02*
X51000000Y-164750000D01*
D48*
X64725000Y-159775000D02*
X64750000Y-159750000D01*
X56750000Y-171980000D02*
X57000000Y-171730000D01*
X56000000Y-172500000D02*
X55250000Y-171750000D01*
X52770000Y-156180000D02*
X52770000Y-155750000D01*
X51230000Y-169480000D02*
X51250000Y-169500000D01*
D49*
X49913001Y-164539966D02*
G75*
G03*
X49999990Y-164750010I296999J-34D01*
G01*
X51086999Y-164539966D02*
G75*
G02*
X51000010Y-164750010I-296999J-34D01*
G01*
D50*
%TO.N,Net-(AE1-PCB_Trace)*%
X39230000Y-163730000D02*
X38500000Y-163000000D01*
X38500000Y-163000000D02*
X38500000Y-161750000D01*
X39470000Y-163730000D02*
X39230000Y-163730000D01*
D48*
%TO.N,Net-(U3-bat)*%
X71094196Y-162750000D02*
X71819196Y-163475000D01*
X70250000Y-163250000D02*
X71775000Y-163250000D01*
D49*
X73565000Y-162875000D02*
X72600000Y-162875000D01*
X72600000Y-162875000D02*
X72000000Y-163475000D01*
D48*
X70750000Y-162750000D02*
X71094196Y-162750000D01*
D49*
X73565000Y-163325000D02*
X72150000Y-163325000D01*
%TO.N,/Smps*%
X61510000Y-157990000D02*
X62500000Y-157990000D01*
X61000000Y-158500000D02*
X61510000Y-157990000D01*
X61000000Y-159250000D02*
X60150000Y-160100000D01*
X60150000Y-160100000D02*
X60150000Y-161462500D01*
X61000000Y-158775000D02*
X61000000Y-159250000D01*
%TO.N,/usb*%
X61837500Y-163650000D02*
X64140000Y-163650000D01*
X64240000Y-163750000D02*
X64240000Y-164720000D01*
%TO.N,/Vddrf*%
X53500000Y-162230000D02*
X53944178Y-162230000D01*
X54364178Y-162650000D02*
X54962500Y-162650000D01*
D48*
X53500000Y-162230000D02*
X52500000Y-162230000D01*
X51280000Y-162230000D02*
X53500000Y-162230000D01*
D49*
X53944178Y-162230000D02*
X54364178Y-162650000D01*
D48*
%TO.N,Net-(J2-Shield)*%
X77050000Y-157670500D02*
X77590500Y-157670500D01*
X77590500Y-157670500D02*
X78120000Y-158200000D01*
X77050000Y-157670500D02*
X77419500Y-157670500D01*
X77419500Y-157670500D02*
X78090000Y-157000000D01*
D47*
%TO.N,/esc*%
X51000000Y-173260000D02*
X50460000Y-173260000D01*
X50460000Y-173260000D02*
X49700000Y-172500000D01*
%TO.N,Net-(U4-PC14)*%
X62100000Y-172150000D02*
X62100000Y-171400000D01*
X61000000Y-169259589D02*
X61000000Y-170500000D01*
X61520000Y-173000000D02*
X61520000Y-172730000D01*
X61520000Y-172730000D02*
X62100000Y-172150000D01*
X60650000Y-168909589D02*
X61000000Y-169259589D01*
X60650000Y-168337500D02*
X60650000Y-168909589D01*
X61000000Y-170500000D02*
X62000000Y-171500000D01*
%TO.N,Net-(U4-PC15)*%
X60150000Y-168900000D02*
X60720000Y-169470000D01*
X60720000Y-169470000D02*
X60720000Y-172760000D01*
X60150000Y-168337500D02*
X60150000Y-168900000D01*
X60720000Y-172760000D02*
X60480000Y-173000000D01*
D49*
%TO.N,Net-(U2-ADD0)*%
X49250000Y-169000000D02*
X49250000Y-168500000D01*
X50500000Y-168520000D02*
X51970000Y-168520000D01*
X49250000Y-168500000D02*
X50480000Y-168500000D01*
D53*
%TO.N,/osc1*%
X54850000Y-158200000D02*
X54850000Y-160350000D01*
D47*
X53730000Y-155750000D02*
X53730000Y-157080000D01*
D53*
X54850000Y-160350000D02*
X55650000Y-161150000D01*
X54050000Y-157400000D02*
X54850000Y-158200000D01*
%TO.N,/osc2*%
X54525000Y-160525000D02*
X55250000Y-161250000D01*
X53375000Y-160525000D02*
X54525000Y-160525000D01*
D47*
X51000000Y-159480000D02*
X52330000Y-159480000D01*
D53*
X52450000Y-159600000D02*
X53375000Y-160525000D01*
X55250000Y-161862500D02*
X54962500Y-162150000D01*
X55250000Y-161250000D02*
X55250000Y-161862500D01*
D49*
%TO.N,/Vdda*%
X57465000Y-170305000D02*
X56880000Y-170890000D01*
X57650000Y-169045478D02*
X57465000Y-169230478D01*
X57650000Y-168337500D02*
X57650000Y-169045478D01*
X57465000Y-169230478D02*
X57465000Y-170305000D01*
X58000000Y-170760000D02*
X56010000Y-170760000D01*
D48*
%TO.N,/ldo*%
X78300000Y-165290346D02*
X76380346Y-167210000D01*
D49*
X61000000Y-160520000D02*
X61000000Y-160500000D01*
X61020000Y-160500000D02*
X61520000Y-160000000D01*
D48*
X76380346Y-167210000D02*
X75150000Y-167210000D01*
X63250000Y-159000000D02*
X63250000Y-158975000D01*
D49*
X62630000Y-167650000D02*
X62980000Y-168000000D01*
D48*
X50750000Y-160750000D02*
X50250000Y-161250000D01*
X73840100Y-168519900D02*
X73840100Y-168699900D01*
D49*
X60650000Y-161462500D02*
X60650000Y-160870000D01*
X61832341Y-169082341D02*
X61832341Y-169437659D01*
X53887855Y-164418651D02*
X54156506Y-164150000D01*
D48*
X72565000Y-168525000D02*
X71250000Y-167210000D01*
D49*
X63000000Y-168000000D02*
X63000000Y-168020000D01*
D54*
X78300000Y-164890000D02*
X78300000Y-165275000D01*
D49*
X61837500Y-167650000D02*
X62630000Y-167650000D01*
X63000000Y-168020000D02*
X63500000Y-168520000D01*
D48*
X63250000Y-158975000D02*
X64000000Y-158225000D01*
X50250000Y-161250000D02*
X49647610Y-161250000D01*
X73665200Y-168525000D02*
X72565000Y-168525000D01*
X50750000Y-160750000D02*
X50760000Y-160750000D01*
D49*
X62500000Y-159010000D02*
X63215000Y-159010000D01*
X63225000Y-159000000D02*
X63250000Y-159000000D01*
D54*
X77185000Y-163775000D02*
X78300000Y-164890000D01*
D48*
X71250000Y-167210000D02*
X70210000Y-167210000D01*
D49*
X60650000Y-160870000D02*
X61000000Y-160520000D01*
X63215000Y-159010000D02*
X63225000Y-159000000D01*
D48*
X75150000Y-167210000D02*
X73840100Y-168519900D01*
X50760000Y-160750000D02*
X51250000Y-161240000D01*
D49*
X53098651Y-164418651D02*
X53668651Y-164418651D01*
X61520000Y-159990000D02*
X62500000Y-159010000D01*
X61832341Y-169082341D02*
X61150000Y-168400000D01*
D48*
X73840100Y-168699900D02*
X73665200Y-168525000D01*
D49*
X57690150Y-171420181D02*
X58000000Y-171730031D01*
X54156506Y-164150000D02*
X54962500Y-164150000D01*
D54*
X76435000Y-163775000D02*
X77185000Y-163775000D01*
D49*
X62980000Y-168000000D02*
X63000000Y-168000000D01*
X53668651Y-164418651D02*
X53887855Y-164418651D01*
X61000000Y-160500000D02*
X61020000Y-160500000D01*
D48*
%TO.N,Net-(U4-VFBSMPS)*%
X58500000Y-159235000D02*
X58250000Y-158985000D01*
X57210000Y-158985000D02*
X58000000Y-158985000D01*
X57000000Y-158775000D02*
X57210000Y-158985000D01*
D49*
X58250000Y-158985000D02*
X58000000Y-158985000D01*
D48*
X58500000Y-160000000D02*
X58500000Y-159235000D01*
D49*
X58650000Y-161462500D02*
X58650000Y-160150000D01*
D47*
%TO.N,/RST*%
X58150000Y-168337500D02*
X58150000Y-169600000D01*
X58150000Y-169600000D02*
X58000000Y-169750000D01*
X66500000Y-169500000D02*
X67300000Y-169500000D01*
D49*
%TO.N,Net-(U3-sys)*%
X77175000Y-163325000D02*
X77700000Y-162800000D01*
X76435000Y-163325000D02*
X77175000Y-163325000D01*
X77700000Y-162800000D02*
X78075000Y-162800000D01*
D52*
%TO.N,/5v*%
X69050000Y-160050000D02*
X70470000Y-161470000D01*
X71250000Y-162163342D02*
X71556658Y-162470000D01*
X71250000Y-162000466D02*
X71250000Y-162163342D01*
X68625000Y-160050000D02*
X69050000Y-160050000D01*
D48*
X77075000Y-160500000D02*
X76300000Y-161275000D01*
D52*
X70719534Y-161470000D02*
X71250000Y-162000466D01*
D49*
X76435000Y-162875000D02*
X76435000Y-161410000D01*
D48*
X79500000Y-160500000D02*
X77075000Y-160500000D01*
D52*
X74040000Y-162470000D02*
X75010000Y-161500000D01*
X71556658Y-162470000D02*
X74040000Y-162470000D01*
X70470000Y-161470000D02*
X70719534Y-161470000D01*
D49*
X75010000Y-161500000D02*
X77025000Y-161500000D01*
D50*
%TO.N,Net-(FL1-OUT)*%
X49913001Y-163746000D02*
X40614000Y-163746000D01*
D47*
%TO.N,/M_clk*%
X52565953Y-167030000D02*
X53945953Y-165650000D01*
X47300000Y-167957700D02*
X48227700Y-167030000D01*
X48227700Y-167030000D02*
X52565953Y-167030000D01*
X53945953Y-165650000D02*
X54962500Y-165650000D01*
D49*
%TO.N,Net-(U4-VLXSMPS)*%
X59650000Y-161462500D02*
X59650000Y-158937500D01*
%TO.N,Net-(L2-Pad2)*%
X58250000Y-158015000D02*
X58485000Y-158015000D01*
X58485000Y-158015000D02*
X59287500Y-157212500D01*
D47*
%TO.N,/M_data*%
X53997963Y-165150000D02*
X54962500Y-165150000D01*
X46337788Y-168262212D02*
X46400000Y-168200000D01*
X46400000Y-168193019D02*
X47993019Y-166600000D01*
X45978272Y-168262212D02*
X46337788Y-168262212D01*
X52547963Y-166600000D02*
X53997963Y-165150000D01*
X47993019Y-166600000D02*
X52547963Y-166600000D01*
X46400000Y-168200000D02*
X46400000Y-168193019D01*
D49*
%TO.N,Net-(U3-iset)*%
X73565000Y-164225000D02*
X72980478Y-164225000D01*
X72980478Y-164225000D02*
X72925477Y-164280000D01*
X72210000Y-164280000D02*
X72000000Y-164490000D01*
X72925477Y-164280000D02*
X72210000Y-164280000D01*
D47*
%TO.N,/chg*%
X74570000Y-166310000D02*
X72811510Y-166310000D01*
D53*
X77300000Y-165550000D02*
X77300000Y-164960000D01*
D47*
X72811510Y-166310000D02*
X72721510Y-166400000D01*
X61150000Y-160815478D02*
X61150000Y-161462500D01*
X74790000Y-166530000D02*
X74570000Y-166310000D01*
X68109536Y-162095000D02*
X67446181Y-162095000D01*
X61315000Y-160650478D02*
X61150000Y-160815478D01*
X68750000Y-163816224D02*
X68750000Y-162735464D01*
X71333776Y-166400000D02*
X68750000Y-163816224D01*
X72721510Y-166400000D02*
X71333776Y-166400000D01*
X65567445Y-159782555D02*
X64699522Y-160650478D01*
X64699522Y-160650478D02*
X61315000Y-160650478D01*
D53*
X77300000Y-164960000D02*
X77015000Y-164675000D01*
D47*
X76320000Y-166530000D02*
X74790000Y-166530000D01*
X68750000Y-162735464D02*
X68109536Y-162095000D01*
X77300000Y-165550000D02*
X76320000Y-166530000D01*
D53*
X77015000Y-164675000D02*
X76435000Y-164675000D01*
D47*
%TO.N,Net-(U3-bms)*%
X70215000Y-163965000D02*
X69750000Y-163500000D01*
X72795000Y-163965000D02*
X70215000Y-163965000D01*
X72985000Y-163775000D02*
X72795000Y-163965000D01*
X73565000Y-163775000D02*
X72985000Y-163775000D01*
X69750000Y-163500000D02*
X69750000Y-161750000D01*
D49*
%TO.N,/PWR_Tmp*%
X53010000Y-168500000D02*
X54000000Y-168500000D01*
X54000000Y-168500000D02*
X54850000Y-167650000D01*
%TO.N,Net-(J2-ID)*%
X73990000Y-161500000D02*
X73250000Y-161500000D01*
X73250000Y-160510000D02*
X73250000Y-161500000D01*
%TO.N,Net-(U4-PH3)*%
X59650000Y-168337500D02*
X59650000Y-170640000D01*
D47*
%TO.N,/list*%
X48740000Y-160000000D02*
X49510000Y-159230000D01*
X49510000Y-159230000D02*
X49510000Y-157690000D01*
%TO.N,/enter*%
X64050000Y-172750000D02*
X64300000Y-172500000D01*
X63500000Y-172750000D02*
X64050000Y-172750000D01*
X64300000Y-172500000D02*
X65300000Y-172500000D01*
%TO.N,Net-(BZ1-+)*%
X49600000Y-166000000D02*
X50490000Y-166000000D01*
%TO.N,/dose*%
X24500000Y-167600000D02*
X24500000Y-166800000D01*
%TO.N,Net-(U4-PB2)*%
X54101983Y-164650000D02*
X54962500Y-164650000D01*
X52500000Y-166000000D02*
X53250000Y-165250000D01*
X51510000Y-166000000D02*
X52500000Y-166000000D01*
X53501983Y-165250000D02*
X54101983Y-164650000D01*
X53250000Y-165250000D02*
X53501983Y-165250000D01*
%TO.N,Net-(U3-ntc)*%
X69000000Y-161750000D02*
X69310000Y-162060000D01*
X72347739Y-165000000D02*
X72672739Y-164675000D01*
D49*
X56369523Y-155685000D02*
X61970822Y-155685000D01*
X64399178Y-157185000D02*
X64880478Y-157185000D01*
X63005000Y-156245000D02*
X63459178Y-156245000D01*
D47*
X72672739Y-164675000D02*
X73565000Y-164675000D01*
X70854020Y-165000000D02*
X72347739Y-165000000D01*
D49*
X63459178Y-156245000D02*
X64399178Y-157185000D01*
X64880478Y-157185000D02*
X65175478Y-157480000D01*
X62995000Y-156255000D02*
X63005000Y-156245000D01*
X55500000Y-158490000D02*
X55500000Y-156554522D01*
X61970822Y-155685000D02*
X62540822Y-156255000D01*
D47*
X69310000Y-162060000D02*
X69310000Y-163455980D01*
D49*
X55500000Y-156554522D02*
X56369523Y-155685000D01*
D47*
X69310000Y-163455980D02*
X70854020Y-165000000D01*
D49*
X62540822Y-156255000D02*
X62995000Y-156255000D01*
D47*
%TO.N,/swclk*%
X66500000Y-164500000D02*
X67000000Y-165000000D01*
X63250000Y-164150000D02*
X63250000Y-164255000D01*
X67000000Y-165000000D02*
X67750000Y-165000000D01*
X61837500Y-164150000D02*
X63250000Y-164150000D01*
%TO.N,/swdio*%
X67750000Y-163000000D02*
X65750000Y-163000000D01*
X65750000Y-163000000D02*
X65600000Y-163150000D01*
X65600000Y-163150000D02*
X61837500Y-163150000D01*
D55*
%TO.N,/USB_D_P*%
X67179914Y-160210000D02*
X67710000Y-160210000D01*
X68087500Y-160587500D02*
X68700000Y-160587500D01*
X67710000Y-160210000D02*
X68087500Y-160587500D01*
X62538751Y-162605000D02*
X64784914Y-162605000D01*
X64784914Y-162605000D02*
X67179914Y-160210000D01*
X61837500Y-162650000D02*
X62493751Y-162650000D01*
X62493751Y-162650000D02*
X62538751Y-162605000D01*
%TO.N,/USB_P*%
X70766624Y-160587500D02*
X71144123Y-160210001D01*
X73838275Y-158378189D02*
X73838275Y-158881725D01*
X70400000Y-160587500D02*
X70766624Y-160587500D01*
X71144123Y-160210001D02*
X71469827Y-160210001D01*
X71469827Y-160210001D02*
X71960000Y-159719828D01*
X71960000Y-159719828D02*
X71960000Y-158679914D01*
X73838275Y-158881725D02*
X73670000Y-159050000D01*
X71960000Y-158679914D02*
X72634914Y-158005000D01*
X72634914Y-158005000D02*
X73465086Y-158005000D01*
X73465086Y-158005000D02*
X73838275Y-158378189D01*
%TO.N,/USB_N*%
X71115626Y-159800000D02*
X71300000Y-159800000D01*
X74248275Y-158208361D02*
X74248275Y-158881725D01*
X71550000Y-159550000D02*
X71550000Y-158510086D01*
X70828126Y-159512500D02*
X71115626Y-159800000D01*
X71550000Y-158510086D02*
X72465086Y-157595000D01*
X74248275Y-158881725D02*
X74416550Y-159050000D01*
X73634914Y-157595000D02*
X74248275Y-158208361D01*
X72465086Y-157595000D02*
X73634914Y-157595000D01*
X71300000Y-159800000D02*
X71550000Y-159550000D01*
X70400000Y-159512500D02*
X70828126Y-159512500D01*
%TO.N,/USB_D_N*%
X68087500Y-159512500D02*
X68700000Y-159512500D01*
X67010086Y-159800000D02*
X67800000Y-159800000D01*
X64615086Y-162195000D02*
X67010086Y-159800000D01*
X62538751Y-162195000D02*
X64615086Y-162195000D01*
X61837500Y-162150000D02*
X62493751Y-162150000D01*
X62493751Y-162150000D02*
X62538751Y-162195000D01*
X67800000Y-159800000D02*
X68087500Y-159512500D01*
D47*
%TO.N,/Temp_scl*%
X51750000Y-173500000D02*
X52280000Y-174030000D01*
X58965000Y-170185000D02*
X59150000Y-170000000D01*
X54664681Y-174500000D02*
X57500000Y-174500000D01*
X58965000Y-173035000D02*
X58965000Y-170185000D01*
X48100000Y-169500000D02*
X49000000Y-170400000D01*
X51375000Y-171125000D02*
X51750000Y-171500000D01*
X49000000Y-170664681D02*
X49460319Y-171125000D01*
X51750000Y-171500000D02*
X51750000Y-173500000D01*
X57500000Y-174500000D02*
X58965000Y-173035000D01*
X54194681Y-174030000D02*
X54664681Y-174500000D01*
X49000000Y-170400000D02*
X49000000Y-170664681D01*
X59150000Y-170000000D02*
X59150000Y-168337500D01*
X47750000Y-169500000D02*
X48100000Y-169500000D01*
X49460319Y-171125000D02*
X51375000Y-171125000D01*
X52280000Y-174030000D02*
X54194681Y-174030000D01*
%TO.N,/Temp_sda*%
X54470000Y-173720000D02*
X54750000Y-174000000D01*
X52470000Y-173720000D02*
X54470000Y-173720000D01*
X52215000Y-171215000D02*
X52215000Y-173465000D01*
X52215000Y-173465000D02*
X52470000Y-173720000D01*
X49725000Y-169500000D02*
X49975000Y-169750000D01*
X49975000Y-170307341D02*
X50512659Y-170845000D01*
X58650000Y-172350000D02*
X58650000Y-168337500D01*
X54750000Y-174000000D02*
X57000000Y-174000000D01*
X51845000Y-170845000D02*
X52215000Y-171215000D01*
X50512659Y-170845000D02*
X51845000Y-170845000D01*
X49975000Y-169750000D02*
X49975000Y-170307341D01*
X49250000Y-169500000D02*
X49725000Y-169500000D01*
X57000000Y-174000000D02*
X58650000Y-172350000D01*
%TO.N,/cen*%
X63250000Y-157500000D02*
X61750000Y-156000000D01*
X69030000Y-163571960D02*
X71453040Y-165995000D01*
X72645980Y-165750000D02*
X75810000Y-165750000D01*
X66300000Y-159050000D02*
X66300000Y-158635319D01*
X65714681Y-158050000D02*
X65300000Y-158050000D01*
X56835319Y-156000000D02*
X56250000Y-156585319D01*
X56250000Y-160045926D02*
X57150000Y-160945926D01*
X75810000Y-165750000D02*
X76435000Y-165125000D01*
X61750000Y-156000000D02*
X56835319Y-156000000D01*
X65300000Y-158050000D02*
X64750000Y-157500000D01*
X67750000Y-161500000D02*
X68000000Y-161500000D01*
X57150000Y-160945926D02*
X57150000Y-161462500D01*
X66300000Y-158635319D02*
X65714681Y-158050000D01*
X71453040Y-165995000D02*
X72400980Y-165995000D01*
X68000000Y-161500000D02*
X69030000Y-162530000D01*
X56250000Y-156585319D02*
X56250000Y-160045926D01*
X64750000Y-157500000D02*
X63250000Y-157500000D01*
X69030000Y-162530000D02*
X69030000Y-163571960D01*
X72400980Y-165995000D02*
X72645980Y-165750000D01*
%TO.N,/res*%
X67845000Y-171725000D02*
X66225000Y-171725000D01*
X66225000Y-171725000D02*
X65800000Y-171300000D01*
X62952010Y-166650000D02*
X61837500Y-166650000D01*
X64750000Y-168447990D02*
X62952010Y-166650000D01*
X69778645Y-171528645D02*
X68041355Y-171528645D01*
X65800000Y-169800000D02*
X64750000Y-168750000D01*
X77000000Y-170250000D02*
X76000000Y-171250000D01*
X68041355Y-171528645D02*
X67845000Y-171725000D01*
X64750000Y-168750000D02*
X64750000Y-168447990D01*
X76000000Y-171250000D02*
X70100000Y-171250000D01*
X65800000Y-171300000D02*
X65800000Y-169800000D01*
X70100000Y-171250000D02*
X69800000Y-171550000D01*
X69800000Y-171550000D02*
X69778645Y-171528645D01*
%TO.N,/dc*%
X66889339Y-168200000D02*
X66550000Y-168200000D01*
X68750000Y-169914681D02*
X68750000Y-168550000D01*
X66969339Y-168280000D02*
X66889339Y-168200000D01*
X68750000Y-168550000D02*
X68480000Y-168280000D01*
X66550000Y-168200000D02*
X66250000Y-168500000D01*
X68480000Y-168280000D02*
X66969339Y-168280000D01*
X75447659Y-170720000D02*
X69555319Y-170720000D01*
X76417659Y-169750000D02*
X75447659Y-170720000D01*
X63150000Y-165650000D02*
X61837500Y-165650000D01*
X78750000Y-169750000D02*
X76417659Y-169750000D01*
X64000000Y-166500000D02*
X63150000Y-165650000D01*
X65500000Y-166750000D02*
X65250000Y-166500000D01*
X69555319Y-170720000D02*
X68750000Y-169914681D01*
X65250000Y-166500000D02*
X64000000Y-166500000D01*
D50*
%TO.N,/RF*%
X51182999Y-163650000D02*
X51086999Y-163746000D01*
X54962500Y-163650000D02*
X51182999Y-163650000D01*
D47*
%TO.N,/busy*%
X64250000Y-169750000D02*
X64250000Y-168454074D01*
X71050000Y-172300000D02*
X71600000Y-171750000D01*
X71600000Y-171750000D02*
X76750000Y-171750000D01*
X77250000Y-171250000D02*
X76750000Y-171750000D01*
X64250000Y-168454074D02*
X62945926Y-167150000D01*
X64800000Y-171050000D02*
X64800000Y-170300000D01*
X64800000Y-170300000D02*
X64250000Y-169750000D01*
X62945926Y-167150000D02*
X61837500Y-167150000D01*
%TO.N,/cs*%
X62980319Y-164650000D02*
X61837500Y-164650000D01*
X69530331Y-169250000D02*
X70690331Y-170410000D01*
X70690331Y-170410000D02*
X74090000Y-170410000D01*
X65000000Y-165500000D02*
X64000000Y-165500000D01*
X64000000Y-165500000D02*
X63225000Y-164725000D01*
X63055319Y-164725000D02*
X62980319Y-164650000D01*
X63225000Y-164725000D02*
X63055319Y-164725000D01*
X69250000Y-169250000D02*
X69530331Y-169250000D01*
X74090000Y-170410000D02*
X75250000Y-169250000D01*
%TO.N,/D_sclk*%
X63895980Y-166000000D02*
X63045980Y-165150000D01*
X67085319Y-168000000D02*
X66500000Y-167414681D01*
X74001383Y-169470000D02*
X73612021Y-169470000D01*
X74285319Y-169550000D02*
X74081383Y-169550000D01*
X71000000Y-170000000D02*
X69000000Y-168000000D01*
X77659676Y-168704838D02*
X75130481Y-168704838D01*
X66500000Y-166500000D02*
X66000000Y-166000000D01*
X73082021Y-170000000D02*
X71000000Y-170000000D01*
X66000000Y-166000000D02*
X63895980Y-166000000D01*
X75130481Y-168704838D02*
X74285319Y-169550000D01*
X69000000Y-168000000D02*
X67085319Y-168000000D01*
X63045980Y-165150000D02*
X61837500Y-165150000D01*
X66500000Y-167414681D02*
X66500000Y-166500000D01*
X74081383Y-169550000D02*
X74001383Y-169470000D01*
X73612021Y-169470000D02*
X73082021Y-170000000D01*
%TO.N,/D_Mosi*%
X74034781Y-169169900D02*
X74310100Y-168894581D01*
X70854682Y-169190000D02*
X73688490Y-169190000D01*
X64341773Y-167591773D02*
X62900000Y-166150000D01*
X62900000Y-166150000D02*
X61837500Y-166150000D01*
X73708590Y-169169900D02*
X74034781Y-169169900D01*
X74310100Y-168887510D02*
X75402448Y-167795162D01*
X65548380Y-167591773D02*
X64341773Y-167591773D01*
X70082341Y-168417659D02*
X70854682Y-169190000D01*
X75402448Y-167795162D02*
X77409676Y-167795162D01*
X74310100Y-168894581D02*
X74310100Y-168887510D01*
X73688490Y-169190000D02*
X73708590Y-169169900D01*
%TO.N,/dose*%
X50875000Y-170375000D02*
X51365000Y-170375000D01*
X51365000Y-170375000D02*
X51990000Y-169750000D01*
%TO.N,Net-(U4-PA5)*%
X51000000Y-172240000D02*
X51000000Y-171750000D01*
X53995000Y-167745000D02*
X54590000Y-167150000D01*
D53*
X54962500Y-167150000D02*
X54595000Y-167150000D01*
D47*
X53500000Y-167745000D02*
X53995000Y-167745000D01*
%TO.N,Net-(U4-PA6)*%
X54350000Y-166650000D02*
X54962500Y-166650000D01*
X54000000Y-167000000D02*
X54350000Y-166650000D01*
D53*
X54363378Y-166650000D02*
X54962500Y-166650000D01*
%TD*%
%TA.AperFunction,Conductor*%
%TO.N,/ldo*%
G36*
X63006840Y-167519685D02*
G01*
X63027482Y-167536319D01*
X63713681Y-168222518D01*
X63747166Y-168283841D01*
X63750000Y-168310199D01*
X63750000Y-168698637D01*
X63730315Y-168765676D01*
X63713681Y-168786318D01*
X63617787Y-168882212D01*
X63556464Y-168915697D01*
X63486772Y-168910713D01*
X63468105Y-168901918D01*
X63424589Y-168876793D01*
X63351218Y-168857134D01*
X63322727Y-168849500D01*
X63322726Y-168849500D01*
X63073242Y-168849500D01*
X63053844Y-168847973D01*
X63000002Y-168839445D01*
X62999998Y-168839445D01*
X62946156Y-168847973D01*
X62928043Y-168849398D01*
X62927265Y-168849501D01*
X62920178Y-168851400D01*
X62907488Y-168854097D01*
X62873133Y-168859538D01*
X62866244Y-168863048D01*
X62842056Y-168872332D01*
X62825417Y-168876791D01*
X62825409Y-168876794D01*
X62779750Y-168903155D01*
X62779750Y-168903156D01*
X62758029Y-168915697D01*
X62734087Y-168929520D01*
X62734084Y-168929522D01*
X62659520Y-169004087D01*
X62659518Y-169004089D01*
X62446885Y-169216721D01*
X62410424Y-169253182D01*
X62349101Y-169286666D01*
X62322747Y-169289500D01*
X62296636Y-169289500D01*
X62296611Y-169289502D01*
X62272340Y-169292317D01*
X62272337Y-169292318D01*
X62172984Y-169336186D01*
X62096187Y-169412983D01*
X62052318Y-169512335D01*
X62052318Y-169512337D01*
X62052318Y-169512338D01*
X62049500Y-169536627D01*
X62049500Y-169733732D01*
X62049501Y-169876000D01*
X62029817Y-169943039D01*
X61977013Y-169988794D01*
X61925501Y-170000000D01*
X61339500Y-170000000D01*
X61272461Y-169980315D01*
X61226706Y-169927511D01*
X61215500Y-169876000D01*
X61215500Y-169216724D01*
X61215499Y-169216721D01*
X61197383Y-169172985D01*
X61197383Y-169172984D01*
X61182693Y-169137519D01*
X60948003Y-168902829D01*
X60914518Y-168841506D01*
X60914067Y-168790958D01*
X60925500Y-168733480D01*
X60925500Y-168125862D01*
X60945185Y-168058823D01*
X60961819Y-168038181D01*
X61113181Y-167886819D01*
X61174504Y-167853334D01*
X61200862Y-167850500D01*
X61214822Y-167850500D01*
X61258717Y-167841768D01*
X61258717Y-167841767D01*
X61258722Y-167841767D01*
X61308504Y-167808504D01*
X61341767Y-167758722D01*
X61350500Y-167714820D01*
X61350500Y-167700862D01*
X61370185Y-167633823D01*
X61386819Y-167613181D01*
X61463681Y-167536319D01*
X61525004Y-167502834D01*
X61551362Y-167500000D01*
X62939801Y-167500000D01*
X63006840Y-167519685D01*
G37*
%TD.AperFunction*%
%TD*%
%TA.AperFunction,Conductor*%
%TO.N,GND*%
G36*
X52566016Y-169963849D02*
G01*
X52590563Y-169997635D01*
X52635382Y-170099138D01*
X52635383Y-170099139D01*
X52635384Y-170099141D01*
X52710859Y-170174616D01*
X52744355Y-170189406D01*
X52808501Y-170217730D01*
X52811501Y-170218078D01*
X52832377Y-170220500D01*
X52930730Y-170220499D01*
X52988919Y-170239406D01*
X53024883Y-170288905D01*
X53024884Y-170350091D01*
X53000733Y-170389502D01*
X52914929Y-170475307D01*
X52854307Y-170535929D01*
X52821500Y-170615134D01*
X52821500Y-172725888D01*
X52811939Y-172765717D01*
X52811947Y-172765720D01*
X52811914Y-172765821D01*
X52810712Y-172770829D01*
X52809539Y-172773130D01*
X52789445Y-172899998D01*
X52789445Y-172900001D01*
X52809539Y-173026869D01*
X52809540Y-173026871D01*
X52867852Y-173141315D01*
X52867854Y-173141318D01*
X52958682Y-173232146D01*
X53073132Y-173290461D01*
X53157241Y-173303782D01*
X53182093Y-173307719D01*
X53198151Y-173315901D01*
X53217907Y-173307719D01*
X53238985Y-173304380D01*
X53326868Y-173290461D01*
X53441318Y-173232146D01*
X53532146Y-173141318D01*
X53532148Y-173141312D01*
X53536724Y-173135016D01*
X53539203Y-173136817D01*
X53572736Y-173103269D01*
X53633165Y-173093682D01*
X53687689Y-173121446D01*
X53690859Y-173124616D01*
X53728685Y-173141318D01*
X53788501Y-173167730D01*
X53792749Y-173168222D01*
X53812377Y-173170500D01*
X54167622Y-173170499D01*
X54191498Y-173167730D01*
X54289141Y-173124616D01*
X54364616Y-173049141D01*
X54407730Y-172951498D01*
X54407730Y-172951494D01*
X54409434Y-172947636D01*
X54450235Y-172902040D01*
X54510044Y-172889135D01*
X54566016Y-172913849D01*
X54590563Y-172947635D01*
X54635382Y-173049138D01*
X54635383Y-173049139D01*
X54635384Y-173049141D01*
X54710859Y-173124616D01*
X54748685Y-173141318D01*
X54808501Y-173167730D01*
X54812749Y-173168222D01*
X54832377Y-173170500D01*
X55187622Y-173170499D01*
X55211498Y-173167730D01*
X55309141Y-173124616D01*
X55344494Y-173089262D01*
X55399008Y-173061486D01*
X55459440Y-173071057D01*
X55484499Y-173089263D01*
X55685696Y-173290459D01*
X55827929Y-173432692D01*
X55907134Y-173465500D01*
X55992865Y-173465500D01*
X56245492Y-173465500D01*
X56303683Y-173484407D01*
X56339647Y-173533907D01*
X56339647Y-173595093D01*
X56315496Y-173634504D01*
X56194496Y-173755504D01*
X56139979Y-173783281D01*
X56124492Y-173784500D01*
X54880271Y-173784500D01*
X54822080Y-173765593D01*
X54810268Y-173755504D01*
X54592070Y-173537307D01*
X54512866Y-173504500D01*
X53233394Y-173504500D01*
X53205014Y-173495279D01*
X53166606Y-173504500D01*
X52600271Y-173504500D01*
X52542080Y-173485593D01*
X52530267Y-173475504D01*
X52459496Y-173404733D01*
X52431719Y-173350216D01*
X52430500Y-173334729D01*
X52430500Y-171172134D01*
X52397692Y-171092929D01*
X52337072Y-171032308D01*
X51967070Y-170662307D01*
X51887866Y-170629500D01*
X51654270Y-170629500D01*
X51596079Y-170610593D01*
X51560115Y-170561093D01*
X51560115Y-170499907D01*
X51584266Y-170460497D01*
X51795266Y-170249496D01*
X51849783Y-170221718D01*
X51865270Y-170220499D01*
X52167620Y-170220499D01*
X52167622Y-170220499D01*
X52191498Y-170217730D01*
X52289141Y-170174616D01*
X52364616Y-170099141D01*
X52407730Y-170001498D01*
X52407730Y-170001494D01*
X52409434Y-169997636D01*
X52450235Y-169952040D01*
X52510044Y-169939135D01*
X52566016Y-169963849D01*
G37*
%TD.AperFunction*%
%TA.AperFunction,Conductor*%
G36*
X48915460Y-162018907D02*
G01*
X48927272Y-162028995D01*
X48957670Y-162059393D01*
X49072120Y-162117708D01*
X49175111Y-162134020D01*
X49198987Y-162137802D01*
X49198988Y-162137802D01*
X49198989Y-162137802D01*
X49219083Y-162134619D01*
X49325856Y-162117708D01*
X49440306Y-162059393D01*
X49470704Y-162028995D01*
X49525221Y-162001219D01*
X49540707Y-162000000D01*
X50680500Y-162000000D01*
X50738691Y-162018907D01*
X50774655Y-162068407D01*
X50779500Y-162099000D01*
X50779500Y-162437619D01*
X50779501Y-162437622D01*
X50782270Y-162461500D01*
X50801209Y-162504391D01*
X50825384Y-162559141D01*
X50900859Y-162634616D01*
X50949680Y-162656173D01*
X50998501Y-162677730D01*
X51002749Y-162678222D01*
X51022377Y-162680500D01*
X51477622Y-162680499D01*
X51501498Y-162677730D01*
X51540522Y-162660499D01*
X51589358Y-162638936D01*
X51629347Y-162630500D01*
X52179893Y-162630500D01*
X52219879Y-162638934D01*
X52262338Y-162657682D01*
X52286627Y-162660500D01*
X52713372Y-162660499D01*
X52737662Y-162657682D01*
X52748190Y-162653033D01*
X52780119Y-162638936D01*
X52820107Y-162630500D01*
X53179893Y-162630500D01*
X53219879Y-162638934D01*
X53262338Y-162657682D01*
X53286627Y-162660500D01*
X53713372Y-162660499D01*
X53737662Y-162657682D01*
X53837016Y-162613813D01*
X53837020Y-162613808D01*
X53844585Y-162608628D01*
X53845671Y-162610213D01*
X53889865Y-162587684D01*
X53950299Y-162597243D01*
X53975376Y-162615458D01*
X54151813Y-162791895D01*
X54151814Y-162791897D01*
X54222281Y-162862364D01*
X54260418Y-162878160D01*
X54299799Y-162894473D01*
X54314348Y-162900500D01*
X54314351Y-162900501D01*
X54314354Y-162900501D01*
X54425529Y-162900501D01*
X54425537Y-162900500D01*
X54455439Y-162900500D01*
X54494203Y-162912258D01*
X54495383Y-162909411D01*
X54504390Y-162913142D01*
X54524911Y-162917223D01*
X54566520Y-162925500D01*
X54566521Y-162925500D01*
X55358479Y-162925500D01*
X55358480Y-162925500D01*
X55420609Y-162913142D01*
X55491065Y-162866065D01*
X55538142Y-162795609D01*
X55550500Y-162733480D01*
X55550500Y-162566520D01*
X55538142Y-162504391D01*
X55538142Y-162504390D01*
X55510475Y-162462984D01*
X55505140Y-162455000D01*
X55488532Y-162396114D01*
X55505141Y-162344998D01*
X55538142Y-162295609D01*
X55538142Y-162295608D01*
X55538566Y-162293479D01*
X55544724Y-162262517D01*
X55574619Y-162209133D01*
X55630184Y-162183516D01*
X55690194Y-162195452D01*
X55711826Y-162211826D01*
X57471004Y-163971004D01*
X57498781Y-164025521D01*
X57500000Y-164041008D01*
X57500000Y-167711875D01*
X57481093Y-167770066D01*
X57455953Y-167794223D01*
X57454952Y-167794891D01*
X57396054Y-167811464D01*
X57344997Y-167794858D01*
X57295609Y-167761857D01*
X57233482Y-167749500D01*
X57233480Y-167749500D01*
X57066520Y-167749500D01*
X57066517Y-167749500D01*
X57004391Y-167761857D01*
X56955001Y-167794859D01*
X56896113Y-167811467D01*
X56844999Y-167794859D01*
X56795608Y-167761857D01*
X56795609Y-167761857D01*
X56733482Y-167749500D01*
X56733480Y-167749500D01*
X56566520Y-167749500D01*
X56566517Y-167749500D01*
X56504391Y-167761857D01*
X56455001Y-167794859D01*
X56396113Y-167811467D01*
X56344999Y-167794859D01*
X56295608Y-167761857D01*
X56295609Y-167761857D01*
X56233482Y-167749500D01*
X56233480Y-167749500D01*
X56066520Y-167749500D01*
X56066517Y-167749500D01*
X56004391Y-167761857D01*
X55955001Y-167794859D01*
X55896113Y-167811467D01*
X55844999Y-167794859D01*
X55795608Y-167761857D01*
X55795609Y-167761857D01*
X55733482Y-167749500D01*
X55733480Y-167749500D01*
X55649500Y-167749500D01*
X55591309Y-167730593D01*
X55555345Y-167681093D01*
X55550500Y-167650500D01*
X55550500Y-167566520D01*
X55550499Y-167566517D01*
X55538142Y-167504390D01*
X55505141Y-167455002D01*
X55488532Y-167396114D01*
X55505141Y-167344998D01*
X55512193Y-167334445D01*
X55538142Y-167295609D01*
X55550500Y-167233480D01*
X55550500Y-167066520D01*
X55542223Y-167024911D01*
X55538142Y-167004390D01*
X55505141Y-166955002D01*
X55488532Y-166896114D01*
X55505141Y-166844998D01*
X55538142Y-166795609D01*
X55550500Y-166733480D01*
X55550500Y-166566520D01*
X55538142Y-166504391D01*
X55538142Y-166504390D01*
X55505141Y-166455002D01*
X55488532Y-166396114D01*
X55505141Y-166344998D01*
X55534549Y-166300987D01*
X55538142Y-166295609D01*
X55550500Y-166233480D01*
X55550500Y-166066520D01*
X55538142Y-166004391D01*
X55538142Y-166004390D01*
X55505141Y-165955002D01*
X55488532Y-165896114D01*
X55505141Y-165844998D01*
X55538142Y-165795609D01*
X55540594Y-165783281D01*
X55550500Y-165733480D01*
X55550500Y-165566520D01*
X55542223Y-165524911D01*
X55538142Y-165504390D01*
X55505141Y-165455002D01*
X55488532Y-165396114D01*
X55505141Y-165344998D01*
X55538142Y-165295609D01*
X55546034Y-165255930D01*
X55550500Y-165233480D01*
X55550500Y-165066520D01*
X55542223Y-165024911D01*
X55538142Y-165004390D01*
X55505141Y-164955002D01*
X55488532Y-164896114D01*
X55505141Y-164844998D01*
X55520320Y-164822282D01*
X55538142Y-164795609D01*
X55550500Y-164733480D01*
X55550500Y-164566520D01*
X55538142Y-164504391D01*
X55538142Y-164504390D01*
X55505141Y-164455002D01*
X55488532Y-164396114D01*
X55505141Y-164344998D01*
X55538142Y-164295609D01*
X55543136Y-164270500D01*
X55550500Y-164233480D01*
X55550500Y-164066520D01*
X55540023Y-164013849D01*
X55538142Y-164004390D01*
X55511995Y-163965259D01*
X55505140Y-163955000D01*
X55488532Y-163896114D01*
X55505141Y-163844998D01*
X55538142Y-163795609D01*
X55540311Y-163784706D01*
X55550500Y-163733480D01*
X55550500Y-163566520D01*
X55538142Y-163504391D01*
X55538142Y-163504390D01*
X55491066Y-163433937D01*
X55491065Y-163433935D01*
X55474706Y-163423004D01*
X55420609Y-163386857D01*
X55358482Y-163374500D01*
X55358480Y-163374500D01*
X55083283Y-163374500D01*
X55057660Y-163371127D01*
X55055698Y-163370601D01*
X55001206Y-163356000D01*
X55001205Y-163356000D01*
X51227785Y-163356000D01*
X51227769Y-163355999D01*
X51221706Y-163355999D01*
X51144293Y-163355999D01*
X51144290Y-163355999D01*
X51069520Y-163376034D01*
X51069516Y-163376036D01*
X51002481Y-163414739D01*
X50851735Y-163565485D01*
X50813037Y-163632516D01*
X50813033Y-163632524D01*
X50792999Y-163707291D01*
X50792999Y-163784708D01*
X50813033Y-163859475D01*
X50813037Y-163859483D01*
X50851735Y-163926514D01*
X50851738Y-163926517D01*
X50851740Y-163926520D01*
X50906479Y-163981259D01*
X50906481Y-163981260D01*
X50906484Y-163981263D01*
X50906483Y-163981263D01*
X50962928Y-164013849D01*
X50973520Y-164019964D01*
X50973522Y-164019964D01*
X50973523Y-164019965D01*
X50994258Y-164025521D01*
X51048290Y-164039999D01*
X51048292Y-164040000D01*
X51048293Y-164040000D01*
X51125706Y-164040000D01*
X51125706Y-164039999D01*
X51200478Y-164019964D01*
X51253877Y-163989135D01*
X51267513Y-163981263D01*
X51267514Y-163981261D01*
X51267519Y-163981259D01*
X51275783Y-163972994D01*
X51330298Y-163945219D01*
X51345785Y-163944000D01*
X52596790Y-163944000D01*
X52654981Y-163962907D01*
X52690945Y-164012407D01*
X52690945Y-164073593D01*
X52687358Y-164082977D01*
X52685579Y-164087010D01*
X52652317Y-164162340D01*
X52649500Y-164186622D01*
X52649500Y-164613369D01*
X52649501Y-164613372D01*
X52652317Y-164637661D01*
X52666376Y-164669500D01*
X52696187Y-164737016D01*
X52772984Y-164813813D01*
X52872338Y-164857682D01*
X52896627Y-164860500D01*
X53129503Y-164860499D01*
X53187692Y-164879406D01*
X53223656Y-164928906D01*
X53223657Y-164990091D01*
X53187693Y-165039591D01*
X53167388Y-165050963D01*
X53127931Y-165067306D01*
X52439733Y-165755504D01*
X52385216Y-165783281D01*
X52369729Y-165784500D01*
X52008133Y-165784500D01*
X51949942Y-165765593D01*
X51917569Y-165725489D01*
X51884616Y-165650860D01*
X51884616Y-165650859D01*
X51809141Y-165575384D01*
X51809139Y-165575383D01*
X51711498Y-165532269D01*
X51687626Y-165529500D01*
X51332380Y-165529500D01*
X51332377Y-165529501D01*
X51308499Y-165532270D01*
X51210860Y-165575383D01*
X51135383Y-165650860D01*
X51090564Y-165752364D01*
X51049763Y-165797959D01*
X50989954Y-165810864D01*
X50933982Y-165786149D01*
X50909436Y-165752364D01*
X50864616Y-165650860D01*
X50864616Y-165650859D01*
X50789141Y-165575384D01*
X50789139Y-165575383D01*
X50691498Y-165532269D01*
X50667626Y-165529500D01*
X50312380Y-165529500D01*
X50312377Y-165529501D01*
X50288499Y-165532270D01*
X50190860Y-165575383D01*
X50115383Y-165650860D01*
X50084607Y-165720561D01*
X50043806Y-165766156D01*
X49983997Y-165779061D01*
X49928026Y-165754347D01*
X49924057Y-165750593D01*
X49841318Y-165667854D01*
X49841315Y-165667852D01*
X49726871Y-165609540D01*
X49726869Y-165609539D01*
X49600001Y-165589445D01*
X49599999Y-165589445D01*
X49473130Y-165609539D01*
X49473128Y-165609540D01*
X49358684Y-165667852D01*
X49267852Y-165758684D01*
X49209540Y-165873128D01*
X49209539Y-165873130D01*
X49194118Y-165970499D01*
X49189445Y-166000000D01*
X49209539Y-166126868D01*
X49267466Y-166240557D01*
X49277037Y-166300987D01*
X49249260Y-166355503D01*
X49194743Y-166383281D01*
X49179256Y-166384500D01*
X47950153Y-166384500D01*
X47870950Y-166417306D01*
X46358893Y-167929362D01*
X46304376Y-167957139D01*
X46243944Y-167947568D01*
X46225986Y-167934521D01*
X46225895Y-167934647D01*
X46219587Y-167930064D01*
X46105143Y-167871752D01*
X46105141Y-167871751D01*
X45978273Y-167851657D01*
X45978271Y-167851657D01*
X45851402Y-167871751D01*
X45851400Y-167871752D01*
X45736956Y-167930064D01*
X45646124Y-168020896D01*
X45587812Y-168135340D01*
X45587811Y-168135342D01*
X45567717Y-168262210D01*
X45567717Y-168262213D01*
X45587811Y-168389081D01*
X45587812Y-168389083D01*
X45632971Y-168477712D01*
X45646126Y-168503530D01*
X45736954Y-168594358D01*
X45851404Y-168652673D01*
X45954395Y-168668985D01*
X45978271Y-168672767D01*
X45978272Y-168672767D01*
X45978273Y-168672767D01*
X45998367Y-168669584D01*
X46105140Y-168652673D01*
X46219590Y-168594358D01*
X46307241Y-168506706D01*
X46361756Y-168478931D01*
X46377243Y-168477712D01*
X46380654Y-168477712D01*
X46459859Y-168444904D01*
X46582692Y-168322071D01*
X46582693Y-168322067D01*
X46582695Y-168322066D01*
X46588109Y-168313964D01*
X46589212Y-168314701D01*
X46601549Y-168296231D01*
X46780675Y-168117105D01*
X46835190Y-168089330D01*
X46895622Y-168098901D01*
X46938886Y-168142166D01*
X46967852Y-168199015D01*
X46967854Y-168199018D01*
X47058682Y-168289846D01*
X47058684Y-168289847D01*
X47121917Y-168322066D01*
X47173132Y-168348161D01*
X47173136Y-168348161D01*
X47180540Y-168350568D01*
X47179457Y-168353900D01*
X47220470Y-168374773D01*
X47248274Y-168429276D01*
X47249500Y-168444810D01*
X47249500Y-168608194D01*
X47249501Y-168608206D01*
X47258347Y-168652673D01*
X47263164Y-168676888D01*
X47315214Y-168754786D01*
X47393112Y-168806836D01*
X47435547Y-168815277D01*
X47461793Y-168820498D01*
X47461798Y-168820498D01*
X47461804Y-168820500D01*
X47461805Y-168820500D01*
X48038195Y-168820500D01*
X48038196Y-168820500D01*
X48106888Y-168806836D01*
X48184786Y-168754786D01*
X48236836Y-168676888D01*
X48250500Y-168608196D01*
X48250500Y-168391804D01*
X48250499Y-168391802D01*
X48250499Y-168391796D01*
X48246300Y-168370688D01*
X48253490Y-168309927D01*
X48273391Y-168281371D01*
X48310269Y-168244495D01*
X48364787Y-168216718D01*
X48380271Y-168215500D01*
X48663938Y-168215500D01*
X48722129Y-168234407D01*
X48758093Y-168283907D01*
X48761035Y-168333816D01*
X48749500Y-168391796D01*
X48749500Y-168608194D01*
X48749501Y-168608206D01*
X48763163Y-168676885D01*
X48763164Y-168676889D01*
X48775265Y-168694999D01*
X48791873Y-168753888D01*
X48775265Y-168805001D01*
X48763164Y-168823110D01*
X48763163Y-168823114D01*
X48749501Y-168891793D01*
X48749500Y-168891805D01*
X48749500Y-169108194D01*
X48749501Y-169108206D01*
X48763163Y-169176885D01*
X48763164Y-169176889D01*
X48775265Y-169194999D01*
X48791873Y-169253888D01*
X48775265Y-169305001D01*
X48763164Y-169323110D01*
X48763163Y-169323114D01*
X48749501Y-169391793D01*
X48749500Y-169391805D01*
X48749500Y-169605729D01*
X48730593Y-169663920D01*
X48681093Y-169699884D01*
X48619907Y-169699884D01*
X48580496Y-169675733D01*
X48257096Y-169352333D01*
X48242762Y-169330879D01*
X48242254Y-169331220D01*
X48184787Y-169245216D01*
X48184786Y-169245214D01*
X48171558Y-169236375D01*
X48106890Y-169193165D01*
X48106885Y-169193163D01*
X48038206Y-169179501D01*
X48038196Y-169179500D01*
X47461804Y-169179500D01*
X47461803Y-169179500D01*
X47461793Y-169179501D01*
X47393114Y-169193163D01*
X47393109Y-169193165D01*
X47315216Y-169245212D01*
X47315212Y-169245216D01*
X47263165Y-169323109D01*
X47263163Y-169323114D01*
X47249501Y-169391793D01*
X47249500Y-169391805D01*
X47249500Y-169608194D01*
X47249501Y-169608206D01*
X47263163Y-169676885D01*
X47263165Y-169676890D01*
X47283374Y-169707134D01*
X47315214Y-169754786D01*
X47393112Y-169806836D01*
X47439746Y-169816112D01*
X47461793Y-169820498D01*
X47461798Y-169820498D01*
X47461804Y-169820500D01*
X47461805Y-169820500D01*
X48038191Y-169820500D01*
X48038196Y-169820500D01*
X48050966Y-169817959D01*
X48111724Y-169825145D01*
X48140288Y-169845051D01*
X48755504Y-170460267D01*
X48783281Y-170514784D01*
X48784500Y-170530271D01*
X48784500Y-170707546D01*
X48817307Y-170786751D01*
X49277626Y-171247071D01*
X49323869Y-171293313D01*
X49338248Y-171307692D01*
X49417453Y-171340500D01*
X50597029Y-171340500D01*
X50655220Y-171359407D01*
X50691184Y-171408907D01*
X50691184Y-171470093D01*
X50671719Y-171501856D01*
X50672435Y-171502377D01*
X50667852Y-171508684D01*
X50609540Y-171623128D01*
X50609539Y-171623130D01*
X50589445Y-171749998D01*
X50589445Y-171750001D01*
X50605727Y-171852802D01*
X50596156Y-171913234D01*
X50577953Y-171938289D01*
X50575386Y-171940855D01*
X50575383Y-171940860D01*
X50532269Y-172038501D01*
X50532269Y-172038502D01*
X50529500Y-172062372D01*
X50529500Y-172417619D01*
X50529501Y-172417622D01*
X50532270Y-172441500D01*
X50573967Y-172535932D01*
X50575384Y-172539141D01*
X50650859Y-172614616D01*
X50748502Y-172657730D01*
X50748504Y-172657730D01*
X50752363Y-172659434D01*
X50797959Y-172700235D01*
X50810864Y-172760044D01*
X50786150Y-172816016D01*
X50752365Y-172840563D01*
X50650858Y-172885384D01*
X50590506Y-172945736D01*
X50535989Y-172973513D01*
X50475557Y-172963941D01*
X50450499Y-172945736D01*
X50329496Y-172824733D01*
X50301719Y-172770216D01*
X50300500Y-172754729D01*
X50300500Y-171735181D01*
X50300499Y-171735172D01*
X50291767Y-171691279D01*
X50291765Y-171691275D01*
X50258505Y-171641498D01*
X50258504Y-171641496D01*
X50231014Y-171623128D01*
X50208724Y-171608234D01*
X50208720Y-171608232D01*
X50164827Y-171599500D01*
X50164820Y-171599500D01*
X49235180Y-171599500D01*
X49235172Y-171599500D01*
X49191279Y-171608232D01*
X49191275Y-171608234D01*
X49141498Y-171641494D01*
X49141494Y-171641498D01*
X49108234Y-171691275D01*
X49108232Y-171691279D01*
X49099500Y-171735172D01*
X49099500Y-173464825D01*
X49102755Y-173481183D01*
X49095566Y-173541944D01*
X49054035Y-173586875D01*
X49005658Y-173599500D01*
X26924058Y-173599500D01*
X26865867Y-173580593D01*
X26854054Y-173570504D01*
X25947619Y-172664069D01*
X47349500Y-172664069D01*
X47371194Y-172773130D01*
X47374499Y-172789742D01*
X47374500Y-172789747D01*
X47423534Y-172908125D01*
X47423538Y-172908133D01*
X47458769Y-172960859D01*
X47494724Y-173014669D01*
X47585331Y-173105276D01*
X47632536Y-173136817D01*
X47691866Y-173176461D01*
X47691870Y-173176463D01*
X47691873Y-173176465D01*
X47810256Y-173225501D01*
X47935931Y-173250500D01*
X47935932Y-173250500D01*
X48064068Y-173250500D01*
X48064069Y-173250500D01*
X48189744Y-173225501D01*
X48308127Y-173176465D01*
X48414669Y-173105276D01*
X48505276Y-173014669D01*
X48576465Y-172908127D01*
X48625501Y-172789744D01*
X48650500Y-172664069D01*
X48650500Y-172535931D01*
X48625501Y-172410256D01*
X48576465Y-172291873D01*
X48576463Y-172291870D01*
X48576461Y-172291866D01*
X48547717Y-172248848D01*
X48505276Y-172185331D01*
X48414669Y-172094724D01*
X48366251Y-172062372D01*
X48308133Y-172023538D01*
X48308125Y-172023534D01*
X48189747Y-171974500D01*
X48189745Y-171974499D01*
X48189744Y-171974499D01*
X48064069Y-171949500D01*
X47935931Y-171949500D01*
X47935930Y-171949500D01*
X47895100Y-171957622D01*
X47810256Y-171974499D01*
X47810255Y-171974499D01*
X47810252Y-171974500D01*
X47691874Y-172023534D01*
X47691866Y-172023538D01*
X47585331Y-172094724D01*
X47585327Y-172094727D01*
X47494727Y-172185327D01*
X47494724Y-172185331D01*
X47423538Y-172291866D01*
X47423534Y-172291874D01*
X47374500Y-172410252D01*
X47374499Y-172410255D01*
X47374499Y-172410256D01*
X47368284Y-172441500D01*
X47359403Y-172486149D01*
X47349500Y-172535931D01*
X47349500Y-172664069D01*
X25947619Y-172664069D01*
X22729496Y-169445946D01*
X22701719Y-169391429D01*
X22700500Y-169375942D01*
X22700500Y-167164827D01*
X23199500Y-167164827D01*
X23208232Y-167208720D01*
X23208234Y-167208724D01*
X23224777Y-167233482D01*
X23241496Y-167258504D01*
X23291278Y-167291767D01*
X23302327Y-167293964D01*
X23335172Y-167300499D01*
X23335178Y-167300499D01*
X23335180Y-167300500D01*
X24035946Y-167300500D01*
X24094137Y-167319407D01*
X24130101Y-167368907D01*
X24130101Y-167430093D01*
X24124156Y-167444445D01*
X24109539Y-167473132D01*
X24089445Y-167599998D01*
X24089445Y-167600001D01*
X24109539Y-167726869D01*
X24109540Y-167726871D01*
X24155620Y-167817308D01*
X24167854Y-167841318D01*
X24258682Y-167932146D01*
X24373132Y-167990461D01*
X24476123Y-168006773D01*
X24499999Y-168010555D01*
X24500000Y-168010555D01*
X24500001Y-168010555D01*
X24520095Y-168007372D01*
X24626868Y-167990461D01*
X24741318Y-167932146D01*
X24832146Y-167841318D01*
X24890461Y-167726868D01*
X24910555Y-167600000D01*
X24890461Y-167473132D01*
X24875843Y-167444444D01*
X24866273Y-167384013D01*
X24894050Y-167329497D01*
X24948567Y-167301719D01*
X24964054Y-167300500D01*
X25064819Y-167300500D01*
X25064820Y-167300500D01*
X25064821Y-167300499D01*
X25064827Y-167300499D01*
X25086623Y-167296162D01*
X25108722Y-167291767D01*
X25158504Y-167258504D01*
X25191767Y-167208722D01*
X25200500Y-167164820D01*
X25200500Y-166235180D01*
X25200499Y-166235178D01*
X25200499Y-166235172D01*
X25191767Y-166191279D01*
X25191765Y-166191275D01*
X25158505Y-166141498D01*
X25158504Y-166141496D01*
X25157840Y-166141052D01*
X25108724Y-166108234D01*
X25108720Y-166108232D01*
X25064827Y-166099500D01*
X25064820Y-166099500D01*
X23335180Y-166099500D01*
X23335172Y-166099500D01*
X23291279Y-166108232D01*
X23291275Y-166108234D01*
X23241498Y-166141494D01*
X23241494Y-166141498D01*
X23208234Y-166191275D01*
X23208232Y-166191279D01*
X23199500Y-166235172D01*
X23199500Y-167164827D01*
X22700500Y-167164827D01*
X22700500Y-165064069D01*
X23549500Y-165064069D01*
X23574499Y-165189742D01*
X23574500Y-165189747D01*
X23623534Y-165308125D01*
X23623538Y-165308133D01*
X23648171Y-165344998D01*
X23694724Y-165414669D01*
X23785331Y-165505276D01*
X23848848Y-165547717D01*
X23891866Y-165576461D01*
X23891870Y-165576463D01*
X23891873Y-165576465D01*
X24010256Y-165625501D01*
X24135931Y-165650500D01*
X24135932Y-165650500D01*
X24264068Y-165650500D01*
X24264069Y-165650500D01*
X24389744Y-165625501D01*
X24508127Y-165576465D01*
X24614669Y-165505276D01*
X24705276Y-165414669D01*
X24725722Y-165384069D01*
X31849500Y-165384069D01*
X31873610Y-165505276D01*
X31874499Y-165509742D01*
X31874500Y-165509747D01*
X31923534Y-165628125D01*
X31923538Y-165628133D01*
X31966365Y-165692226D01*
X31994724Y-165734669D01*
X32085331Y-165825276D01*
X32145531Y-165865500D01*
X32191866Y-165896461D01*
X32191870Y-165896463D01*
X32191873Y-165896465D01*
X32310256Y-165945501D01*
X32435931Y-165970500D01*
X32435932Y-165970500D01*
X32564068Y-165970500D01*
X32564069Y-165970500D01*
X32689744Y-165945501D01*
X32808127Y-165896465D01*
X32914669Y-165825276D01*
X33005276Y-165734669D01*
X33076465Y-165628127D01*
X33125501Y-165509744D01*
X33150500Y-165384069D01*
X33150500Y-165255931D01*
X33125501Y-165130256D01*
X33076465Y-165011873D01*
X33076463Y-165011870D01*
X33076461Y-165011866D01*
X33038465Y-164955002D01*
X33005276Y-164905331D01*
X32914669Y-164814724D01*
X32872226Y-164786365D01*
X32808133Y-164743538D01*
X32808125Y-164743534D01*
X32689747Y-164694500D01*
X32689745Y-164694499D01*
X32689744Y-164694499D01*
X32564069Y-164669500D01*
X32435931Y-164669500D01*
X32435930Y-164669500D01*
X32373093Y-164681999D01*
X32310256Y-164694499D01*
X32310255Y-164694499D01*
X32310252Y-164694500D01*
X32191874Y-164743534D01*
X32191866Y-164743538D01*
X32085331Y-164814724D01*
X32085327Y-164814727D01*
X31994727Y-164905327D01*
X31994724Y-164905331D01*
X31923538Y-165011866D01*
X31923534Y-165011874D01*
X31874500Y-165130252D01*
X31874499Y-165130257D01*
X31853966Y-165233482D01*
X31849500Y-165255931D01*
X31849500Y-165384069D01*
X24725722Y-165384069D01*
X24776465Y-165308127D01*
X24825501Y-165189744D01*
X24850500Y-165064069D01*
X24850500Y-164935931D01*
X24825501Y-164810256D01*
X24776465Y-164691873D01*
X24776463Y-164691870D01*
X24776461Y-164691866D01*
X24724010Y-164613369D01*
X24705276Y-164585331D01*
X24614669Y-164494724D01*
X24555221Y-164455002D01*
X24508133Y-164423538D01*
X24508125Y-164423534D01*
X24389747Y-164374500D01*
X24389745Y-164374499D01*
X24389744Y-164374499D01*
X24264069Y-164349500D01*
X24135931Y-164349500D01*
X24135930Y-164349500D01*
X24073093Y-164361999D01*
X24010256Y-164374499D01*
X24010255Y-164374499D01*
X24010252Y-164374500D01*
X23891874Y-164423534D01*
X23891866Y-164423538D01*
X23785331Y-164494724D01*
X23785327Y-164494727D01*
X23694727Y-164585327D01*
X23694724Y-164585331D01*
X23623538Y-164691866D01*
X23623534Y-164691874D01*
X23574500Y-164810252D01*
X23574499Y-164810255D01*
X23574499Y-164810256D01*
X23573610Y-164814724D01*
X23549500Y-164935930D01*
X23549500Y-165064069D01*
X22700500Y-165064069D01*
X22700500Y-162399000D01*
X22719407Y-162340809D01*
X22768907Y-162304845D01*
X22799500Y-162300000D01*
X38107000Y-162300000D01*
X38165191Y-162318907D01*
X38201155Y-162368407D01*
X38206000Y-162399000D01*
X38206000Y-162403404D01*
X38188675Y-162459352D01*
X38186188Y-162462981D01*
X38142317Y-162562340D01*
X38139500Y-162586622D01*
X38139500Y-163013369D01*
X38139501Y-163013372D01*
X38142317Y-163037661D01*
X38155869Y-163068352D01*
X38186187Y-163137016D01*
X38262984Y-163213813D01*
X38262985Y-163213813D01*
X38262986Y-163213814D01*
X38308815Y-163234050D01*
X38338831Y-163254610D01*
X38994741Y-163910520D01*
X38994740Y-163910520D01*
X39028221Y-163944000D01*
X39049480Y-163965259D01*
X39073667Y-163979223D01*
X39114607Y-164024691D01*
X39120002Y-164044398D01*
X39120315Y-164044314D01*
X39122269Y-164051498D01*
X39143249Y-164099011D01*
X39165384Y-164149141D01*
X39240859Y-164224616D01*
X39289680Y-164246173D01*
X39338501Y-164267730D01*
X39342749Y-164268222D01*
X39362377Y-164270500D01*
X39717622Y-164270499D01*
X39741498Y-164267730D01*
X39839141Y-164224616D01*
X39914616Y-164149141D01*
X39957730Y-164051498D01*
X39957730Y-164051494D01*
X39959434Y-164047636D01*
X40000235Y-164002040D01*
X40060044Y-163989135D01*
X40116016Y-164013849D01*
X40140563Y-164047635D01*
X40185382Y-164149138D01*
X40185383Y-164149139D01*
X40185384Y-164149141D01*
X40260859Y-164224616D01*
X40309680Y-164246173D01*
X40358501Y-164267730D01*
X40362749Y-164268222D01*
X40382377Y-164270500D01*
X40737622Y-164270499D01*
X40761498Y-164267730D01*
X40859141Y-164224616D01*
X40934616Y-164149141D01*
X40956751Y-164099011D01*
X40997552Y-164053416D01*
X41047315Y-164040000D01*
X41051796Y-164040000D01*
X41109987Y-164058907D01*
X41133468Y-164083048D01*
X41136182Y-164087010D01*
X41136186Y-164087014D01*
X41136187Y-164087016D01*
X41212984Y-164163813D01*
X41312338Y-164207682D01*
X41336627Y-164210500D01*
X41763372Y-164210499D01*
X41787662Y-164207682D01*
X41887016Y-164163813D01*
X41963813Y-164087016D01*
X41963814Y-164087012D01*
X41963817Y-164087010D01*
X41966532Y-164083048D01*
X42015017Y-164045728D01*
X42048204Y-164040000D01*
X49951708Y-164040000D01*
X49951708Y-164039999D01*
X50026481Y-164019964D01*
X50093521Y-163981259D01*
X50148260Y-163926520D01*
X50186965Y-163859480D01*
X50207001Y-163784706D01*
X50207001Y-163707294D01*
X50186965Y-163632520D01*
X50148260Y-163565480D01*
X50093521Y-163510741D01*
X50026481Y-163472036D01*
X50026478Y-163472035D01*
X50026477Y-163472034D01*
X49951709Y-163452000D01*
X49951707Y-163452000D01*
X41983837Y-163452000D01*
X41925646Y-163433093D01*
X41913834Y-163423005D01*
X41905568Y-163414739D01*
X41887016Y-163396187D01*
X41787662Y-163352318D01*
X41787661Y-163352317D01*
X41787659Y-163352317D01*
X41763376Y-163349500D01*
X41336630Y-163349500D01*
X41336627Y-163349501D01*
X41312338Y-163352317D01*
X41212984Y-163396187D01*
X41186166Y-163423005D01*
X41131649Y-163450781D01*
X41116163Y-163452000D01*
X40976764Y-163452000D01*
X40918573Y-163433093D01*
X40906766Y-163423009D01*
X40859141Y-163375384D01*
X40849500Y-163371127D01*
X40761498Y-163332269D01*
X40737626Y-163329500D01*
X40382380Y-163329500D01*
X40382377Y-163329501D01*
X40358499Y-163332270D01*
X40260860Y-163375383D01*
X40185383Y-163450860D01*
X40140564Y-163552364D01*
X40099763Y-163597959D01*
X40039954Y-163610864D01*
X39983982Y-163586149D01*
X39959436Y-163552364D01*
X39931302Y-163488650D01*
X39914616Y-163450859D01*
X39839141Y-163375384D01*
X39829500Y-163371127D01*
X39741498Y-163332269D01*
X39717626Y-163329500D01*
X39362380Y-163329500D01*
X39362377Y-163329501D01*
X39338501Y-163332269D01*
X39337786Y-163332586D01*
X39337071Y-163332658D01*
X39331319Y-163334224D01*
X39331059Y-163333271D01*
X39276916Y-163338789D01*
X39227801Y-163312022D01*
X39026936Y-163111157D01*
X38999159Y-163056640D01*
X38998600Y-163029747D01*
X39000500Y-163013373D01*
X39000499Y-162586628D01*
X38997682Y-162562338D01*
X38953813Y-162462984D01*
X38953810Y-162462981D01*
X38948628Y-162455415D01*
X38951800Y-162453241D01*
X38932055Y-162414487D01*
X38941626Y-162354055D01*
X38984891Y-162310790D01*
X39029836Y-162300000D01*
X45399999Y-162300000D01*
X45400000Y-162300000D01*
X45400000Y-162099000D01*
X45418907Y-162040809D01*
X45468407Y-162004845D01*
X45499000Y-162000000D01*
X48857269Y-162000000D01*
X48915460Y-162018907D01*
G37*
%TD.AperFunction*%
%TA.AperFunction,Conductor*%
G36*
X54433462Y-171004407D02*
G01*
X54465834Y-171044509D01*
X54480187Y-171077016D01*
X54556984Y-171153813D01*
X54656338Y-171197682D01*
X54680627Y-171200500D01*
X55107372Y-171200499D01*
X55131662Y-171197682D01*
X55231016Y-171153813D01*
X55307813Y-171077016D01*
X55319436Y-171050690D01*
X55360233Y-171005099D01*
X55420041Y-170992192D01*
X55476014Y-171016904D01*
X55500563Y-171050691D01*
X55504294Y-171059141D01*
X55512187Y-171077016D01*
X55588984Y-171153813D01*
X55688338Y-171197682D01*
X55712627Y-171200500D01*
X56139372Y-171200499D01*
X56163662Y-171197682D01*
X56263016Y-171153813D01*
X56339813Y-171077016D01*
X56343127Y-171069511D01*
X56383928Y-171023916D01*
X56433691Y-171010500D01*
X56450309Y-171010500D01*
X56508500Y-171029407D01*
X56540873Y-171069511D01*
X56544187Y-171077016D01*
X56620984Y-171153813D01*
X56720338Y-171197682D01*
X56744627Y-171200500D01*
X57171372Y-171200499D01*
X57187467Y-171198632D01*
X57247448Y-171210707D01*
X57288877Y-171255732D01*
X57296656Y-171312459D01*
X57279595Y-171420179D01*
X57279595Y-171420182D01*
X57299689Y-171547050D01*
X57299690Y-171547052D01*
X57347812Y-171641496D01*
X57358004Y-171661499D01*
X57448832Y-171752327D01*
X57448834Y-171752328D01*
X57448836Y-171752330D01*
X57455138Y-171756909D01*
X57453816Y-171758727D01*
X57489209Y-171794119D01*
X57500000Y-171839066D01*
X57500000Y-172408992D01*
X57481093Y-172467183D01*
X57471003Y-172478996D01*
X57131106Y-172818892D01*
X57076590Y-172846669D01*
X57045617Y-172846669D01*
X57000003Y-172839445D01*
X57000000Y-172839445D01*
X56873130Y-172859539D01*
X56873128Y-172859540D01*
X56758684Y-172917852D01*
X56758682Y-172917853D01*
X56758682Y-172917854D01*
X56671030Y-173005505D01*
X56616516Y-173033281D01*
X56601029Y-173034500D01*
X56080271Y-173034500D01*
X56022080Y-173015593D01*
X56010267Y-173005504D01*
X55770480Y-172765717D01*
X55522071Y-172517308D01*
X55522069Y-172517307D01*
X55522068Y-172517306D01*
X55480448Y-172500067D01*
X55433923Y-172460330D01*
X55427770Y-172448592D01*
X55384616Y-172350860D01*
X55384616Y-172350859D01*
X55309141Y-172275384D01*
X55309139Y-172275383D01*
X55211498Y-172232269D01*
X55187626Y-172229500D01*
X54832380Y-172229500D01*
X54832377Y-172229501D01*
X54808499Y-172232270D01*
X54710860Y-172275383D01*
X54635383Y-172350860D01*
X54590564Y-172452364D01*
X54549763Y-172497959D01*
X54489954Y-172510864D01*
X54433982Y-172486149D01*
X54409436Y-172452364D01*
X54364616Y-172350860D01*
X54364616Y-172350859D01*
X54289141Y-172275384D01*
X54289139Y-172275383D01*
X54191498Y-172232269D01*
X54167627Y-172229500D01*
X53828555Y-172229500D01*
X53770364Y-172210593D01*
X53758551Y-172200504D01*
X53561496Y-172003449D01*
X53533719Y-171948932D01*
X53532500Y-171933445D01*
X53532500Y-171425269D01*
X53551407Y-171367078D01*
X53561485Y-171355277D01*
X53707268Y-171209493D01*
X53761783Y-171181718D01*
X53777270Y-171180499D01*
X54079620Y-171180499D01*
X54079622Y-171180499D01*
X54103498Y-171177730D01*
X54201141Y-171134616D01*
X54276616Y-171059141D01*
X54282085Y-171046754D01*
X54283076Y-171044511D01*
X54323877Y-170998916D01*
X54373640Y-170985500D01*
X54375271Y-170985500D01*
X54433462Y-171004407D01*
G37*
%TD.AperFunction*%
%TA.AperFunction,Conductor*%
G36*
X49721784Y-169812327D02*
G01*
X49755781Y-169863198D01*
X49759500Y-169890079D01*
X49759500Y-170264475D01*
X49759500Y-170350207D01*
X49762435Y-170357292D01*
X49792307Y-170429411D01*
X50103392Y-170740497D01*
X50131169Y-170795013D01*
X50121598Y-170855445D01*
X50078333Y-170898710D01*
X50033388Y-170909500D01*
X49590590Y-170909500D01*
X49532399Y-170890593D01*
X49520586Y-170880504D01*
X49244496Y-170604414D01*
X49216719Y-170549897D01*
X49215500Y-170534410D01*
X49215500Y-170357134D01*
X49182692Y-170277929D01*
X49122071Y-170217307D01*
X49122071Y-170217308D01*
X48894267Y-169989504D01*
X48866490Y-169934987D01*
X48876061Y-169874555D01*
X48919326Y-169831290D01*
X48964271Y-169820500D01*
X49538195Y-169820500D01*
X49538196Y-169820500D01*
X49606888Y-169806836D01*
X49606892Y-169806832D01*
X49615897Y-169803104D01*
X49616537Y-169804651D01*
X49664378Y-169791155D01*
X49721784Y-169812327D01*
G37*
%TD.AperFunction*%
%TA.AperFunction,Conductor*%
G36*
X50046085Y-168769407D02*
G01*
X50078457Y-168809509D01*
X50086187Y-168827016D01*
X50162984Y-168903813D01*
X50262338Y-168947682D01*
X50286627Y-168950500D01*
X50713372Y-168950499D01*
X50737662Y-168947682D01*
X50837016Y-168903813D01*
X50913813Y-168827016D01*
X50913814Y-168827011D01*
X50918997Y-168819448D01*
X50920683Y-168820603D01*
X50953507Y-168783919D01*
X51003275Y-168770500D01*
X51516152Y-168770500D01*
X51574343Y-168789407D01*
X51606716Y-168829511D01*
X51615384Y-168849141D01*
X51690859Y-168924616D01*
X51723578Y-168939063D01*
X51788501Y-168967730D01*
X51792749Y-168968222D01*
X51812377Y-168970500D01*
X52167622Y-168970499D01*
X52191498Y-168967730D01*
X52242360Y-168945271D01*
X52303229Y-168939063D01*
X52352353Y-168965832D01*
X52543592Y-169157071D01*
X52543591Y-169157071D01*
X52579684Y-169193163D01*
X52604213Y-169217692D01*
X52618885Y-169223769D01*
X52665412Y-169263505D01*
X52679696Y-169323000D01*
X52656282Y-169379528D01*
X52651006Y-169385236D01*
X52635383Y-169400859D01*
X52590564Y-169502364D01*
X52549763Y-169547959D01*
X52489954Y-169560864D01*
X52433982Y-169536149D01*
X52409436Y-169502364D01*
X52364616Y-169400860D01*
X52364616Y-169400859D01*
X52289141Y-169325384D01*
X52284000Y-169323114D01*
X52191498Y-169282269D01*
X52167626Y-169279500D01*
X51812380Y-169279500D01*
X51812377Y-169279501D01*
X51788499Y-169282270D01*
X51690860Y-169325383D01*
X51615383Y-169400860D01*
X51572269Y-169498501D01*
X51572269Y-169498502D01*
X51569500Y-169522372D01*
X51569500Y-169824729D01*
X51550593Y-169882920D01*
X51540509Y-169894726D01*
X51396273Y-170038964D01*
X51324354Y-170110883D01*
X51269837Y-170138660D01*
X51209405Y-170129089D01*
X51184349Y-170110885D01*
X51116318Y-170042854D01*
X51116315Y-170042852D01*
X51001871Y-169984540D01*
X51001869Y-169984539D01*
X50875001Y-169964445D01*
X50874999Y-169964445D01*
X50748130Y-169984539D01*
X50748128Y-169984540D01*
X50633684Y-170042852D01*
X50542852Y-170133684D01*
X50484540Y-170248128D01*
X50484539Y-170248129D01*
X50478839Y-170284117D01*
X50451060Y-170338633D01*
X50396543Y-170366409D01*
X50336111Y-170356837D01*
X50311054Y-170338632D01*
X50219496Y-170247074D01*
X50191719Y-170192557D01*
X50190500Y-170177070D01*
X50190500Y-169707134D01*
X50157692Y-169627929D01*
X50097072Y-169567308D01*
X49847070Y-169317307D01*
X49794483Y-169295525D01*
X49747958Y-169255788D01*
X49733674Y-169196293D01*
X49735272Y-169184744D01*
X49736835Y-169176889D01*
X49736836Y-169176888D01*
X49750500Y-169108196D01*
X49750500Y-168891804D01*
X49745927Y-168868814D01*
X49753119Y-168808053D01*
X49794651Y-168763123D01*
X49843025Y-168750500D01*
X49987894Y-168750500D01*
X50046085Y-168769407D01*
G37*
%TD.AperFunction*%
%TD*%
%TA.AperFunction,Conductor*%
%TO.N,GND*%
G36*
X66925757Y-165518954D02*
G01*
X67006535Y-165572927D01*
X67011658Y-165578050D01*
X67011660Y-165578051D01*
X67124696Y-165635646D01*
X67124700Y-165635647D01*
X67198462Y-165647329D01*
X67218481Y-165650500D01*
X67981518Y-165650499D01*
X68075304Y-165635646D01*
X68188342Y-165578050D01*
X68193464Y-165572927D01*
X68274243Y-165518954D01*
X68369531Y-165500000D01*
X68396860Y-165500000D01*
X68492148Y-165518954D01*
X68572930Y-165572930D01*
X69194491Y-166194491D01*
X69248467Y-166275273D01*
X69267421Y-166370561D01*
X69262636Y-166419139D01*
X69249500Y-166485174D01*
X69249500Y-167501000D01*
X69230546Y-167596288D01*
X69176570Y-167677070D01*
X69095788Y-167731046D01*
X69000500Y-167750000D01*
X67243222Y-167750000D01*
X67147934Y-167731046D01*
X67067152Y-167677070D01*
X66788430Y-167398348D01*
X66734454Y-167317566D01*
X66715500Y-167222278D01*
X66715500Y-166457133D01*
X66688312Y-166391495D01*
X66688308Y-166391485D01*
X66682694Y-166377931D01*
X66682693Y-166377930D01*
X66682693Y-166377929D01*
X66328450Y-166023686D01*
X66274475Y-165942906D01*
X66255521Y-165847618D01*
X66274475Y-165752330D01*
X66328448Y-165671551D01*
X66328452Y-165671548D01*
X66427071Y-165572930D01*
X66507853Y-165518954D01*
X66603140Y-165500000D01*
X66830469Y-165500000D01*
X66925757Y-165518954D01*
G37*
%TD.AperFunction*%
%TD*%
%TA.AperFunction,Conductor*%
%TO.N,/5v*%
G36*
X75834463Y-160262600D02*
G01*
X75941372Y-160314865D01*
X75941373Y-160314865D01*
X75941375Y-160314866D01*
X76014364Y-160325500D01*
X76014370Y-160325500D01*
X76585630Y-160325500D01*
X76585636Y-160325500D01*
X76658625Y-160314866D01*
X76765537Y-160262600D01*
X76819998Y-160250000D01*
X79626000Y-160250000D01*
X79693039Y-160269685D01*
X79738794Y-160322489D01*
X79750000Y-160374000D01*
X79750000Y-161520881D01*
X79730315Y-161587920D01*
X79677511Y-161633675D01*
X79608353Y-161643619D01*
X79569706Y-161631366D01*
X79526865Y-161609537D01*
X79400002Y-161589445D01*
X79399998Y-161589445D01*
X79346156Y-161597973D01*
X79326758Y-161599500D01*
X79049500Y-161599500D01*
X78982461Y-161579815D01*
X78936706Y-161527011D01*
X78925500Y-161475500D01*
X78925500Y-161214369D01*
X78925500Y-161214364D01*
X78914866Y-161141375D01*
X78887485Y-161085366D01*
X78859827Y-161028789D01*
X78771210Y-160940172D01*
X78658628Y-160885135D01*
X78658626Y-160885134D01*
X78658625Y-160885134D01*
X78585636Y-160874500D01*
X78014364Y-160874500D01*
X77941375Y-160885134D01*
X77941373Y-160885134D01*
X77941371Y-160885135D01*
X77828789Y-160940172D01*
X77740172Y-161028789D01*
X77685135Y-161141371D01*
X77685134Y-161141373D01*
X77685134Y-161141375D01*
X77674500Y-161214364D01*
X77674500Y-161735636D01*
X77685134Y-161808625D01*
X77685134Y-161808626D01*
X77685135Y-161808628D01*
X77740172Y-161921210D01*
X77828789Y-162009827D01*
X77936572Y-162062518D01*
X77941375Y-162064866D01*
X78014364Y-162075500D01*
X78282745Y-162075500D01*
X78349784Y-162095185D01*
X78370426Y-162111819D01*
X78471426Y-162212819D01*
X78504911Y-162274142D01*
X78499927Y-162343834D01*
X78458055Y-162399767D01*
X78392591Y-162424184D01*
X78383745Y-162424500D01*
X78014364Y-162424500D01*
X77941375Y-162435134D01*
X77941373Y-162435134D01*
X77941371Y-162435135D01*
X77828789Y-162490172D01*
X77828787Y-162490174D01*
X77805781Y-162513181D01*
X77744458Y-162546666D01*
X77718100Y-162549500D01*
X77650170Y-162549500D01*
X77558102Y-162587636D01*
X77558101Y-162587637D01*
X77182058Y-162963681D01*
X77120735Y-162997166D01*
X77094377Y-163000000D01*
X75922147Y-163000000D01*
X75855108Y-162980315D01*
X75809353Y-162927511D01*
X75800530Y-162900192D01*
X75796768Y-162881282D01*
X75796767Y-162881281D01*
X75796767Y-162881278D01*
X75763504Y-162831496D01*
X75763503Y-162831495D01*
X75713724Y-162798234D01*
X75713717Y-162798231D01*
X75669822Y-162789500D01*
X75669820Y-162789500D01*
X74330180Y-162789500D01*
X74330179Y-162789500D01*
X74304733Y-162794561D01*
X74235141Y-162788332D01*
X74179965Y-162745468D01*
X74158926Y-162697133D01*
X74156767Y-162686278D01*
X74156765Y-162686275D01*
X74123504Y-162636496D01*
X74123503Y-162636495D01*
X74073724Y-162603234D01*
X74073717Y-162603231D01*
X74029822Y-162594500D01*
X74029820Y-162594500D01*
X73374000Y-162594500D01*
X73306961Y-162574815D01*
X73261206Y-162522011D01*
X73250000Y-162470500D01*
X73250000Y-162301361D01*
X73269685Y-162234322D01*
X73286314Y-162213685D01*
X73550692Y-161949307D01*
X73612013Y-161915824D01*
X73681705Y-161920808D01*
X73688458Y-161923556D01*
X73788499Y-161967729D01*
X73788500Y-161967729D01*
X73788502Y-161967730D01*
X73812377Y-161970500D01*
X74167622Y-161970499D01*
X74191498Y-161967730D01*
X74289135Y-161924619D01*
X74289136Y-161924618D01*
X74289141Y-161924616D01*
X74364616Y-161849141D01*
X74407730Y-161751498D01*
X74410500Y-161727623D01*
X74410499Y-161272378D01*
X74407730Y-161248502D01*
X74394185Y-161217827D01*
X74385113Y-161148551D01*
X74414935Y-161085366D01*
X74419904Y-161080095D01*
X75213681Y-160286319D01*
X75275004Y-160252834D01*
X75301362Y-160250000D01*
X75780002Y-160250000D01*
X75834463Y-160262600D01*
G37*
%TD.AperFunction*%
%TD*%
%TA.AperFunction,Conductor*%
%TO.N,/ldo*%
G36*
X66743209Y-163268954D02*
G01*
X66823991Y-163322930D01*
X66869781Y-163385956D01*
X66921950Y-163488342D01*
X67011658Y-163578050D01*
X67011660Y-163578051D01*
X67124696Y-163635646D01*
X67124700Y-163635647D01*
X67198462Y-163647329D01*
X67218481Y-163650500D01*
X67250998Y-163650499D01*
X67346283Y-163669451D01*
X67427065Y-163723425D01*
X67481044Y-163804205D01*
X67500000Y-163899493D01*
X67500000Y-164001000D01*
X67481046Y-164096288D01*
X67427070Y-164177070D01*
X67346288Y-164231046D01*
X67251000Y-164250000D01*
X66926604Y-164250000D01*
X66831316Y-164231046D01*
X66750534Y-164177070D01*
X66741318Y-164167854D01*
X66626867Y-164109538D01*
X66626863Y-164109537D01*
X66500003Y-164089445D01*
X66499997Y-164089445D01*
X66373136Y-164109537D01*
X66373132Y-164109538D01*
X66258681Y-164167854D01*
X66249466Y-164177070D01*
X66168684Y-164231046D01*
X66073396Y-164250000D01*
X65249000Y-164250000D01*
X65153712Y-164231046D01*
X65072930Y-164177070D01*
X65018954Y-164096288D01*
X65000000Y-164001000D01*
X65000000Y-163614500D01*
X65018954Y-163519212D01*
X65072930Y-163438430D01*
X65153712Y-163384454D01*
X65249000Y-163365500D01*
X65642866Y-163365500D01*
X65722071Y-163332692D01*
X65731835Y-163322927D01*
X65812614Y-163268954D01*
X65907902Y-163250000D01*
X66647921Y-163250000D01*
X66743209Y-163268954D01*
G37*
%TD.AperFunction*%
%TD*%
%TA.AperFunction,Conductor*%
%TO.N,GND*%
G36*
X79645788Y-165268954D02*
G01*
X79726570Y-165322930D01*
X79780546Y-165403712D01*
X79799500Y-165499000D01*
X79799500Y-174501000D01*
X79780546Y-174596288D01*
X79726570Y-174677070D01*
X79645788Y-174731046D01*
X79550500Y-174750000D01*
X71136690Y-174750000D01*
X71041402Y-174731046D01*
X70960620Y-174677070D01*
X70822930Y-174539380D01*
X70768954Y-174458598D01*
X70750000Y-174363310D01*
X70750000Y-173103138D01*
X70768954Y-173007850D01*
X70822927Y-172927072D01*
X70980254Y-172769745D01*
X71061029Y-172715773D01*
X71117360Y-172699886D01*
X71176868Y-172690461D01*
X71291318Y-172632146D01*
X71382146Y-172541318D01*
X71440461Y-172426868D01*
X71449885Y-172367363D01*
X71483510Y-172276218D01*
X71519743Y-172230256D01*
X71677071Y-172072929D01*
X71757852Y-172018953D01*
X71853139Y-172000000D01*
X77749999Y-172000000D01*
X77750000Y-172000000D01*
X77750000Y-170214500D01*
X77768954Y-170119212D01*
X77822930Y-170038430D01*
X77903712Y-169984454D01*
X77999000Y-169965500D01*
X78288896Y-169965500D01*
X78384184Y-169984454D01*
X78464966Y-170038430D01*
X78508682Y-170082146D01*
X78589122Y-170123132D01*
X78623132Y-170140461D01*
X78623136Y-170140462D01*
X78749997Y-170160555D01*
X78750000Y-170160555D01*
X78750003Y-170160555D01*
X78876863Y-170140462D01*
X78876865Y-170140461D01*
X78876868Y-170140461D01*
X78991318Y-170082146D01*
X79082146Y-169991318D01*
X79140461Y-169876868D01*
X79160555Y-169750000D01*
X79160555Y-169749996D01*
X79140462Y-169623136D01*
X79140461Y-169623132D01*
X79082146Y-169508682D01*
X78991318Y-169417854D01*
X78918572Y-169380788D01*
X78876867Y-169359538D01*
X78876863Y-169359537D01*
X78750003Y-169339445D01*
X78749997Y-169339445D01*
X78623136Y-169359537D01*
X78623132Y-169359538D01*
X78508681Y-169417854D01*
X78464966Y-169461570D01*
X78384184Y-169515546D01*
X78288896Y-169534500D01*
X77999000Y-169534500D01*
X77903712Y-169515546D01*
X77822930Y-169461570D01*
X77768954Y-169380788D01*
X77750000Y-169285500D01*
X77750000Y-169266506D01*
X77768954Y-169171218D01*
X77822930Y-169090436D01*
X77885955Y-169044646D01*
X77900994Y-169036984D01*
X77991822Y-168946156D01*
X78050137Y-168831706D01*
X78070231Y-168704838D01*
X78070231Y-168704834D01*
X78050138Y-168577974D01*
X78050137Y-168577970D01*
X78013489Y-168506045D01*
X77991822Y-168463520D01*
X77900994Y-168372692D01*
X77900993Y-168372691D01*
X77900991Y-168372690D01*
X77885954Y-168365028D01*
X77809657Y-168304880D01*
X77762186Y-168220112D01*
X77750000Y-168143169D01*
X77750000Y-168080208D01*
X77768954Y-167984920D01*
X77777140Y-167967164D01*
X77800137Y-167922030D01*
X77807122Y-167877929D01*
X77820231Y-167795165D01*
X77820231Y-167795158D01*
X77800138Y-167668297D01*
X77800137Y-167668295D01*
X77800137Y-167668294D01*
X77777137Y-167623155D01*
X77750767Y-167529649D01*
X77750000Y-167510115D01*
X77750000Y-166603140D01*
X77768954Y-166507852D01*
X77822930Y-166427070D01*
X78301570Y-165948430D01*
X78382352Y-165894454D01*
X78477640Y-165875500D01*
X78585636Y-165875500D01*
X78658625Y-165864866D01*
X78771211Y-165809826D01*
X78859826Y-165721211D01*
X78914866Y-165608625D01*
X78925500Y-165535636D01*
X78925500Y-165499000D01*
X78944454Y-165403712D01*
X78998430Y-165322930D01*
X79079212Y-165268954D01*
X79174500Y-165250000D01*
X79550500Y-165250000D01*
X79645788Y-165268954D01*
G37*
%TD.AperFunction*%
%TD*%
%TA.AperFunction,Conductor*%
%TO.N,Net-(AE1-PCB_Trace)*%
G36*
X38508257Y-161757290D02*
G01*
X38508290Y-161757323D01*
X38744435Y-161994413D01*
X38747845Y-162002693D01*
X38746909Y-162007255D01*
X38646531Y-162242885D01*
X38640136Y-162249154D01*
X38635767Y-162250000D01*
X38364233Y-162250000D01*
X38355960Y-162246573D01*
X38353469Y-162242885D01*
X38253089Y-162007253D01*
X38253000Y-161998301D01*
X38255562Y-161994415D01*
X38491710Y-161757322D01*
X38499977Y-161753880D01*
X38508257Y-161757290D01*
G37*
%TD.AperFunction*%
%TD*%
M02*
