%TF.GenerationSoftware,KiCad,Pcbnew,8.0.1*%
%TF.CreationDate,2024-10-15T00:35:35+02:00*%
%TF.ProjectId,InsuDos,496e7375-446f-4732-9e6b-696361645f70,rev?*%
%TF.SameCoordinates,Original*%
%TF.FileFunction,Paste,Top*%
%TF.FilePolarity,Positive*%
%FSLAX46Y46*%
G04 Gerber Fmt 4.6, Leading zero omitted, Abs format (unit mm)*
G04 Created by KiCad (PCBNEW 8.0.1) date 2024-10-15 00:35:35*
%MOMM*%
%LPD*%
G01*
G04 APERTURE LIST*
G04 Aperture macros list*
%AMRoundRect*
0 Rectangle with rounded corners*
0 $1 Rounding radius*
0 $2 $3 $4 $5 $6 $7 $8 $9 X,Y pos of 4 corners*
0 Add a 4 corners polygon primitive as box body*
4,1,4,$2,$3,$4,$5,$6,$7,$8,$9,$2,$3,0*
0 Add four circle primitives for the rounded corners*
1,1,$1+$1,$2,$3*
1,1,$1+$1,$4,$5*
1,1,$1+$1,$6,$7*
1,1,$1+$1,$8,$9*
0 Add four rect primitives between the rounded corners*
20,1,$1+$1,$2,$3,$4,$5,0*
20,1,$1+$1,$4,$5,$6,$7,0*
20,1,$1+$1,$6,$7,$8,$9,0*
20,1,$1+$1,$8,$9,$2,$3,0*%
G04 Aperture macros list end*
%ADD10C,0.400000*%
%ADD11RoundRect,0.140000X-0.170000X0.140000X-0.170000X-0.140000X0.170000X-0.140000X0.170000X0.140000X0*%
%ADD12RoundRect,0.140000X0.170000X-0.140000X0.170000X0.140000X-0.170000X0.140000X-0.170000X-0.140000X0*%
%ADD13RoundRect,0.140000X-0.140000X-0.170000X0.140000X-0.170000X0.140000X0.170000X-0.140000X0.170000X0*%
%ADD14RoundRect,0.140000X0.140000X0.170000X-0.140000X0.170000X-0.140000X-0.170000X0.140000X-0.170000X0*%
%ADD15RoundRect,0.135000X-0.135000X-0.185000X0.135000X-0.185000X0.135000X0.185000X-0.135000X0.185000X0*%
%ADD16RoundRect,0.112500X-0.112500X-0.237500X0.112500X-0.237500X0.112500X0.237500X-0.112500X0.237500X0*%
%ADD17R,0.400000X1.350000*%
%ADD18RoundRect,0.250000X0.550000X0.450000X-0.550000X0.450000X-0.550000X-0.450000X0.550000X-0.450000X0*%
%ADD19R,1.900000X1.900000*%
%ADD20RoundRect,0.250000X0.750000X1.850000X-0.750000X1.850000X-0.750000X-1.850000X0.750000X-1.850000X0*%
%ADD21RoundRect,0.050000X0.100000X0.250000X-0.100000X0.250000X-0.100000X-0.250000X0.100000X-0.250000X0*%
%ADD22RoundRect,0.225000X-0.250000X0.225000X-0.250000X-0.225000X0.250000X-0.225000X0.250000X0.225000X0*%
%ADD23RoundRect,0.135000X0.185000X-0.135000X0.185000X0.135000X-0.185000X0.135000X-0.185000X-0.135000X0*%
%ADD24RoundRect,0.250000X0.994600X2.302700X-0.994600X2.302700X-0.994600X-2.302700X0.994600X-2.302700X0*%
%ADD25R,5.600000X5.600000*%
%ADD26RoundRect,0.152400X-0.749300X0.152400X-0.749300X-0.152400X0.749300X-0.152400X0.749300X0.152400X0*%
%ADD27RoundRect,0.050000X-0.250000X0.100000X-0.250000X-0.100000X0.250000X-0.100000X0.250000X0.100000X0*%
%ADD28R,0.700000X0.300000*%
%ADD29R,1.000000X0.300000*%
%ADD30RoundRect,0.135000X0.135000X0.185000X-0.135000X0.185000X-0.135000X-0.185000X0.135000X-0.185000X0*%
%ADD31RoundRect,0.218750X-0.256250X0.218750X-0.256250X-0.218750X0.256250X-0.218750X0.256250X0.218750X0*%
G04 APERTURE END LIST*
D10*
%TO.C,Inf.1*%
X31750000Y-166800000D02*
X31550000Y-166800000D01*
X31750000Y-167500000D02*
X31550000Y-167500000D01*
X33450000Y-166800000D02*
X33250000Y-166800000D01*
X33450000Y-167500000D02*
X33250000Y-167500000D01*
X31740566Y-165068489D02*
G75*
G02*
X31902468Y-164788066I759434J-251511D01*
G01*
X31902467Y-165851935D02*
G75*
G02*
X31740566Y-165571511I597503J531915D01*
G01*
X32338098Y-164536555D02*
G75*
G02*
X32661902Y-164536555I161902J-783445D01*
G01*
X32661902Y-166103445D02*
G75*
G02*
X32338098Y-166103445I-161902J783445D01*
G01*
X33097533Y-164788065D02*
G75*
G02*
X33259435Y-165068489I-597533J-531935D01*
G01*
X33259434Y-165571511D02*
G75*
G02*
X33097532Y-165851934I-759434J251511D01*
G01*
%TD*%
D11*
%TO.C,C28*%
X74500000Y-163770000D03*
X74500000Y-164730000D03*
%TD*%
D12*
%TO.C,C11*%
X73500000Y-164730000D03*
X73500000Y-163770000D03*
%TD*%
D13*
%TO.C,C15*%
X73020000Y-166500000D03*
X73980000Y-166500000D03*
%TD*%
D14*
%TO.C,C29*%
X77230000Y-161750000D03*
X76270000Y-161750000D03*
%TD*%
D15*
%TO.C,R4*%
X76990000Y-174250000D03*
X78010000Y-174250000D03*
%TD*%
D16*
%TO.C,Q1*%
X71850000Y-173750000D03*
X73150000Y-173750000D03*
X72500000Y-171750000D03*
%TD*%
D17*
%TO.C,J2*%
X75050000Y-160345500D03*
X74400000Y-160345500D03*
X73750000Y-160345500D03*
X73100000Y-160345500D03*
X72450000Y-160345500D03*
D18*
X76950000Y-160120500D03*
X70550000Y-160120500D03*
D19*
X72550000Y-157670500D03*
X74950000Y-157670500D03*
%TD*%
D20*
%TO.C,BZ1*%
X43750000Y-169000000D03*
X35750000Y-169000000D03*
%TD*%
D21*
%TO.C,D3*%
X72550000Y-165000000D03*
X71850000Y-165000000D03*
%TD*%
D15*
%TO.C,R3*%
X74240000Y-174250000D03*
X75260000Y-174250000D03*
%TD*%
D11*
%TO.C,C13*%
X74500000Y-170720000D03*
X74500000Y-171680000D03*
%TD*%
D12*
%TO.C,C37*%
X74500000Y-169730000D03*
X74500000Y-168770000D03*
%TD*%
D22*
%TO.C,C12*%
X72000000Y-162025000D03*
X72000000Y-163575000D03*
%TD*%
D13*
%TO.C,C14*%
X73020000Y-167500000D03*
X73980000Y-167500000D03*
%TD*%
D23*
%TO.C,R9*%
X29200000Y-168710000D03*
X29200000Y-167690000D03*
%TD*%
D24*
%TO.C,BT1*%
X69743150Y-165000000D03*
D25*
X58293150Y-165000000D03*
D24*
X46843150Y-165000000D03*
%TD*%
D26*
%TO.C,L5*%
X72500000Y-168799900D03*
X72500000Y-170400100D03*
%TD*%
D27*
%TO.C,D2*%
X74600000Y-161900000D03*
X74600000Y-162600000D03*
%TD*%
D11*
%TO.C,C10*%
X30200000Y-167320000D03*
X30200000Y-168280000D03*
%TD*%
D28*
%TO.C,J1*%
X76250000Y-172250000D03*
X76250000Y-171750000D03*
X76250000Y-171250000D03*
X76250000Y-170750000D03*
X76250000Y-170250000D03*
X76250000Y-169750000D03*
X76250000Y-169250000D03*
X76250000Y-168750000D03*
X76250000Y-168250000D03*
X76250000Y-167750000D03*
X76250000Y-167250000D03*
X76250000Y-166750000D03*
X76250000Y-166250000D03*
X76250000Y-165750000D03*
X76250000Y-165250000D03*
X76250000Y-164750000D03*
X76250000Y-164250000D03*
X76250000Y-163750000D03*
D29*
X78900000Y-173040000D03*
X78900000Y-162960000D03*
%TD*%
D27*
%TO.C,D1*%
X73400000Y-162150000D03*
X73400000Y-162850000D03*
%TD*%
D30*
%TO.C,R1*%
X33010000Y-169250000D03*
X31990000Y-169250000D03*
%TD*%
D31*
%TO.C,F1*%
X79000000Y-159462500D03*
X79000000Y-161037500D03*
%TD*%
D11*
%TO.C,C38*%
X46750000Y-160770000D03*
X46750000Y-161730000D03*
%TD*%
M02*
