%TF.GenerationSoftware,KiCad,Pcbnew,8.0.1*%
%TF.CreationDate,2024-10-15T00:35:35+02:00*%
%TF.ProjectId,InsuDos,496e7375-446f-4732-9e6b-696361645f70,rev?*%
%TF.SameCoordinates,Original*%
%TF.FileFunction,Paste,Bot*%
%TF.FilePolarity,Positive*%
%FSLAX46Y46*%
G04 Gerber Fmt 4.6, Leading zero omitted, Abs format (unit mm)*
G04 Created by KiCad (PCBNEW 8.0.1) date 2024-10-15 00:35:35*
%MOMM*%
%LPD*%
G01*
G04 APERTURE LIST*
G04 Aperture macros list*
%AMRoundRect*
0 Rectangle with rounded corners*
0 $1 Rounding radius*
0 $2 $3 $4 $5 $6 $7 $8 $9 X,Y pos of 4 corners*
0 Add a 4 corners polygon primitive as box body*
4,1,4,$2,$3,$4,$5,$6,$7,$8,$9,$2,$3,0*
0 Add four circle primitives for the rounded corners*
1,1,$1+$1,$2,$3*
1,1,$1+$1,$4,$5*
1,1,$1+$1,$6,$7*
1,1,$1+$1,$8,$9*
0 Add four rect primitives between the rounded corners*
20,1,$1+$1,$2,$3,$4,$5,0*
20,1,$1+$1,$4,$5,$6,$7,0*
20,1,$1+$1,$6,$7,$8,$9,0*
20,1,$1+$1,$8,$9,$2,$3,0*%
G04 Aperture macros list end*
%ADD10C,0.010000*%
%ADD11RoundRect,0.135000X0.135000X0.185000X-0.135000X0.185000X-0.135000X-0.185000X0.135000X-0.185000X0*%
%ADD12RoundRect,0.135000X0.185000X-0.135000X0.185000X0.135000X-0.185000X0.135000X-0.185000X-0.135000X0*%
%ADD13RoundRect,0.140000X-0.140000X-0.170000X0.140000X-0.170000X0.140000X0.170000X-0.140000X0.170000X0*%
%ADD14R,0.600000X1.100000*%
%ADD15RoundRect,0.093750X0.156250X0.093750X-0.156250X0.093750X-0.156250X-0.093750X0.156250X-0.093750X0*%
%ADD16RoundRect,0.075000X0.250000X0.075000X-0.250000X0.075000X-0.250000X-0.075000X0.250000X-0.075000X0*%
%ADD17RoundRect,0.225000X0.250000X-0.225000X0.250000X0.225000X-0.250000X0.225000X-0.250000X-0.225000X0*%
%ADD18RoundRect,0.218750X-0.256250X0.218750X-0.256250X-0.218750X0.256250X-0.218750X0.256250X0.218750X0*%
%ADD19RoundRect,0.135000X-0.185000X0.135000X-0.185000X-0.135000X0.185000X-0.135000X0.185000X0.135000X0*%
%ADD20RoundRect,0.140000X-0.170000X0.140000X-0.170000X-0.140000X0.170000X-0.140000X0.170000X0.140000X0*%
%ADD21RoundRect,0.135000X-0.135000X-0.185000X0.135000X-0.185000X0.135000X0.185000X-0.135000X0.185000X0*%
%ADD22RoundRect,0.250000X0.315000X-0.315000X0.315000X0.315000X-0.315000X0.315000X-0.315000X-0.315000X0*%
%ADD23RoundRect,0.062500X0.062500X-0.375000X0.062500X0.375000X-0.062500X0.375000X-0.062500X-0.375000X0*%
%ADD24RoundRect,0.062500X0.375000X-0.062500X0.375000X0.062500X-0.375000X0.062500X-0.375000X-0.062500X0*%
%ADD25RoundRect,0.225000X-0.250000X0.225000X-0.250000X-0.225000X0.250000X-0.225000X0.250000X0.225000X0*%
%ADD26RoundRect,0.140000X0.140000X0.170000X-0.140000X0.170000X-0.140000X-0.170000X0.140000X-0.170000X0*%
%ADD27R,0.900000X1.700000*%
%ADD28R,0.800000X1.100000*%
%ADD29R,0.900000X0.260000*%
%ADD30RoundRect,0.140000X0.170000X-0.140000X0.170000X0.140000X-0.170000X0.140000X-0.170000X-0.140000X0*%
%ADD31R,1.700000X0.900000*%
%ADD32R,1.100000X0.800000*%
%ADD33RoundRect,0.147500X0.172500X-0.147500X0.172500X0.147500X-0.172500X0.147500X-0.172500X-0.147500X0*%
%ADD34R,1.150000X1.400000*%
%ADD35RoundRect,0.050800X-0.050800X0.050800X-0.050800X-0.050800X0.050800X-0.050800X0.050800X0.050800X0*%
%ADD36R,0.203200X0.203200*%
%ADD37RoundRect,0.085000X-0.265000X-0.085000X0.265000X-0.085000X0.265000X0.085000X-0.265000X0.085000X0*%
G04 APERTURE END LIST*
D10*
%TO.C,U3*%
X75414259Y-164670403D02*
X74585741Y-164670403D01*
X74585741Y-163329597D01*
X75414259Y-163329597D01*
X75414259Y-164670403D01*
G36*
X75414259Y-164670403D02*
G01*
X74585741Y-164670403D01*
X74585741Y-163329597D01*
X75414259Y-163329597D01*
X75414259Y-164670403D01*
G37*
%TD*%
D11*
%TO.C,R19*%
X55690000Y-169700000D03*
X56710000Y-169700000D03*
%TD*%
D12*
%TO.C,R6*%
X74800000Y-167560000D03*
X74800000Y-166540000D03*
%TD*%
D13*
%TO.C,C7*%
X59520000Y-173000000D03*
X60480000Y-173000000D03*
%TD*%
D14*
%TO.C,Y1*%
X62200000Y-171500000D03*
X60800000Y-171500000D03*
%TD*%
D15*
%TO.C,U1*%
X70400000Y-159512500D03*
D16*
X70475000Y-160050000D03*
D15*
X70400000Y-160587500D03*
X68700000Y-160587500D03*
D16*
X68625000Y-160050000D03*
D15*
X68700000Y-159512500D03*
%TD*%
D17*
%TO.C,C6*%
X49800000Y-162475000D03*
X49800000Y-160925000D03*
%TD*%
D18*
%TO.C,L3*%
X59500000Y-157212500D03*
X59500000Y-158787500D03*
%TD*%
D11*
%TO.C,R10*%
X53010000Y-168500000D03*
X51990000Y-168500000D03*
%TD*%
D19*
%TO.C,R7*%
X53852000Y-170760000D03*
X53852000Y-171780000D03*
%TD*%
D17*
%TO.C,C1*%
X61000000Y-158775000D03*
X61000000Y-157225000D03*
%TD*%
D20*
%TO.C,C23*%
X63500000Y-168520000D03*
X63500000Y-169480000D03*
%TD*%
D21*
%TO.C,R15*%
X73990000Y-161500000D03*
X75010000Y-161500000D03*
%TD*%
D13*
%TO.C,C16*%
X38570000Y-162800000D03*
X39530000Y-162800000D03*
%TD*%
%TO.C,C24*%
X61520000Y-169750000D03*
X62480000Y-169750000D03*
%TD*%
D22*
%TO.C,U4*%
X56300000Y-167000000D03*
X57700000Y-167000000D03*
X59100000Y-167000000D03*
X60500000Y-167000000D03*
X56300000Y-165600000D03*
X57700000Y-165600000D03*
X59100000Y-165600000D03*
X60500000Y-165600000D03*
X56300000Y-164200000D03*
X57700000Y-164200000D03*
X59100000Y-164200000D03*
X60500000Y-164200000D03*
X56300000Y-162800000D03*
X57700000Y-162800000D03*
X59100000Y-162800000D03*
X60500000Y-162800000D03*
D23*
X61150000Y-168337500D03*
X60650000Y-168337500D03*
X60150000Y-168337500D03*
X59650000Y-168337500D03*
X59150000Y-168337500D03*
X58650000Y-168337500D03*
X58150000Y-168337500D03*
X57650000Y-168337500D03*
X57150000Y-168337500D03*
X56650000Y-168337500D03*
X56150000Y-168337500D03*
X55650000Y-168337500D03*
D24*
X54962500Y-167650000D03*
X54962500Y-167150000D03*
X54962500Y-166650000D03*
X54962500Y-166150000D03*
X54962500Y-165650000D03*
X54962500Y-165150000D03*
X54962500Y-164650000D03*
X54962500Y-164150000D03*
X54962500Y-163650000D03*
X54962500Y-163150000D03*
X54962500Y-162650000D03*
X54962500Y-162150000D03*
D23*
X55650000Y-161462500D03*
X56150000Y-161462500D03*
X56650000Y-161462500D03*
X57150000Y-161462500D03*
X57650000Y-161462500D03*
X58150000Y-161462500D03*
X58650000Y-161462500D03*
X59150000Y-161462500D03*
X59650000Y-161462500D03*
X60150000Y-161462500D03*
X60650000Y-161462500D03*
X61150000Y-161462500D03*
D24*
X61837500Y-162150000D03*
X61837500Y-162650000D03*
X61837500Y-163150000D03*
X61837500Y-163650000D03*
X61837500Y-164150000D03*
X61837500Y-164650000D03*
X61837500Y-165150000D03*
X61837500Y-165650000D03*
X61837500Y-166150000D03*
X61837500Y-166650000D03*
X61837500Y-167150000D03*
X61837500Y-167650000D03*
%TD*%
D25*
%TO.C,C39*%
X57000000Y-157225000D03*
X57000000Y-158775000D03*
%TD*%
D26*
%TO.C,C25*%
X53080000Y-164400000D03*
X52120000Y-164400000D03*
%TD*%
D21*
%TO.C,R14*%
X64240000Y-163750000D03*
X65260000Y-163750000D03*
%TD*%
D19*
%TO.C,R21*%
X51000000Y-172240000D03*
X51000000Y-173260000D03*
%TD*%
D20*
%TO.C,C9*%
X50500000Y-168520000D03*
X50500000Y-169480000D03*
%TD*%
D11*
%TO.C,R22*%
X53010000Y-169750000D03*
X51990000Y-169750000D03*
%TD*%
D13*
%TO.C,C26*%
X57520000Y-160000000D03*
X58480000Y-160000000D03*
%TD*%
D11*
%TO.C,R2*%
X79110000Y-157000000D03*
X78090000Y-157000000D03*
%TD*%
D27*
%TO.C,SW1*%
X49700000Y-157380000D03*
X46300000Y-157380000D03*
D28*
X48000000Y-159020000D03*
%TD*%
D26*
%TO.C,C19*%
X53730000Y-155750000D03*
X52770000Y-155750000D03*
%TD*%
D29*
%TO.C,U3*%
X76435000Y-162875000D03*
X76435000Y-163325000D03*
X76435000Y-163775000D03*
X76435000Y-164225000D03*
X76435000Y-164675000D03*
X76435000Y-165125000D03*
X73565000Y-165125000D03*
X73565000Y-164675000D03*
X73565000Y-164225000D03*
X73565000Y-163775000D03*
X73565000Y-163325000D03*
X73565000Y-162875000D03*
%TD*%
D11*
%TO.C,R20*%
X51510000Y-166000000D03*
X50490000Y-166000000D03*
%TD*%
D30*
%TO.C,C18*%
X51000000Y-159480000D03*
X51000000Y-158520000D03*
%TD*%
D19*
%TO.C,R13*%
X62500000Y-157990000D03*
X62500000Y-159010000D03*
%TD*%
D25*
%TO.C,C22*%
X64000000Y-158225000D03*
X64000000Y-159775000D03*
%TD*%
D21*
%TO.C,R23*%
X39540000Y-163800000D03*
X40560000Y-163800000D03*
%TD*%
D19*
%TO.C,TH1*%
X55500000Y-158490000D03*
X55500000Y-159510000D03*
%TD*%
D17*
%TO.C,C30*%
X72000000Y-163275000D03*
X72000000Y-161725000D03*
%TD*%
D20*
%TO.C,C27*%
X63750000Y-170770000D03*
X63750000Y-171730000D03*
%TD*%
D26*
%TO.C,C8*%
X62480000Y-173000000D03*
X61520000Y-173000000D03*
%TD*%
D12*
%TO.C,R16*%
X59500000Y-171760000D03*
X59500000Y-170740000D03*
%TD*%
D20*
%TO.C,C20*%
X55926000Y-170770000D03*
X55926000Y-171730000D03*
%TD*%
%TO.C,C21*%
X56958000Y-170770000D03*
X56958000Y-171730000D03*
%TD*%
D19*
%TO.C,R5*%
X72000000Y-164490000D03*
X72000000Y-165510000D03*
%TD*%
D12*
%TO.C,R12*%
X51250000Y-162260000D03*
X51250000Y-161240000D03*
%TD*%
D25*
%TO.C,C33*%
X76300000Y-159725000D03*
X76300000Y-161275000D03*
%TD*%
D12*
%TO.C,R18*%
X48600000Y-161310000D03*
X48600000Y-160290000D03*
%TD*%
D11*
%TO.C,R8*%
X55010000Y-172700000D03*
X53990000Y-172700000D03*
%TD*%
D31*
%TO.C,SW3*%
X24200000Y-163300000D03*
X24200000Y-166700000D03*
D32*
X25840000Y-165000000D03*
%TD*%
D17*
%TO.C,C40*%
X73250000Y-168525000D03*
X73250000Y-166975000D03*
%TD*%
D33*
%TO.C,L2*%
X58250000Y-158985000D03*
X58250000Y-158015000D03*
%TD*%
D27*
%TO.C,SW2*%
X65300000Y-172600000D03*
X68700000Y-172600000D03*
D28*
X67000000Y-170960000D03*
%TD*%
D34*
%TO.C,Y2*%
X52450000Y-159600000D03*
X52450000Y-157400000D03*
X54050000Y-157400000D03*
X54050000Y-159600000D03*
%TD*%
D35*
%TO.C,FL1*%
X49913001Y-163746000D03*
D36*
X50500000Y-163746000D03*
D35*
X51086999Y-163746000D03*
D36*
X51086999Y-164254000D03*
X50500000Y-164254000D03*
X49913001Y-164254000D03*
%TD*%
D27*
%TO.C,SW4*%
X46300000Y-172600000D03*
X49700000Y-172600000D03*
D28*
X48000000Y-170960000D03*
%TD*%
D30*
%TO.C,C4*%
X52500000Y-162230000D03*
X52500000Y-161270000D03*
%TD*%
D25*
%TO.C,C32*%
X78300000Y-161475000D03*
X78300000Y-163025000D03*
%TD*%
D20*
%TO.C,C34*%
X54894000Y-170770000D03*
X54894000Y-171730000D03*
%TD*%
D17*
%TO.C,C31*%
X78300000Y-166825000D03*
X78300000Y-165275000D03*
%TD*%
D13*
%TO.C,C5*%
X78120000Y-158200000D03*
X79080000Y-158200000D03*
%TD*%
D37*
%TO.C,U2*%
X47750000Y-169500000D03*
X47750000Y-169000000D03*
X47750000Y-168500000D03*
X49250000Y-168500000D03*
X49250000Y-169000000D03*
X49250000Y-169500000D03*
%TD*%
D13*
%TO.C,C36*%
X61520000Y-160000000D03*
X62480000Y-160000000D03*
%TD*%
D30*
%TO.C,C17*%
X41550000Y-163780000D03*
X41550000Y-162820000D03*
%TD*%
D19*
%TO.C,R11*%
X58000000Y-170760000D03*
X58000000Y-171780000D03*
%TD*%
D13*
%TO.C,C2*%
X64270000Y-164750000D03*
X65230000Y-164750000D03*
%TD*%
D11*
%TO.C,R17*%
X74260000Y-160500000D03*
X73240000Y-160500000D03*
%TD*%
D30*
%TO.C,C3*%
X53500000Y-162230000D03*
X53500000Y-161270000D03*
%TD*%
M02*
