%TF.GenerationSoftware,KiCad,Pcbnew,8.0.1*%
%TF.CreationDate,2024-10-15T00:35:35+02:00*%
%TF.ProjectId,InsuDos,496e7375-446f-4732-9e6b-696361645f70,rev?*%
%TF.SameCoordinates,Original*%
%TF.FileFunction,Legend,Bot*%
%TF.FilePolarity,Positive*%
%FSLAX46Y46*%
G04 Gerber Fmt 4.6, Leading zero omitted, Abs format (unit mm)*
G04 Created by KiCad (PCBNEW 8.0.1) date 2024-10-15 00:35:35*
%MOMM*%
%LPD*%
G01*
G04 APERTURE LIST*
%ADD10C,0.100000*%
%ADD11C,0.120000*%
%ADD12C,0.127000*%
%ADD13C,0.200000*%
%ADD14C,0.152400*%
G04 APERTURE END LIST*
D10*
X70993734Y-163646895D02*
X70993734Y-162846895D01*
X70993734Y-162846895D02*
X70803258Y-162846895D01*
X70803258Y-162846895D02*
X70688972Y-162884990D01*
X70688972Y-162884990D02*
X70612782Y-162961180D01*
X70612782Y-162961180D02*
X70574687Y-163037371D01*
X70574687Y-163037371D02*
X70536591Y-163189752D01*
X70536591Y-163189752D02*
X70536591Y-163304038D01*
X70536591Y-163304038D02*
X70574687Y-163456419D01*
X70574687Y-163456419D02*
X70612782Y-163532609D01*
X70612782Y-163532609D02*
X70688972Y-163608800D01*
X70688972Y-163608800D02*
X70803258Y-163646895D01*
X70803258Y-163646895D02*
X70993734Y-163646895D01*
X70193734Y-163646895D02*
X70193734Y-162846895D01*
X69660401Y-162846895D02*
X69508020Y-162846895D01*
X69508020Y-162846895D02*
X69431830Y-162884990D01*
X69431830Y-162884990D02*
X69355639Y-162961180D01*
X69355639Y-162961180D02*
X69317544Y-163113561D01*
X69317544Y-163113561D02*
X69317544Y-163380228D01*
X69317544Y-163380228D02*
X69355639Y-163532609D01*
X69355639Y-163532609D02*
X69431830Y-163608800D01*
X69431830Y-163608800D02*
X69508020Y-163646895D01*
X69508020Y-163646895D02*
X69660401Y-163646895D01*
X69660401Y-163646895D02*
X69736592Y-163608800D01*
X69736592Y-163608800D02*
X69812782Y-163532609D01*
X69812782Y-163532609D02*
X69850878Y-163380228D01*
X69850878Y-163380228D02*
X69850878Y-163113561D01*
X69850878Y-163113561D02*
X69812782Y-162961180D01*
X69812782Y-162961180D02*
X69736592Y-162884990D01*
X69736592Y-162884990D02*
X69660401Y-162846895D01*
X71493734Y-172477847D02*
X71227068Y-172477847D01*
X71112782Y-172896895D02*
X71493734Y-172896895D01*
X71493734Y-172896895D02*
X71493734Y-172096895D01*
X71493734Y-172096895D02*
X71112782Y-172096895D01*
X70769924Y-172896895D02*
X70769924Y-172096895D01*
X70769924Y-172096895D02*
X70312781Y-172896895D01*
X70312781Y-172896895D02*
X70312781Y-172096895D01*
X70046115Y-172096895D02*
X69588972Y-172096895D01*
X69817544Y-172896895D02*
X69817544Y-172096895D01*
X46662782Y-160946895D02*
X47043734Y-160946895D01*
X47043734Y-160946895D02*
X47043734Y-160146895D01*
X46434211Y-160908800D02*
X46319925Y-160946895D01*
X46319925Y-160946895D02*
X46129449Y-160946895D01*
X46129449Y-160946895D02*
X46053258Y-160908800D01*
X46053258Y-160908800D02*
X46015163Y-160870704D01*
X46015163Y-160870704D02*
X45977068Y-160794514D01*
X45977068Y-160794514D02*
X45977068Y-160718323D01*
X45977068Y-160718323D02*
X46015163Y-160642133D01*
X46015163Y-160642133D02*
X46053258Y-160604038D01*
X46053258Y-160604038D02*
X46129449Y-160565942D01*
X46129449Y-160565942D02*
X46281830Y-160527847D01*
X46281830Y-160527847D02*
X46358020Y-160489752D01*
X46358020Y-160489752D02*
X46396115Y-160451657D01*
X46396115Y-160451657D02*
X46434211Y-160375466D01*
X46434211Y-160375466D02*
X46434211Y-160299276D01*
X46434211Y-160299276D02*
X46396115Y-160223085D01*
X46396115Y-160223085D02*
X46358020Y-160184990D01*
X46358020Y-160184990D02*
X46281830Y-160146895D01*
X46281830Y-160146895D02*
X46091353Y-160146895D01*
X46091353Y-160146895D02*
X45977068Y-160184990D01*
X45748496Y-160146895D02*
X45291353Y-160146895D01*
X45519925Y-160946895D02*
X45519925Y-160146895D01*
X72319925Y-166696895D02*
X71824687Y-166696895D01*
X71824687Y-166696895D02*
X72091353Y-167001657D01*
X72091353Y-167001657D02*
X71977068Y-167001657D01*
X71977068Y-167001657D02*
X71900877Y-167039752D01*
X71900877Y-167039752D02*
X71862782Y-167077847D01*
X71862782Y-167077847D02*
X71824687Y-167154038D01*
X71824687Y-167154038D02*
X71824687Y-167344514D01*
X71824687Y-167344514D02*
X71862782Y-167420704D01*
X71862782Y-167420704D02*
X71900877Y-167458800D01*
X71900877Y-167458800D02*
X71977068Y-167496895D01*
X71977068Y-167496895D02*
X72205639Y-167496895D01*
X72205639Y-167496895D02*
X72281830Y-167458800D01*
X72281830Y-167458800D02*
X72319925Y-167420704D01*
X71596115Y-166696895D02*
X71329448Y-167496895D01*
X71329448Y-167496895D02*
X71062782Y-166696895D01*
X70536591Y-165570704D02*
X70574687Y-165608800D01*
X70574687Y-165608800D02*
X70688972Y-165646895D01*
X70688972Y-165646895D02*
X70765163Y-165646895D01*
X70765163Y-165646895D02*
X70879449Y-165608800D01*
X70879449Y-165608800D02*
X70955639Y-165532609D01*
X70955639Y-165532609D02*
X70993734Y-165456419D01*
X70993734Y-165456419D02*
X71031830Y-165304038D01*
X71031830Y-165304038D02*
X71031830Y-165189752D01*
X71031830Y-165189752D02*
X70993734Y-165037371D01*
X70993734Y-165037371D02*
X70955639Y-164961180D01*
X70955639Y-164961180D02*
X70879449Y-164884990D01*
X70879449Y-164884990D02*
X70765163Y-164846895D01*
X70765163Y-164846895D02*
X70688972Y-164846895D01*
X70688972Y-164846895D02*
X70574687Y-164884990D01*
X70574687Y-164884990D02*
X70536591Y-164923085D01*
X69812782Y-165646895D02*
X70193734Y-165646895D01*
X70193734Y-165646895D02*
X70193734Y-164846895D01*
X69546115Y-165646895D02*
X69546115Y-164846895D01*
X69088972Y-165646895D02*
X69431830Y-165189752D01*
X69088972Y-164846895D02*
X69546115Y-165304038D01*
X65724687Y-166634990D02*
X65800877Y-166596895D01*
X65800877Y-166596895D02*
X65915163Y-166596895D01*
X65915163Y-166596895D02*
X66029449Y-166634990D01*
X66029449Y-166634990D02*
X66105639Y-166711180D01*
X66105639Y-166711180D02*
X66143734Y-166787371D01*
X66143734Y-166787371D02*
X66181830Y-166939752D01*
X66181830Y-166939752D02*
X66181830Y-167054038D01*
X66181830Y-167054038D02*
X66143734Y-167206419D01*
X66143734Y-167206419D02*
X66105639Y-167282609D01*
X66105639Y-167282609D02*
X66029449Y-167358800D01*
X66029449Y-167358800D02*
X65915163Y-167396895D01*
X65915163Y-167396895D02*
X65838972Y-167396895D01*
X65838972Y-167396895D02*
X65724687Y-167358800D01*
X65724687Y-167358800D02*
X65686591Y-167320704D01*
X65686591Y-167320704D02*
X65686591Y-167054038D01*
X65686591Y-167054038D02*
X65838972Y-167054038D01*
X65343734Y-167396895D02*
X65343734Y-166596895D01*
X65343734Y-166596895D02*
X64886591Y-167396895D01*
X64886591Y-167396895D02*
X64886591Y-166596895D01*
X64505639Y-167396895D02*
X64505639Y-166596895D01*
X64505639Y-166596895D02*
X64315163Y-166596895D01*
X64315163Y-166596895D02*
X64200877Y-166634990D01*
X64200877Y-166634990D02*
X64124687Y-166711180D01*
X64124687Y-166711180D02*
X64086592Y-166787371D01*
X64086592Y-166787371D02*
X64048496Y-166939752D01*
X64048496Y-166939752D02*
X64048496Y-167054038D01*
X64048496Y-167054038D02*
X64086592Y-167206419D01*
X64086592Y-167206419D02*
X64124687Y-167282609D01*
X64124687Y-167282609D02*
X64200877Y-167358800D01*
X64200877Y-167358800D02*
X64315163Y-167396895D01*
X64315163Y-167396895D02*
X64505639Y-167396895D01*
X25993734Y-169896895D02*
X25993734Y-169096895D01*
X25993734Y-169096895D02*
X25803258Y-169096895D01*
X25803258Y-169096895D02*
X25688972Y-169134990D01*
X25688972Y-169134990D02*
X25612782Y-169211180D01*
X25612782Y-169211180D02*
X25574687Y-169287371D01*
X25574687Y-169287371D02*
X25536591Y-169439752D01*
X25536591Y-169439752D02*
X25536591Y-169554038D01*
X25536591Y-169554038D02*
X25574687Y-169706419D01*
X25574687Y-169706419D02*
X25612782Y-169782609D01*
X25612782Y-169782609D02*
X25688972Y-169858800D01*
X25688972Y-169858800D02*
X25803258Y-169896895D01*
X25803258Y-169896895D02*
X25993734Y-169896895D01*
X25041353Y-169096895D02*
X24888972Y-169096895D01*
X24888972Y-169096895D02*
X24812782Y-169134990D01*
X24812782Y-169134990D02*
X24736591Y-169211180D01*
X24736591Y-169211180D02*
X24698496Y-169363561D01*
X24698496Y-169363561D02*
X24698496Y-169630228D01*
X24698496Y-169630228D02*
X24736591Y-169782609D01*
X24736591Y-169782609D02*
X24812782Y-169858800D01*
X24812782Y-169858800D02*
X24888972Y-169896895D01*
X24888972Y-169896895D02*
X25041353Y-169896895D01*
X25041353Y-169896895D02*
X25117544Y-169858800D01*
X25117544Y-169858800D02*
X25193734Y-169782609D01*
X25193734Y-169782609D02*
X25231830Y-169630228D01*
X25231830Y-169630228D02*
X25231830Y-169363561D01*
X25231830Y-169363561D02*
X25193734Y-169211180D01*
X25193734Y-169211180D02*
X25117544Y-169134990D01*
X25117544Y-169134990D02*
X25041353Y-169096895D01*
X24393735Y-169858800D02*
X24279449Y-169896895D01*
X24279449Y-169896895D02*
X24088973Y-169896895D01*
X24088973Y-169896895D02*
X24012782Y-169858800D01*
X24012782Y-169858800D02*
X23974687Y-169820704D01*
X23974687Y-169820704D02*
X23936592Y-169744514D01*
X23936592Y-169744514D02*
X23936592Y-169668323D01*
X23936592Y-169668323D02*
X23974687Y-169592133D01*
X23974687Y-169592133D02*
X24012782Y-169554038D01*
X24012782Y-169554038D02*
X24088973Y-169515942D01*
X24088973Y-169515942D02*
X24241354Y-169477847D01*
X24241354Y-169477847D02*
X24317544Y-169439752D01*
X24317544Y-169439752D02*
X24355639Y-169401657D01*
X24355639Y-169401657D02*
X24393735Y-169325466D01*
X24393735Y-169325466D02*
X24393735Y-169249276D01*
X24393735Y-169249276D02*
X24355639Y-169173085D01*
X24355639Y-169173085D02*
X24317544Y-169134990D01*
X24317544Y-169134990D02*
X24241354Y-169096895D01*
X24241354Y-169096895D02*
X24050877Y-169096895D01*
X24050877Y-169096895D02*
X23936592Y-169134990D01*
X23593734Y-169477847D02*
X23327068Y-169477847D01*
X23212782Y-169896895D02*
X23593734Y-169896895D01*
X23593734Y-169896895D02*
X23593734Y-169096895D01*
X23593734Y-169096895D02*
X23212782Y-169096895D01*
X70186591Y-169596895D02*
X70453258Y-169215942D01*
X70643734Y-169596895D02*
X70643734Y-168796895D01*
X70643734Y-168796895D02*
X70338972Y-168796895D01*
X70338972Y-168796895D02*
X70262782Y-168834990D01*
X70262782Y-168834990D02*
X70224687Y-168873085D01*
X70224687Y-168873085D02*
X70186591Y-168949276D01*
X70186591Y-168949276D02*
X70186591Y-169063561D01*
X70186591Y-169063561D02*
X70224687Y-169139752D01*
X70224687Y-169139752D02*
X70262782Y-169177847D01*
X70262782Y-169177847D02*
X70338972Y-169215942D01*
X70338972Y-169215942D02*
X70643734Y-169215942D01*
X69881830Y-169558800D02*
X69767544Y-169596895D01*
X69767544Y-169596895D02*
X69577068Y-169596895D01*
X69577068Y-169596895D02*
X69500877Y-169558800D01*
X69500877Y-169558800D02*
X69462782Y-169520704D01*
X69462782Y-169520704D02*
X69424687Y-169444514D01*
X69424687Y-169444514D02*
X69424687Y-169368323D01*
X69424687Y-169368323D02*
X69462782Y-169292133D01*
X69462782Y-169292133D02*
X69500877Y-169254038D01*
X69500877Y-169254038D02*
X69577068Y-169215942D01*
X69577068Y-169215942D02*
X69729449Y-169177847D01*
X69729449Y-169177847D02*
X69805639Y-169139752D01*
X69805639Y-169139752D02*
X69843734Y-169101657D01*
X69843734Y-169101657D02*
X69881830Y-169025466D01*
X69881830Y-169025466D02*
X69881830Y-168949276D01*
X69881830Y-168949276D02*
X69843734Y-168873085D01*
X69843734Y-168873085D02*
X69805639Y-168834990D01*
X69805639Y-168834990D02*
X69729449Y-168796895D01*
X69729449Y-168796895D02*
X69538972Y-168796895D01*
X69538972Y-168796895D02*
X69424687Y-168834990D01*
X69196115Y-168796895D02*
X68738972Y-168796895D01*
X68967544Y-169596895D02*
X68967544Y-168796895D01*
X44993734Y-171977847D02*
X44727068Y-171977847D01*
X44612782Y-172396895D02*
X44993734Y-172396895D01*
X44993734Y-172396895D02*
X44993734Y-171596895D01*
X44993734Y-171596895D02*
X44612782Y-171596895D01*
X44308020Y-172358800D02*
X44193734Y-172396895D01*
X44193734Y-172396895D02*
X44003258Y-172396895D01*
X44003258Y-172396895D02*
X43927067Y-172358800D01*
X43927067Y-172358800D02*
X43888972Y-172320704D01*
X43888972Y-172320704D02*
X43850877Y-172244514D01*
X43850877Y-172244514D02*
X43850877Y-172168323D01*
X43850877Y-172168323D02*
X43888972Y-172092133D01*
X43888972Y-172092133D02*
X43927067Y-172054038D01*
X43927067Y-172054038D02*
X44003258Y-172015942D01*
X44003258Y-172015942D02*
X44155639Y-171977847D01*
X44155639Y-171977847D02*
X44231829Y-171939752D01*
X44231829Y-171939752D02*
X44269924Y-171901657D01*
X44269924Y-171901657D02*
X44308020Y-171825466D01*
X44308020Y-171825466D02*
X44308020Y-171749276D01*
X44308020Y-171749276D02*
X44269924Y-171673085D01*
X44269924Y-171673085D02*
X44231829Y-171634990D01*
X44231829Y-171634990D02*
X44155639Y-171596895D01*
X44155639Y-171596895D02*
X43965162Y-171596895D01*
X43965162Y-171596895D02*
X43850877Y-171634990D01*
X43050876Y-172320704D02*
X43088972Y-172358800D01*
X43088972Y-172358800D02*
X43203257Y-172396895D01*
X43203257Y-172396895D02*
X43279448Y-172396895D01*
X43279448Y-172396895D02*
X43393734Y-172358800D01*
X43393734Y-172358800D02*
X43469924Y-172282609D01*
X43469924Y-172282609D02*
X43508019Y-172206419D01*
X43508019Y-172206419D02*
X43546115Y-172054038D01*
X43546115Y-172054038D02*
X43546115Y-171939752D01*
X43546115Y-171939752D02*
X43508019Y-171787371D01*
X43508019Y-171787371D02*
X43469924Y-171711180D01*
X43469924Y-171711180D02*
X43393734Y-171634990D01*
X43393734Y-171634990D02*
X43279448Y-171596895D01*
X43279448Y-171596895D02*
X43203257Y-171596895D01*
X43203257Y-171596895D02*
X43088972Y-171634990D01*
X43088972Y-171634990D02*
X43050876Y-171673085D01*
D11*
%TO.C,R19*%
X56046359Y-170080000D02*
X56353641Y-170080000D01*
X56046359Y-169320000D02*
X56353641Y-169320000D01*
%TO.C,R6*%
X74420000Y-166896359D02*
X74420000Y-167203641D01*
X75180000Y-166896359D02*
X75180000Y-167203641D01*
%TO.C,C7*%
X60107836Y-172640000D02*
X59892164Y-172640000D01*
X60107836Y-173360000D02*
X59892164Y-173360000D01*
%TO.C,Y1*%
X60300000Y-172300000D02*
X62700000Y-172300000D01*
X62700000Y-170700000D02*
X60300000Y-170700000D01*
X62700000Y-172300000D02*
X62700000Y-170700000D01*
%TO.C,U1*%
X69950000Y-159060000D02*
X68900000Y-159060000D01*
X70200000Y-161040000D02*
X68900000Y-161040000D01*
X70600000Y-159060000D02*
X70320000Y-159060000D01*
X70320000Y-158780000D01*
X70600000Y-159060000D01*
G36*
X70600000Y-159060000D02*
G01*
X70320000Y-159060000D01*
X70320000Y-158780000D01*
X70600000Y-159060000D01*
G37*
%TO.C,C6*%
X49290000Y-161559420D02*
X49290000Y-161840580D01*
X50310000Y-161559420D02*
X50310000Y-161840580D01*
%TO.C,L3*%
X58990000Y-158162779D02*
X58990000Y-157837221D01*
X60010000Y-158162779D02*
X60010000Y-157837221D01*
%TO.C,R10*%
X52346359Y-168120000D02*
X52653641Y-168120000D01*
X52346359Y-168880000D02*
X52653641Y-168880000D01*
%TO.C,R7*%
X53472000Y-171423641D02*
X53472000Y-171116359D01*
X54232000Y-171423641D02*
X54232000Y-171116359D01*
%TO.C,C1*%
X60490000Y-157859420D02*
X60490000Y-158140580D01*
X61510000Y-157859420D02*
X61510000Y-158140580D01*
%TO.C,C23*%
X63140000Y-169107836D02*
X63140000Y-168892164D01*
X63860000Y-169107836D02*
X63860000Y-168892164D01*
%TO.C,R15*%
X74653641Y-161120000D02*
X74346359Y-161120000D01*
X74653641Y-161880000D02*
X74346359Y-161880000D01*
%TO.C,TP1*%
X66900000Y-164300000D02*
X68300000Y-164300000D01*
X66900000Y-165700000D02*
X66900000Y-164300000D01*
X68300000Y-164300000D02*
X68300000Y-165700000D01*
X68300000Y-165700000D02*
X66900000Y-165700000D01*
%TO.C,C16*%
X39157836Y-162440000D02*
X38942164Y-162440000D01*
X39157836Y-163160000D02*
X38942164Y-163160000D01*
%TO.C,C24*%
X62107836Y-169390000D02*
X61892164Y-169390000D01*
X62107836Y-170110000D02*
X61892164Y-170110000D01*
%TO.C,TP2*%
X66900000Y-166300000D02*
X68300000Y-166300000D01*
X66900000Y-167700000D02*
X66900000Y-166300000D01*
X68300000Y-166300000D02*
X68300000Y-167700000D01*
X68300000Y-167700000D02*
X66900000Y-167700000D01*
%TO.C,U4*%
X54790000Y-161290000D02*
X54790000Y-161765000D01*
X54790000Y-168510000D02*
X54790000Y-168035000D01*
X55265000Y-161290000D02*
X54790000Y-161290000D01*
X55265000Y-168510000D02*
X54790000Y-168510000D01*
X61535000Y-161290000D02*
X62010000Y-161290000D01*
X61770000Y-168510000D02*
X61535000Y-168510000D01*
X62010000Y-161290000D02*
X62010000Y-161765000D01*
X62010000Y-168210000D02*
X62010000Y-168035000D01*
X62340000Y-168750000D02*
X62010000Y-168510000D01*
X62340000Y-168270000D01*
X62340000Y-168750000D01*
G36*
X62340000Y-168750000D02*
G01*
X62010000Y-168510000D01*
X62340000Y-168270000D01*
X62340000Y-168750000D01*
G37*
%TO.C,C39*%
X56490000Y-158140580D02*
X56490000Y-157859420D01*
X57510000Y-158140580D02*
X57510000Y-157859420D01*
%TO.C,C25*%
X52492164Y-164040000D02*
X52707836Y-164040000D01*
X52492164Y-164760000D02*
X52707836Y-164760000D01*
%TO.C,TP3*%
X66900000Y-162300000D02*
X68300000Y-162300000D01*
X66900000Y-163700000D02*
X66900000Y-162300000D01*
X68300000Y-162300000D02*
X68300000Y-163700000D01*
X68300000Y-163700000D02*
X66900000Y-163700000D01*
%TO.C,R14*%
X64903641Y-163370000D02*
X64596359Y-163370000D01*
X64903641Y-164130000D02*
X64596359Y-164130000D01*
%TO.C,R21*%
X50620000Y-172903641D02*
X50620000Y-172596359D01*
X51380000Y-172903641D02*
X51380000Y-172596359D01*
%TO.C,C9*%
X50140000Y-169107836D02*
X50140000Y-168892164D01*
X50860000Y-169107836D02*
X50860000Y-168892164D01*
%TO.C,R22*%
X52346359Y-169370000D02*
X52653641Y-169370000D01*
X52346359Y-170130000D02*
X52653641Y-170130000D01*
%TO.C,C26*%
X58107836Y-159640000D02*
X57892164Y-159640000D01*
X58107836Y-160360000D02*
X57892164Y-160360000D01*
%TO.C,R2*%
X78446359Y-156620000D02*
X78753641Y-156620000D01*
X78446359Y-157380000D02*
X78753641Y-157380000D01*
%TO.C,TP5*%
X69300000Y-166300000D02*
X70700000Y-166300000D01*
X69300000Y-167700000D02*
X69300000Y-166300000D01*
X70700000Y-166300000D02*
X70700000Y-167700000D01*
X70700000Y-167700000D02*
X69300000Y-167700000D01*
%TO.C,SW1*%
X46350000Y-155980000D02*
X49650000Y-155980000D01*
X46350000Y-156270000D02*
X46350000Y-155980000D01*
X46350000Y-158480000D02*
X46350000Y-158770000D01*
X47000000Y-155660000D02*
X47500000Y-155280000D01*
X47000000Y-155980000D02*
X47000000Y-155660000D01*
X47350000Y-158770000D02*
X46350000Y-158770000D01*
X47500000Y-155280000D02*
X48500000Y-155280000D01*
X48650000Y-158770000D02*
X49650000Y-158770000D01*
X49000000Y-155660000D02*
X48500000Y-155280000D01*
X49000000Y-155980000D02*
X49000000Y-155660000D01*
X49650000Y-155980000D02*
X49650000Y-156270000D01*
X49650000Y-158770000D02*
X49650000Y-158480000D01*
%TO.C,C19*%
X53142164Y-155390000D02*
X53357836Y-155390000D01*
X53142164Y-156110000D02*
X53357836Y-156110000D01*
D12*
%TO.C,U3*%
X73500000Y-162425000D02*
X76500000Y-162425000D01*
X76500000Y-165575000D02*
X73500000Y-165575000D01*
D13*
X77735000Y-162875000D02*
G75*
G02*
X77535000Y-162875000I-100000J0D01*
G01*
X77535000Y-162875000D02*
G75*
G02*
X77735000Y-162875000I100000J0D01*
G01*
D11*
%TO.C,R20*%
X50846359Y-165620000D02*
X51153641Y-165620000D01*
X50846359Y-166380000D02*
X51153641Y-166380000D01*
%TO.C,C18*%
X50640000Y-158892164D02*
X50640000Y-159107836D01*
X51360000Y-158892164D02*
X51360000Y-159107836D01*
%TO.C,R13*%
X62120000Y-158653641D02*
X62120000Y-158346359D01*
X62880000Y-158653641D02*
X62880000Y-158346359D01*
%TO.C,C22*%
X63490000Y-159140580D02*
X63490000Y-158859420D01*
X64510000Y-159140580D02*
X64510000Y-158859420D01*
%TO.C,R23*%
X40203641Y-163420000D02*
X39896359Y-163420000D01*
X40203641Y-164180000D02*
X39896359Y-164180000D01*
%TO.C,TH1*%
X55120000Y-159153641D02*
X55120000Y-158846359D01*
X55880000Y-159153641D02*
X55880000Y-158846359D01*
%TO.C,C30*%
X71490000Y-162359420D02*
X71490000Y-162640580D01*
X72510000Y-162359420D02*
X72510000Y-162640580D01*
%TO.C,C27*%
X63390000Y-171357836D02*
X63390000Y-171142164D01*
X64110000Y-171357836D02*
X64110000Y-171142164D01*
%TO.C,TP4*%
X66900000Y-168500000D02*
X68300000Y-168500000D01*
X66900000Y-169900000D02*
X66900000Y-168500000D01*
X68300000Y-168500000D02*
X68300000Y-169900000D01*
X68300000Y-169900000D02*
X66900000Y-169900000D01*
%TO.C,C8*%
X61892164Y-172640000D02*
X62107836Y-172640000D01*
X61892164Y-173360000D02*
X62107836Y-173360000D01*
%TO.C,R16*%
X59120000Y-171096359D02*
X59120000Y-171403641D01*
X59880000Y-171096359D02*
X59880000Y-171403641D01*
%TO.C,C20*%
X55566000Y-171357836D02*
X55566000Y-171142164D01*
X56286000Y-171357836D02*
X56286000Y-171142164D01*
%TO.C,C21*%
X56598000Y-171357836D02*
X56598000Y-171142164D01*
X57318000Y-171357836D02*
X57318000Y-171142164D01*
%TO.C,R5*%
X71620000Y-165153641D02*
X71620000Y-164846359D01*
X72380000Y-165153641D02*
X72380000Y-164846359D01*
%TO.C,R12*%
X50870000Y-161596359D02*
X50870000Y-161903641D01*
X51630000Y-161596359D02*
X51630000Y-161903641D01*
%TO.C,C33*%
X75790000Y-160640580D02*
X75790000Y-160359420D01*
X76810000Y-160640580D02*
X76810000Y-160359420D01*
%TO.C,R18*%
X48980000Y-160646359D02*
X48980000Y-160953641D01*
X48220000Y-160646359D02*
X48220000Y-160953641D01*
%TO.C,R8*%
X54346359Y-172320000D02*
X54653641Y-172320000D01*
X54346359Y-173080000D02*
X54653641Y-173080000D01*
%TO.C,SW3*%
X22800000Y-163350000D02*
X23090000Y-163350000D01*
X22800000Y-166650000D02*
X22800000Y-163350000D01*
X23090000Y-166650000D02*
X22800000Y-166650000D01*
X25300000Y-166650000D02*
X25590000Y-166650000D01*
X25590000Y-163350000D02*
X25300000Y-163350000D01*
X25590000Y-164350000D02*
X25590000Y-163350000D01*
X25590000Y-165650000D02*
X25590000Y-166650000D01*
%TO.C,C40*%
X72740000Y-167609420D02*
X72740000Y-167890580D01*
X73760000Y-167609420D02*
X73760000Y-167890580D01*
%TO.C,SW2*%
X65350000Y-171210000D02*
X65350000Y-171500000D01*
X65350000Y-174000000D02*
X65350000Y-173710000D01*
X66000000Y-174000000D02*
X66000000Y-174320000D01*
X66000000Y-174320000D02*
X66500000Y-174700000D01*
X66350000Y-171210000D02*
X65350000Y-171210000D01*
X67500000Y-174700000D02*
X66500000Y-174700000D01*
X67650000Y-171210000D02*
X68650000Y-171210000D01*
X68000000Y-174000000D02*
X68000000Y-174320000D01*
X68000000Y-174320000D02*
X67500000Y-174700000D01*
X68650000Y-171500000D02*
X68650000Y-171210000D01*
X68650000Y-173710000D02*
X68650000Y-174000000D01*
X68650000Y-174000000D02*
X65350000Y-174000000D01*
D12*
%TO.C,Y2*%
X52000000Y-158420000D02*
X52000000Y-158580000D01*
X54500000Y-158420000D02*
X54500000Y-158580000D01*
D13*
X51225000Y-159600000D02*
G75*
G02*
X51025000Y-159600000I-100000J0D01*
G01*
X51025000Y-159600000D02*
G75*
G02*
X51225000Y-159600000I100000J0D01*
G01*
D14*
%TO.C,FL1*%
X49869210Y-163311659D02*
G75*
G02*
X49956790Y-163311659I43790J62359D01*
G01*
D11*
%TO.C,SW4*%
X46350000Y-171210000D02*
X46350000Y-171500000D01*
X46350000Y-174000000D02*
X46350000Y-173710000D01*
X47000000Y-174000000D02*
X47000000Y-174320000D01*
X47000000Y-174320000D02*
X47500000Y-174700000D01*
X47350000Y-171210000D02*
X46350000Y-171210000D01*
X48500000Y-174700000D02*
X47500000Y-174700000D01*
X48650000Y-171210000D02*
X49650000Y-171210000D01*
X49000000Y-174000000D02*
X49000000Y-174320000D01*
X49000000Y-174320000D02*
X48500000Y-174700000D01*
X49650000Y-171500000D02*
X49650000Y-171210000D01*
X49650000Y-173710000D02*
X49650000Y-174000000D01*
X49650000Y-174000000D02*
X46350000Y-174000000D01*
%TO.C,C4*%
X52140000Y-161642164D02*
X52140000Y-161857836D01*
X52860000Y-161642164D02*
X52860000Y-161857836D01*
%TO.C,C32*%
X77790000Y-162390580D02*
X77790000Y-162109420D01*
X78810000Y-162390580D02*
X78810000Y-162109420D01*
%TO.C,C34*%
X54534000Y-171357836D02*
X54534000Y-171142164D01*
X55254000Y-171357836D02*
X55254000Y-171142164D01*
%TO.C,C31*%
X77790000Y-165909420D02*
X77790000Y-166190580D01*
X78810000Y-165909420D02*
X78810000Y-166190580D01*
%TO.C,C5*%
X78707836Y-157840000D02*
X78492164Y-157840000D01*
X78707836Y-158560000D02*
X78492164Y-158560000D01*
%TO.C,U2*%
X47850000Y-168100000D02*
X49150000Y-168100000D01*
X48050000Y-169900000D02*
X49150000Y-169900000D01*
X47800000Y-170180000D02*
X47520000Y-169900000D01*
X47800000Y-169900000D01*
X47800000Y-170180000D01*
G36*
X47800000Y-170180000D02*
G01*
X47520000Y-169900000D01*
X47800000Y-169900000D01*
X47800000Y-170180000D01*
G37*
%TO.C,C36*%
X62107836Y-159640000D02*
X61892164Y-159640000D01*
X62107836Y-160360000D02*
X61892164Y-160360000D01*
%TO.C,C17*%
X41190000Y-163192164D02*
X41190000Y-163407836D01*
X41910000Y-163192164D02*
X41910000Y-163407836D01*
%TO.C,R11*%
X57620000Y-171423641D02*
X57620000Y-171116359D01*
X58380000Y-171423641D02*
X58380000Y-171116359D01*
%TO.C,C2*%
X64857836Y-164390000D02*
X64642164Y-164390000D01*
X64857836Y-165110000D02*
X64642164Y-165110000D01*
%TO.C,R17*%
X73596359Y-160120000D02*
X73903641Y-160120000D01*
X73596359Y-160880000D02*
X73903641Y-160880000D01*
%TO.C,C3*%
X53140000Y-161642164D02*
X53140000Y-161857836D01*
X53860000Y-161642164D02*
X53860000Y-161857836D01*
%TD*%
M02*
