%TF.GenerationSoftware,KiCad,Pcbnew,8.0.1*%
%TF.CreationDate,2024-10-15T00:35:35+02:00*%
%TF.ProjectId,InsuDos,496e7375-446f-4732-9e6b-696361645f70,rev?*%
%TF.SameCoordinates,Original*%
%TF.FileFunction,Soldermask,Top*%
%TF.FilePolarity,Negative*%
%FSLAX46Y46*%
G04 Gerber Fmt 4.6, Leading zero omitted, Abs format (unit mm)*
G04 Created by KiCad (PCBNEW 8.0.1) date 2024-10-15 00:35:35*
%MOMM*%
%LPD*%
G01*
G04 APERTURE LIST*
G04 APERTURE END LIST*
G36*
X74445796Y-173894082D02*
G01*
X74505815Y-173934185D01*
X74545918Y-173994204D01*
X74560000Y-174065000D01*
X74560000Y-174435000D01*
X74545918Y-174505796D01*
X74505815Y-174565815D01*
X74445796Y-174605918D01*
X74375000Y-174620000D01*
X74105000Y-174620000D01*
X74034204Y-174605918D01*
X73974185Y-174565815D01*
X73934082Y-174505796D01*
X73920000Y-174435000D01*
X73920000Y-174065000D01*
X73934082Y-173994204D01*
X73974185Y-173934185D01*
X74034204Y-173894082D01*
X74105000Y-173880000D01*
X74375000Y-173880000D01*
X74445796Y-173894082D01*
G37*
G36*
X75465796Y-173894082D02*
G01*
X75525815Y-173934185D01*
X75565918Y-173994204D01*
X75580000Y-174065000D01*
X75580000Y-174435000D01*
X75565918Y-174505796D01*
X75525815Y-174565815D01*
X75465796Y-174605918D01*
X75395000Y-174620000D01*
X75125000Y-174620000D01*
X75054204Y-174605918D01*
X74994185Y-174565815D01*
X74954082Y-174505796D01*
X74940000Y-174435000D01*
X74940000Y-174065000D01*
X74954082Y-173994204D01*
X74994185Y-173934185D01*
X75054204Y-173894082D01*
X75125000Y-173880000D01*
X75395000Y-173880000D01*
X75465796Y-173894082D01*
G37*
G36*
X77195796Y-173894082D02*
G01*
X77255815Y-173934185D01*
X77295918Y-173994204D01*
X77310000Y-174065000D01*
X77310000Y-174435000D01*
X77295918Y-174505796D01*
X77255815Y-174565815D01*
X77195796Y-174605918D01*
X77125000Y-174620000D01*
X76855000Y-174620000D01*
X76784204Y-174605918D01*
X76724185Y-174565815D01*
X76684082Y-174505796D01*
X76670000Y-174435000D01*
X76670000Y-174065000D01*
X76684082Y-173994204D01*
X76724185Y-173934185D01*
X76784204Y-173894082D01*
X76855000Y-173880000D01*
X77125000Y-173880000D01*
X77195796Y-173894082D01*
G37*
G36*
X78215796Y-173894082D02*
G01*
X78275815Y-173934185D01*
X78315918Y-173994204D01*
X78330000Y-174065000D01*
X78330000Y-174435000D01*
X78315918Y-174505796D01*
X78275815Y-174565815D01*
X78215796Y-174605918D01*
X78145000Y-174620000D01*
X77875000Y-174620000D01*
X77804204Y-174605918D01*
X77744185Y-174565815D01*
X77704082Y-174505796D01*
X77690000Y-174435000D01*
X77690000Y-174065000D01*
X77704082Y-173994204D01*
X77744185Y-173934185D01*
X77804204Y-173894082D01*
X77875000Y-173880000D01*
X78145000Y-173880000D01*
X78215796Y-173894082D01*
G37*
G36*
X72024686Y-173362370D02*
G01*
X72077405Y-173397595D01*
X72112630Y-173450314D01*
X72125000Y-173512500D01*
X72125000Y-173987500D01*
X72112630Y-174049686D01*
X72077405Y-174102405D01*
X72024686Y-174137630D01*
X71962500Y-174150000D01*
X71737500Y-174150000D01*
X71675314Y-174137630D01*
X71622595Y-174102405D01*
X71587370Y-174049686D01*
X71575000Y-173987500D01*
X71575000Y-173512500D01*
X71587370Y-173450314D01*
X71622595Y-173397595D01*
X71675314Y-173362370D01*
X71737500Y-173350000D01*
X71962500Y-173350000D01*
X72024686Y-173362370D01*
G37*
G36*
X73324686Y-173362370D02*
G01*
X73377405Y-173397595D01*
X73412630Y-173450314D01*
X73425000Y-173512500D01*
X73425000Y-173987500D01*
X73412630Y-174049686D01*
X73377405Y-174102405D01*
X73324686Y-174137630D01*
X73262500Y-174150000D01*
X73037500Y-174150000D01*
X72975314Y-174137630D01*
X72922595Y-174102405D01*
X72887370Y-174049686D01*
X72875000Y-173987500D01*
X72875000Y-173512500D01*
X72887370Y-173450314D01*
X72922595Y-173397595D01*
X72975314Y-173362370D01*
X73037500Y-173350000D01*
X73262500Y-173350000D01*
X73324686Y-173362370D01*
G37*
G36*
X79429160Y-172819600D02*
G01*
X79453882Y-172836118D01*
X79470400Y-172860840D01*
X79476200Y-172890000D01*
X79476200Y-173190000D01*
X79470400Y-173219160D01*
X79453882Y-173243882D01*
X79429160Y-173260400D01*
X79400000Y-173266200D01*
X78400000Y-173266200D01*
X78370840Y-173260400D01*
X78346118Y-173243882D01*
X78329600Y-173219160D01*
X78323800Y-173190000D01*
X78323800Y-172890000D01*
X78329600Y-172860840D01*
X78346118Y-172836118D01*
X78370840Y-172819600D01*
X78400000Y-172813800D01*
X79400000Y-172813800D01*
X79429160Y-172819600D01*
G37*
G36*
X48186937Y-172190666D02*
G01*
X48294687Y-172259913D01*
X48378564Y-172356712D01*
X48431772Y-172473220D01*
X48450000Y-172600000D01*
X48431772Y-172726780D01*
X48378564Y-172843288D01*
X48294687Y-172940087D01*
X48186937Y-173009334D01*
X48064042Y-173045420D01*
X47935958Y-173045420D01*
X47813063Y-173009334D01*
X47705313Y-172940087D01*
X47621436Y-172843288D01*
X47568228Y-172726780D01*
X47550000Y-172600000D01*
X47568228Y-172473220D01*
X47621436Y-172356712D01*
X47705313Y-172259913D01*
X47813063Y-172190666D01*
X47935958Y-172154580D01*
X48064042Y-172154580D01*
X48186937Y-172190666D01*
G37*
G36*
X67186937Y-172190666D02*
G01*
X67294687Y-172259913D01*
X67378564Y-172356712D01*
X67431772Y-172473220D01*
X67450000Y-172600000D01*
X67431772Y-172726780D01*
X67378564Y-172843288D01*
X67294687Y-172940087D01*
X67186937Y-173009334D01*
X67064042Y-173045420D01*
X66935958Y-173045420D01*
X66813063Y-173009334D01*
X66705313Y-172940087D01*
X66621436Y-172843288D01*
X66568228Y-172726780D01*
X66550000Y-172600000D01*
X66568228Y-172473220D01*
X66621436Y-172356712D01*
X66705313Y-172259913D01*
X66813063Y-172190666D01*
X66935958Y-172154580D01*
X67064042Y-172154580D01*
X67186937Y-172190666D01*
G37*
G36*
X76629160Y-163529600D02*
G01*
X76653882Y-163546118D01*
X76670400Y-163570840D01*
X76676200Y-163600000D01*
X76676200Y-163900000D01*
X76670400Y-163929160D01*
X76653882Y-163953882D01*
X76629160Y-163970400D01*
X76626694Y-163970890D01*
X76623127Y-163973274D01*
X76623127Y-164026726D01*
X76626694Y-164029109D01*
X76629160Y-164029600D01*
X76653882Y-164046118D01*
X76670400Y-164070840D01*
X76676200Y-164100000D01*
X76676200Y-164400000D01*
X76670400Y-164429160D01*
X76653882Y-164453882D01*
X76629160Y-164470400D01*
X76626694Y-164470890D01*
X76623127Y-164473274D01*
X76623127Y-164526726D01*
X76626694Y-164529109D01*
X76629160Y-164529600D01*
X76653882Y-164546118D01*
X76670400Y-164570840D01*
X76676200Y-164600000D01*
X76676200Y-164900000D01*
X76670400Y-164929160D01*
X76653882Y-164953882D01*
X76629160Y-164970400D01*
X76626694Y-164970890D01*
X76623127Y-164973274D01*
X76623127Y-165026726D01*
X76626694Y-165029109D01*
X76629160Y-165029600D01*
X76653882Y-165046118D01*
X76670400Y-165070840D01*
X76676200Y-165100000D01*
X76676200Y-165400000D01*
X76670400Y-165429160D01*
X76653882Y-165453882D01*
X76629160Y-165470400D01*
X76626694Y-165470890D01*
X76623127Y-165473274D01*
X76623127Y-165526726D01*
X76626694Y-165529109D01*
X76629160Y-165529600D01*
X76653882Y-165546118D01*
X76670400Y-165570840D01*
X76676200Y-165600000D01*
X76676200Y-165900000D01*
X76670400Y-165929160D01*
X76653882Y-165953882D01*
X76629160Y-165970400D01*
X76626694Y-165970890D01*
X76623127Y-165973274D01*
X76623127Y-166026726D01*
X76626694Y-166029109D01*
X76629160Y-166029600D01*
X76653882Y-166046118D01*
X76670400Y-166070840D01*
X76676200Y-166100000D01*
X76676200Y-166400000D01*
X76670400Y-166429160D01*
X76653882Y-166453882D01*
X76629160Y-166470400D01*
X76626694Y-166470890D01*
X76623127Y-166473274D01*
X76623127Y-166526726D01*
X76626694Y-166529109D01*
X76629160Y-166529600D01*
X76653882Y-166546118D01*
X76670400Y-166570840D01*
X76676200Y-166600000D01*
X76676200Y-166900000D01*
X76670400Y-166929160D01*
X76653882Y-166953882D01*
X76629160Y-166970400D01*
X76626694Y-166970890D01*
X76623127Y-166973274D01*
X76623127Y-167026726D01*
X76626694Y-167029109D01*
X76629160Y-167029600D01*
X76653882Y-167046118D01*
X76670400Y-167070840D01*
X76676200Y-167100000D01*
X76676200Y-167400000D01*
X76670400Y-167429160D01*
X76653882Y-167453882D01*
X76629160Y-167470400D01*
X76626694Y-167470890D01*
X76623127Y-167473274D01*
X76623127Y-167526726D01*
X76626694Y-167529109D01*
X76629160Y-167529600D01*
X76653882Y-167546118D01*
X76670400Y-167570840D01*
X76676200Y-167600000D01*
X76676200Y-167900000D01*
X76670400Y-167929160D01*
X76653882Y-167953882D01*
X76629160Y-167970400D01*
X76626694Y-167970890D01*
X76623127Y-167973274D01*
X76623127Y-168026726D01*
X76626694Y-168029109D01*
X76629160Y-168029600D01*
X76653882Y-168046118D01*
X76670400Y-168070840D01*
X76676200Y-168100000D01*
X76676200Y-168400000D01*
X76670400Y-168429160D01*
X76653882Y-168453882D01*
X76629160Y-168470400D01*
X76626694Y-168470890D01*
X76623127Y-168473274D01*
X76623127Y-168526726D01*
X76626694Y-168529109D01*
X76629160Y-168529600D01*
X76653882Y-168546118D01*
X76670400Y-168570840D01*
X76676200Y-168600000D01*
X76676200Y-168900000D01*
X76670400Y-168929160D01*
X76653882Y-168953882D01*
X76629160Y-168970400D01*
X76626694Y-168970890D01*
X76623127Y-168973274D01*
X76623127Y-169026726D01*
X76626694Y-169029109D01*
X76629160Y-169029600D01*
X76653882Y-169046118D01*
X76670400Y-169070840D01*
X76676200Y-169100000D01*
X76676200Y-169400000D01*
X76670400Y-169429160D01*
X76653882Y-169453882D01*
X76629160Y-169470400D01*
X76626694Y-169470890D01*
X76623127Y-169473274D01*
X76623127Y-169526726D01*
X76626694Y-169529109D01*
X76629160Y-169529600D01*
X76653882Y-169546118D01*
X76670400Y-169570840D01*
X76676200Y-169600000D01*
X76676200Y-169900000D01*
X76670400Y-169929160D01*
X76653882Y-169953882D01*
X76629160Y-169970400D01*
X76626694Y-169970890D01*
X76623127Y-169973274D01*
X76623127Y-170026726D01*
X76626694Y-170029109D01*
X76629160Y-170029600D01*
X76653882Y-170046118D01*
X76670400Y-170070840D01*
X76676200Y-170100000D01*
X76676200Y-170400000D01*
X76670400Y-170429160D01*
X76653882Y-170453882D01*
X76629160Y-170470400D01*
X76626694Y-170470890D01*
X76623127Y-170473274D01*
X76623127Y-170526726D01*
X76626694Y-170529109D01*
X76629160Y-170529600D01*
X76653882Y-170546118D01*
X76670400Y-170570840D01*
X76676200Y-170600000D01*
X76676200Y-170900000D01*
X76670400Y-170929160D01*
X76653882Y-170953882D01*
X76629160Y-170970400D01*
X76626694Y-170970890D01*
X76623127Y-170973274D01*
X76623127Y-171026726D01*
X76626694Y-171029109D01*
X76629160Y-171029600D01*
X76653882Y-171046118D01*
X76670400Y-171070840D01*
X76676200Y-171100000D01*
X76676200Y-171400000D01*
X76670400Y-171429160D01*
X76653882Y-171453882D01*
X76629160Y-171470400D01*
X76626694Y-171470890D01*
X76623127Y-171473274D01*
X76623127Y-171526726D01*
X76626694Y-171529109D01*
X76629160Y-171529600D01*
X76653882Y-171546118D01*
X76670400Y-171570840D01*
X76676200Y-171600000D01*
X76676200Y-171900000D01*
X76670400Y-171929160D01*
X76653882Y-171953882D01*
X76629160Y-171970400D01*
X76626694Y-171970890D01*
X76623127Y-171973274D01*
X76623127Y-172026726D01*
X76626694Y-172029109D01*
X76629160Y-172029600D01*
X76653882Y-172046118D01*
X76670400Y-172070840D01*
X76676200Y-172100000D01*
X76676200Y-172400000D01*
X76670400Y-172429160D01*
X76653882Y-172453882D01*
X76629160Y-172470400D01*
X76600000Y-172476200D01*
X75900000Y-172476200D01*
X75870840Y-172470400D01*
X75846118Y-172453882D01*
X75829600Y-172429160D01*
X75823800Y-172400000D01*
X75823800Y-172100000D01*
X75829600Y-172070840D01*
X75846118Y-172046118D01*
X75870840Y-172029600D01*
X75873302Y-172029110D01*
X75876872Y-172026725D01*
X75876872Y-171973275D01*
X75873302Y-171970889D01*
X75870840Y-171970400D01*
X75846118Y-171953882D01*
X75829600Y-171929160D01*
X75823800Y-171900000D01*
X75823800Y-171600000D01*
X75829600Y-171570840D01*
X75846118Y-171546118D01*
X75870840Y-171529600D01*
X75873302Y-171529110D01*
X75876872Y-171526725D01*
X75876872Y-171473275D01*
X75873302Y-171470889D01*
X75870840Y-171470400D01*
X75846118Y-171453882D01*
X75829600Y-171429160D01*
X75823800Y-171400000D01*
X75823800Y-171100000D01*
X75829600Y-171070840D01*
X75846118Y-171046118D01*
X75870840Y-171029600D01*
X75873302Y-171029110D01*
X75876872Y-171026725D01*
X75876872Y-170973275D01*
X75873302Y-170970889D01*
X75870840Y-170970400D01*
X75846118Y-170953882D01*
X75829600Y-170929160D01*
X75823800Y-170900000D01*
X75823800Y-170600000D01*
X75829600Y-170570840D01*
X75846118Y-170546118D01*
X75870840Y-170529600D01*
X75873302Y-170529110D01*
X75876872Y-170526725D01*
X75876872Y-170473275D01*
X75873302Y-170470889D01*
X75870840Y-170470400D01*
X75846118Y-170453882D01*
X75829600Y-170429160D01*
X75823800Y-170400000D01*
X75823800Y-170100000D01*
X75829600Y-170070840D01*
X75846118Y-170046118D01*
X75870840Y-170029600D01*
X75873302Y-170029110D01*
X75876872Y-170026725D01*
X75876872Y-169973275D01*
X75873302Y-169970889D01*
X75870840Y-169970400D01*
X75846118Y-169953882D01*
X75829600Y-169929160D01*
X75823800Y-169900000D01*
X75823800Y-169600000D01*
X75829600Y-169570840D01*
X75846118Y-169546118D01*
X75870840Y-169529600D01*
X75873302Y-169529110D01*
X75876872Y-169526725D01*
X75876872Y-169473275D01*
X75873302Y-169470889D01*
X75870840Y-169470400D01*
X75846118Y-169453882D01*
X75829600Y-169429160D01*
X75823800Y-169400000D01*
X75823800Y-169100000D01*
X75829600Y-169070840D01*
X75846118Y-169046118D01*
X75870840Y-169029600D01*
X75873302Y-169029110D01*
X75876872Y-169026725D01*
X75876872Y-168973275D01*
X75873302Y-168970889D01*
X75870840Y-168970400D01*
X75846118Y-168953882D01*
X75829600Y-168929160D01*
X75823800Y-168900000D01*
X75823800Y-168600000D01*
X75829600Y-168570840D01*
X75846118Y-168546118D01*
X75870840Y-168529600D01*
X75873302Y-168529110D01*
X75876872Y-168526725D01*
X75876872Y-168473275D01*
X75873302Y-168470889D01*
X75870840Y-168470400D01*
X75846118Y-168453882D01*
X75829600Y-168429160D01*
X75823800Y-168400000D01*
X75823800Y-168100000D01*
X75829600Y-168070840D01*
X75846118Y-168046118D01*
X75870840Y-168029600D01*
X75873302Y-168029110D01*
X75876872Y-168026725D01*
X75876872Y-167973275D01*
X75873302Y-167970889D01*
X75870840Y-167970400D01*
X75846118Y-167953882D01*
X75829600Y-167929160D01*
X75823800Y-167900000D01*
X75823800Y-167600000D01*
X75829600Y-167570840D01*
X75846118Y-167546118D01*
X75870840Y-167529600D01*
X75873302Y-167529110D01*
X75876872Y-167526725D01*
X75876872Y-167473275D01*
X75873302Y-167470889D01*
X75870840Y-167470400D01*
X75846118Y-167453882D01*
X75829600Y-167429160D01*
X75823800Y-167400000D01*
X75823800Y-167100000D01*
X75829600Y-167070840D01*
X75846118Y-167046118D01*
X75870840Y-167029600D01*
X75873302Y-167029110D01*
X75876872Y-167026725D01*
X75876872Y-166973275D01*
X75873302Y-166970889D01*
X75870840Y-166970400D01*
X75846118Y-166953882D01*
X75829600Y-166929160D01*
X75823800Y-166900000D01*
X75823800Y-166600000D01*
X75829600Y-166570840D01*
X75846118Y-166546118D01*
X75870840Y-166529600D01*
X75873302Y-166529110D01*
X75876872Y-166526725D01*
X75876872Y-166473275D01*
X75873302Y-166470889D01*
X75870840Y-166470400D01*
X75846118Y-166453882D01*
X75829600Y-166429160D01*
X75823800Y-166400000D01*
X75823800Y-166100000D01*
X75829600Y-166070840D01*
X75846118Y-166046118D01*
X75870840Y-166029600D01*
X75873302Y-166029110D01*
X75876872Y-166026725D01*
X75876872Y-165973275D01*
X75873302Y-165970889D01*
X75870840Y-165970400D01*
X75846118Y-165953882D01*
X75829600Y-165929160D01*
X75823800Y-165900000D01*
X75823800Y-165600000D01*
X75829600Y-165570840D01*
X75846118Y-165546118D01*
X75870840Y-165529600D01*
X75873302Y-165529110D01*
X75876872Y-165526725D01*
X75876872Y-165473275D01*
X75873302Y-165470889D01*
X75870840Y-165470400D01*
X75846118Y-165453882D01*
X75829600Y-165429160D01*
X75823800Y-165400000D01*
X75823800Y-165100000D01*
X75829600Y-165070840D01*
X75846118Y-165046118D01*
X75870840Y-165029600D01*
X75873302Y-165029110D01*
X75876872Y-165026725D01*
X75876872Y-164973275D01*
X75873302Y-164970889D01*
X75870840Y-164970400D01*
X75846118Y-164953882D01*
X75829600Y-164929160D01*
X75823800Y-164900000D01*
X75823800Y-164600000D01*
X75829600Y-164570840D01*
X75846118Y-164546118D01*
X75870840Y-164529600D01*
X75873302Y-164529110D01*
X75876872Y-164526725D01*
X75876872Y-164473275D01*
X75873302Y-164470889D01*
X75870840Y-164470400D01*
X75846118Y-164453882D01*
X75829600Y-164429160D01*
X75823800Y-164400000D01*
X75823800Y-164100000D01*
X75829600Y-164070840D01*
X75846118Y-164046118D01*
X75870840Y-164029600D01*
X75873302Y-164029110D01*
X75876872Y-164026725D01*
X75876872Y-163973275D01*
X75873302Y-163970889D01*
X75870840Y-163970400D01*
X75846118Y-163953882D01*
X75829600Y-163929160D01*
X75823800Y-163900000D01*
X75823800Y-163600000D01*
X75829600Y-163570840D01*
X75846118Y-163546118D01*
X75870840Y-163529600D01*
X75900000Y-163523800D01*
X76600000Y-163523800D01*
X76629160Y-163529600D01*
G37*
G36*
X72674686Y-171362370D02*
G01*
X72727405Y-171397595D01*
X72762630Y-171450314D01*
X72775000Y-171512500D01*
X72775000Y-171987500D01*
X72762630Y-172049686D01*
X72727405Y-172102405D01*
X72674686Y-172137630D01*
X72612500Y-172150000D01*
X72387500Y-172150000D01*
X72325314Y-172137630D01*
X72272595Y-172102405D01*
X72237370Y-172049686D01*
X72225000Y-171987500D01*
X72225000Y-171512500D01*
X72237370Y-171450314D01*
X72272595Y-171397595D01*
X72325314Y-171362370D01*
X72387500Y-171350000D01*
X72612500Y-171350000D01*
X72674686Y-171362370D01*
G37*
G36*
X74742710Y-171364463D02*
G01*
X74804350Y-171405650D01*
X74845537Y-171467290D01*
X74860000Y-171540000D01*
X74860000Y-171820000D01*
X74845537Y-171892710D01*
X74804350Y-171954350D01*
X74742710Y-171995537D01*
X74670000Y-172010000D01*
X74330000Y-172010000D01*
X74257290Y-171995537D01*
X74195650Y-171954350D01*
X74154463Y-171892710D01*
X74140000Y-171820000D01*
X74140000Y-171540000D01*
X74154463Y-171467290D01*
X74195650Y-171405650D01*
X74257290Y-171364463D01*
X74330000Y-171350000D01*
X74670000Y-171350000D01*
X74742710Y-171364463D01*
G37*
G36*
X36568685Y-166857969D02*
G01*
X36577358Y-166861798D01*
X36584925Y-166862901D01*
X36632223Y-166886023D01*
X36669541Y-166902501D01*
X36672996Y-166905956D01*
X36673920Y-166906408D01*
X36743591Y-166976079D01*
X36744042Y-166977002D01*
X36747499Y-166980459D01*
X36763978Y-167017782D01*
X36787098Y-167065073D01*
X36788200Y-167072639D01*
X36792031Y-167081315D01*
X36800000Y-167150000D01*
X36800000Y-170850000D01*
X36792031Y-170918685D01*
X36788199Y-170927361D01*
X36787098Y-170934925D01*
X36763985Y-170982202D01*
X36747499Y-171019541D01*
X36744041Y-171022998D01*
X36743591Y-171023920D01*
X36673920Y-171093591D01*
X36672998Y-171094041D01*
X36669541Y-171097499D01*
X36632207Y-171113983D01*
X36584926Y-171137098D01*
X36577361Y-171138200D01*
X36568685Y-171142031D01*
X36500000Y-171150000D01*
X35000000Y-171150000D01*
X34931315Y-171142031D01*
X34922638Y-171138200D01*
X34915074Y-171137098D01*
X34867787Y-171113981D01*
X34830459Y-171097499D01*
X34827002Y-171094042D01*
X34826079Y-171093591D01*
X34756408Y-171023920D01*
X34755956Y-171022996D01*
X34752501Y-171019541D01*
X34736025Y-170982228D01*
X34712901Y-170934926D01*
X34711798Y-170927357D01*
X34707969Y-170918685D01*
X34700000Y-170850000D01*
X34700000Y-167150000D01*
X34707969Y-167081315D01*
X34711798Y-167072642D01*
X34712901Y-167065074D01*
X34736028Y-167017766D01*
X34752501Y-166980459D01*
X34755955Y-166977004D01*
X34756408Y-166976079D01*
X34826079Y-166906408D01*
X34827004Y-166905955D01*
X34830459Y-166902501D01*
X34867761Y-166886030D01*
X34915073Y-166862901D01*
X34922642Y-166861798D01*
X34931315Y-166857969D01*
X35000000Y-166850000D01*
X36500000Y-166850000D01*
X36568685Y-166857969D01*
G37*
G36*
X44568685Y-166857969D02*
G01*
X44577358Y-166861798D01*
X44584925Y-166862901D01*
X44632223Y-166886023D01*
X44669541Y-166902501D01*
X44672996Y-166905956D01*
X44673920Y-166906408D01*
X44743591Y-166976079D01*
X44744042Y-166977002D01*
X44747499Y-166980459D01*
X44763978Y-167017782D01*
X44787098Y-167065073D01*
X44788200Y-167072639D01*
X44792031Y-167081315D01*
X44800000Y-167150000D01*
X44800000Y-170850000D01*
X44792031Y-170918685D01*
X44788199Y-170927361D01*
X44787098Y-170934925D01*
X44763985Y-170982202D01*
X44747499Y-171019541D01*
X44744041Y-171022998D01*
X44743591Y-171023920D01*
X44673920Y-171093591D01*
X44672998Y-171094041D01*
X44669541Y-171097499D01*
X44632207Y-171113983D01*
X44584926Y-171137098D01*
X44577361Y-171138200D01*
X44568685Y-171142031D01*
X44500000Y-171150000D01*
X43000000Y-171150000D01*
X42931315Y-171142031D01*
X42922638Y-171138200D01*
X42915074Y-171137098D01*
X42867787Y-171113981D01*
X42830459Y-171097499D01*
X42827002Y-171094042D01*
X42826079Y-171093591D01*
X42756408Y-171023920D01*
X42755956Y-171022996D01*
X42752501Y-171019541D01*
X42736025Y-170982228D01*
X42712901Y-170934926D01*
X42711798Y-170927357D01*
X42707969Y-170918685D01*
X42700000Y-170850000D01*
X42700000Y-167150000D01*
X42707969Y-167081315D01*
X42711798Y-167072642D01*
X42712901Y-167065074D01*
X42736028Y-167017766D01*
X42752501Y-166980459D01*
X42755955Y-166977004D01*
X42756408Y-166976079D01*
X42826079Y-166906408D01*
X42827004Y-166905955D01*
X42830459Y-166902501D01*
X42867761Y-166886030D01*
X42915073Y-166862901D01*
X42922642Y-166861798D01*
X42931315Y-166857969D01*
X43000000Y-166850000D01*
X44500000Y-166850000D01*
X44568685Y-166857969D01*
G37*
G36*
X74742710Y-170404463D02*
G01*
X74804350Y-170445650D01*
X74845537Y-170507290D01*
X74860000Y-170580000D01*
X74860000Y-170860000D01*
X74845537Y-170932710D01*
X74804350Y-170994350D01*
X74742710Y-171035537D01*
X74670000Y-171050000D01*
X74330000Y-171050000D01*
X74257290Y-171035537D01*
X74195650Y-170994350D01*
X74154463Y-170932710D01*
X74140000Y-170860000D01*
X74140000Y-170580000D01*
X74154463Y-170507290D01*
X74195650Y-170445650D01*
X74257290Y-170404463D01*
X74330000Y-170390000D01*
X74670000Y-170390000D01*
X74742710Y-170404463D01*
G37*
G36*
X73326755Y-170060707D02*
G01*
X73392418Y-170104582D01*
X73436293Y-170170245D01*
X73451700Y-170247700D01*
X73451700Y-170552500D01*
X73436293Y-170629955D01*
X73392418Y-170695618D01*
X73326755Y-170739493D01*
X73249300Y-170754900D01*
X71750700Y-170754900D01*
X71673245Y-170739493D01*
X71607582Y-170695618D01*
X71563707Y-170629955D01*
X71548300Y-170552500D01*
X71548300Y-170247700D01*
X71563707Y-170170245D01*
X71607582Y-170104582D01*
X71673245Y-170060707D01*
X71750700Y-170045300D01*
X73249300Y-170045300D01*
X73326755Y-170060707D01*
G37*
G36*
X74742710Y-169414463D02*
G01*
X74804350Y-169455650D01*
X74845537Y-169517290D01*
X74860000Y-169590000D01*
X74860000Y-169870000D01*
X74845537Y-169942710D01*
X74804350Y-170004350D01*
X74742710Y-170045537D01*
X74670000Y-170060000D01*
X74330000Y-170060000D01*
X74257290Y-170045537D01*
X74195650Y-170004350D01*
X74154463Y-169942710D01*
X74140000Y-169870000D01*
X74140000Y-169590000D01*
X74154463Y-169517290D01*
X74195650Y-169455650D01*
X74257290Y-169414463D01*
X74330000Y-169400000D01*
X74670000Y-169400000D01*
X74742710Y-169414463D01*
G37*
G36*
X32195796Y-168894082D02*
G01*
X32255815Y-168934185D01*
X32295918Y-168994204D01*
X32310000Y-169065000D01*
X32310000Y-169435000D01*
X32295918Y-169505796D01*
X32255815Y-169565815D01*
X32195796Y-169605918D01*
X32125000Y-169620000D01*
X31855000Y-169620000D01*
X31784204Y-169605918D01*
X31724185Y-169565815D01*
X31684082Y-169505796D01*
X31670000Y-169435000D01*
X31670000Y-169065000D01*
X31684082Y-168994204D01*
X31724185Y-168934185D01*
X31784204Y-168894082D01*
X31855000Y-168880000D01*
X32125000Y-168880000D01*
X32195796Y-168894082D01*
G37*
G36*
X33215796Y-168894082D02*
G01*
X33275815Y-168934185D01*
X33315918Y-168994204D01*
X33330000Y-169065000D01*
X33330000Y-169435000D01*
X33315918Y-169505796D01*
X33275815Y-169565815D01*
X33215796Y-169605918D01*
X33145000Y-169620000D01*
X32875000Y-169620000D01*
X32804204Y-169605918D01*
X32744185Y-169565815D01*
X32704082Y-169505796D01*
X32690000Y-169435000D01*
X32690000Y-169065000D01*
X32704082Y-168994204D01*
X32744185Y-168934185D01*
X32804204Y-168894082D01*
X32875000Y-168880000D01*
X33145000Y-168880000D01*
X33215796Y-168894082D01*
G37*
G36*
X73326755Y-168460507D02*
G01*
X73392418Y-168504382D01*
X73436293Y-168570045D01*
X73451700Y-168647500D01*
X73451700Y-168952300D01*
X73436293Y-169029755D01*
X73392418Y-169095418D01*
X73326755Y-169139293D01*
X73249300Y-169154700D01*
X71750700Y-169154700D01*
X71673245Y-169139293D01*
X71607582Y-169095418D01*
X71563707Y-169029755D01*
X71548300Y-168952300D01*
X71548300Y-168647500D01*
X71563707Y-168570045D01*
X71607582Y-168504382D01*
X71673245Y-168460507D01*
X71750700Y-168445100D01*
X73249300Y-168445100D01*
X73326755Y-168460507D01*
G37*
G36*
X74742710Y-168454463D02*
G01*
X74804350Y-168495650D01*
X74845537Y-168557290D01*
X74860000Y-168630000D01*
X74860000Y-168910000D01*
X74845537Y-168982710D01*
X74804350Y-169044350D01*
X74742710Y-169085537D01*
X74670000Y-169100000D01*
X74330000Y-169100000D01*
X74257290Y-169085537D01*
X74195650Y-169044350D01*
X74154463Y-168982710D01*
X74140000Y-168910000D01*
X74140000Y-168630000D01*
X74154463Y-168557290D01*
X74195650Y-168495650D01*
X74257290Y-168454463D01*
X74330000Y-168440000D01*
X74670000Y-168440000D01*
X74742710Y-168454463D01*
G37*
G36*
X29455796Y-168404082D02*
G01*
X29515815Y-168444185D01*
X29555918Y-168504204D01*
X29570000Y-168575000D01*
X29570000Y-168845000D01*
X29555918Y-168915796D01*
X29515815Y-168975815D01*
X29455796Y-169015918D01*
X29385000Y-169030000D01*
X29015000Y-169030000D01*
X28944204Y-169015918D01*
X28884185Y-168975815D01*
X28844082Y-168915796D01*
X28830000Y-168845000D01*
X28830000Y-168575000D01*
X28844082Y-168504204D01*
X28884185Y-168444185D01*
X28944204Y-168404082D01*
X29015000Y-168390000D01*
X29385000Y-168390000D01*
X29455796Y-168404082D01*
G37*
G36*
X30442710Y-167964463D02*
G01*
X30504350Y-168005650D01*
X30545537Y-168067290D01*
X30560000Y-168140000D01*
X30560000Y-168420000D01*
X30545537Y-168492710D01*
X30504350Y-168554350D01*
X30442710Y-168595537D01*
X30370000Y-168610000D01*
X30030000Y-168610000D01*
X29957290Y-168595537D01*
X29895650Y-168554350D01*
X29854463Y-168492710D01*
X29840000Y-168420000D01*
X29840000Y-168140000D01*
X29854463Y-168067290D01*
X29895650Y-168005650D01*
X29957290Y-167964463D01*
X30030000Y-167950000D01*
X30370000Y-167950000D01*
X30442710Y-167964463D01*
G37*
G36*
X29455796Y-167384082D02*
G01*
X29515815Y-167424185D01*
X29555918Y-167484204D01*
X29570000Y-167555000D01*
X29570000Y-167825000D01*
X29555918Y-167895796D01*
X29515815Y-167955815D01*
X29455796Y-167995918D01*
X29385000Y-168010000D01*
X29015000Y-168010000D01*
X28944204Y-167995918D01*
X28884185Y-167955815D01*
X28844082Y-167895796D01*
X28830000Y-167825000D01*
X28830000Y-167555000D01*
X28844082Y-167484204D01*
X28884185Y-167424185D01*
X28944204Y-167384082D01*
X29015000Y-167370000D01*
X29385000Y-167370000D01*
X29455796Y-167384082D01*
G37*
G36*
X73232710Y-167154463D02*
G01*
X73294350Y-167195650D01*
X73335537Y-167257290D01*
X73350000Y-167330000D01*
X73350000Y-167670000D01*
X73335537Y-167742710D01*
X73294350Y-167804350D01*
X73232710Y-167845537D01*
X73160000Y-167860000D01*
X72880000Y-167860000D01*
X72807290Y-167845537D01*
X72745650Y-167804350D01*
X72704463Y-167742710D01*
X72690000Y-167670000D01*
X72690000Y-167330000D01*
X72704463Y-167257290D01*
X72745650Y-167195650D01*
X72807290Y-167154463D01*
X72880000Y-167140000D01*
X73160000Y-167140000D01*
X73232710Y-167154463D01*
G37*
G36*
X74192710Y-167154463D02*
G01*
X74254350Y-167195650D01*
X74295537Y-167257290D01*
X74310000Y-167330000D01*
X74310000Y-167670000D01*
X74295537Y-167742710D01*
X74254350Y-167804350D01*
X74192710Y-167845537D01*
X74120000Y-167860000D01*
X73840000Y-167860000D01*
X73767290Y-167845537D01*
X73705650Y-167804350D01*
X73664463Y-167742710D01*
X73650000Y-167670000D01*
X73650000Y-167330000D01*
X73664463Y-167257290D01*
X73705650Y-167195650D01*
X73767290Y-167154463D01*
X73840000Y-167140000D01*
X74120000Y-167140000D01*
X74192710Y-167154463D01*
G37*
G36*
X61112284Y-162153806D02*
G01*
X61128505Y-162164645D01*
X61139344Y-162180866D01*
X61143150Y-162200000D01*
X61143150Y-167800000D01*
X61139344Y-167819134D01*
X61128505Y-167835355D01*
X61112284Y-167846194D01*
X61093150Y-167850000D01*
X55493150Y-167850000D01*
X55474016Y-167846194D01*
X55457795Y-167835355D01*
X55446956Y-167819134D01*
X55443150Y-167800000D01*
X55443150Y-162200000D01*
X55446956Y-162180866D01*
X55457795Y-162164645D01*
X55474016Y-162153806D01*
X55493150Y-162150000D01*
X61093150Y-162150000D01*
X61112284Y-162153806D01*
G37*
G36*
X31974686Y-167237370D02*
G01*
X32027405Y-167272595D01*
X32062630Y-167325314D01*
X32075000Y-167387500D01*
X32075000Y-167612500D01*
X32062630Y-167674686D01*
X32027405Y-167727405D01*
X31974686Y-167762630D01*
X31912500Y-167775000D01*
X31387500Y-167775000D01*
X31325314Y-167762630D01*
X31272595Y-167727405D01*
X31237370Y-167674686D01*
X31225000Y-167612500D01*
X31225000Y-167387500D01*
X31237370Y-167325314D01*
X31272595Y-167272595D01*
X31325314Y-167237370D01*
X31387500Y-167225000D01*
X31912500Y-167225000D01*
X31974686Y-167237370D01*
G37*
G36*
X33674686Y-167237370D02*
G01*
X33727405Y-167272595D01*
X33762630Y-167325314D01*
X33775000Y-167387500D01*
X33775000Y-167612500D01*
X33762630Y-167674686D01*
X33727405Y-167727405D01*
X33674686Y-167762630D01*
X33612500Y-167775000D01*
X33087500Y-167775000D01*
X33025314Y-167762630D01*
X32972595Y-167727405D01*
X32937370Y-167674686D01*
X32925000Y-167612500D01*
X32925000Y-167387500D01*
X32937370Y-167325314D01*
X32972595Y-167272595D01*
X33025314Y-167237370D01*
X33087500Y-167225000D01*
X33612500Y-167225000D01*
X33674686Y-167237370D01*
G37*
G36*
X30442710Y-167004463D02*
G01*
X30504350Y-167045650D01*
X30545537Y-167107290D01*
X30560000Y-167180000D01*
X30560000Y-167460000D01*
X30545537Y-167532710D01*
X30504350Y-167594350D01*
X30442710Y-167635537D01*
X30370000Y-167650000D01*
X30030000Y-167650000D01*
X29957290Y-167635537D01*
X29895650Y-167594350D01*
X29854463Y-167532710D01*
X29840000Y-167460000D01*
X29840000Y-167180000D01*
X29854463Y-167107290D01*
X29895650Y-167045650D01*
X29957290Y-167004463D01*
X30030000Y-166990000D01*
X30370000Y-166990000D01*
X30442710Y-167004463D01*
G37*
G36*
X47906435Y-162405269D02*
G01*
X47915108Y-162409098D01*
X47922675Y-162410201D01*
X47969973Y-162433323D01*
X48007291Y-162449801D01*
X48010746Y-162453256D01*
X48011670Y-162453708D01*
X48081341Y-162523379D01*
X48081792Y-162524302D01*
X48085249Y-162527759D01*
X48101728Y-162565082D01*
X48124848Y-162612373D01*
X48125950Y-162619939D01*
X48129781Y-162628615D01*
X48137750Y-162697300D01*
X48137750Y-167302700D01*
X48129781Y-167371385D01*
X48125949Y-167380061D01*
X48124848Y-167387625D01*
X48101735Y-167434902D01*
X48085249Y-167472241D01*
X48081791Y-167475698D01*
X48081341Y-167476620D01*
X48011670Y-167546291D01*
X48010748Y-167546741D01*
X48007291Y-167550199D01*
X47969957Y-167566683D01*
X47922676Y-167589798D01*
X47915111Y-167590900D01*
X47906435Y-167594731D01*
X47837750Y-167602700D01*
X45848550Y-167602700D01*
X45779865Y-167594731D01*
X45771188Y-167590900D01*
X45763624Y-167589798D01*
X45716337Y-167566681D01*
X45679009Y-167550199D01*
X45675552Y-167546742D01*
X45674629Y-167546291D01*
X45604958Y-167476620D01*
X45604506Y-167475696D01*
X45601051Y-167472241D01*
X45584575Y-167434928D01*
X45561451Y-167387626D01*
X45560348Y-167380057D01*
X45556519Y-167371385D01*
X45548550Y-167302700D01*
X45548550Y-162697300D01*
X45556519Y-162628615D01*
X45560348Y-162619942D01*
X45561451Y-162612374D01*
X45584578Y-162565066D01*
X45601051Y-162527759D01*
X45604505Y-162524304D01*
X45604958Y-162523379D01*
X45674629Y-162453708D01*
X45675554Y-162453255D01*
X45679009Y-162449801D01*
X45716311Y-162433330D01*
X45763623Y-162410201D01*
X45771192Y-162409098D01*
X45779865Y-162405269D01*
X45848550Y-162397300D01*
X47837750Y-162397300D01*
X47906435Y-162405269D01*
G37*
G36*
X70806435Y-162405269D02*
G01*
X70815108Y-162409098D01*
X70822675Y-162410201D01*
X70869973Y-162433323D01*
X70907291Y-162449801D01*
X70910746Y-162453256D01*
X70911670Y-162453708D01*
X70981341Y-162523379D01*
X70981792Y-162524302D01*
X70985249Y-162527759D01*
X71001728Y-162565082D01*
X71024848Y-162612373D01*
X71025950Y-162619939D01*
X71029781Y-162628615D01*
X71037750Y-162697300D01*
X71037750Y-167302700D01*
X71029781Y-167371385D01*
X71025949Y-167380061D01*
X71024848Y-167387625D01*
X71001735Y-167434902D01*
X70985249Y-167472241D01*
X70981791Y-167475698D01*
X70981341Y-167476620D01*
X70911670Y-167546291D01*
X70910748Y-167546741D01*
X70907291Y-167550199D01*
X70869957Y-167566683D01*
X70822676Y-167589798D01*
X70815111Y-167590900D01*
X70806435Y-167594731D01*
X70737750Y-167602700D01*
X68748550Y-167602700D01*
X68679865Y-167594731D01*
X68671188Y-167590900D01*
X68663624Y-167589798D01*
X68616337Y-167566681D01*
X68579009Y-167550199D01*
X68575552Y-167546742D01*
X68574629Y-167546291D01*
X68504958Y-167476620D01*
X68504506Y-167475696D01*
X68501051Y-167472241D01*
X68484575Y-167434928D01*
X68461451Y-167387626D01*
X68460348Y-167380057D01*
X68456519Y-167371385D01*
X68448550Y-167302700D01*
X68448550Y-162697300D01*
X68456519Y-162628615D01*
X68460348Y-162619942D01*
X68461451Y-162612374D01*
X68484578Y-162565066D01*
X68501051Y-162527759D01*
X68504505Y-162524304D01*
X68504958Y-162523379D01*
X68574629Y-162453708D01*
X68575554Y-162453255D01*
X68579009Y-162449801D01*
X68616311Y-162433330D01*
X68663623Y-162410201D01*
X68671192Y-162409098D01*
X68679865Y-162405269D01*
X68748550Y-162397300D01*
X70737750Y-162397300D01*
X70806435Y-162405269D01*
G37*
G36*
X31974686Y-166537370D02*
G01*
X32027405Y-166572595D01*
X32062630Y-166625314D01*
X32075000Y-166687500D01*
X32075000Y-166912500D01*
X32062630Y-166974686D01*
X32027405Y-167027405D01*
X31974686Y-167062630D01*
X31912500Y-167075000D01*
X31387500Y-167075000D01*
X31325314Y-167062630D01*
X31272595Y-167027405D01*
X31237370Y-166974686D01*
X31225000Y-166912500D01*
X31225000Y-166687500D01*
X31237370Y-166625314D01*
X31272595Y-166572595D01*
X31325314Y-166537370D01*
X31387500Y-166525000D01*
X31912500Y-166525000D01*
X31974686Y-166537370D01*
G37*
G36*
X33674686Y-166537370D02*
G01*
X33727405Y-166572595D01*
X33762630Y-166625314D01*
X33775000Y-166687500D01*
X33775000Y-166912500D01*
X33762630Y-166974686D01*
X33727405Y-167027405D01*
X33674686Y-167062630D01*
X33612500Y-167075000D01*
X33087500Y-167075000D01*
X33025314Y-167062630D01*
X32972595Y-167027405D01*
X32937370Y-166974686D01*
X32925000Y-166912500D01*
X32925000Y-166687500D01*
X32937370Y-166625314D01*
X32972595Y-166572595D01*
X33025314Y-166537370D01*
X33087500Y-166525000D01*
X33612500Y-166525000D01*
X33674686Y-166537370D01*
G37*
G36*
X28777514Y-163069848D02*
G01*
X29049378Y-163128989D01*
X29310059Y-163226218D01*
X29554250Y-163359556D01*
X29776978Y-163526288D01*
X29973712Y-163723022D01*
X30140444Y-163945750D01*
X30273782Y-164189941D01*
X30371011Y-164450622D01*
X30430152Y-164722486D01*
X30450000Y-165000000D01*
X30430152Y-165277514D01*
X30371011Y-165549378D01*
X30273782Y-165810059D01*
X30140444Y-166054250D01*
X29973712Y-166276978D01*
X29776978Y-166473712D01*
X29554250Y-166640444D01*
X29310059Y-166773782D01*
X29049378Y-166871011D01*
X28777514Y-166930152D01*
X28500000Y-166950000D01*
X28222486Y-166930152D01*
X27950622Y-166871011D01*
X27689941Y-166773782D01*
X27445750Y-166640444D01*
X27223022Y-166473712D01*
X27026288Y-166276978D01*
X26859556Y-166054250D01*
X26726218Y-165810059D01*
X26628989Y-165549378D01*
X26569848Y-165277514D01*
X26550000Y-165000000D01*
X26569848Y-164722486D01*
X26628989Y-164450622D01*
X26726218Y-164189941D01*
X26859556Y-163945750D01*
X27026288Y-163723022D01*
X27223022Y-163526288D01*
X27445750Y-163359556D01*
X27689941Y-163226218D01*
X27950622Y-163128989D01*
X28222486Y-163069848D01*
X28500000Y-163050000D01*
X28777514Y-163069848D01*
G37*
G36*
X73232710Y-166154463D02*
G01*
X73294350Y-166195650D01*
X73335537Y-166257290D01*
X73350000Y-166330000D01*
X73350000Y-166670000D01*
X73335537Y-166742710D01*
X73294350Y-166804350D01*
X73232710Y-166845537D01*
X73160000Y-166860000D01*
X72880000Y-166860000D01*
X72807290Y-166845537D01*
X72745650Y-166804350D01*
X72704463Y-166742710D01*
X72690000Y-166670000D01*
X72690000Y-166330000D01*
X72704463Y-166257290D01*
X72745650Y-166195650D01*
X72807290Y-166154463D01*
X72880000Y-166140000D01*
X73160000Y-166140000D01*
X73232710Y-166154463D01*
G37*
G36*
X74192710Y-166154463D02*
G01*
X74254350Y-166195650D01*
X74295537Y-166257290D01*
X74310000Y-166330000D01*
X74310000Y-166670000D01*
X74295537Y-166742710D01*
X74254350Y-166804350D01*
X74192710Y-166845537D01*
X74120000Y-166860000D01*
X73840000Y-166860000D01*
X73767290Y-166845537D01*
X73705650Y-166804350D01*
X73664463Y-166742710D01*
X73650000Y-166670000D01*
X73650000Y-166330000D01*
X73664463Y-166257290D01*
X73705650Y-166195650D01*
X73767290Y-166154463D01*
X73840000Y-166140000D01*
X74120000Y-166140000D01*
X74192710Y-166154463D01*
G37*
G36*
X32528918Y-164924580D02*
G01*
X32556851Y-164924580D01*
X32589561Y-164934184D01*
X32623607Y-164939577D01*
X32644934Y-164950444D01*
X32665954Y-164956616D01*
X32700041Y-164978522D01*
X32735114Y-164996393D01*
X32748180Y-165009459D01*
X32761607Y-165018088D01*
X32792751Y-165054030D01*
X32823607Y-165084886D01*
X32829485Y-165096423D01*
X32836068Y-165104020D01*
X32859503Y-165155336D01*
X32880423Y-165196393D01*
X32881574Y-165203665D01*
X32883304Y-165207452D01*
X32894417Y-165284753D01*
X32900000Y-165320000D01*
X32894417Y-165355249D01*
X32883304Y-165432547D01*
X32881575Y-165436332D01*
X32880423Y-165443607D01*
X32859499Y-165484671D01*
X32836068Y-165535979D01*
X32829487Y-165543573D01*
X32823607Y-165555114D01*
X32792745Y-165585975D01*
X32761607Y-165621911D01*
X32748182Y-165630538D01*
X32735114Y-165643607D01*
X32700034Y-165661481D01*
X32665954Y-165683383D01*
X32644938Y-165689553D01*
X32623607Y-165700423D01*
X32589559Y-165705815D01*
X32556851Y-165715420D01*
X32528918Y-165715420D01*
X32500000Y-165720000D01*
X32471082Y-165715420D01*
X32443149Y-165715420D01*
X32410439Y-165705815D01*
X32376393Y-165700423D01*
X32355062Y-165689554D01*
X32334045Y-165683383D01*
X32299961Y-165661478D01*
X32264886Y-165643607D01*
X32251818Y-165630539D01*
X32238392Y-165621911D01*
X32207247Y-165585968D01*
X32176393Y-165555114D01*
X32170514Y-165543576D01*
X32163931Y-165535979D01*
X32140491Y-165484652D01*
X32119577Y-165443607D01*
X32118425Y-165436336D01*
X32116695Y-165432547D01*
X32105572Y-165355181D01*
X32100000Y-165320000D01*
X32105571Y-165284821D01*
X32116695Y-165207452D01*
X32118425Y-165203662D01*
X32119577Y-165196393D01*
X32140486Y-165155355D01*
X32163931Y-165104020D01*
X32170515Y-165096421D01*
X32176393Y-165084886D01*
X32207240Y-165054038D01*
X32238392Y-165018088D01*
X32251821Y-165009457D01*
X32264886Y-164996393D01*
X32299953Y-164978525D01*
X32334045Y-164956616D01*
X32355066Y-164950443D01*
X32376393Y-164939577D01*
X32410437Y-164934184D01*
X32443149Y-164924580D01*
X32471082Y-164924580D01*
X32500000Y-164920000D01*
X32528918Y-164924580D01*
G37*
G36*
X32507838Y-164225506D02*
G01*
X32705834Y-164245006D01*
X32705839Y-164245007D01*
X32708285Y-164245248D01*
X32718860Y-164247351D01*
X32721209Y-164248063D01*
X32721216Y-164248065D01*
X32911605Y-164305819D01*
X32911609Y-164305820D01*
X32913957Y-164306533D01*
X32923918Y-164310659D01*
X32926081Y-164311815D01*
X32926083Y-164311816D01*
X33081842Y-164395072D01*
X33103720Y-164406766D01*
X33112685Y-164412756D01*
X33270283Y-164542093D01*
X33277907Y-164549717D01*
X33407244Y-164707315D01*
X33413234Y-164716280D01*
X33509341Y-164896082D01*
X33513467Y-164906043D01*
X33572649Y-165101140D01*
X33574752Y-165111715D01*
X33594735Y-165314609D01*
X33594735Y-165325391D01*
X33574752Y-165528285D01*
X33572649Y-165538860D01*
X33513467Y-165733957D01*
X33509341Y-165743918D01*
X33413234Y-165923720D01*
X33407244Y-165932685D01*
X33277907Y-166090283D01*
X33270283Y-166097907D01*
X33112685Y-166227244D01*
X33103720Y-166233234D01*
X32923918Y-166329341D01*
X32913957Y-166333467D01*
X32718860Y-166392649D01*
X32708285Y-166394752D01*
X32505391Y-166414735D01*
X32494609Y-166414735D01*
X32291715Y-166394752D01*
X32281140Y-166392649D01*
X32086043Y-166333467D01*
X32076082Y-166329341D01*
X31896280Y-166233234D01*
X31887315Y-166227244D01*
X31729717Y-166097907D01*
X31722093Y-166090283D01*
X31592756Y-165932685D01*
X31586766Y-165923720D01*
X31525985Y-165810009D01*
X31491816Y-165746083D01*
X31491815Y-165746081D01*
X31490659Y-165743918D01*
X31486533Y-165733957D01*
X31485820Y-165731609D01*
X31485819Y-165731605D01*
X31428065Y-165541216D01*
X31428063Y-165541209D01*
X31427351Y-165538860D01*
X31425248Y-165528285D01*
X31425007Y-165525839D01*
X31425006Y-165525834D01*
X31406041Y-165333270D01*
X31406041Y-165333269D01*
X31405265Y-165325391D01*
X31405905Y-165323277D01*
X31975906Y-165323277D01*
X31992917Y-165452482D01*
X31994613Y-165458813D01*
X32021531Y-165523800D01*
X32044483Y-165579211D01*
X32047757Y-165584883D01*
X32127095Y-165688277D01*
X32131721Y-165692903D01*
X32235115Y-165772241D01*
X32240787Y-165775515D01*
X32293179Y-165797217D01*
X32361186Y-165825386D01*
X32367517Y-165827083D01*
X32496723Y-165844093D01*
X32503277Y-165844093D01*
X32632482Y-165827082D01*
X32638813Y-165825386D01*
X32706819Y-165797217D01*
X32759211Y-165775515D01*
X32764884Y-165772241D01*
X32868277Y-165692903D01*
X32872903Y-165688277D01*
X32952241Y-165584883D01*
X32955515Y-165579211D01*
X32978468Y-165523800D01*
X33005386Y-165458813D01*
X33007082Y-165452482D01*
X33024093Y-165323277D01*
X33024093Y-165316723D01*
X33007083Y-165187517D01*
X33005386Y-165181186D01*
X32973797Y-165104922D01*
X32955515Y-165060787D01*
X32952241Y-165055115D01*
X32945337Y-165046118D01*
X32872903Y-164951721D01*
X32868277Y-164947095D01*
X32764883Y-164867757D01*
X32759211Y-164864483D01*
X32706819Y-164842781D01*
X32638813Y-164814613D01*
X32632482Y-164812917D01*
X32503277Y-164795906D01*
X32496723Y-164795906D01*
X32367517Y-164812916D01*
X32361186Y-164814613D01*
X32293179Y-164842781D01*
X32240787Y-164864483D01*
X32235115Y-164867757D01*
X32131721Y-164947095D01*
X32127095Y-164951721D01*
X32054662Y-165046118D01*
X32047758Y-165055115D01*
X32044483Y-165060787D01*
X32026202Y-165104922D01*
X31994613Y-165181186D01*
X31992916Y-165187517D01*
X31975906Y-165316723D01*
X31975906Y-165323277D01*
X31405905Y-165323277D01*
X31406096Y-165322648D01*
X31405000Y-165320000D01*
X31405265Y-165314609D01*
X31405771Y-165309466D01*
X31405771Y-165309462D01*
X31425006Y-165114165D01*
X31425007Y-165114158D01*
X31425248Y-165111715D01*
X31427351Y-165101140D01*
X31428063Y-165098792D01*
X31428065Y-165098783D01*
X31485819Y-164908394D01*
X31485822Y-164908386D01*
X31486533Y-164906043D01*
X31490659Y-164896082D01*
X31491813Y-164893922D01*
X31491816Y-164893916D01*
X31585608Y-164718445D01*
X31585611Y-164718439D01*
X31586766Y-164716280D01*
X31592756Y-164707315D01*
X31722093Y-164549717D01*
X31729717Y-164542093D01*
X31887315Y-164412756D01*
X31896280Y-164406766D01*
X31898439Y-164405611D01*
X31898445Y-164405608D01*
X32073916Y-164311816D01*
X32073922Y-164311813D01*
X32076082Y-164310659D01*
X32086043Y-164306533D01*
X32088386Y-164305822D01*
X32088394Y-164305819D01*
X32278783Y-164248065D01*
X32278792Y-164248063D01*
X32281140Y-164247351D01*
X32291715Y-164245248D01*
X32294158Y-164245007D01*
X32294165Y-164245006D01*
X32492162Y-164225506D01*
X32494609Y-164225265D01*
X32505391Y-164225265D01*
X32507838Y-164225506D01*
G37*
G36*
X24386937Y-164590666D02*
G01*
X24494687Y-164659913D01*
X24578564Y-164756712D01*
X24631772Y-164873220D01*
X24650000Y-165000000D01*
X24631772Y-165126780D01*
X24578564Y-165243288D01*
X24494687Y-165340087D01*
X24386937Y-165409334D01*
X24264042Y-165445420D01*
X24135958Y-165445420D01*
X24013063Y-165409334D01*
X23905313Y-165340087D01*
X23821436Y-165243288D01*
X23768228Y-165126780D01*
X23750000Y-165000000D01*
X23768228Y-164873220D01*
X23821436Y-164756712D01*
X23905313Y-164659913D01*
X24013063Y-164590666D01*
X24135958Y-164554580D01*
X24264042Y-164554580D01*
X24386937Y-164590666D01*
G37*
G36*
X72038268Y-164607612D02*
G01*
X72070711Y-164629289D01*
X72092388Y-164661732D01*
X72100000Y-164700000D01*
X72100000Y-165300000D01*
X72092388Y-165338268D01*
X72070711Y-165370711D01*
X72038268Y-165392388D01*
X72000000Y-165400000D01*
X71700000Y-165400000D01*
X71661732Y-165392388D01*
X71629289Y-165370711D01*
X71607612Y-165338268D01*
X71600000Y-165300000D01*
X71600000Y-164700000D01*
X71607612Y-164661732D01*
X71629289Y-164629289D01*
X71661732Y-164607612D01*
X71700000Y-164600000D01*
X72000000Y-164600000D01*
X72038268Y-164607612D01*
G37*
G36*
X72738268Y-164607612D02*
G01*
X72770711Y-164629289D01*
X72792388Y-164661732D01*
X72800000Y-164700000D01*
X72800000Y-165300000D01*
X72792388Y-165338268D01*
X72770711Y-165370711D01*
X72738268Y-165392388D01*
X72700000Y-165400000D01*
X72400000Y-165400000D01*
X72361732Y-165392388D01*
X72329289Y-165370711D01*
X72307612Y-165338268D01*
X72300000Y-165300000D01*
X72300000Y-164700000D01*
X72307612Y-164661732D01*
X72329289Y-164629289D01*
X72361732Y-164607612D01*
X72400000Y-164600000D01*
X72700000Y-164600000D01*
X72738268Y-164607612D01*
G37*
G36*
X73742710Y-164414463D02*
G01*
X73804350Y-164455650D01*
X73845537Y-164517290D01*
X73860000Y-164590000D01*
X73860000Y-164870000D01*
X73845537Y-164942710D01*
X73804350Y-165004350D01*
X73742710Y-165045537D01*
X73670000Y-165060000D01*
X73330000Y-165060000D01*
X73257290Y-165045537D01*
X73195650Y-165004350D01*
X73154463Y-164942710D01*
X73140000Y-164870000D01*
X73140000Y-164590000D01*
X73154463Y-164517290D01*
X73195650Y-164455650D01*
X73257290Y-164414463D01*
X73330000Y-164400000D01*
X73670000Y-164400000D01*
X73742710Y-164414463D01*
G37*
G36*
X74742710Y-164414463D02*
G01*
X74804350Y-164455650D01*
X74845537Y-164517290D01*
X74860000Y-164590000D01*
X74860000Y-164870000D01*
X74845537Y-164942710D01*
X74804350Y-165004350D01*
X74742710Y-165045537D01*
X74670000Y-165060000D01*
X74330000Y-165060000D01*
X74257290Y-165045537D01*
X74195650Y-165004350D01*
X74154463Y-164942710D01*
X74140000Y-164870000D01*
X74140000Y-164590000D01*
X74154463Y-164517290D01*
X74195650Y-164455650D01*
X74257290Y-164414463D01*
X74330000Y-164400000D01*
X74670000Y-164400000D01*
X74742710Y-164414463D01*
G37*
G36*
X73742710Y-163454463D02*
G01*
X73804350Y-163495650D01*
X73845537Y-163557290D01*
X73860000Y-163630000D01*
X73860000Y-163910000D01*
X73845537Y-163982710D01*
X73804350Y-164044350D01*
X73742710Y-164085537D01*
X73670000Y-164100000D01*
X73330000Y-164100000D01*
X73257290Y-164085537D01*
X73195650Y-164044350D01*
X73154463Y-163982710D01*
X73140000Y-163910000D01*
X73140000Y-163630000D01*
X73154463Y-163557290D01*
X73195650Y-163495650D01*
X73257290Y-163454463D01*
X73330000Y-163440000D01*
X73670000Y-163440000D01*
X73742710Y-163454463D01*
G37*
G36*
X74742710Y-163454463D02*
G01*
X74804350Y-163495650D01*
X74845537Y-163557290D01*
X74860000Y-163630000D01*
X74860000Y-163910000D01*
X74845537Y-163982710D01*
X74804350Y-164044350D01*
X74742710Y-164085537D01*
X74670000Y-164100000D01*
X74330000Y-164100000D01*
X74257290Y-164085537D01*
X74195650Y-164044350D01*
X74154463Y-163982710D01*
X74140000Y-163910000D01*
X74140000Y-163630000D01*
X74154463Y-163557290D01*
X74195650Y-163495650D01*
X74257290Y-163454463D01*
X74330000Y-163440000D01*
X74670000Y-163440000D01*
X74742710Y-163454463D01*
G37*
G36*
X72256409Y-163076275D02*
G01*
X72319958Y-163084641D01*
X72335943Y-163092095D01*
X72355238Y-163095933D01*
X72380792Y-163113008D01*
X72407290Y-163125364D01*
X72423412Y-163141486D01*
X72444454Y-163155546D01*
X72458513Y-163176587D01*
X72474635Y-163192709D01*
X72486990Y-163219204D01*
X72504067Y-163244762D01*
X72507905Y-163264058D01*
X72515358Y-163280041D01*
X72523722Y-163343577D01*
X72525000Y-163350000D01*
X72525000Y-163800000D01*
X72523722Y-163806424D01*
X72515358Y-163869958D01*
X72507905Y-163885939D01*
X72504067Y-163905238D01*
X72486988Y-163930797D01*
X72474635Y-163957290D01*
X72458516Y-163973408D01*
X72444454Y-163994454D01*
X72423408Y-164008516D01*
X72407290Y-164024635D01*
X72380797Y-164036988D01*
X72355238Y-164054067D01*
X72335939Y-164057905D01*
X72319958Y-164065358D01*
X72256424Y-164073722D01*
X72250000Y-164075000D01*
X71750000Y-164075000D01*
X71743577Y-164073722D01*
X71680041Y-164065358D01*
X71664058Y-164057905D01*
X71644762Y-164054067D01*
X71619204Y-164036990D01*
X71592709Y-164024635D01*
X71576587Y-164008513D01*
X71555546Y-163994454D01*
X71541486Y-163973412D01*
X71525364Y-163957290D01*
X71513008Y-163930792D01*
X71495933Y-163905238D01*
X71492095Y-163885943D01*
X71484641Y-163869958D01*
X71476275Y-163806409D01*
X71475000Y-163800000D01*
X71475000Y-163350000D01*
X71476274Y-163343592D01*
X71484641Y-163280041D01*
X71492095Y-163264054D01*
X71495933Y-163244762D01*
X71513006Y-163219209D01*
X71525364Y-163192709D01*
X71541488Y-163176584D01*
X71555546Y-163155546D01*
X71576584Y-163141488D01*
X71592709Y-163125364D01*
X71619209Y-163113006D01*
X71644762Y-163095933D01*
X71664054Y-163092095D01*
X71680041Y-163084641D01*
X71743592Y-163076274D01*
X71750000Y-163075000D01*
X72250000Y-163075000D01*
X72256409Y-163076275D01*
G37*
G36*
X79429160Y-162739600D02*
G01*
X79453882Y-162756118D01*
X79470400Y-162780840D01*
X79476200Y-162810000D01*
X79476200Y-163110000D01*
X79470400Y-163139160D01*
X79453882Y-163163882D01*
X79429160Y-163180400D01*
X79400000Y-163186200D01*
X78400000Y-163186200D01*
X78370840Y-163180400D01*
X78346118Y-163163882D01*
X78329600Y-163139160D01*
X78323800Y-163110000D01*
X78323800Y-162810000D01*
X78329600Y-162780840D01*
X78346118Y-162756118D01*
X78370840Y-162739600D01*
X78400000Y-162733800D01*
X79400000Y-162733800D01*
X79429160Y-162739600D01*
G37*
G36*
X73738268Y-162607612D02*
G01*
X73770711Y-162629289D01*
X73792388Y-162661732D01*
X73800000Y-162700000D01*
X73800000Y-163000000D01*
X73792388Y-163038268D01*
X73770711Y-163070711D01*
X73738268Y-163092388D01*
X73700000Y-163100000D01*
X73100000Y-163100000D01*
X73061732Y-163092388D01*
X73029289Y-163070711D01*
X73007612Y-163038268D01*
X73000000Y-163000000D01*
X73000000Y-162700000D01*
X73007612Y-162661732D01*
X73029289Y-162629289D01*
X73061732Y-162607612D01*
X73100000Y-162600000D01*
X73700000Y-162600000D01*
X73738268Y-162607612D01*
G37*
G36*
X74938268Y-162357612D02*
G01*
X74970711Y-162379289D01*
X74992388Y-162411732D01*
X75000000Y-162450000D01*
X75000000Y-162750000D01*
X74992388Y-162788268D01*
X74970711Y-162820711D01*
X74938268Y-162842388D01*
X74900000Y-162850000D01*
X74300000Y-162850000D01*
X74261732Y-162842388D01*
X74229289Y-162820711D01*
X74207612Y-162788268D01*
X74200000Y-162750000D01*
X74200000Y-162450000D01*
X74207612Y-162411732D01*
X74229289Y-162379289D01*
X74261732Y-162357612D01*
X74300000Y-162350000D01*
X74900000Y-162350000D01*
X74938268Y-162357612D01*
G37*
G36*
X72256409Y-161526275D02*
G01*
X72319958Y-161534641D01*
X72335943Y-161542095D01*
X72355238Y-161545933D01*
X72380792Y-161563008D01*
X72407290Y-161575364D01*
X72423412Y-161591486D01*
X72444454Y-161605546D01*
X72458513Y-161626587D01*
X72474635Y-161642709D01*
X72486990Y-161669204D01*
X72504067Y-161694762D01*
X72507905Y-161714058D01*
X72515358Y-161730041D01*
X72523722Y-161793577D01*
X72525000Y-161800000D01*
X72525000Y-162250000D01*
X72523722Y-162256424D01*
X72515358Y-162319958D01*
X72507905Y-162335939D01*
X72504067Y-162355238D01*
X72486988Y-162380797D01*
X72474635Y-162407290D01*
X72458516Y-162423408D01*
X72444454Y-162444454D01*
X72423408Y-162458516D01*
X72407290Y-162474635D01*
X72380797Y-162486988D01*
X72355238Y-162504067D01*
X72335939Y-162507905D01*
X72319958Y-162515358D01*
X72256424Y-162523722D01*
X72250000Y-162525000D01*
X71750000Y-162525000D01*
X71743577Y-162523722D01*
X71680041Y-162515358D01*
X71664058Y-162507905D01*
X71644762Y-162504067D01*
X71619204Y-162486990D01*
X71592709Y-162474635D01*
X71576587Y-162458513D01*
X71555546Y-162444454D01*
X71541486Y-162423412D01*
X71525364Y-162407290D01*
X71513008Y-162380792D01*
X71495933Y-162355238D01*
X71492095Y-162335943D01*
X71484641Y-162319958D01*
X71476275Y-162256409D01*
X71475000Y-162250000D01*
X71475000Y-161800000D01*
X71476274Y-161793592D01*
X71484641Y-161730041D01*
X71492095Y-161714054D01*
X71495933Y-161694762D01*
X71513006Y-161669209D01*
X71525364Y-161642709D01*
X71541488Y-161626584D01*
X71555546Y-161605546D01*
X71576584Y-161591488D01*
X71592709Y-161575364D01*
X71619209Y-161563006D01*
X71644762Y-161545933D01*
X71664054Y-161542095D01*
X71680041Y-161534641D01*
X71743592Y-161526274D01*
X71750000Y-161525000D01*
X72250000Y-161525000D01*
X72256409Y-161526275D01*
G37*
G36*
X73738268Y-161907612D02*
G01*
X73770711Y-161929289D01*
X73792388Y-161961732D01*
X73800000Y-162000000D01*
X73800000Y-162300000D01*
X73792388Y-162338268D01*
X73770711Y-162370711D01*
X73738268Y-162392388D01*
X73700000Y-162400000D01*
X73100000Y-162400000D01*
X73061732Y-162392388D01*
X73029289Y-162370711D01*
X73007612Y-162338268D01*
X73000000Y-162300000D01*
X73000000Y-162000000D01*
X73007612Y-161961732D01*
X73029289Y-161929289D01*
X73061732Y-161907612D01*
X73100000Y-161900000D01*
X73700000Y-161900000D01*
X73738268Y-161907612D01*
G37*
G36*
X74938268Y-161657612D02*
G01*
X74970711Y-161679289D01*
X74992388Y-161711732D01*
X75000000Y-161750000D01*
X75000000Y-162050000D01*
X74992388Y-162088268D01*
X74970711Y-162120711D01*
X74938268Y-162142388D01*
X74900000Y-162150000D01*
X74300000Y-162150000D01*
X74261732Y-162142388D01*
X74229289Y-162120711D01*
X74207612Y-162088268D01*
X74200000Y-162050000D01*
X74200000Y-161750000D01*
X74207612Y-161711732D01*
X74229289Y-161679289D01*
X74261732Y-161657612D01*
X74300000Y-161650000D01*
X74900000Y-161650000D01*
X74938268Y-161657612D01*
G37*
G36*
X76482710Y-161404463D02*
G01*
X76544350Y-161445650D01*
X76585537Y-161507290D01*
X76600000Y-161580000D01*
X76600000Y-161920000D01*
X76585537Y-161992710D01*
X76544350Y-162054350D01*
X76482710Y-162095537D01*
X76410000Y-162110000D01*
X76130000Y-162110000D01*
X76057290Y-162095537D01*
X75995650Y-162054350D01*
X75954463Y-161992710D01*
X75940000Y-161920000D01*
X75940000Y-161580000D01*
X75954463Y-161507290D01*
X75995650Y-161445650D01*
X76057290Y-161404463D01*
X76130000Y-161390000D01*
X76410000Y-161390000D01*
X76482710Y-161404463D01*
G37*
G36*
X77442710Y-161404463D02*
G01*
X77504350Y-161445650D01*
X77545537Y-161507290D01*
X77560000Y-161580000D01*
X77560000Y-161920000D01*
X77545537Y-161992710D01*
X77504350Y-162054350D01*
X77442710Y-162095537D01*
X77370000Y-162110000D01*
X77090000Y-162110000D01*
X77017290Y-162095537D01*
X76955650Y-162054350D01*
X76914463Y-161992710D01*
X76900000Y-161920000D01*
X76900000Y-161580000D01*
X76914463Y-161507290D01*
X76955650Y-161445650D01*
X77017290Y-161404463D01*
X77090000Y-161390000D01*
X77370000Y-161390000D01*
X77442710Y-161404463D01*
G37*
G36*
X46992710Y-161414463D02*
G01*
X47054350Y-161455650D01*
X47095537Y-161517290D01*
X47110000Y-161590000D01*
X47110000Y-161870000D01*
X47095537Y-161942710D01*
X47054350Y-162004350D01*
X46992710Y-162045537D01*
X46920000Y-162060000D01*
X46580000Y-162060000D01*
X46507290Y-162045537D01*
X46445650Y-162004350D01*
X46404463Y-161942710D01*
X46390000Y-161870000D01*
X46390000Y-161590000D01*
X46404463Y-161517290D01*
X46445650Y-161455650D01*
X46507290Y-161414463D01*
X46580000Y-161400000D01*
X46920000Y-161400000D01*
X46992710Y-161414463D01*
G37*
G36*
X79262660Y-160551275D02*
G01*
X79324590Y-160559428D01*
X79340167Y-160566692D01*
X79359096Y-160570457D01*
X79384167Y-160587208D01*
X79409955Y-160599234D01*
X79425644Y-160614923D01*
X79446285Y-160628715D01*
X79460076Y-160649355D01*
X79475765Y-160665044D01*
X79487789Y-160690830D01*
X79504543Y-160715904D01*
X79508308Y-160734834D01*
X79515571Y-160750409D01*
X79523722Y-160812326D01*
X79525000Y-160818750D01*
X79525000Y-161256250D01*
X79523722Y-161262674D01*
X79515571Y-161324590D01*
X79508308Y-161340164D01*
X79504543Y-161359096D01*
X79487787Y-161384171D01*
X79475765Y-161409955D01*
X79460078Y-161425641D01*
X79446285Y-161446285D01*
X79425641Y-161460078D01*
X79409955Y-161475765D01*
X79384171Y-161487787D01*
X79359096Y-161504543D01*
X79340164Y-161508308D01*
X79324590Y-161515571D01*
X79262674Y-161523722D01*
X79256250Y-161525000D01*
X78743750Y-161525000D01*
X78737326Y-161523722D01*
X78675409Y-161515571D01*
X78659834Y-161508308D01*
X78640904Y-161504543D01*
X78615830Y-161487789D01*
X78590044Y-161475765D01*
X78574355Y-161460076D01*
X78553715Y-161446285D01*
X78539923Y-161425644D01*
X78524234Y-161409955D01*
X78512208Y-161384167D01*
X78495457Y-161359096D01*
X78491692Y-161340167D01*
X78484428Y-161324590D01*
X78476275Y-161262660D01*
X78475000Y-161256250D01*
X78475000Y-160818750D01*
X78476274Y-160812341D01*
X78484428Y-160750409D01*
X78491692Y-160734830D01*
X78495457Y-160715904D01*
X78512207Y-160690835D01*
X78524234Y-160665044D01*
X78539925Y-160649352D01*
X78553715Y-160628715D01*
X78574352Y-160614925D01*
X78590044Y-160599234D01*
X78615835Y-160587207D01*
X78640904Y-160570457D01*
X78659830Y-160566692D01*
X78675409Y-160559428D01*
X78737341Y-160551274D01*
X78743750Y-160550000D01*
X79256250Y-160550000D01*
X79262660Y-160551275D01*
G37*
G36*
X72689034Y-159576264D02*
G01*
X72722125Y-159598375D01*
X72744236Y-159631466D01*
X72744725Y-159633928D01*
X72748275Y-159639240D01*
X72801725Y-159639240D01*
X72805274Y-159633928D01*
X72805764Y-159631466D01*
X72827875Y-159598375D01*
X72860966Y-159576264D01*
X72900000Y-159568500D01*
X73300000Y-159568500D01*
X73339034Y-159576264D01*
X73372125Y-159598375D01*
X73394236Y-159631466D01*
X73394725Y-159633928D01*
X73398275Y-159639240D01*
X73451725Y-159639240D01*
X73455274Y-159633928D01*
X73455764Y-159631466D01*
X73477875Y-159598375D01*
X73510966Y-159576264D01*
X73550000Y-159568500D01*
X73950000Y-159568500D01*
X73989034Y-159576264D01*
X74022125Y-159598375D01*
X74044236Y-159631466D01*
X74044725Y-159633928D01*
X74048275Y-159639240D01*
X74101725Y-159639240D01*
X74105274Y-159633928D01*
X74105764Y-159631466D01*
X74127875Y-159598375D01*
X74160966Y-159576264D01*
X74200000Y-159568500D01*
X74600000Y-159568500D01*
X74639034Y-159576264D01*
X74672125Y-159598375D01*
X74694236Y-159631466D01*
X74694725Y-159633928D01*
X74698275Y-159639240D01*
X74751725Y-159639240D01*
X74755274Y-159633928D01*
X74755764Y-159631466D01*
X74777875Y-159598375D01*
X74810966Y-159576264D01*
X74850000Y-159568500D01*
X75250000Y-159568500D01*
X75289034Y-159576264D01*
X75322125Y-159598375D01*
X75344236Y-159631466D01*
X75352000Y-159670500D01*
X75352000Y-161020500D01*
X75344236Y-161059534D01*
X75322125Y-161092625D01*
X75289034Y-161114736D01*
X75250000Y-161122500D01*
X74850000Y-161122500D01*
X74810966Y-161114736D01*
X74777875Y-161092625D01*
X74755764Y-161059534D01*
X74755273Y-161057068D01*
X74751726Y-161051759D01*
X74698274Y-161051759D01*
X74694726Y-161057068D01*
X74694236Y-161059534D01*
X74672125Y-161092625D01*
X74639034Y-161114736D01*
X74600000Y-161122500D01*
X74200000Y-161122500D01*
X74160966Y-161114736D01*
X74127875Y-161092625D01*
X74105764Y-161059534D01*
X74105273Y-161057068D01*
X74101726Y-161051759D01*
X74048274Y-161051759D01*
X74044726Y-161057068D01*
X74044236Y-161059534D01*
X74022125Y-161092625D01*
X73989034Y-161114736D01*
X73950000Y-161122500D01*
X73550000Y-161122500D01*
X73510966Y-161114736D01*
X73477875Y-161092625D01*
X73455764Y-161059534D01*
X73455273Y-161057068D01*
X73451726Y-161051759D01*
X73398274Y-161051759D01*
X73394726Y-161057068D01*
X73394236Y-161059534D01*
X73372125Y-161092625D01*
X73339034Y-161114736D01*
X73300000Y-161122500D01*
X72900000Y-161122500D01*
X72860966Y-161114736D01*
X72827875Y-161092625D01*
X72805764Y-161059534D01*
X72805273Y-161057068D01*
X72801726Y-161051759D01*
X72748274Y-161051759D01*
X72744726Y-161057068D01*
X72744236Y-161059534D01*
X72722125Y-161092625D01*
X72689034Y-161114736D01*
X72650000Y-161122500D01*
X72250000Y-161122500D01*
X72210966Y-161114736D01*
X72177875Y-161092625D01*
X72155764Y-161059534D01*
X72148000Y-161020500D01*
X72148000Y-159670500D01*
X72155764Y-159631466D01*
X72177875Y-159598375D01*
X72210966Y-159576264D01*
X72250000Y-159568500D01*
X72650000Y-159568500D01*
X72689034Y-159576264D01*
G37*
G36*
X46992710Y-160454463D02*
G01*
X47054350Y-160495650D01*
X47095537Y-160557290D01*
X47110000Y-160630000D01*
X47110000Y-160910000D01*
X47095537Y-160982710D01*
X47054350Y-161044350D01*
X46992710Y-161085537D01*
X46920000Y-161100000D01*
X46580000Y-161100000D01*
X46507290Y-161085537D01*
X46445650Y-161044350D01*
X46404463Y-160982710D01*
X46390000Y-160910000D01*
X46390000Y-160630000D01*
X46404463Y-160557290D01*
X46445650Y-160495650D01*
X46507290Y-160454463D01*
X46580000Y-160440000D01*
X46920000Y-160440000D01*
X46992710Y-160454463D01*
G37*
G36*
X71200438Y-159333134D02*
G01*
X71206176Y-159335939D01*
X71208581Y-159336320D01*
X71247045Y-159355918D01*
X71304539Y-159384025D01*
X71386475Y-159465961D01*
X71414585Y-159523463D01*
X71434178Y-159561915D01*
X71434558Y-159564319D01*
X71437366Y-159570062D01*
X71452000Y-159670500D01*
X71452000Y-160570500D01*
X71437366Y-160670938D01*
X71434559Y-160676679D01*
X71434179Y-160679081D01*
X71414605Y-160717496D01*
X71386475Y-160775039D01*
X71304539Y-160856975D01*
X71247012Y-160885097D01*
X71208584Y-160904678D01*
X71206180Y-160905058D01*
X71200438Y-160907866D01*
X71100000Y-160922500D01*
X70000000Y-160922500D01*
X69899562Y-160907866D01*
X69893821Y-160905059D01*
X69891418Y-160904679D01*
X69852978Y-160885093D01*
X69795461Y-160856975D01*
X69713525Y-160775039D01*
X69685425Y-160717560D01*
X69665821Y-160679084D01*
X69665439Y-160676677D01*
X69662634Y-160670938D01*
X69648000Y-160570500D01*
X69648000Y-159670500D01*
X69662634Y-159570062D01*
X69665438Y-159564324D01*
X69665820Y-159561918D01*
X69685430Y-159523430D01*
X69713525Y-159465961D01*
X69795461Y-159384025D01*
X69852914Y-159355938D01*
X69891415Y-159336321D01*
X69893822Y-159335939D01*
X69899562Y-159333134D01*
X70000000Y-159318500D01*
X71100000Y-159318500D01*
X71200438Y-159333134D01*
G37*
G36*
X77600438Y-159333134D02*
G01*
X77606176Y-159335939D01*
X77608581Y-159336320D01*
X77647045Y-159355918D01*
X77704539Y-159384025D01*
X77786475Y-159465961D01*
X77814585Y-159523463D01*
X77834178Y-159561915D01*
X77834558Y-159564319D01*
X77837366Y-159570062D01*
X77852000Y-159670500D01*
X77852000Y-160570500D01*
X77837366Y-160670938D01*
X77834559Y-160676679D01*
X77834179Y-160679081D01*
X77814605Y-160717496D01*
X77786475Y-160775039D01*
X77704539Y-160856975D01*
X77647012Y-160885097D01*
X77608584Y-160904678D01*
X77606180Y-160905058D01*
X77600438Y-160907866D01*
X77500000Y-160922500D01*
X76400000Y-160922500D01*
X76299562Y-160907866D01*
X76293821Y-160905059D01*
X76291418Y-160904679D01*
X76252978Y-160885093D01*
X76195461Y-160856975D01*
X76113525Y-160775039D01*
X76085425Y-160717560D01*
X76065821Y-160679084D01*
X76065439Y-160676677D01*
X76062634Y-160670938D01*
X76048000Y-160570500D01*
X76048000Y-159670500D01*
X76062634Y-159570062D01*
X76065438Y-159564324D01*
X76065820Y-159561918D01*
X76085430Y-159523430D01*
X76113525Y-159465961D01*
X76195461Y-159384025D01*
X76252914Y-159355938D01*
X76291415Y-159336321D01*
X76293822Y-159335939D01*
X76299562Y-159333134D01*
X76400000Y-159318500D01*
X77500000Y-159318500D01*
X77600438Y-159333134D01*
G37*
G36*
X79262660Y-158976275D02*
G01*
X79324590Y-158984428D01*
X79340167Y-158991692D01*
X79359096Y-158995457D01*
X79384167Y-159012208D01*
X79409955Y-159024234D01*
X79425644Y-159039923D01*
X79446285Y-159053715D01*
X79460076Y-159074355D01*
X79475765Y-159090044D01*
X79487789Y-159115830D01*
X79504543Y-159140904D01*
X79508308Y-159159834D01*
X79515571Y-159175409D01*
X79523722Y-159237326D01*
X79525000Y-159243750D01*
X79525000Y-159681250D01*
X79523722Y-159687674D01*
X79515571Y-159749590D01*
X79508308Y-159765164D01*
X79504543Y-159784096D01*
X79487787Y-159809171D01*
X79475765Y-159834955D01*
X79460078Y-159850641D01*
X79446285Y-159871285D01*
X79425641Y-159885078D01*
X79409955Y-159900765D01*
X79384171Y-159912787D01*
X79359096Y-159929543D01*
X79340164Y-159933308D01*
X79324590Y-159940571D01*
X79262674Y-159948722D01*
X79256250Y-159950000D01*
X78743750Y-159950000D01*
X78737326Y-159948722D01*
X78675409Y-159940571D01*
X78659834Y-159933308D01*
X78640904Y-159929543D01*
X78615830Y-159912789D01*
X78590044Y-159900765D01*
X78574355Y-159885076D01*
X78553715Y-159871285D01*
X78539923Y-159850644D01*
X78524234Y-159834955D01*
X78512208Y-159809167D01*
X78495457Y-159784096D01*
X78491692Y-159765167D01*
X78484428Y-159749590D01*
X78476275Y-159687660D01*
X78475000Y-159681250D01*
X78475000Y-159243750D01*
X78476274Y-159237341D01*
X78484428Y-159175409D01*
X78491692Y-159159830D01*
X78495457Y-159140904D01*
X78512207Y-159115835D01*
X78524234Y-159090044D01*
X78539925Y-159074352D01*
X78553715Y-159053715D01*
X78574352Y-159039925D01*
X78590044Y-159024234D01*
X78615835Y-159012207D01*
X78640904Y-158995457D01*
X78659830Y-158991692D01*
X78675409Y-158984428D01*
X78737341Y-158976274D01*
X78743750Y-158975000D01*
X79256250Y-158975000D01*
X79262660Y-158976275D01*
G37*
G36*
X73539034Y-156626264D02*
G01*
X73572125Y-156648375D01*
X73594236Y-156681466D01*
X73602000Y-156720500D01*
X73602000Y-158620500D01*
X73594236Y-158659534D01*
X73572125Y-158692625D01*
X73539034Y-158714736D01*
X73500000Y-158722500D01*
X71600000Y-158722500D01*
X71560966Y-158714736D01*
X71527875Y-158692625D01*
X71505764Y-158659534D01*
X71498000Y-158620500D01*
X71498000Y-156720500D01*
X71505764Y-156681466D01*
X71527875Y-156648375D01*
X71560966Y-156626264D01*
X71600000Y-156618500D01*
X73500000Y-156618500D01*
X73539034Y-156626264D01*
G37*
G36*
X75939034Y-156626264D02*
G01*
X75972125Y-156648375D01*
X75994236Y-156681466D01*
X76002000Y-156720500D01*
X76002000Y-158620500D01*
X75994236Y-158659534D01*
X75972125Y-158692625D01*
X75939034Y-158714736D01*
X75900000Y-158722500D01*
X74000000Y-158722500D01*
X73960966Y-158714736D01*
X73927875Y-158692625D01*
X73905764Y-158659534D01*
X73898000Y-158620500D01*
X73898000Y-156720500D01*
X73905764Y-156681466D01*
X73927875Y-156648375D01*
X73960966Y-156626264D01*
X74000000Y-156618500D01*
X75900000Y-156618500D01*
X75939034Y-156626264D01*
G37*
G36*
X70661241Y-156710518D02*
G01*
X70786036Y-156782569D01*
X70887931Y-156884464D01*
X70959982Y-157009259D01*
X70997278Y-157148450D01*
X71002000Y-158120500D01*
X70997278Y-158192550D01*
X70959982Y-158331741D01*
X70887931Y-158456536D01*
X70786036Y-158558431D01*
X70661241Y-158630482D01*
X70522050Y-158667778D01*
X70377950Y-158667778D01*
X70238759Y-158630482D01*
X70113964Y-158558431D01*
X70012069Y-158456536D01*
X69940018Y-158331741D01*
X69902722Y-158192550D01*
X69898000Y-157220500D01*
X69902722Y-157148450D01*
X69940018Y-157009259D01*
X70012069Y-156884464D01*
X70113964Y-156782569D01*
X70238759Y-156710518D01*
X70377950Y-156673222D01*
X70522050Y-156673222D01*
X70661241Y-156710518D01*
G37*
G36*
X77261241Y-156710518D02*
G01*
X77386036Y-156782569D01*
X77487931Y-156884464D01*
X77559982Y-157009259D01*
X77597278Y-157148450D01*
X77602000Y-158120500D01*
X77597278Y-158192550D01*
X77559982Y-158331741D01*
X77487931Y-158456536D01*
X77386036Y-158558431D01*
X77261241Y-158630482D01*
X77122050Y-158667778D01*
X76977950Y-158667778D01*
X76838759Y-158630482D01*
X76713964Y-158558431D01*
X76612069Y-158456536D01*
X76540018Y-158331741D01*
X76502722Y-158192550D01*
X76498000Y-157220500D01*
X76502722Y-157148450D01*
X76540018Y-157009259D01*
X76612069Y-156884464D01*
X76713964Y-156782569D01*
X76838759Y-156710518D01*
X76977950Y-156673222D01*
X77122050Y-156673222D01*
X77261241Y-156710518D01*
G37*
G36*
X48186937Y-156970666D02*
G01*
X48294687Y-157039913D01*
X48378564Y-157136712D01*
X48431772Y-157253220D01*
X48450000Y-157380000D01*
X48431772Y-157506780D01*
X48378564Y-157623288D01*
X48294687Y-157720087D01*
X48186937Y-157789334D01*
X48064042Y-157825420D01*
X47935958Y-157825420D01*
X47813063Y-157789334D01*
X47705313Y-157720087D01*
X47621436Y-157623288D01*
X47568228Y-157506780D01*
X47550000Y-157380000D01*
X47568228Y-157253220D01*
X47621436Y-157136712D01*
X47705313Y-157039913D01*
X47813063Y-156970666D01*
X47935958Y-156934580D01*
X48064042Y-156934580D01*
X48186937Y-156970666D01*
G37*
M02*
