%TF.GenerationSoftware,KiCad,Pcbnew,8.0.1*%
%TF.CreationDate,2024-10-15T00:35:35+02:00*%
%TF.ProjectId,InsuDos,496e7375-446f-4732-9e6b-696361645f70,rev?*%
%TF.SameCoordinates,Original*%
%TF.FileFunction,AssemblyDrawing,Bot*%
%FSLAX46Y46*%
G04 Gerber Fmt 4.6, Leading zero omitted, Abs format (unit mm)*
G04 Created by KiCad (PCBNEW 8.0.1) date 2024-10-15 00:35:35*
%MOMM*%
%LPD*%
G01*
G04 APERTURE LIST*
%ADD10C,0.150000*%
%ADD11C,0.100000*%
%ADD12C,0.127000*%
%ADD13C,0.200000*%
%ADD14C,0.025400*%
%ADD15C,0.152400*%
G04 APERTURE END LIST*
D10*
X74336779Y-163369819D02*
X74336779Y-164179342D01*
X74336779Y-164179342D02*
X74384398Y-164274580D01*
X74384398Y-164274580D02*
X74432017Y-164322200D01*
X74432017Y-164322200D02*
X74527255Y-164369819D01*
X74527255Y-164369819D02*
X74717731Y-164369819D01*
X74717731Y-164369819D02*
X74812969Y-164322200D01*
X74812969Y-164322200D02*
X74860588Y-164274580D01*
X74860588Y-164274580D02*
X74908207Y-164179342D01*
X74908207Y-164179342D02*
X74908207Y-163369819D01*
X75289160Y-163369819D02*
X75908207Y-163369819D01*
X75908207Y-163369819D02*
X75574874Y-163750771D01*
X75574874Y-163750771D02*
X75717731Y-163750771D01*
X75717731Y-163750771D02*
X75812969Y-163798390D01*
X75812969Y-163798390D02*
X75860588Y-163846009D01*
X75860588Y-163846009D02*
X75908207Y-163941247D01*
X75908207Y-163941247D02*
X75908207Y-164179342D01*
X75908207Y-164179342D02*
X75860588Y-164274580D01*
X75860588Y-164274580D02*
X75812969Y-164322200D01*
X75812969Y-164322200D02*
X75717731Y-164369819D01*
X75717731Y-164369819D02*
X75432017Y-164369819D01*
X75432017Y-164369819D02*
X75336779Y-164322200D01*
X75336779Y-164322200D02*
X75289160Y-164274580D01*
X53027255Y-158393628D02*
X53027255Y-158869819D01*
X52693922Y-157869819D02*
X53027255Y-158393628D01*
X53027255Y-158393628D02*
X53360588Y-157869819D01*
X53646303Y-157965057D02*
X53693922Y-157917438D01*
X53693922Y-157917438D02*
X53789160Y-157869819D01*
X53789160Y-157869819D02*
X54027255Y-157869819D01*
X54027255Y-157869819D02*
X54122493Y-157917438D01*
X54122493Y-157917438D02*
X54170112Y-157965057D01*
X54170112Y-157965057D02*
X54217731Y-158060295D01*
X54217731Y-158060295D02*
X54217731Y-158155533D01*
X54217731Y-158155533D02*
X54170112Y-158298390D01*
X54170112Y-158298390D02*
X53598684Y-158869819D01*
X53598684Y-158869819D02*
X54217731Y-158869819D01*
D11*
%TO.C,R19*%
X56725000Y-169970000D02*
X55675000Y-169970000D01*
X55675000Y-169970000D02*
X55675000Y-169430000D01*
X56725000Y-169430000D02*
X56725000Y-169970000D01*
X55675000Y-169430000D02*
X56725000Y-169430000D01*
%TO.C,R6*%
X74530000Y-166525000D02*
X75070000Y-166525000D01*
X74530000Y-167575000D02*
X74530000Y-166525000D01*
X75070000Y-166525000D02*
X75070000Y-167575000D01*
X75070000Y-167575000D02*
X74530000Y-167575000D01*
%TO.C,C7*%
X59500000Y-172750000D02*
X60500000Y-172750000D01*
X59500000Y-173250000D02*
X59500000Y-172750000D01*
X60500000Y-172750000D02*
X60500000Y-173250000D01*
X60500000Y-173250000D02*
X59500000Y-173250000D01*
%TO.C,Y1*%
X60500000Y-170900000D02*
X60500000Y-172100000D01*
X60500000Y-172100000D02*
X62500000Y-172100000D01*
X62000000Y-172100000D02*
X62500000Y-171600000D01*
X62500000Y-170900000D02*
X60500000Y-170900000D01*
X62500000Y-172100000D02*
X62500000Y-170900000D01*
%TO.C,U1*%
X68900000Y-160900000D02*
X68900000Y-159200000D01*
X69880000Y-159200000D02*
X68900000Y-159200000D01*
X69880000Y-159200000D02*
X68900000Y-159200000D01*
X69880000Y-159200000D02*
X70200000Y-159520000D01*
X70200000Y-160900000D02*
X68900000Y-160900000D01*
X70200000Y-160900000D02*
X70200000Y-159520000D01*
%TO.C,C6*%
X49400000Y-162500000D02*
X49400000Y-160900000D01*
X50200000Y-162500000D02*
X49400000Y-162500000D01*
X49400000Y-160900000D02*
X50200000Y-160900000D01*
X50200000Y-160900000D02*
X50200000Y-162500000D01*
%TO.C,L3*%
X59100000Y-157200000D02*
X59900000Y-157200000D01*
X59100000Y-158800000D02*
X59100000Y-157200000D01*
X59900000Y-157200000D02*
X59900000Y-158800000D01*
X59900000Y-158800000D02*
X59100000Y-158800000D01*
%TO.C,R10*%
X51975000Y-168230000D02*
X53025000Y-168230000D01*
X51975000Y-168770000D02*
X51975000Y-168230000D01*
X53025000Y-168230000D02*
X53025000Y-168770000D01*
X53025000Y-168770000D02*
X51975000Y-168770000D01*
%TO.C,R7*%
X53582000Y-170745000D02*
X54122000Y-170745000D01*
X53582000Y-171795000D02*
X53582000Y-170745000D01*
X54122000Y-170745000D02*
X54122000Y-171795000D01*
X54122000Y-171795000D02*
X53582000Y-171795000D01*
%TO.C,C1*%
X60600000Y-157200000D02*
X61400000Y-157200000D01*
X60600000Y-158800000D02*
X60600000Y-157200000D01*
X61400000Y-157200000D02*
X61400000Y-158800000D01*
X61400000Y-158800000D02*
X60600000Y-158800000D01*
%TO.C,C23*%
X63250000Y-168500000D02*
X63750000Y-168500000D01*
X63250000Y-169500000D02*
X63250000Y-168500000D01*
X63750000Y-168500000D02*
X63750000Y-169500000D01*
X63750000Y-169500000D02*
X63250000Y-169500000D01*
%TO.C,R15*%
X73975000Y-161230000D02*
X75025000Y-161230000D01*
X73975000Y-161770000D02*
X73975000Y-161230000D01*
X75025000Y-161230000D02*
X75025000Y-161770000D01*
X75025000Y-161770000D02*
X73975000Y-161770000D01*
%TO.C,C16*%
X38550000Y-162550000D02*
X39550000Y-162550000D01*
X38550000Y-163050000D02*
X38550000Y-162550000D01*
X39550000Y-162550000D02*
X39550000Y-163050000D01*
X39550000Y-163050000D02*
X38550000Y-163050000D01*
%TO.C,C24*%
X61500000Y-169500000D02*
X62500000Y-169500000D01*
X61500000Y-170000000D02*
X61500000Y-169500000D01*
X62500000Y-169500000D02*
X62500000Y-170000000D01*
X62500000Y-170000000D02*
X61500000Y-170000000D01*
%TO.C,U4*%
X54900000Y-161400000D02*
X61900000Y-161400000D01*
X54900000Y-168400000D02*
X54900000Y-161400000D01*
X60900000Y-168400000D02*
X54900000Y-168400000D01*
X61900000Y-161400000D02*
X61900000Y-167400000D01*
X61900000Y-167400000D02*
X60900000Y-168400000D01*
%TO.C,C39*%
X56600000Y-157200000D02*
X57400000Y-157200000D01*
X56600000Y-158800000D02*
X56600000Y-157200000D01*
X57400000Y-157200000D02*
X57400000Y-158800000D01*
X57400000Y-158800000D02*
X56600000Y-158800000D01*
%TO.C,C25*%
X52100000Y-164150000D02*
X53100000Y-164150000D01*
X52100000Y-164650000D02*
X52100000Y-164150000D01*
X53100000Y-164150000D02*
X53100000Y-164650000D01*
X53100000Y-164650000D02*
X52100000Y-164650000D01*
%TO.C,R14*%
X64225000Y-163480000D02*
X65275000Y-163480000D01*
X64225000Y-164020000D02*
X64225000Y-163480000D01*
X65275000Y-163480000D02*
X65275000Y-164020000D01*
X65275000Y-164020000D02*
X64225000Y-164020000D01*
%TO.C,R21*%
X50730000Y-172225000D02*
X51270000Y-172225000D01*
X50730000Y-173275000D02*
X50730000Y-172225000D01*
X51270000Y-172225000D02*
X51270000Y-173275000D01*
X51270000Y-173275000D02*
X50730000Y-173275000D01*
%TO.C,C9*%
X50250000Y-168500000D02*
X50750000Y-168500000D01*
X50250000Y-169500000D02*
X50250000Y-168500000D01*
X50750000Y-168500000D02*
X50750000Y-169500000D01*
X50750000Y-169500000D02*
X50250000Y-169500000D01*
%TO.C,R22*%
X51975000Y-169480000D02*
X53025000Y-169480000D01*
X51975000Y-170020000D02*
X51975000Y-169480000D01*
X53025000Y-169480000D02*
X53025000Y-170020000D01*
X53025000Y-170020000D02*
X51975000Y-170020000D01*
%TO.C,C26*%
X57500000Y-159750000D02*
X58500000Y-159750000D01*
X57500000Y-160250000D02*
X57500000Y-159750000D01*
X58500000Y-159750000D02*
X58500000Y-160250000D01*
X58500000Y-160250000D02*
X57500000Y-160250000D01*
%TO.C,R2*%
X78075000Y-156730000D02*
X79125000Y-156730000D01*
X78075000Y-157270000D02*
X78075000Y-156730000D01*
X79125000Y-156730000D02*
X79125000Y-157270000D01*
X79125000Y-157270000D02*
X78075000Y-157270000D01*
%TO.C,SW1*%
X46500000Y-156120000D02*
X49500000Y-156120000D01*
X46500000Y-158630000D02*
X46500000Y-156120000D01*
X47150000Y-155730000D02*
X47550000Y-155430000D01*
X47150000Y-156120000D02*
X47150000Y-155730000D01*
X47550000Y-155430000D02*
X48450000Y-155430000D01*
X48450000Y-155430000D02*
X48850000Y-155730000D01*
X48850000Y-155730000D02*
X48850000Y-156120000D01*
X49500000Y-156120000D02*
X49500000Y-158630000D01*
X49500000Y-158630000D02*
X46500000Y-158630000D01*
%TO.C,C19*%
X52750000Y-155500000D02*
X53750000Y-155500000D01*
X52750000Y-156000000D02*
X52750000Y-155500000D01*
X53750000Y-155500000D02*
X53750000Y-156000000D01*
X53750000Y-156000000D02*
X52750000Y-156000000D01*
D12*
%TO.C,U3*%
X73500000Y-162500000D02*
X76500000Y-162500000D01*
X73500000Y-165500000D02*
X73500000Y-162500000D01*
X76500000Y-162500000D02*
X76500000Y-165500000D01*
X76500000Y-165500000D02*
X73500000Y-165500000D01*
D13*
X77735000Y-162875000D02*
G75*
G02*
X77535000Y-162875000I-100000J0D01*
G01*
X77535000Y-162875000D02*
G75*
G02*
X77735000Y-162875000I100000J0D01*
G01*
D11*
%TO.C,R20*%
X50475000Y-165730000D02*
X51525000Y-165730000D01*
X50475000Y-166270000D02*
X50475000Y-165730000D01*
X51525000Y-165730000D02*
X51525000Y-166270000D01*
X51525000Y-166270000D02*
X50475000Y-166270000D01*
%TO.C,C18*%
X50750000Y-158500000D02*
X51250000Y-158500000D01*
X50750000Y-159500000D02*
X50750000Y-158500000D01*
X51250000Y-158500000D02*
X51250000Y-159500000D01*
X51250000Y-159500000D02*
X50750000Y-159500000D01*
%TO.C,R13*%
X62230000Y-157975000D02*
X62770000Y-157975000D01*
X62230000Y-159025000D02*
X62230000Y-157975000D01*
X62770000Y-157975000D02*
X62770000Y-159025000D01*
X62770000Y-159025000D02*
X62230000Y-159025000D01*
%TO.C,C22*%
X63600000Y-158200000D02*
X64400000Y-158200000D01*
X63600000Y-159800000D02*
X63600000Y-158200000D01*
X64400000Y-158200000D02*
X64400000Y-159800000D01*
X64400000Y-159800000D02*
X63600000Y-159800000D01*
%TO.C,R23*%
X39525000Y-163530000D02*
X40575000Y-163530000D01*
X39525000Y-164070000D02*
X39525000Y-163530000D01*
X40575000Y-163530000D02*
X40575000Y-164070000D01*
X40575000Y-164070000D02*
X39525000Y-164070000D01*
%TO.C,TH1*%
X55230000Y-158475000D02*
X55770000Y-158475000D01*
X55230000Y-159525000D02*
X55230000Y-158475000D01*
X55770000Y-158475000D02*
X55770000Y-159525000D01*
X55770000Y-159525000D02*
X55230000Y-159525000D01*
%TO.C,C30*%
X71600000Y-161700000D02*
X72400000Y-161700000D01*
X71600000Y-163300000D02*
X71600000Y-161700000D01*
X72400000Y-161700000D02*
X72400000Y-163300000D01*
X72400000Y-163300000D02*
X71600000Y-163300000D01*
%TO.C,C27*%
X63500000Y-170750000D02*
X64000000Y-170750000D01*
X63500000Y-171750000D02*
X63500000Y-170750000D01*
X64000000Y-170750000D02*
X64000000Y-171750000D01*
X64000000Y-171750000D02*
X63500000Y-171750000D01*
%TO.C,C8*%
X61500000Y-172750000D02*
X62500000Y-172750000D01*
X61500000Y-173250000D02*
X61500000Y-172750000D01*
X62500000Y-172750000D02*
X62500000Y-173250000D01*
X62500000Y-173250000D02*
X61500000Y-173250000D01*
%TO.C,R16*%
X59230000Y-170725000D02*
X59770000Y-170725000D01*
X59230000Y-171775000D02*
X59230000Y-170725000D01*
X59770000Y-170725000D02*
X59770000Y-171775000D01*
X59770000Y-171775000D02*
X59230000Y-171775000D01*
%TO.C,C20*%
X55676000Y-170750000D02*
X56176000Y-170750000D01*
X55676000Y-171750000D02*
X55676000Y-170750000D01*
X56176000Y-170750000D02*
X56176000Y-171750000D01*
X56176000Y-171750000D02*
X55676000Y-171750000D01*
D10*
%TO.C,AE1*%
X26200000Y-156150000D02*
X41700000Y-156150000D01*
X26200000Y-162100000D02*
X26200000Y-156150000D01*
X41700000Y-156150000D02*
X41700000Y-162100000D01*
X41700000Y-162100000D02*
X26200000Y-162100000D01*
D11*
%TO.C,C21*%
X56708000Y-170750000D02*
X57208000Y-170750000D01*
X56708000Y-171750000D02*
X56708000Y-170750000D01*
X57208000Y-170750000D02*
X57208000Y-171750000D01*
X57208000Y-171750000D02*
X56708000Y-171750000D01*
%TO.C,R5*%
X71730000Y-164475000D02*
X72270000Y-164475000D01*
X71730000Y-165525000D02*
X71730000Y-164475000D01*
X72270000Y-164475000D02*
X72270000Y-165525000D01*
X72270000Y-165525000D02*
X71730000Y-165525000D01*
%TO.C,R12*%
X50980000Y-161225000D02*
X51520000Y-161225000D01*
X50980000Y-162275000D02*
X50980000Y-161225000D01*
X51520000Y-161225000D02*
X51520000Y-162275000D01*
X51520000Y-162275000D02*
X50980000Y-162275000D01*
%TO.C,C33*%
X75900000Y-159700000D02*
X76700000Y-159700000D01*
X75900000Y-161300000D02*
X75900000Y-159700000D01*
X76700000Y-159700000D02*
X76700000Y-161300000D01*
X76700000Y-161300000D02*
X75900000Y-161300000D01*
%TO.C,R18*%
X48870000Y-160275000D02*
X48870000Y-161325000D01*
X48330000Y-160275000D02*
X48870000Y-160275000D01*
X48870000Y-161325000D02*
X48330000Y-161325000D01*
X48330000Y-161325000D02*
X48330000Y-160275000D01*
%TO.C,R8*%
X53975000Y-172430000D02*
X55025000Y-172430000D01*
X53975000Y-172970000D02*
X53975000Y-172430000D01*
X55025000Y-172430000D02*
X55025000Y-172970000D01*
X55025000Y-172970000D02*
X53975000Y-172970000D01*
%TO.C,SW3*%
X22940000Y-163500000D02*
X25450000Y-163500000D01*
X22940000Y-166500000D02*
X22940000Y-163500000D01*
X25450000Y-163500000D02*
X25450000Y-166500000D01*
X25450000Y-166500000D02*
X22940000Y-166500000D01*
X24950000Y-165000000D02*
G75*
G02*
X23450000Y-165000000I-750000J0D01*
G01*
X23450000Y-165000000D02*
G75*
G02*
X24950000Y-165000000I750000J0D01*
G01*
%TO.C,C40*%
X72850000Y-166950000D02*
X73650000Y-166950000D01*
X72850000Y-168550000D02*
X72850000Y-166950000D01*
X73650000Y-166950000D02*
X73650000Y-168550000D01*
X73650000Y-168550000D02*
X72850000Y-168550000D01*
%TO.C,L2*%
X58000000Y-158000000D02*
X58500000Y-158000000D01*
X58000000Y-159000000D02*
X58000000Y-158000000D01*
X58500000Y-158000000D02*
X58500000Y-159000000D01*
X58500000Y-159000000D02*
X58000000Y-159000000D01*
%TO.C,SW2*%
X65500000Y-171350000D02*
X68500000Y-171350000D01*
X65500000Y-173860000D02*
X65500000Y-171350000D01*
X66150000Y-174250000D02*
X66150000Y-173860000D01*
X66550000Y-174550000D02*
X66150000Y-174250000D01*
X67450000Y-174550000D02*
X66550000Y-174550000D01*
X67850000Y-173860000D02*
X67850000Y-174250000D01*
X67850000Y-174250000D02*
X67450000Y-174550000D01*
X68500000Y-171350000D02*
X68500000Y-173860000D01*
X68500000Y-173860000D02*
X65500000Y-173860000D01*
D12*
%TO.C,Y2*%
X52000000Y-156900000D02*
X52000000Y-160100000D01*
X52000000Y-156900000D02*
X54500000Y-156900000D01*
X54500000Y-156900000D02*
X54500000Y-160100000D01*
X54500000Y-160100000D02*
X52000000Y-160100000D01*
D13*
X51225000Y-159600000D02*
G75*
G02*
X51025000Y-159600000I-100000J0D01*
G01*
X51025000Y-159600000D02*
G75*
G02*
X51225000Y-159600000I100000J0D01*
G01*
D14*
%TO.C,FL1*%
X49687200Y-163492000D02*
X49687200Y-164508000D01*
X49687200Y-164508000D02*
X51312800Y-164508000D01*
X51312800Y-163492000D02*
X49687200Y-163492000D01*
X51312800Y-164508000D02*
X51312800Y-163492000D01*
X49687200Y-163695200D02*
G75*
G02*
X49687200Y-164304800I0J-304800D01*
G01*
D15*
X49989200Y-163847600D02*
G75*
G02*
X49836800Y-163847600I-76200J0D01*
G01*
X49836800Y-163847600D02*
G75*
G02*
X49989200Y-163847600I76200J0D01*
G01*
D11*
%TO.C,SW4*%
X46500000Y-171350000D02*
X49500000Y-171350000D01*
X46500000Y-173860000D02*
X46500000Y-171350000D01*
X47150000Y-174250000D02*
X47150000Y-173860000D01*
X47550000Y-174550000D02*
X47150000Y-174250000D01*
X48450000Y-174550000D02*
X47550000Y-174550000D01*
X48850000Y-173860000D02*
X48850000Y-174250000D01*
X48850000Y-174250000D02*
X48450000Y-174550000D01*
X49500000Y-171350000D02*
X49500000Y-173860000D01*
X49500000Y-173860000D02*
X46500000Y-173860000D01*
%TO.C,C4*%
X52250000Y-161250000D02*
X52750000Y-161250000D01*
X52250000Y-162250000D02*
X52250000Y-161250000D01*
X52750000Y-161250000D02*
X52750000Y-162250000D01*
X52750000Y-162250000D02*
X52250000Y-162250000D01*
%TO.C,C32*%
X77900000Y-161450000D02*
X78700000Y-161450000D01*
X77900000Y-163050000D02*
X77900000Y-161450000D01*
X78700000Y-161450000D02*
X78700000Y-163050000D01*
X78700000Y-163050000D02*
X77900000Y-163050000D01*
%TO.C,C34*%
X54644000Y-170750000D02*
X55144000Y-170750000D01*
X54644000Y-171750000D02*
X54644000Y-170750000D01*
X55144000Y-170750000D02*
X55144000Y-171750000D01*
X55144000Y-171750000D02*
X54644000Y-171750000D01*
%TO.C,C31*%
X77900000Y-165250000D02*
X78700000Y-165250000D01*
X77900000Y-166850000D02*
X77900000Y-165250000D01*
X78700000Y-165250000D02*
X78700000Y-166850000D01*
X78700000Y-166850000D02*
X77900000Y-166850000D01*
%TO.C,C5*%
X78100000Y-157950000D02*
X79100000Y-157950000D01*
X78100000Y-158450000D02*
X78100000Y-157950000D01*
X79100000Y-157950000D02*
X79100000Y-158450000D01*
X79100000Y-158450000D02*
X78100000Y-158450000D01*
%TO.C,U2*%
X47850000Y-168150000D02*
X47850000Y-169500000D01*
X48200000Y-169850000D02*
X47850000Y-169500000D01*
X48200000Y-169850000D02*
X49150000Y-169850000D01*
X49150000Y-168150000D02*
X47850000Y-168150000D01*
X49150000Y-169850000D02*
X49150000Y-168150000D01*
%TO.C,C36*%
X61500000Y-159750000D02*
X62500000Y-159750000D01*
X61500000Y-160250000D02*
X61500000Y-159750000D01*
X62500000Y-159750000D02*
X62500000Y-160250000D01*
X62500000Y-160250000D02*
X61500000Y-160250000D01*
%TO.C,C17*%
X41300000Y-162800000D02*
X41800000Y-162800000D01*
X41300000Y-163800000D02*
X41300000Y-162800000D01*
X41800000Y-162800000D02*
X41800000Y-163800000D01*
X41800000Y-163800000D02*
X41300000Y-163800000D01*
%TO.C,R11*%
X57730000Y-170745000D02*
X58270000Y-170745000D01*
X57730000Y-171795000D02*
X57730000Y-170745000D01*
X58270000Y-170745000D02*
X58270000Y-171795000D01*
X58270000Y-171795000D02*
X57730000Y-171795000D01*
%TO.C,C2*%
X64250000Y-164500000D02*
X65250000Y-164500000D01*
X64250000Y-165000000D02*
X64250000Y-164500000D01*
X65250000Y-164500000D02*
X65250000Y-165000000D01*
X65250000Y-165000000D02*
X64250000Y-165000000D01*
%TO.C,R17*%
X73225000Y-160230000D02*
X74275000Y-160230000D01*
X73225000Y-160770000D02*
X73225000Y-160230000D01*
X74275000Y-160230000D02*
X74275000Y-160770000D01*
X74275000Y-160770000D02*
X73225000Y-160770000D01*
%TO.C,C3*%
X53250000Y-161250000D02*
X53750000Y-161250000D01*
X53250000Y-162250000D02*
X53250000Y-161250000D01*
X53750000Y-161250000D02*
X53750000Y-162250000D01*
X53750000Y-162250000D02*
X53250000Y-162250000D01*
%TD*%
M02*
